<?xml version="1.0" encoding="utf-8"?>
<!-- Generator: Adobe Illustrator 25.0.0, SVG Export Plug-In . SVG Version: 6.00 Build 0)  -->
<svg version="1.1" xmlns="http://www.w3.org/2000/svg" xmlns:xlink="http://www.w3.org/1999/xlink" x="0px" y="0px"
	 viewBox="0 0 173 105" style="enable-background:new 0 0 173 105;" xml:space="preserve">
<style type="text/css">
	.st0{display:none;}
	.st1{display:inline;fill:#59778E;}
	.st2{fill:#000000;}
	.st3{fill:none;stroke:#000000;stroke-miterlimit:10;}
	.st4{clip-path:url(#SVGID_2_);}
	.st5{clip-path:url(#SVGID_4_);}
	.st6{clip-path:url(#SVGID_8_);}
	.st7{clip-path:url(#SVGID_12_);}
	.st8{clip-path:url(#SVGID_16_);}
	.st9{clip-path:url(#SVGID_20_);}
	.st10{clip-path:url(#SVGID_24_);}
	.st11{clip-path:url(#SVGID_28_);}
	.st12{display:inline;}
	.st13{clip-path:url(#SVGID_31_);}
	.st14{clip-path:url(#SVGID_35_);}
	.st15{clip-path:url(#SVGID_39_);}
	.st16{clip-path:url(#SVGID_43_);}
	.st17{clip-path:url(#SVGID_47_);}
	.st18{clip-path:url(#SVGID_51_);}
	.st19{clip-path:url(#SVGID_55_);}
	.st20{clip-path:url(#SVGID_59_);}
	.st21{clip-path:url(#SVGID_63_);}
	.st22{clip-path:url(#SVGID_67_);}
	.st23{clip-path:url(#SVGID_71_);}
	.st24{clip-path:url(#SVGID_75_);}
	.st25{clip-path:url(#SVGID_79_);}
	.st26{clip-path:url(#SVGID_83_);}
	.st27{clip-path:url(#SVGID_87_);}
	.st28{clip-path:url(#SVGID_91_);}
	.st29{clip-path:url(#SVGID_95_);}
	.st30{clip-path:url(#SVGID_99_);}
	.st31{clip-path:url(#SVGID_103_);}
	.st32{clip-path:url(#SVGID_107_);}
	.st33{clip-path:url(#SVGID_111_);}
	.st34{clip-path:url(#SVGID_115_);}
	.st35{clip-path:url(#SVGID_119_);}
	.st36{clip-path:url(#SVGID_123_);}
	.st37{clip-path:url(#SVGID_127_);}
	.st38{clip-path:url(#SVGID_131_);}
	.st39{clip-path:url(#SVGID_135_);}
	.st40{clip-path:url(#SVGID_139_);}
	.st41{clip-path:url(#SVGID_143_);}
	.st42{clip-path:url(#SVGID_147_);}
	.st43{clip-path:url(#SVGID_151_);}
	.st44{clip-path:url(#SVGID_155_);}
	.st45{clip-path:url(#SVGID_159_);}
	.st46{clip-path:url(#SVGID_163_);}
	.st47{clip-path:url(#SVGID_167_);}
	.st48{clip-path:url(#SVGID_171_);}
	.st49{clip-path:url(#SVGID_175_);}
	.st50{clip-path:url(#SVGID_179_);}
	.st51{clip-path:url(#SVGID_183_);}
	.st52{clip-path:url(#SVGID_187_);}
	.st53{clip-path:url(#SVGID_191_);}
	.st54{clip-path:url(#SVGID_195_);}
	.st55{clip-path:url(#SVGID_199_);}
	.st56{clip-path:url(#SVGID_203_);}
	.st57{clip-path:url(#SVGID_207_);}
	.st58{clip-path:url(#SVGID_211_);}
	.st59{clip-path:url(#SVGID_213_);}
	.st60{clip-path:url(#SVGID_215_);}
	.st61{clip-path:url(#SVGID_217_);}
	.st62{clip-path:url(#SVGID_219_);}
	.st63{clip-path:url(#SVGID_221_);}
	.st64{clip-path:url(#SVGID_223_);}
</style>
<g id="Camada_2" class="st0">
	<rect x="-1911.5" y="-209.5" class="st1" width="2269" height="1089"/>
</g>
<g id="Camada_1">
	<g>
		<path class="st2" d="M123.46,1.07c3.75,2.49,48.55,32.66,48.55,51.21s-44.79,48.72-48.55,51.21H1.44V1.07H123.46 M123.76,0.07
			H0.44V104.5h123.32c0,0,49.25-32.18,49.25-52.21S123.76,0.07,123.76,0.07L123.76,0.07z"/>
	</g>
	<g>
		<defs>
			<path id="SVGID_11_" d="M123.76,104.5H0.44V0.07h123.32c0,0,49.25,32.18,49.25,52.21S123.76,104.5,123.76,104.5z"/>
		</defs>
		<clipPath id="SVGID_2_">
			<use xlink:href="#SVGID_11_"  style="overflow:visible;"/>
		</clipPath>
		<g class="st4">
			<defs>
				<rect id="SVGID_15_" x="-145.04" y="-167.41" width="444.08" height="298.43"/>
			</defs>
			<clipPath id="SVGID_4_">
				<use xlink:href="#SVGID_15_"  style="overflow:visible;"/>
			</clipPath>
			<g class="st5">
				<g>
					<path class="st2" d="M45.15,14.98H9.88c-0.28,0-0.51-0.23-0.51-0.51v-1.68c0-0.28,0.23-0.51,0.51-0.51h35.27
						c0.28,0,0.51,0.23,0.51,0.51v1.68C45.66,14.75,45.43,14.98,45.15,14.98z"/>
				</g>
				<g>
					<path class="st2" d="M62.41,32.81V-5.98c0-0.28,0.23-0.51,0.51-0.51h1.68c0.28,0,0.51,0.23,0.51,0.51v38.79
						c0,0.28-0.23,0.51-0.51,0.51h-1.68C62.63,33.32,62.41,33.09,62.41,32.81z"/>
				</g>
				<g>
					<path class="st2" d="M119.12,14.98H83.84c-0.28,0-0.51-0.23-0.51-0.51v-1.68c0-0.28,0.23-0.51,0.51-0.51h35.27
						c0.28,0,0.51,0.23,0.51,0.51v1.68C119.62,14.75,119.39,14.98,119.12,14.98z"/>
				</g>
				<g>
					<path class="st2" d="M136.37,32.81V-5.98c0-0.28,0.23-0.51,0.51-0.51h1.68c0.28,0,0.51,0.23,0.51,0.51v38.79
						c0,0.28-0.23,0.51-0.51,0.51h-1.68C136.6,33.32,136.37,33.09,136.37,32.81z"/>
				</g>
				<g>
					<path class="st2" d="M193.08,14.98h-35.27c-0.28,0-0.51-0.23-0.51-0.51v-1.68c0-0.28,0.23-0.51,0.51-0.51h35.27
						c0.28,0,0.51,0.23,0.51,0.51v1.68C193.59,14.75,193.36,14.98,193.08,14.98z"/>
				</g>
				<g>
					<path class="st2" d="M8.89,54.78h-35.27c-0.28,0-0.51-0.23-0.51-0.51V52.6c0-0.28,0.23-0.51,0.51-0.51H8.89
						c0.28,0,0.51,0.23,0.51,0.51v1.68C9.39,54.55,9.16,54.78,8.89,54.78z"/>
				</g>
				<g>
					<path class="st2" d="M26.14,72.61V33.82c0-0.28,0.23-0.51,0.51-0.51h1.68c0.28,0,0.51,0.23,0.51,0.51l0,38.79
						c0,0.28-0.23,0.51-0.51,0.51h-1.68C26.37,73.12,26.14,72.89,26.14,72.61z"/>
				</g>
				<g>
					<path class="st2" d="M82.85,54.78H47.58c-0.28,0-0.51-0.23-0.51-0.51V52.6c0-0.28,0.23-0.51,0.51-0.51h35.27
						c0.28,0,0.51,0.23,0.51,0.51v1.68C83.36,54.55,83.13,54.78,82.85,54.78z"/>
				</g>
				<g>
					<path class="st2" d="M100.1,72.61V33.82c0-0.28,0.23-0.51,0.51-0.51h1.68c0.28,0,0.51,0.23,0.51,0.51v38.79
						c0,0.28-0.23,0.51-0.51,0.51h-1.68C100.33,73.12,100.1,72.89,100.1,72.61z"/>
				</g>
				<g>
					<path class="st2" d="M156.81,54.78h-35.27c-0.28,0-0.51-0.23-0.51-0.51V52.6c0-0.28,0.23-0.51,0.51-0.51h35.27
						c0.28,0,0.51,0.23,0.51,0.51v1.68C157.32,54.55,157.09,54.78,156.81,54.78z"/>
				</g>
				<g>
					<path class="st2" d="M45.15,87.2H9.88c-0.28,0-0.51-0.23-0.51-0.51v-1.68c0-0.28,0.23-0.51,0.51-0.51h35.27
						c0.28,0,0.51,0.23,0.51,0.51v1.68C45.66,86.97,45.43,87.2,45.15,87.2z"/>
				</g>
				<g>
					<path class="st2" d="M62.41,105.03V66.24c0-0.28,0.23-0.51,0.51-0.51h1.68c0.28,0,0.51,0.23,0.51,0.51v38.79
						c0,0.28-0.23,0.51-0.51,0.51h-1.68C62.63,105.54,62.41,105.31,62.41,105.03z"/>
				</g>
				<g>
					<path class="st2" d="M119.12,87.2H83.84c-0.28,0-0.51-0.23-0.51-0.51v-1.68c0-0.28,0.23-0.51,0.51-0.51h35.27
						c0.28,0,0.51,0.23,0.51,0.51v1.68C119.62,86.97,119.39,87.2,119.12,87.2z"/>
				</g>
				<g>
					<path class="st2" d="M136.37,105.03V66.24c0-0.28,0.23-0.51,0.51-0.51h1.68c0.28,0,0.51,0.23,0.51,0.51v38.79
						c0,0.28-0.23,0.51-0.51,0.51h-1.68C136.6,105.54,136.37,105.31,136.37,105.03z"/>
				</g>
				<g>
					<path class="st2" d="M193.08,87.2h-35.27c-0.28,0-0.51-0.23-0.51-0.51v-1.68c0-0.28,0.23-0.51,0.51-0.51h35.27
						c0.28,0,0.51,0.23,0.51,0.51v1.68C193.59,86.97,193.36,87.2,193.08,87.2z"/>
				</g>
			</g>
		</g>
	</g>
	<path class="st2" d="M123.76,103.5H77.48l36.43-38.22l-2.72-41.27L127.5,3.5c0,0,45,28.96,45,49S123.76,103.5,123.76,103.5z"/>
</g>
<g id="Camada_3" class="st0">
</g>
</svg>
