<?xml version="1.0" encoding="utf-8"?>
<!-- Generator: Adobe Illustrator 28.0.0, SVG Export Plug-In . SVG Version: 6.00 Build 0)  -->
<svg version="1.1" id="Camada_1" xmlns="http://www.w3.org/2000/svg" xmlns:xlink="http://www.w3.org/1999/xlink" x="0px" y="0px"
	 viewBox="0 0 173 105" style="enable-background:new 0 0 173 105;" xml:space="preserve">
<style type="text/css">
	.st0{display:none;}
	.st1{display:inline;fill:#000000;}
	.st2{fill:#000000;}
	.st3{clip-path:url(#SVGID_00000092433056996042412090000015153734190348672673_);}
</style>
<g id="Camada_2_00000018922413916833733840000010659095730708123031_" class="st0">
	<rect x="-1111.5" y="-209.5" class="st1" width="2269" height="1089"/>
</g>
<g id="Camada_3" class="st0">
</g>
<g id="Camada_1_00000110455537353804861580000003862705391061494691_">
	<g>
		<path class="st2" d="M123.3,1.2c3.8,2.5,48.6,32.7,48.6,51.2s-44.8,48.8-48.6,51.2H1.2V1.2H123.3 M123.6,0.2H0.2v104.5h123.4
			c0,0,49.3-32.2,49.3-52.2S123.6,0.2,123.6,0.2L123.6,0.2z"/>
	</g>
	<g>
		<g>
			<defs>
				<path id="SVGID_1_" d="M123.6,104.8H0.2V0.2h123.4c0,0,49.3,32.2,49.3,52.2S123.6,104.8,123.6,104.8z"/>
			</defs>
			<clipPath id="SVGID_00000078017213862166021850000004531034479466987951_">
				<use xlink:href="#SVGID_1_"  style="overflow:visible;"/>
			</clipPath>
			<g style="clip-path:url(#SVGID_00000078017213862166021850000004531034479466987951_);">
				<g>
					<g>
						<g>
							<path class="st2" d="M41.6,39V0.2c0-0.3,0.2-0.5,0.5-0.5h1.7c0.3,0,0.5,0.2,0.5,0.5V39c0,0.3-0.2,0.5-0.5,0.5h-1.7
								C41.8,39.5,41.6,39.2,41.6,39z"/>
						</g>
						<g>
							<path class="st2" d="M115.6,39V0.2c0-0.3,0.2-0.5,0.5-0.5h1.7c0.3,0,0.5,0.2,0.5,0.5V39c0,0.3-0.2,0.5-0.5,0.5h-1.7
								C115.8,39.5,115.6,39.2,115.6,39z"/>
						</g>
						<g>
							<path class="st2" d="M5.3,78.8V40c0-0.3,0.2-0.5,0.5-0.5h1.7C7.8,39.5,8,39.7,8,40v38.8c0,0.3-0.2,0.5-0.5,0.5H5.8
								C5.6,79.3,5.3,79.1,5.3,78.8z"/>
						</g>
						<g>
							<path class="st2" d="M79.3,78.8V40c0-0.3,0.2-0.5,0.5-0.5h1.7c0.3,0,0.5,0.2,0.5,0.5v38.8c0,0.3-0.2,0.5-0.5,0.5h-1.7
								C79.5,79.3,79.3,79.1,79.3,78.8z"/>
						</g>
						<g>
							<path class="st2" d="M153.3,78.8V40c0-0.3,0.2-0.5,0.5-0.5h1.7c0.3,0,0.5,0.2,0.5,0.5v38.8c0,0.3-0.2,0.5-0.5,0.5h-1.7
								C153.5,79.3,153.3,79.1,153.3,78.8z"/>
						</g>
						<g>
							<path class="st2" d="M41.6,111.2V72.4c0-0.3,0.2-0.5,0.5-0.5h1.7c0.3,0,0.5,0.2,0.5,0.5v38.8c0,0.3-0.2,0.5-0.5,0.5h-1.7
								C41.8,111.7,41.6,111.5,41.6,111.2z"/>
						</g>
						<g>
							<path class="st2" d="M115.6,111.2V72.4c0-0.3,0.2-0.5,0.5-0.5h1.7c0.3,0,0.5,0.2,0.5,0.5v38.8c0,0.3-0.2,0.5-0.5,0.5h-1.7
								C115.8,111.7,115.6,111.5,115.6,111.2z"/>
						</g>
					</g>
				</g>
			</g>
		</g>
	</g>
</g>
</svg>
