<?xml version="1.0" encoding="utf-8"?>
<!-- Generator: Adobe Illustrator 25.0.0, SVG Export Plug-In . SVG Version: 6.00 Build 0)  -->
<svg version="1.1" xmlns="http://www.w3.org/2000/svg" xmlns:xlink="http://www.w3.org/1999/xlink" x="0px" y="0px"
	 viewBox="0 0 173 105" style="enable-background:new 0 0 173 105;" xml:space="preserve">
<style type="text/css">
	.st0{display:none;}
	.st1{display:inline;fill:#59778E;}
	.st2{fill:#000000;}
	.st3{fill:none;stroke:#000000;stroke-miterlimit:10;}
	.st4{clip-path:url(#SVGID_2_);}
	.st5{clip-path:url(#SVGID_4_);}
	.st6{clip-path:url(#SVGID_8_);}
	.st7{clip-path:url(#SVGID_12_);}
	.st8{clip-path:url(#SVGID_16_);}
	.st9{clip-path:url(#SVGID_20_);}
	.st10{clip-path:url(#SVGID_24_);}
	.st11{clip-path:url(#SVGID_28_);}
	.st12{display:inline;}
	.st13{clip-path:url(#SVGID_31_);}
	.st14{clip-path:url(#SVGID_35_);}
	.st15{clip-path:url(#SVGID_39_);}
	.st16{clip-path:url(#SVGID_43_);}
	.st17{clip-path:url(#SVGID_47_);}
	.st18{clip-path:url(#SVGID_51_);}
	.st19{clip-path:url(#SVGID_55_);}
	.st20{clip-path:url(#SVGID_59_);}
	.st21{clip-path:url(#SVGID_63_);}
	.st22{clip-path:url(#SVGID_67_);}
	.st23{clip-path:url(#SVGID_71_);}
	.st24{clip-path:url(#SVGID_75_);}
	.st25{clip-path:url(#SVGID_79_);}
	.st26{clip-path:url(#SVGID_83_);}
	.st27{clip-path:url(#SVGID_87_);}
	.st28{clip-path:url(#SVGID_91_);}
	.st29{clip-path:url(#SVGID_95_);}
	.st30{clip-path:url(#SVGID_99_);}
	.st31{clip-path:url(#SVGID_103_);}
	.st32{clip-path:url(#SVGID_107_);}
	.st33{clip-path:url(#SVGID_111_);}
	.st34{clip-path:url(#SVGID_115_);}
	.st35{clip-path:url(#SVGID_119_);}
	.st36{clip-path:url(#SVGID_123_);}
	.st37{clip-path:url(#SVGID_127_);}
	.st38{clip-path:url(#SVGID_131_);}
	.st39{clip-path:url(#SVGID_135_);}
	.st40{clip-path:url(#SVGID_139_);}
	.st41{clip-path:url(#SVGID_143_);}
	.st42{clip-path:url(#SVGID_147_);}
	.st43{clip-path:url(#SVGID_151_);}
	.st44{clip-path:url(#SVGID_155_);}
	.st45{clip-path:url(#SVGID_159_);}
	.st46{clip-path:url(#SVGID_163_);}
	.st47{clip-path:url(#SVGID_167_);}
	.st48{clip-path:url(#SVGID_171_);}
	.st49{clip-path:url(#SVGID_175_);}
	.st50{clip-path:url(#SVGID_179_);}
	.st51{clip-path:url(#SVGID_183_);}
	.st52{clip-path:url(#SVGID_187_);}
	.st53{clip-path:url(#SVGID_191_);}
	.st54{clip-path:url(#SVGID_195_);}
	.st55{clip-path:url(#SVGID_199_);}
	.st56{clip-path:url(#SVGID_203_);}
	.st57{clip-path:url(#SVGID_207_);}
	.st58{clip-path:url(#SVGID_211_);}
	.st59{clip-path:url(#SVGID_213_);}
	.st60{clip-path:url(#SVGID_215_);}
	.st61{clip-path:url(#SVGID_217_);}
	.st62{clip-path:url(#SVGID_219_);}
	.st63{clip-path:url(#SVGID_221_);}
	.st64{clip-path:url(#SVGID_223_);}
</style>
<g id="Camada_2" class="st0">
	<rect x="-1508" y="-209.5" class="st1" width="2269" height="1089"/>
</g>
<g id="Camada_1">
	<g>
		<path class="st2" d="M123.11,1c3.76,2.5,48.58,32.68,48.58,51.25c0,18.57-44.82,48.75-48.58,51.25H1V1H123.11 M123.41,0H0v104.5
			h123.41c0,0,49.28-32.2,49.28-52.25S123.41,0,123.41,0L123.41,0z"/>
	</g>
	<g>
		<defs>
			<path id="SVGID_27_" d="M123.41,104.5H0V0h123.41c0,0,49.28,32.2,49.28,52.25S123.41,104.5,123.41,104.5z"/>
		</defs>
		<clipPath id="SVGID_2_">
			<use xlink:href="#SVGID_27_"  style="overflow:visible;"/>
		</clipPath>
		<g class="st4">
			<g>
				<g>
					<g>
						<path class="st2" d="M24.19,20.88h-35.28c-0.28,0-0.51-0.23-0.51-0.51V18.7c0-0.28,0.23-0.51,0.51-0.51h35.28
							c0.28,0,0.51,0.23,0.51,0.51v1.68C24.7,20.66,24.47,20.88,24.19,20.88z"/>
					</g>
					<g>
						<path class="st2" d="M41.45,38.72v-38.8c0-0.28,0.23-0.51,0.51-0.51h1.68c0.28,0,0.51,0.23,0.51,0.51v38.8
							c0,0.28-0.23,0.51-0.51,0.51h-1.68C41.67,39.23,41.45,39,41.45,38.72z"/>
					</g>
					<g>
						<path class="st2" d="M98.17,20.88H62.89c-0.28,0-0.51-0.23-0.51-0.51V18.7c0-0.28,0.23-0.51,0.51-0.51h35.28
							c0.28,0,0.51,0.23,0.51,0.51v1.68C98.67,20.66,98.45,20.88,98.17,20.88z"/>
					</g>
					<g>
						<path class="st2" d="M115.42,38.72v-38.8c0-0.28,0.23-0.51,0.51-0.51h1.68c0.28,0,0.51,0.23,0.51,0.51v38.8
							c0,0.28-0.23,0.51-0.51,0.51h-1.68C115.65,39.23,115.42,39,115.42,38.72z"/>
					</g>
					<g>
						<path class="st2" d="M172.14,20.88h-35.28c-0.28,0-0.51-0.23-0.51-0.51V18.7c0-0.28,0.23-0.51,0.51-0.51h35.28
							c0.28,0,0.51,0.23,0.51,0.51v1.68C172.65,20.66,172.42,20.88,172.14,20.88z"/>
					</g>
					<g>
						<path class="st2" d="M207.04,60.69h-35.28c-0.28,0-0.51-0.23-0.51-0.51v-1.68c0-0.28,0.23-0.51,0.51-0.51h35.28
							c0.28,0,0.51,0.23,0.51,0.51v1.68C207.54,60.47,207.32,60.69,207.04,60.69z"/>
					</g>
					<g>
						<path class="st2" d="M5.18,78.53v-38.8c0-0.28,0.23-0.51,0.51-0.51h1.68c0.28,0,0.51,0.23,0.51,0.51v38.8
							c0,0.28-0.23,0.51-0.51,0.51H5.68C5.4,79.04,5.18,78.81,5.18,78.53z"/>
					</g>
					<g>
						<path class="st2" d="M61.9,60.69H26.62c-0.28,0-0.51-0.23-0.51-0.51v-1.68c0-0.28,0.23-0.51,0.51-0.51H61.9
							c0.28,0,0.51,0.23,0.51,0.51v1.68C62.4,60.47,62.18,60.69,61.9,60.69z"/>
					</g>
					<g>
						<path class="st2" d="M79.15,78.53v-38.8c0-0.28,0.23-0.51,0.51-0.51h1.68c0.28,0,0.51,0.23,0.51,0.51l0,38.8
							c0,0.28-0.23,0.51-0.51,0.51h-1.68C79.38,79.04,79.15,78.81,79.15,78.53z"/>
					</g>
					<g>
						<path class="st2" d="M135.87,60.69h-35.28c-0.28,0-0.51-0.23-0.51-0.51v-1.68c0-0.28,0.23-0.51,0.51-0.51h35.28
							c0.28,0,0.51,0.23,0.51,0.51v1.68C136.38,60.47,136.15,60.69,135.87,60.69z"/>
					</g>
					<g>
						<path class="st2" d="M153.13,78.53v-38.8c0-0.28,0.23-0.51,0.51-0.51h1.68c0.28,0,0.51,0.23,0.51,0.51v38.8
							c0,0.28-0.23,0.51-0.51,0.51h-1.68C153.35,79.04,153.13,78.81,153.13,78.53z"/>
					</g>
					<g>
						<path class="st2" d="M24.19,93.12h-35.28c-0.28,0-0.51-0.23-0.51-0.51v-1.68c0-0.28,0.23-0.51,0.51-0.51h35.28
							c0.28,0,0.51,0.23,0.51,0.51v1.68C24.7,92.89,24.47,93.12,24.19,93.12z"/>
					</g>
					<g>
						<path class="st2" d="M41.45,110.95v-38.8c0-0.28,0.23-0.51,0.51-0.51h1.68c0.28,0,0.51,0.23,0.51,0.51v38.8
							c0,0.28-0.23,0.51-0.51,0.51h-1.68C41.67,111.46,41.45,111.23,41.45,110.95z"/>
					</g>
					<g>
						<path class="st2" d="M98.17,93.12H62.89c-0.28,0-0.51-0.23-0.51-0.51v-1.68c0-0.28,0.23-0.51,0.51-0.51h35.28
							c0.28,0,0.51,0.23,0.51,0.51v1.68C98.67,92.89,98.45,93.12,98.17,93.12z"/>
					</g>
					<g>
						<path class="st2" d="M115.42,110.95v-38.8c0-0.28,0.23-0.51,0.51-0.51h1.68c0.28,0,0.51,0.23,0.51,0.51v38.8
							c0,0.28-0.23,0.51-0.51,0.51h-1.68C115.65,111.46,115.42,111.23,115.42,110.95z"/>
					</g>
					<g>
						<path class="st2" d="M172.14,93.12h-35.28c-0.28,0-0.51-0.23-0.51-0.51v-1.68c0-0.28,0.23-0.51,0.51-0.51h35.28
							c0.28,0,0.51,0.23,0.51,0.51v1.68C172.65,92.89,172.42,93.12,172.14,93.12z"/>
					</g>
				</g>
			</g>
		</g>
	</g>
</g>
<g id="Camada_3" class="st0">
</g>
</svg>
