<?xml version="1.0" encoding="utf-8"?>
<!-- Generator: Adobe Illustrator 25.0.0, SVG Export Plug-In . SVG Version: 6.00 Build 0)  -->
<svg version="1.1" xmlns="http://www.w3.org/2000/svg" xmlns:xlink="http://www.w3.org/1999/xlink" x="0px" y="0px"
	 viewBox="0 0 500 335" style="enable-background:new 0 0 500 335;" xml:space="preserve">
<style type="text/css">
	.st0{display:none;}
	.st1{display:inline;fill:#59778E;}
	.st2{fill:#000000;}
	.st3{fill:none;stroke:#000000;stroke-miterlimit:10;}
	.st4{clip-path:url(#SVGID_2_);}
	.st5{clip-path:url(#SVGID_4_);}
	.st6{clip-path:url(#SVGID_8_);}
	.st7{clip-path:url(#SVGID_12_);}
	.st8{clip-path:url(#SVGID_16_);}
	.st9{clip-path:url(#SVGID_20_);}
	.st10{clip-path:url(#SVGID_24_);}
	.st11{clip-path:url(#SVGID_28_);}
	.st12{display:inline;}
	.st13{clip-path:url(#SVGID_31_);}
	.st14{clip-path:url(#SVGID_35_);}
	.st15{clip-path:url(#SVGID_39_);}
	.st16{clip-path:url(#SVGID_43_);}
	.st17{clip-path:url(#SVGID_47_);}
	.st18{clip-path:url(#SVGID_51_);}
	.st19{clip-path:url(#SVGID_55_);}
	.st20{clip-path:url(#SVGID_59_);}
	.st21{clip-path:url(#SVGID_63_);}
	.st22{clip-path:url(#SVGID_67_);}
	.st23{clip-path:url(#SVGID_71_);}
	.st24{clip-path:url(#SVGID_75_);}
	.st25{clip-path:url(#SVGID_79_);}
	.st26{clip-path:url(#SVGID_83_);}
	.st27{clip-path:url(#SVGID_87_);}
	.st28{clip-path:url(#SVGID_91_);}
	.st29{clip-path:url(#SVGID_95_);}
	.st30{clip-path:url(#SVGID_99_);}
	.st31{clip-path:url(#SVGID_103_);}
	.st32{clip-path:url(#SVGID_107_);}
	.st33{clip-path:url(#SVGID_111_);}
	.st34{clip-path:url(#SVGID_115_);}
	.st35{clip-path:url(#SVGID_119_);}
	.st36{clip-path:url(#SVGID_123_);}
	.st37{clip-path:url(#SVGID_127_);}
	.st38{clip-path:url(#SVGID_131_);}
	.st39{clip-path:url(#SVGID_135_);}
	.st40{clip-path:url(#SVGID_139_);}
	.st41{clip-path:url(#SVGID_143_);}
	.st42{clip-path:url(#SVGID_147_);}
	.st43{clip-path:url(#SVGID_151_);}
	.st44{clip-path:url(#SVGID_155_);}
	.st45{clip-path:url(#SVGID_159_);}
	.st46{clip-path:url(#SVGID_163_);}
	.st47{clip-path:url(#SVGID_167_);}
	.st48{clip-path:url(#SVGID_171_);}
	.st49{clip-path:url(#SVGID_175_);}
	.st50{clip-path:url(#SVGID_179_);}
	.st51{clip-path:url(#SVGID_183_);}
	.st52{clip-path:url(#SVGID_187_);}
	.st53{clip-path:url(#SVGID_191_);}
	.st54{clip-path:url(#SVGID_195_);}
	.st55{clip-path:url(#SVGID_199_);}
	.st56{clip-path:url(#SVGID_203_);}
	.st57{clip-path:url(#SVGID_207_);}
	.st58{clip-path:url(#SVGID_211_);}
	.st59{clip-path:url(#SVGID_213_);}
	.st60{clip-path:url(#SVGID_215_);}
	.st61{clip-path:url(#SVGID_217_);}
	.st62{clip-path:url(#SVGID_219_);}
	.st63{clip-path:url(#SVGID_221_);}
	.st64{clip-path:url(#SVGID_223_);}
</style>
<g id="Camada_2" class="st0">
	<rect x="-228" y="-209.5" class="st1" width="2269" height="1089"/>
</g>
<g id="Camada_1">
	<g>
		<path class="st2" d="M498.5,1.09V334H1V1.09H498.5 M499.5,0.09H0V335h499.5V0.09L499.5,0.09z"/>
	</g>
	<g>
		<path class="st2" d="M409.32,182.88c4.01,2.66,54.78,36.8,54.78,57.82s-50.77,55.16-54.78,57.82H271.69V182.88H409.32
			 M409.62,181.88H270.69v117.64h138.93c0,0,55.48-36.25,55.48-58.82S409.62,181.88,409.62,181.88L409.62,181.88z"/>
	</g>
	<g>
		<defs>
			<path id="SVGID_19_" d="M0.48,0.09V335H499.5V0.09H0.48z M409.62,299.52H270.69V181.88h138.93c0,0,55.48,36.25,55.48,58.82
				S409.62,299.52,409.62,299.52z"/>
		</defs>
		<clipPath id="SVGID_2_">
			<use xlink:href="#SVGID_19_"  style="overflow:visible;"/>
		</clipPath>
		<g class="st4">
			<g>
				<path class="st2" d="M47.65,33.5H7.81C7.53,33.5,7.3,33.28,7.3,33v-2.01c0-0.28,0.23-0.51,0.51-0.51h39.84
					c0.28,0,0.51,0.23,0.51,0.51V33C48.16,33.28,47.93,33.5,47.65,33.5z"/>
			</g>
			<g>
				<path class="st2" d="M67.01,53.65V9.84c0-0.28,0.23-0.51,0.51-0.51h2.01c0.28,0,0.51,0.23,0.51,0.51v43.8
					c0,0.28-0.23,0.51-0.51,0.51h-2.01C67.24,54.15,67.01,53.93,67.01,53.65z"/>
			</g>
			<g>
				<path class="st2" d="M130.93,33.5H91.09c-0.28,0-0.51-0.23-0.51-0.51v-2.01c0-0.28,0.23-0.51,0.51-0.51h39.84
					c0.28,0,0.51,0.23,0.51,0.51V33C131.44,33.28,131.21,33.5,130.93,33.5z"/>
			</g>
			<g>
				<path class="st2" d="M150.29,53.65V9.84c0-0.28,0.23-0.51,0.51-0.51h2.01c0.28,0,0.51,0.23,0.51,0.51v43.8
					c0,0.28-0.23,0.51-0.51,0.51h-2.01C150.52,54.15,150.29,53.93,150.29,53.65z"/>
			</g>
			<g>
				<path class="st2" d="M214.21,33.5h-39.84c-0.28,0-0.51-0.23-0.51-0.51v-2.01c0-0.28,0.23-0.51,0.51-0.51h39.84
					c0.28,0,0.51,0.23,0.51,0.51V33C214.71,33.28,214.49,33.5,214.21,33.5z"/>
			</g>
			<g>
				<path class="st2" d="M233.57,53.65V9.84c0-0.28,0.23-0.51,0.51-0.51h2.01c0.28,0,0.51,0.23,0.51,0.51v43.8
					c0,0.28-0.23,0.51-0.51,0.51h-2.01C233.8,54.15,233.57,53.93,233.57,53.65z"/>
			</g>
			<g>
				<path class="st2" d="M297.48,33.5h-39.84c-0.28,0-0.51-0.23-0.51-0.51v-2.01c0-0.28,0.23-0.51,0.51-0.51h39.84
					c0.28,0,0.51,0.23,0.51,0.51V33C297.99,33.28,297.76,33.5,297.48,33.5z"/>
			</g>
			<g>
				<path class="st2" d="M316.85,53.65V9.84c0-0.28,0.23-0.51,0.51-0.51h2.01c0.28,0,0.51,0.23,0.51,0.51v43.8
					c0,0.28-0.23,0.51-0.51,0.51h-2.01C317.07,54.15,316.85,53.93,316.85,53.65z"/>
			</g>
			<g>
				<path class="st2" d="M380.76,33.5h-39.84c-0.28,0-0.51-0.23-0.51-0.51v-2.01c0-0.28,0.23-0.51,0.51-0.51h39.84
					c0.28,0,0.51,0.23,0.51,0.51V33C381.27,33.28,381.04,33.5,380.76,33.5z"/>
			</g>
			<g>
				<path class="st2" d="M400.13,53.65V9.84c0-0.28,0.23-0.51,0.51-0.51h2.01c0.28,0,0.51,0.23,0.51,0.51v43.8
					c0,0.28-0.23,0.51-0.51,0.51h-2.01C400.35,54.15,400.13,53.93,400.13,53.65z"/>
			</g>
			<g>
				<path class="st2" d="M464.04,33.5H424.2c-0.28,0-0.51-0.23-0.51-0.51v-2.01c0-0.28,0.23-0.51,0.51-0.51h39.84
					c0.28,0,0.51,0.23,0.51,0.51V33C464.55,33.28,464.32,33.5,464.04,33.5z"/>
			</g>
			<g>
				<path class="st2" d="M483.4,53.65V9.84c0-0.28,0.23-0.51,0.51-0.51h2.01c0.28,0,0.51,0.23,0.51,0.51v43.8
					c0,0.28-0.23,0.51-0.51,0.51h-2.01C483.63,54.15,483.4,53.93,483.4,53.65z"/>
			</g>
			<g>
				<path class="st2" d="M26.18,8.83v-43.8c0-0.28,0.23-0.51,0.51-0.51h2.01c0.28,0,0.51,0.23,0.51,0.51v43.8
					c0,0.28-0.23,0.51-0.51,0.51h-2.01C26.41,9.34,26.18,9.11,26.18,8.83z"/>
			</g>
			<g>
				<path class="st2" d="M109.46,8.83v-43.8c0-0.28,0.23-0.51,0.51-0.51h2.01c0.28,0,0.51,0.23,0.51,0.51v43.8
					c0,0.28-0.23,0.51-0.51,0.51h-2.01C109.69,9.34,109.46,9.11,109.46,8.83z"/>
			</g>
			<g>
				<path class="st2" d="M192.74,8.83v-43.8c0-0.28,0.23-0.51,0.51-0.51h2.01c0.28,0,0.51,0.23,0.51,0.51l0,43.8
					c0,0.28-0.23,0.51-0.51,0.51h-2.01C192.96,9.34,192.74,9.11,192.74,8.83z"/>
			</g>
			<g>
				<path class="st2" d="M276.02,8.83v-43.8c0-0.28,0.23-0.51,0.51-0.51h2.01c0.28,0,0.51,0.23,0.51,0.51v43.8
					c0,0.28-0.23,0.51-0.51,0.51h-2.01C276.24,9.34,276.02,9.11,276.02,8.83z"/>
			</g>
			<g>
				<path class="st2" d="M359.29,8.83v-43.8c0-0.28,0.23-0.51,0.51-0.51h2.01c0.28,0,0.51,0.23,0.51,0.51v43.8
					c0,0.28-0.23,0.51-0.51,0.51h-2.01C359.52,9.34,359.29,9.11,359.29,8.83z"/>
			</g>
			<g>
				<path class="st2" d="M442.57,8.83v-43.8c0-0.28,0.23-0.51,0.51-0.51h2.01c0.28,0,0.51,0.23,0.51,0.51v43.8
					c0,0.28-0.23,0.51-0.51,0.51h-2.01C442.8,9.34,442.57,9.11,442.57,8.83z"/>
			</g>
			<g>
				<path class="st2" d="M6.82,78.32h-39.84c-0.28,0-0.51-0.23-0.51-0.51V75.8c0-0.28,0.23-0.51,0.51-0.51H6.82
					c0.28,0,0.51,0.23,0.51,0.51v2.01C7.33,78.09,7.1,78.32,6.82,78.32z"/>
			</g>
			<g>
				<path class="st2" d="M503.32,78.32h-39.84c-0.28,0-0.51-0.23-0.51-0.51V75.8c0-0.28,0.23-0.51,0.51-0.51h39.84
					c0.28,0,0.51,0.23,0.51,0.51v2.01C503.83,78.09,503.6,78.32,503.32,78.32z"/>
			</g>
			<g>
				<path class="st2" d="M26.18,98.47v-43.8c0-0.28,0.23-0.51,0.51-0.51h2.01c0.28,0,0.51,0.23,0.51,0.51v43.8
					c0,0.28-0.23,0.51-0.51,0.51h-2.01C26.41,98.97,26.18,98.74,26.18,98.47z"/>
			</g>
			<g>
				<path class="st2" d="M90.1,78.32H50.26c-0.28,0-0.51-0.23-0.51-0.51V75.8c0-0.28,0.23-0.51,0.51-0.51H90.1
					c0.28,0,0.51,0.23,0.51,0.51v2.01C90.6,78.09,90.38,78.32,90.1,78.32z"/>
			</g>
			<g>
				<path class="st2" d="M109.46,98.47v-43.8c0-0.28,0.23-0.51,0.51-0.51h2.01c0.28,0,0.51,0.23,0.51,0.51v43.8
					c0,0.28-0.23,0.51-0.51,0.51h-2.01C109.69,98.97,109.46,98.74,109.46,98.47z"/>
			</g>
			<g>
				<path class="st2" d="M173.38,78.32h-39.84c-0.28,0-0.51-0.23-0.51-0.51V75.8c0-0.28,0.23-0.51,0.51-0.51h39.84
					c0.28,0,0.51,0.23,0.51,0.51v2.01C173.88,78.09,173.65,78.32,173.38,78.32z"/>
			</g>
			<g>
				<path class="st2" d="M192.74,98.47v-43.8c0-0.28,0.23-0.51,0.51-0.51h2.01c0.28,0,0.51,0.23,0.51,0.51l0,43.8
					c0,0.28-0.23,0.51-0.51,0.51h-2.01C192.96,98.97,192.74,98.74,192.74,98.47z"/>
			</g>
			<g>
				<path class="st2" d="M256.65,78.32h-39.84c-0.28,0-0.51-0.23-0.51-0.51V75.8c0-0.28,0.23-0.51,0.51-0.51h39.84
					c0.28,0,0.51,0.23,0.51,0.51v2.01C257.16,78.09,256.93,78.32,256.65,78.32z"/>
			</g>
			<g>
				<path class="st2" d="M276.02,98.47v-43.8c0-0.28,0.23-0.51,0.51-0.51h2.01c0.28,0,0.51,0.23,0.51,0.51v43.8
					c0,0.28-0.23,0.51-0.51,0.51h-2.01C276.24,98.97,276.02,98.74,276.02,98.47z"/>
			</g>
			<g>
				<path class="st2" d="M339.93,78.32h-39.84c-0.28,0-0.51-0.23-0.51-0.51V75.8c0-0.28,0.23-0.51,0.51-0.51h39.84
					c0.28,0,0.51,0.23,0.51,0.51v2.01C340.44,78.09,340.21,78.32,339.93,78.32z"/>
			</g>
			<g>
				<path class="st2" d="M359.29,98.47v-43.8c0-0.28,0.23-0.51,0.51-0.51h2.01c0.28,0,0.51,0.23,0.51,0.51v43.8
					c0,0.28-0.23,0.51-0.51,0.51h-2.01C359.52,98.97,359.29,98.74,359.29,98.47z"/>
			</g>
			<g>
				<path class="st2" d="M423.21,78.32h-39.84c-0.28,0-0.51-0.23-0.51-0.51V75.8c0-0.28,0.23-0.51,0.51-0.51h39.84
					c0.28,0,0.51,0.23,0.51,0.51v2.01C423.71,78.09,423.49,78.32,423.21,78.32z"/>
			</g>
			<g>
				<path class="st2" d="M442.57,98.47v-43.8c0-0.28,0.23-0.51,0.51-0.51h2.01c0.28,0,0.51,0.23,0.51,0.51v43.8
					c0,0.28-0.23,0.51-0.51,0.51h-2.01C442.8,98.97,442.57,98.74,442.57,98.47z"/>
			</g>
			<g>
				<path class="st2" d="M47.65,205.44H7.81c-0.28,0-0.51-0.23-0.51-0.51v-2.01c0-0.28,0.23-0.51,0.51-0.51h39.84
					c0.28,0,0.51,0.23,0.51,0.51v2.01C48.16,205.21,47.93,205.44,47.65,205.44z"/>
			</g>
			<g>
				<path class="st2" d="M67.01,225.58v-43.8c0-0.28,0.23-0.51,0.51-0.51h2.01c0.28,0,0.51,0.23,0.51,0.51v43.8
					c0,0.28-0.23,0.51-0.51,0.51h-2.01C67.24,226.09,67.01,225.86,67.01,225.58z"/>
			</g>
			<g>
				<path class="st2" d="M130.93,205.44H91.09c-0.28,0-0.51-0.23-0.51-0.51v-2.01c0-0.28,0.23-0.51,0.51-0.51h39.84
					c0.28,0,0.51,0.23,0.51,0.51v2.01C131.44,205.21,131.21,205.44,130.93,205.44z"/>
			</g>
			<g>
				<path class="st2" d="M150.29,225.58v-43.8c0-0.28,0.23-0.51,0.51-0.51h2.01c0.28,0,0.51,0.23,0.51,0.51v43.8
					c0,0.28-0.23,0.51-0.51,0.51h-2.01C150.52,226.09,150.29,225.86,150.29,225.58z"/>
			</g>
			<g>
				<path class="st2" d="M214.21,205.44h-39.84c-0.28,0-0.51-0.23-0.51-0.51v-2.01c0-0.28,0.23-0.51,0.51-0.51h39.84
					c0.28,0,0.51,0.23,0.51,0.51v2.01C214.71,205.21,214.49,205.44,214.21,205.44z"/>
			</g>
			<g>
				<path class="st2" d="M233.57,225.58v-43.8c0-0.28,0.23-0.51,0.51-0.51h2.01c0.28,0,0.51,0.23,0.51,0.51v43.8
					c0,0.28-0.23,0.51-0.51,0.51h-2.01C233.8,226.09,233.57,225.86,233.57,225.58z"/>
			</g>
			<g>
				<path class="st2" d="M297.48,205.44h-39.84c-0.28,0-0.51-0.23-0.51-0.51v-2.01c0-0.28,0.23-0.51,0.51-0.51h39.84
					c0.28,0,0.51,0.23,0.51,0.51v2.01C297.99,205.21,297.76,205.44,297.48,205.44z"/>
			</g>
			<g>
				<path class="st2" d="M316.85,225.58v-43.8c0-0.28,0.23-0.51,0.51-0.51h2.01c0.28,0,0.51,0.23,0.51,0.51v43.8
					c0,0.28-0.23,0.51-0.51,0.51h-2.01C317.07,226.09,316.85,225.86,316.85,225.58z"/>
			</g>
			<g>
				<path class="st2" d="M380.76,205.44h-39.84c-0.28,0-0.51-0.23-0.51-0.51v-2.01c0-0.28,0.23-0.51,0.51-0.51h39.84
					c0.28,0,0.51,0.23,0.51,0.51v2.01C381.27,205.21,381.04,205.44,380.76,205.44z"/>
			</g>
			<g>
				<path class="st2" d="M400.13,225.58v-43.8c0-0.28,0.23-0.51,0.51-0.51h2.01c0.28,0,0.51,0.23,0.51,0.51v43.8
					c0,0.28-0.23,0.51-0.51,0.51h-2.01C400.35,226.09,400.13,225.86,400.13,225.58z"/>
			</g>
			<g>
				<path class="st2" d="M464.04,205.44H424.2c-0.28,0-0.51-0.23-0.51-0.51v-2.01c0-0.28,0.23-0.51,0.51-0.51h39.84
					c0.28,0,0.51,0.23,0.51,0.51v2.01C464.55,205.21,464.32,205.44,464.04,205.44z"/>
			</g>
			<g>
				<path class="st2" d="M483.4,225.58v-43.8c0-0.28,0.23-0.51,0.51-0.51h2.01c0.28,0,0.51,0.23,0.51,0.51v43.8
					c0,0.28-0.23,0.51-0.51,0.51h-2.01C483.63,226.09,483.4,225.86,483.4,225.58z"/>
			</g>
			<g>
				<path class="st2" d="M6.82,160.62h-39.84c-0.28,0-0.51-0.23-0.51-0.51v-2.01c0-0.28,0.23-0.51,0.51-0.51H6.82
					c0.28,0,0.51,0.23,0.51,0.51v2.01C7.33,160.39,7.1,160.62,6.82,160.62z"/>
			</g>
			<g>
				<path class="st2" d="M26.18,180.77v-43.8c0-0.28,0.23-0.51,0.51-0.51h2.01c0.28,0,0.51,0.23,0.51,0.51v43.8
					c0,0.28-0.23,0.51-0.51,0.51h-2.01C26.41,181.27,26.18,181.05,26.18,180.77z"/>
			</g>
			<g>
				<path class="st2" d="M90.1,160.62H50.26c-0.28,0-0.51-0.23-0.51-0.51v-2.01c0-0.28,0.23-0.51,0.51-0.51H90.1
					c0.28,0,0.51,0.23,0.51,0.51v2.01C90.6,160.39,90.38,160.62,90.1,160.62z"/>
			</g>
			<g>
				<path class="st2" d="M109.46,180.77v-43.8c0-0.28,0.23-0.51,0.51-0.51h2.01c0.28,0,0.51,0.23,0.51,0.51v43.8
					c0,0.28-0.23,0.51-0.51,0.51h-2.01C109.69,181.27,109.46,181.05,109.46,180.77z"/>
			</g>
			<g>
				<path class="st2" d="M173.38,160.62h-39.84c-0.28,0-0.51-0.23-0.51-0.51v-2.01c0-0.28,0.23-0.51,0.51-0.51h39.84
					c0.28,0,0.51,0.23,0.51,0.51v2.01C173.88,160.39,173.65,160.62,173.38,160.62z"/>
			</g>
			<g>
				<path class="st2" d="M192.74,180.77v-43.8c0-0.28,0.23-0.51,0.51-0.51h2.01c0.28,0,0.51,0.23,0.51,0.51l0,43.8
					c0,0.28-0.23,0.51-0.51,0.51h-2.01C192.96,181.27,192.74,181.05,192.74,180.77z"/>
			</g>
			<g>
				<path class="st2" d="M256.65,160.62h-39.84c-0.28,0-0.51-0.23-0.51-0.51v-2.01c0-0.28,0.23-0.51,0.51-0.51h39.84
					c0.28,0,0.51,0.23,0.51,0.51v2.01C257.16,160.39,256.93,160.62,256.65,160.62z"/>
			</g>
			<g>
				<path class="st2" d="M276.02,180.77v-43.8c0-0.28,0.23-0.51,0.51-0.51h2.01c0.28,0,0.51,0.23,0.51,0.51v43.8
					c0,0.28-0.23,0.51-0.51,0.51h-2.01C276.24,181.27,276.02,181.05,276.02,180.77z"/>
			</g>
			<g>
				<path class="st2" d="M339.93,160.62h-39.84c-0.28,0-0.51-0.23-0.51-0.51v-2.01c0-0.28,0.23-0.51,0.51-0.51h39.84
					c0.28,0,0.51,0.23,0.51,0.51v2.01C340.44,160.39,340.21,160.62,339.93,160.62z"/>
			</g>
			<g>
				<path class="st2" d="M359.29,180.77v-43.8c0-0.28,0.23-0.51,0.51-0.51h2.01c0.28,0,0.51,0.23,0.51,0.51v43.8
					c0,0.28-0.23,0.51-0.51,0.51h-2.01C359.52,181.27,359.29,181.05,359.29,180.77z"/>
			</g>
			<g>
				<path class="st2" d="M423.21,160.62h-39.84c-0.28,0-0.51-0.23-0.51-0.51v-2.01c0-0.28,0.23-0.51,0.51-0.51h39.84
					c0.28,0,0.51,0.23,0.51,0.51v2.01C423.71,160.39,423.49,160.62,423.21,160.62z"/>
			</g>
			<g>
				<path class="st2" d="M442.57,180.77v-43.8c0-0.28,0.23-0.51,0.51-0.51h2.01c0.28,0,0.51,0.23,0.51,0.51v43.8
					c0,0.28-0.23,0.51-0.51,0.51h-2.01C442.8,181.27,442.57,181.05,442.57,180.77z"/>
			</g>
			<g>
				<path class="st2" d="M6.82,250.25h-39.84c-0.28,0-0.51-0.23-0.51-0.51v-2.01c0-0.28,0.23-0.51,0.51-0.51H6.82
					c0.28,0,0.51,0.23,0.51,0.51v2.01C7.33,250.03,7.1,250.25,6.82,250.25z"/>
			</g>
			<g>
				<path class="st2" d="M503.32,250.25h-39.84c-0.28,0-0.51-0.23-0.51-0.51v-2.01c0-0.28,0.23-0.51,0.51-0.51h39.84
					c0.28,0,0.51,0.23,0.51,0.51v2.01C503.83,250.03,503.6,250.25,503.32,250.25z"/>
			</g>
			<g>
				<path class="st2" d="M26.18,270.4v-43.8c0-0.28,0.23-0.51,0.51-0.51h2.01c0.28,0,0.51,0.23,0.51,0.51v43.8
					c0,0.28-0.23,0.51-0.51,0.51h-2.01C26.41,270.9,26.18,270.68,26.18,270.4z"/>
			</g>
			<g>
				<path class="st2" d="M90.1,250.25H50.26c-0.28,0-0.51-0.23-0.51-0.51v-2.01c0-0.28,0.23-0.51,0.51-0.51H90.1
					c0.28,0,0.51,0.23,0.51,0.51v2.01C90.6,250.03,90.38,250.25,90.1,250.25z"/>
			</g>
			<g>
				<path class="st2" d="M109.46,270.4v-43.8c0-0.28,0.23-0.51,0.51-0.51h2.01c0.28,0,0.51,0.23,0.51,0.51v43.8
					c0,0.28-0.23,0.51-0.51,0.51h-2.01C109.69,270.9,109.46,270.68,109.46,270.4z"/>
			</g>
			<g>
				<path class="st2" d="M173.38,250.25h-39.84c-0.28,0-0.51-0.23-0.51-0.51v-2.01c0-0.28,0.23-0.51,0.51-0.51h39.84
					c0.28,0,0.51,0.23,0.51,0.51v2.01C173.88,250.03,173.65,250.25,173.38,250.25z"/>
			</g>
			<g>
				<path class="st2" d="M192.74,270.4v-43.8c0-0.28,0.23-0.51,0.51-0.51h2.01c0.28,0,0.51,0.23,0.51,0.51l0,43.8
					c0,0.28-0.23,0.51-0.51,0.51h-2.01C192.96,270.9,192.74,270.68,192.74,270.4z"/>
			</g>
			<g>
				<path class="st2" d="M256.65,250.25h-39.84c-0.28,0-0.51-0.23-0.51-0.51v-2.01c0-0.28,0.23-0.51,0.51-0.51h39.84
					c0.28,0,0.51,0.23,0.51,0.51v2.01C257.16,250.03,256.93,250.25,256.65,250.25z"/>
			</g>
			<g>
				<path class="st2" d="M276.02,270.4v-43.8c0-0.28,0.23-0.51,0.51-0.51h2.01c0.28,0,0.51,0.23,0.51,0.51v43.8
					c0,0.28-0.23,0.51-0.51,0.51h-2.01C276.24,270.9,276.02,270.68,276.02,270.4z"/>
			</g>
			<g>
				<path class="st2" d="M339.93,250.25h-39.84c-0.28,0-0.51-0.23-0.51-0.51v-2.01c0-0.28,0.23-0.51,0.51-0.51h39.84
					c0.28,0,0.51,0.23,0.51,0.51v2.01C340.44,250.03,340.21,250.25,339.93,250.25z"/>
			</g>
			<g>
				<path class="st2" d="M359.29,270.4v-43.8c0-0.28,0.23-0.51,0.51-0.51h2.01c0.28,0,0.51,0.23,0.51,0.51v43.8
					c0,0.28-0.23,0.51-0.51,0.51h-2.01C359.52,270.9,359.29,270.68,359.29,270.4z"/>
			</g>
			<g>
				<path class="st2" d="M423.21,250.25h-39.84c-0.28,0-0.51-0.23-0.51-0.51v-2.01c0-0.28,0.23-0.51,0.51-0.51h39.84
					c0.28,0,0.51,0.23,0.51,0.51v2.01C423.71,250.03,423.49,250.25,423.21,250.25z"/>
			</g>
			<g>
				<path class="st2" d="M442.57,270.4v-43.8c0-0.28,0.23-0.51,0.51-0.51h2.01c0.28,0,0.51,0.23,0.51,0.51v43.8
					c0,0.28-0.23,0.51-0.51,0.51h-2.01C442.8,270.9,442.57,270.68,442.57,270.4z"/>
			</g>
			<g>
				<path class="st2" d="M47.65,286.75H7.81c-0.28,0-0.51-0.23-0.51-0.51v-2.01c0-0.28,0.23-0.51,0.51-0.51h39.84
					c0.28,0,0.51,0.23,0.51,0.51v2.01C48.16,286.53,47.93,286.75,47.65,286.75z"/>
			</g>
			<g>
				<path class="st2" d="M67.01,306.9v-43.8c0-0.28,0.23-0.51,0.51-0.51h2.01c0.28,0,0.51,0.23,0.51,0.51v43.8
					c0,0.28-0.23,0.51-0.51,0.51h-2.01C67.24,307.4,67.01,307.18,67.01,306.9z"/>
			</g>
			<g>
				<path class="st2" d="M130.93,286.75H91.09c-0.28,0-0.51-0.23-0.51-0.51v-2.01c0-0.28,0.23-0.51,0.51-0.51h39.84
					c0.28,0,0.51,0.23,0.51,0.51v2.01C131.44,286.53,131.21,286.75,130.93,286.75z"/>
			</g>
			<g>
				<path class="st2" d="M150.29,306.9v-43.8c0-0.28,0.23-0.51,0.51-0.51h2.01c0.28,0,0.51,0.23,0.51,0.51v43.8
					c0,0.28-0.23,0.51-0.51,0.51h-2.01C150.52,307.4,150.29,307.18,150.29,306.9z"/>
			</g>
			<g>
				<path class="st2" d="M214.21,286.75h-39.84c-0.28,0-0.51-0.23-0.51-0.51v-2.01c0-0.28,0.23-0.51,0.51-0.51h39.84
					c0.28,0,0.51,0.23,0.51,0.51v2.01C214.71,286.53,214.49,286.75,214.21,286.75z"/>
			</g>
			<g>
				<path class="st2" d="M233.57,306.9v-43.8c0-0.28,0.23-0.51,0.51-0.51h2.01c0.28,0,0.51,0.23,0.51,0.51v43.8
					c0,0.28-0.23,0.51-0.51,0.51h-2.01C233.8,307.4,233.57,307.18,233.57,306.9z"/>
			</g>
			<g>
				<path class="st2" d="M297.48,286.75h-39.84c-0.28,0-0.51-0.23-0.51-0.51v-2.01c0-0.28,0.23-0.51,0.51-0.51h39.84
					c0.28,0,0.51,0.23,0.51,0.51v2.01C297.99,286.53,297.76,286.75,297.48,286.75z"/>
			</g>
			<g>
				<path class="st2" d="M316.85,306.9v-43.8c0-0.28,0.23-0.51,0.51-0.51h2.01c0.28,0,0.51,0.23,0.51,0.51v43.8
					c0,0.28-0.23,0.51-0.51,0.51h-2.01C317.07,307.4,316.85,307.18,316.85,306.9z"/>
			</g>
			<g>
				<path class="st2" d="M380.76,286.75h-39.84c-0.28,0-0.51-0.23-0.51-0.51v-2.01c0-0.28,0.23-0.51,0.51-0.51h39.84
					c0.28,0,0.51,0.23,0.51,0.51v2.01C381.27,286.53,381.04,286.75,380.76,286.75z"/>
			</g>
			<g>
				<path class="st2" d="M400.13,306.9v-43.8c0-0.28,0.23-0.51,0.51-0.51h2.01c0.28,0,0.51,0.23,0.51,0.51v43.8
					c0,0.28-0.23,0.51-0.51,0.51h-2.01C400.35,307.4,400.13,307.18,400.13,306.9z"/>
			</g>
			<g>
				<path class="st2" d="M464.04,286.75H424.2c-0.28,0-0.51-0.23-0.51-0.51v-2.01c0-0.28,0.23-0.51,0.51-0.51h39.84
					c0.28,0,0.51,0.23,0.51,0.51v2.01C464.55,286.53,464.32,286.75,464.04,286.75z"/>
			</g>
			<g>
				<path class="st2" d="M483.4,306.9v-43.8c0-0.28,0.23-0.51,0.51-0.51h2.01c0.28,0,0.51,0.23,0.51,0.51v43.8
					c0,0.28-0.23,0.51-0.51,0.51h-2.01C483.63,307.4,483.4,307.18,483.4,306.9z"/>
			</g>
			<g>
				<path class="st2" d="M6.82,331.57h-39.84c-0.28,0-0.51-0.23-0.51-0.51v-2.01c0-0.28,0.23-0.51,0.51-0.51H6.82
					c0.28,0,0.51,0.23,0.51,0.51v2.01C7.33,331.34,7.1,331.57,6.82,331.57z"/>
			</g>
			<g>
				<path class="st2" d="M503.32,331.57h-39.84c-0.28,0-0.51-0.23-0.51-0.51v-2.01c0-0.28,0.23-0.51,0.51-0.51h39.84
					c0.28,0,0.51,0.23,0.51,0.51v2.01C503.83,331.34,503.6,331.57,503.32,331.57z"/>
			</g>
			<g>
				<path class="st2" d="M26.18,351.71v-43.8c0-0.28,0.23-0.51,0.51-0.51h2.01c0.28,0,0.51,0.23,0.51,0.51v43.8
					c0,0.28-0.23,0.51-0.51,0.51h-2.01C26.41,352.22,26.18,351.99,26.18,351.71z"/>
			</g>
			<g>
				<path class="st2" d="M90.1,331.57H50.26c-0.28,0-0.51-0.23-0.51-0.51v-2.01c0-0.28,0.23-0.51,0.51-0.51H90.1
					c0.28,0,0.51,0.23,0.51,0.51v2.01C90.6,331.34,90.38,331.57,90.1,331.57z"/>
			</g>
			<g>
				<path class="st2" d="M109.46,351.71v-43.8c0-0.28,0.23-0.51,0.51-0.51h2.01c0.28,0,0.51,0.23,0.51,0.51v43.8
					c0,0.28-0.23,0.51-0.51,0.51h-2.01C109.69,352.22,109.46,351.99,109.46,351.71z"/>
			</g>
			<g>
				<path class="st2" d="M173.38,331.57h-39.84c-0.28,0-0.51-0.23-0.51-0.51v-2.01c0-0.28,0.23-0.51,0.51-0.51h39.84
					c0.28,0,0.51,0.23,0.51,0.51v2.01C173.88,331.34,173.65,331.57,173.38,331.57z"/>
			</g>
			<g>
				<path class="st2" d="M192.74,351.71v-43.8c0-0.28,0.23-0.51,0.51-0.51h2.01c0.28,0,0.51,0.23,0.51,0.51l0,43.8
					c0,0.28-0.23,0.51-0.51,0.51h-2.01C192.96,352.22,192.74,351.99,192.74,351.71z"/>
			</g>
			<g>
				<path class="st2" d="M256.65,331.57h-39.84c-0.28,0-0.51-0.23-0.51-0.51v-2.01c0-0.28,0.23-0.51,0.51-0.51h39.84
					c0.28,0,0.51,0.23,0.51,0.51v2.01C257.16,331.34,256.93,331.57,256.65,331.57z"/>
			</g>
			<g>
				<path class="st2" d="M276.02,351.71v-43.8c0-0.28,0.23-0.51,0.51-0.51h2.01c0.28,0,0.51,0.23,0.51,0.51v43.8
					c0,0.28-0.23,0.51-0.51,0.51h-2.01C276.24,352.22,276.02,351.99,276.02,351.71z"/>
			</g>
			<g>
				<path class="st2" d="M339.93,331.57h-39.84c-0.28,0-0.51-0.23-0.51-0.51v-2.01c0-0.28,0.23-0.51,0.51-0.51h39.84
					c0.28,0,0.51,0.23,0.51,0.51v2.01C340.44,331.34,340.21,331.57,339.93,331.57z"/>
			</g>
			<g>
				<path class="st2" d="M359.29,351.71v-43.8c0-0.28,0.23-0.51,0.51-0.51h2.01c0.28,0,0.51,0.23,0.51,0.51v43.8
					c0,0.28-0.23,0.51-0.51,0.51h-2.01C359.52,352.22,359.29,351.99,359.29,351.71z"/>
			</g>
			<g>
				<path class="st2" d="M423.21,331.57h-39.84c-0.28,0-0.51-0.23-0.51-0.51v-2.01c0-0.28,0.23-0.51,0.51-0.51h39.84
					c0.28,0,0.51,0.23,0.51,0.51v2.01C423.71,331.34,423.49,331.57,423.21,331.57z"/>
			</g>
			<g>
				<path class="st2" d="M442.57,351.71v-43.8c0-0.28,0.23-0.51,0.51-0.51h2.01c0.28,0,0.51,0.23,0.51,0.51v43.8
					c0,0.28-0.23,0.51-0.51,0.51h-2.01C442.8,352.22,442.57,351.99,442.57,351.71z"/>
			</g>
			<g>
				<path class="st2" d="M47.65,118.7H7.81c-0.28,0-0.51-0.23-0.51-0.51v-2.01c0-0.28,0.23-0.51,0.51-0.51h39.84
					c0.28,0,0.51,0.23,0.51,0.51v2.01C48.16,118.47,47.93,118.7,47.65,118.7z"/>
			</g>
			<g>
				<path class="st2" d="M67.01,138.84v-43.8c0-0.28,0.23-0.51,0.51-0.51h2.01c0.28,0,0.51,0.23,0.51,0.51v43.8
					c0,0.28-0.23,0.51-0.51,0.51h-2.01C67.24,139.35,67.01,139.12,67.01,138.84z"/>
			</g>
			<g>
				<path class="st2" d="M130.93,118.7H91.09c-0.28,0-0.51-0.23-0.51-0.51v-2.01c0-0.28,0.23-0.51,0.51-0.51h39.84
					c0.28,0,0.51,0.23,0.51,0.51v2.01C131.44,118.47,131.21,118.7,130.93,118.7z"/>
			</g>
			<g>
				<path class="st2" d="M150.29,138.84v-43.8c0-0.28,0.23-0.51,0.51-0.51h2.01c0.28,0,0.51,0.23,0.51,0.51v43.8
					c0,0.28-0.23,0.51-0.51,0.51h-2.01C150.52,139.35,150.29,139.12,150.29,138.84z"/>
			</g>
			<g>
				<path class="st2" d="M214.21,118.7h-39.84c-0.28,0-0.51-0.23-0.51-0.51v-2.01c0-0.28,0.23-0.51,0.51-0.51h39.84
					c0.28,0,0.51,0.23,0.51,0.51v2.01C214.71,118.47,214.49,118.7,214.21,118.7z"/>
			</g>
			<g>
				<path class="st2" d="M233.57,138.84v-43.8c0-0.28,0.23-0.51,0.51-0.51h2.01c0.28,0,0.51,0.23,0.51,0.51v43.8
					c0,0.28-0.23,0.51-0.51,0.51h-2.01C233.8,139.35,233.57,139.12,233.57,138.84z"/>
			</g>
			<g>
				<path class="st2" d="M297.48,118.7h-39.84c-0.28,0-0.51-0.23-0.51-0.51v-2.01c0-0.28,0.23-0.51,0.51-0.51h39.84
					c0.28,0,0.51,0.23,0.51,0.51v2.01C297.99,118.47,297.76,118.7,297.48,118.7z"/>
			</g>
			<g>
				<path class="st2" d="M316.85,138.84v-43.8c0-0.28,0.23-0.51,0.51-0.51h2.01c0.28,0,0.51,0.23,0.51,0.51v43.8
					c0,0.28-0.23,0.51-0.51,0.51h-2.01C317.07,139.35,316.85,139.12,316.85,138.84z"/>
			</g>
			<g>
				<path class="st2" d="M380.76,118.7h-39.84c-0.28,0-0.51-0.23-0.51-0.51v-2.01c0-0.28,0.23-0.51,0.51-0.51h39.84
					c0.28,0,0.51,0.23,0.51,0.51v2.01C381.27,118.47,381.04,118.7,380.76,118.7z"/>
			</g>
			<g>
				<path class="st2" d="M400.13,138.84v-43.8c0-0.28,0.23-0.51,0.51-0.51h2.01c0.28,0,0.51,0.23,0.51,0.51v43.8
					c0,0.28-0.23,0.51-0.51,0.51h-2.01C400.35,139.35,400.13,139.12,400.13,138.84z"/>
			</g>
			<g>
				<path class="st2" d="M464.04,118.7H424.2c-0.28,0-0.51-0.23-0.51-0.51v-2.01c0-0.28,0.23-0.51,0.51-0.51h39.84
					c0.28,0,0.51,0.23,0.51,0.51v2.01C464.55,118.47,464.32,118.7,464.04,118.7z"/>
			</g>
			<g>
				<path class="st2" d="M483.4,138.84v-43.8c0-0.28,0.23-0.51,0.51-0.51h2.01c0.28,0,0.51,0.23,0.51,0.51v43.8
					c0,0.28-0.23,0.51-0.51,0.51h-2.01C483.63,139.35,483.4,139.12,483.4,138.84z"/>
			</g>
		</g>
	</g>
</g>
<g id="Camada_3" class="st0">
</g>
</svg>
