<?xml version="1.0" encoding="utf-8"?>
<!-- Generator: Adobe Illustrator 28.0.0, SVG Export Plug-In . SVG Version: 6.00 Build 0)  -->
<svg version="1.1" xmlns="http://www.w3.org/2000/svg" xmlns:xlink="http://www.w3.org/1999/xlink" x="0px" y="0px"
	 viewBox="0 0 173 105" style="enable-background:new 0 0 173 105;" xml:space="preserve">
<style type="text/css">
	.st0{display:none;}
	.st1{display:inline;fill:#000000;}
	.st2{fill:#000000;}
	.st3{clip-path:url(#SVGID_00000171001446666331180630000010913553539750901140_);}
</style>
<g id="Camada_2">
</g>
<g id="Camada_1">
	<g id="Camada_2_00000114044341097903845420000002879240759073448108_" class="st0">
		<rect x="-911.5" y="-209.5" class="st1" width="2269" height="1089"/>
	</g>
	<g>
		<path class="st2" d="M123.1,1c3.8,2.5,48.6,32.7,48.6,51.2s-44.8,48.8-48.6,51.2H1V1H123.1 M123.4,0H0v104.5h123.4
			c0,0,49.3-32.2,49.3-52.2S123.4,0,123.4,0L123.4,0z"/>
	</g>
	<g id="Camada_3" class="st0">
	</g>
	<g>
		<defs>
			<path id="SVGID_1_" d="M123.4,1 M123.7,0H0.3v104.5h123.4c0,0,49.3-32.2,49.3-52.2S123.7,0,123.7,0L123.7,0z"/>
		</defs>
		<clipPath id="SVGID_00000169550370236630750570000003184996142475239825_">
			<use xlink:href="#SVGID_1_"  style="overflow:visible;"/>
		</clipPath>
		<g style="clip-path:url(#SVGID_00000169550370236630750570000003184996142475239825_);">
			<g>
				<g>
					<g>
						<polygon class="st2" points="-365.5,338 7.5,-30.2 9.1,-28.7 -363.9,339.6 						"/>
					</g>
					<g>
						<polygon class="st2" points="-351.6,338 21.4,-30.2 23,-28.7 -350,339.6 						"/>
					</g>
					<g>
						<polygon class="st2" points="-337.7,338 35.3,-30.2 36.9,-28.7 -336.1,339.6 						"/>
					</g>
					<g>
						<polygon class="st2" points="-323.8,338 49.2,-30.2 50.8,-28.7 -322.2,339.6 						"/>
					</g>
					<g>
						<polygon class="st2" points="-309.9,338 63.1,-30.2 64.7,-28.7 -308.3,339.6 						"/>
					</g>
					<g>
						<polygon class="st2" points="-296,338 77,-30.2 78.6,-28.7 -294.5,339.6 						"/>
					</g>
					<g>
						<polygon class="st2" points="-282.1,338 90.9,-30.2 92.4,-28.7 -280.6,339.6 						"/>
					</g>
					<g>
						<polygon class="st2" points="-268.2,338 104.8,-30.2 106.3,-28.7 -266.7,339.6 						"/>
					</g>
					<g>
						<polygon class="st2" points="-254.3,338 118.7,-30.2 120.2,-28.7 -252.8,339.6 						"/>
					</g>
					<g>
						<polygon class="st2" points="-240.4,338 132.6,-30.2 134.1,-28.7 -238.9,339.6 						"/>
					</g>
					<g>
						<polygon class="st2" points="-226.6,338 146.5,-30.2 148,-28.7 -225,339.6 						"/>
					</g>
					<g>
						<polygon class="st2" points="-212.7,338 160.4,-30.2 161.9,-28.7 -211.1,339.6 						"/>
					</g>
					<g>
						<polygon class="st2" points="-198.8,338 174.2,-30.2 175.8,-28.7 -197.2,339.6 						"/>
					</g>
					<g>
						<polygon class="st2" points="-184.9,338 188.1,-30.2 189.7,-28.7 -183.3,339.6 						"/>
					</g>
					<g>
						<polygon class="st2" points="-171,338 202,-30.2 203.6,-28.7 -169.4,339.6 						"/>
					</g>
				</g>
			</g>
		</g>
	</g>
</g>
</svg>
