<?xml version="1.0" encoding="utf-8"?>
<!-- Generator: Adobe Illustrator 28.0.0, SVG Export Plug-In . SVG Version: 6.00 Build 0)  -->
<svg version="1.1" id="Camada_1" xmlns="http://www.w3.org/2000/svg" xmlns:xlink="http://www.w3.org/1999/xlink" x="0px" y="0px"
	 viewBox="0 0 173 105" style="enable-background:new 0 0 173 105;" xml:space="preserve">
<style type="text/css">
	.st0{display:none;}
	.st1{display:inline;fill:#59778E;}
	.st2{fill:#000000;}
	.st3{clip-path:url(#SVGID_00000064315922447766912840000010762542583923131837_);}
	.st4{clip-path:url(#SVGID_00000137116282240577902170000000262161984549177512_);}
</style>
<g id="Camada_2_00000085936051494532920530000016249363712863236245_" class="st0">
	<rect x="-1111.5" y="-209.5" class="st1" width="2269" height="1089"/>
</g>
<g id="Camada_1_00000080193690968269512510000003886014864258897598_">
	<g>
		<path class="st2" d="M123.1,1c3.8,2.5,48.6,32.7,48.6,51.2s-44.8,48.8-48.6,51.2H1V1H123.1 M123.4,0H0v104.5h123.4
			c0,0,49.3-32.2,49.3-52.2S123.4,0,123.4,0L123.4,0z"/>
	</g>
</g>
<g id="Camada_3" class="st0">
</g>
<g id="Camada_1_00000163063082639083609490000014550697454631115939_">
	<g>
		<path class="st2" d="M123.3,1.2c3.8,2.5,48.6,32.7,48.6,51.2s-44.8,48.8-48.6,51.2H1.2V1.2H123.3 M123.6,0.2H0.2v104.5h123.4
			c0,0,49.3-32.2,49.3-52.2S123.6,0.2,123.6,0.2L123.6,0.2z"/>
	</g>
	<g>
		<g>
			<defs>
				<path id="SVGID_1_" d="M123.6,104.8H0.2V0.2h123.4c0,0,49.3,32.2,49.3,52.2S123.6,104.8,123.6,104.8z"/>
			</defs>
			<clipPath id="SVGID_00000008837946157224269140000017834362522634096264_">
				<use xlink:href="#SVGID_1_"  style="overflow:visible;"/>
			</clipPath>
			<g style="clip-path:url(#SVGID_00000008837946157224269140000017834362522634096264_);">
				<defs>
					<rect id="SVGID_00000085227395222934037100000001690124342019460771_" x="-239.9" y="-161.3" width="443.3" height="297.5"/>
				</defs>
				<clipPath id="SVGID_00000114033070649619101850000005196199922742717875_">
					<use xlink:href="#SVGID_00000085227395222934037100000001690124342019460771_"  style="overflow:visible;"/>
				</clipPath>
				<g style="clip-path:url(#SVGID_00000114033070649619101850000005196199922742717875_);">
					<g>
						<polygon class="st2" points="79.5,148 -251.8,-179.1 -250.4,-180.5 80.9,146.6 						"/>
					</g>
					<g>
						<polygon class="st2" points="104.3,148 -227,-179.1 -225.7,-180.5 105.7,146.6 						"/>
					</g>
					<g>
						<polygon class="st2" points="129.1,148 -202.3,-179.1 -200.9,-180.5 130.5,146.6 						"/>
					</g>
					<g>
						<polygon class="st2" points="153.9,148 -177.5,-179.1 -176.1,-180.5 155.2,146.6 						"/>
					</g>
					<g>
						<polygon class="st2" points="178.6,148 -152.7,-179.1 -151.3,-180.5 180,146.6 						"/>
					</g>
					<g>
						<polygon class="st2" points="203.4,148 -127.9,-179.1 -126.6,-180.5 204.8,146.6 						"/>
					</g>
					<g>
						<polygon class="st2" points="228.2,148 -103.2,-179.1 -101.8,-180.5 229.6,146.6 						"/>
					</g>
					<g>
						<polygon class="st2" points="252.9,148 -78.4,-179.1 -77,-180.5 254.3,146.6 						"/>
					</g>
					<g>
						<polygon class="st2" points="277.7,148 -53.6,-179.1 -52.2,-180.5 279.1,146.6 						"/>
					</g>
					<g>
						<polygon class="st2" points="290.1,148 -41.2,-179.1 -39.8,-180.5 291.5,146.6 						"/>
					</g>
					<g>
						<polygon class="st2" points="302.5,148 -28.8,-179.1 -27.5,-180.5 303.9,146.6 						"/>
					</g>
					<g>
						<polygon class="st2" points="314.9,148 -16.5,-179.1 -15.1,-180.5 316.3,146.6 						"/>
					</g>
					<g>
						<polygon class="st2" points="327.3,148 -4.1,-179.1 -2.7,-180.5 328.7,146.6 						"/>
					</g>
					<g>
						<polygon class="st2" points="339.7,148 8.3,-179.1 9.7,-180.5 341,146.6 						"/>
					</g>
					<g>
						<polygon class="st2" points="352,148 20.7,-179.1 22.1,-180.5 353.4,146.6 						"/>
					</g>
					<g>
						<polygon class="st2" points="364.4,148 33.1,-179.1 34.5,-180.5 365.8,146.6 						"/>
					</g>
					<g>
						<polygon class="st2" points="376.8,148 45.5,-179.1 46.9,-180.5 378.2,146.6 						"/>
					</g>
					<g>
						<polygon class="st2" points="389.2,148 57.9,-179.1 59.3,-180.5 390.6,146.6 						"/>
					</g>
					<g>
						<polygon class="st2" points="401.6,148 70.3,-179.1 71.6,-180.5 403,146.6 						"/>
					</g>
					<g>
						<polygon class="st2" points="414,148 82.6,-179.1 84,-180.5 415.4,146.6 						"/>
					</g>
					<g>
						<polygon class="st2" points="426.4,148 95,-179.1 96.4,-180.5 427.8,146.6 						"/>
					</g>
					<g>
						<polygon class="st2" points="438.8,148 107.4,-179.1 108.8,-180.5 440.1,146.6 						"/>
					</g>
					<g>
						<polygon class="st2" points="451.1,148 119.8,-179.1 121.2,-180.5 452.5,146.6 						"/>
					</g>
					<g>
						<polygon class="st2" points="463.5,148 132.2,-179.1 133.6,-180.5 464.9,146.6 						"/>
					</g>
					<g>
						<polygon class="st2" points="475.9,148 144.6,-179.1 146,-180.5 477.3,146.6 						"/>
					</g>
					<g>
						<polygon class="st2" points="488.3,148 157,-179.1 158.4,-180.5 489.7,146.6 						"/>
					</g>
					<g>
						<polygon class="st2" points="500.7,148 169.4,-179.1 170.7,-180.5 502.1,146.6 						"/>
					</g>
					<g>
						<polygon class="st2" points="5.2,148 -326.1,-179.1 -324.8,-180.5 6.6,146.6 						"/>
					</g>
					<g>
						<polygon class="st2" points="17.6,148 -313.8,-179.1 -312.4,-180.5 19,146.6 						"/>
					</g>
					<g>
						<polygon class="st2" points="30,148 -301.4,-179.1 -300,-180.5 31.4,146.6 						"/>
					</g>
					<g>
						<polygon class="st2" points="42.4,148 -289,-179.1 -287.6,-180.5 43.8,146.6 						"/>
					</g>
					<g>
						<polygon class="st2" points="54.8,148 -276.6,-179.1 -275.2,-180.5 56.1,146.6 						"/>
					</g>
					<g>
						<polygon class="st2" points="-328.5,138.9 2.9,-188.1 4.3,-186.8 -327.1,140.3 						"/>
					</g>
					<g>
						<polygon class="st2" points="-316.1,138.9 15.2,-188.1 16.6,-186.8 -314.7,140.3 						"/>
					</g>
					<g>
						<polygon class="st2" points="-303.8,138.9 27.5,-188.1 28.9,-186.8 -302.4,140.3 						"/>
					</g>
					<g>
						<polygon class="st2" points="-291.5,138.9 39.9,-188.1 41.3,-186.8 -290.1,140.3 						"/>
					</g>
					<g>
						<polygon class="st2" points="-279.1,138.9 52.2,-188.1 53.6,-186.8 -277.7,140.3 						"/>
					</g>
					<g>
						<polygon class="st2" points="-266.8,138.9 64.6,-188.1 66,-186.8 -265.4,140.3 						"/>
					</g>
					<g>
						<polygon class="st2" points="-254.4,138.9 76.9,-188.1 78.3,-186.8 -253,140.3 						"/>
					</g>
					<g>
						<polygon class="st2" points="-242.1,138.9 89.3,-188.1 90.6,-186.8 -240.7,140.3 						"/>
					</g>
					<g>
						<polygon class="st2" points="-229.7,138.9 101.6,-188.1 103,-186.8 -228.4,140.3 						"/>
					</g>
					<g>
						<polygon class="st2" points="-217.4,138.9 113.9,-188.1 115.3,-186.8 -216,140.3 						"/>
					</g>
					<g>
						<polygon class="st2" points="-205.1,138.9 126.3,-188.1 127.7,-186.8 -203.7,140.3 						"/>
					</g>
					<g>
						<polygon class="st2" points="-192.7,138.9 138.6,-188.1 140,-186.8 -191.3,140.3 						"/>
					</g>
					<g>
						<polygon class="st2" points="-180.4,138.9 151,-188.1 152.3,-186.8 -179,140.3 						"/>
					</g>
					<g>
						<polygon class="st2" points="-168,138.9 163.3,-188.1 164.7,-186.8 -166.7,140.3 						"/>
					</g>
					<g>
						<polygon class="st2" points="-155.7,138.9 175.6,-188.1 177,-186.8 -154.3,140.3 						"/>
					</g>
					<g>
						<polygon class="st2" points="-143.4,138.9 188,-188.1 189.4,-186.8 -142,140.3 						"/>
					</g>
					<g>
						<polygon class="st2" points="-131,138.9 200.3,-188.1 201.7,-186.8 -129.6,140.3 						"/>
					</g>
					<g>
						<polygon class="st2" points="-106.3,138.9 225,-188.1 226.4,-186.8 -104.9,140.3 						"/>
					</g>
					<g>
						<polygon class="st2" points="-81.7,138.9 249.7,-188.1 251.1,-186.8 -80.3,140.3 						"/>
					</g>
					<g>
						<polygon class="st2" points="-57,138.9 274.4,-188.1 275.8,-186.8 -55.6,140.3 						"/>
					</g>
					<g>
						<polygon class="st2" points="-32.3,138.9 299.1,-188.1 300.4,-186.8 -30.9,140.3 						"/>
					</g>
					<g>
						<polygon class="st2" points="-7.6,138.9 323.7,-188.1 325.1,-186.8 -6.2,140.3 						"/>
					</g>
					<g>
						<polygon class="st2" points="17.1,138.9 348.4,-188.1 349.8,-186.8 18.5,140.3 						"/>
					</g>
					<g>
						<polygon class="st2" points="41.8,138.9 373.1,-188.1 374.5,-186.8 43.1,140.3 						"/>
					</g>
					<g>
						<polygon class="st2" points="66.4,138.9 397.8,-188.1 399.2,-186.8 67.8,140.3 						"/>
					</g>
					<g>
						<polygon class="st2" points="91.1,138.9 422.5,-188.1 423.9,-186.8 92.5,140.3 						"/>
					</g>
					<g>
						<polygon class="st2" points="115.8,138.9 447.1,-188.1 448.5,-186.8 117.2,140.3 						"/>
					</g>
					<g>
						<polygon class="st2" points="140.5,138.9 471.8,-188.1 473.2,-186.8 141.9,140.3 						"/>
					</g>
					<g>
						<polygon class="st2" points="152.8,138.9 484.2,-188.1 485.6,-186.8 154.2,140.3 						"/>
					</g>
					<g>
						<polygon class="st2" points="165.2,138.9 496.5,-188.1 497.9,-186.8 166.6,140.3 						"/>
					</g>
				</g>
			</g>
		</g>
	</g>
</g>
</svg>
