<?xml version="1.0" encoding="utf-8"?>
<!-- Generator: Adobe Illustrator 25.0.0, SVG Export Plug-In . SVG Version: 6.00 Build 0)  -->
<svg version="1.1" xmlns="http://www.w3.org/2000/svg" xmlns:xlink="http://www.w3.org/1999/xlink" x="0px" y="0px"
	 viewBox="0 0 173 105" style="enable-background:new 0 0 173 105;" xml:space="preserve">
<style type="text/css">
	.st0{display:none;}
	.st1{display:inline;fill:#59778E;}
	.st2{fill:#000000;}
	.st3{clip-path:url(#SVGID_2_);}
	.st4{clip-path:url(#SVGID_4_);}
	.st5{clip-path:url(#SVGID_8_);}
	.st6{clip-path:url(#SVGID_12_);}
	.st7{display:inline;}
	.st8{clip-path:url(#SVGID_15_);}
	.st9{clip-path:url(#SVGID_19_);}
	.st10{clip-path:url(#SVGID_23_);}
	.st11{clip-path:url(#SVGID_27_);}
	.st12{clip-path:url(#SVGID_31_);}
	.st13{clip-path:url(#SVGID_35_);}
	.st14{clip-path:url(#SVGID_39_);}
	.st15{clip-path:url(#SVGID_43_);}
	.st16{clip-path:url(#SVGID_47_);}
	.st17{clip-path:url(#SVGID_51_);}
	.st18{clip-path:url(#SVGID_55_);}
	.st19{clip-path:url(#SVGID_59_);}
	.st20{clip-path:url(#SVGID_63_);}
	.st21{clip-path:url(#SVGID_67_);}
	.st22{clip-path:url(#SVGID_71_);}
	.st23{clip-path:url(#SVGID_75_);}
	.st24{clip-path:url(#SVGID_79_);}
	.st25{clip-path:url(#SVGID_83_);}
	.st26{clip-path:url(#SVGID_87_);}
	.st27{clip-path:url(#SVGID_91_);}
	.st28{clip-path:url(#SVGID_95_);}
	.st29{clip-path:url(#SVGID_99_);}
	.st30{clip-path:url(#SVGID_103_);}
	.st31{clip-path:url(#SVGID_107_);}
	.st32{clip-path:url(#SVGID_111_);}
	.st33{clip-path:url(#SVGID_115_);}
	.st34{clip-path:url(#SVGID_119_);}
	.st35{clip-path:url(#SVGID_123_);}
	.st36{clip-path:url(#SVGID_127_);}
	.st37{clip-path:url(#SVGID_131_);}
	.st38{clip-path:url(#SVGID_135_);}
	.st39{clip-path:url(#SVGID_139_);}
	.st40{clip-path:url(#SVGID_143_);}
	.st41{clip-path:url(#SVGID_147_);}
	.st42{clip-path:url(#SVGID_151_);}
	.st43{clip-path:url(#SVGID_155_);}
	.st44{clip-path:url(#SVGID_159_);}
	.st45{clip-path:url(#SVGID_163_);}
	.st46{clip-path:url(#SVGID_167_);}
	.st47{clip-path:url(#SVGID_171_);}
	.st48{clip-path:url(#SVGID_175_);}
	.st49{clip-path:url(#SVGID_179_);}
	.st50{clip-path:url(#SVGID_183_);}
	.st51{clip-path:url(#SVGID_187_);}
	.st52{clip-path:url(#SVGID_191_);}
	.st53{clip-path:url(#SVGID_195_);}
	.st54{clip-path:url(#SVGID_199_);}
	.st55{clip-path:url(#SVGID_203_);}
	.st56{clip-path:url(#SVGID_207_);}
	.st57{clip-path:url(#SVGID_209_);}
	.st58{clip-path:url(#SVGID_211_);}
</style>
<g id="Camada_2" class="st0">
	<rect x="-1711.5" y="-209.5" class="st1" width="2269" height="1089"/>
</g>
<g id="Camada_1">
	<g>
		<path class="st2" d="M123.11,1c3.76,2.5,48.58,32.68,48.58,51.25c0,18.57-44.82,48.75-48.58,51.25H1V1H123.11 M123.41,0H0v104.5
			h123.41c0,0,49.28-32.2,49.28-52.25S123.41,0,123.41,0L123.41,0z"/>
	</g>
	<g>
		<defs>
			<path id="SVGID_7_" d="M123.41,104.5H0V0h123.41c0,0,49.28,32.2,49.28,52.25S123.41,104.5,123.41,104.5z"/>
		</defs>
		<clipPath id="SVGID_2_">
			<use xlink:href="#SVGID_7_"  style="overflow:visible;"/>
		</clipPath>
		<g class="st3">
			<defs>
				<rect id="SVGID_11_" x="-240.01" y="-161.53" width="443.28" height="297.5"/>
			</defs>
			<clipPath id="SVGID_4_">
				<use xlink:href="#SVGID_11_"  style="overflow:visible;"/>
			</clipPath>
			<g class="st4">
				<g>
					<g>
						<g>
							<polygon class="st2" points="66.98,147.77 -264.36,-179.34 -262.97,-180.71 68.37,146.4 							"/>
						</g>
						<g>
							<polygon class="st2" points="79.37,147.77 -251.97,-179.34 -250.59,-180.71 80.76,146.4 							"/>
						</g>
						<g>
							<polygon class="st2" points="91.76,147.77 -239.59,-179.34 -238.2,-180.71 93.15,146.4 							"/>
						</g>
						<g>
							<polygon class="st2" points="104.15,147.77 -227.2,-179.34 -225.81,-180.71 105.53,146.4 							"/>
						</g>
						<g>
							<polygon class="st2" points="116.53,147.77 -214.81,-179.34 -213.42,-180.71 117.92,146.4 							"/>
						</g>
						<g>
							<polygon class="st2" points="128.92,147.77 -202.42,-179.34 -201.04,-180.71 130.31,146.4 							"/>
						</g>
						<g>
							<polygon class="st2" points="141.31,147.77 -190.04,-179.34 -188.65,-180.71 142.7,146.4 							"/>
						</g>
						<g>
							<polygon class="st2" points="153.7,147.77 -177.65,-179.34 -176.26,-180.71 155.08,146.4 							"/>
						</g>
						<g>
							<polygon class="st2" points="166.08,147.77 -165.26,-179.34 -163.87,-180.71 167.47,146.4 							"/>
						</g>
						<g>
							<polygon class="st2" points="178.47,147.77 -152.88,-179.34 -151.49,-180.71 179.86,146.4 							"/>
						</g>
						<g>
							<polygon class="st2" points="190.86,147.77 -140.49,-179.34 -139.1,-180.71 192.25,146.4 							"/>
						</g>
						<g>
							<polygon class="st2" points="203.24,147.77 -128.1,-179.34 -126.71,-180.71 204.63,146.4 							"/>
						</g>
						<g>
							<polygon class="st2" points="215.63,147.77 -115.71,-179.34 -114.32,-180.71 217.02,146.4 							"/>
						</g>
						<g>
							<polygon class="st2" points="228.02,147.77 -103.33,-179.34 -101.94,-180.71 229.41,146.4 							"/>
						</g>
						<g>
							<polygon class="st2" points="240.41,147.77 -90.94,-179.34 -89.55,-180.71 241.79,146.4 							"/>
						</g>
						<g>
							<polygon class="st2" points="252.79,147.77 -78.55,-179.34 -77.16,-180.71 254.18,146.4 							"/>
						</g>
						<g>
							<polygon class="st2" points="265.18,147.77 -66.16,-179.34 -64.78,-180.71 266.57,146.4 							"/>
						</g>
						<g>
							<polygon class="st2" points="277.57,147.77 -53.78,-179.34 -52.39,-180.71 278.96,146.4 							"/>
						</g>
						<g>
							<polygon class="st2" points="289.96,147.77 -41.39,-179.34 -40,-180.71 291.34,146.4 							"/>
						</g>
						<g>
							<polygon class="st2" points="302.34,147.77 -29,-179.34 -27.61,-180.71 303.73,146.4 							"/>
						</g>
						<g>
							<polygon class="st2" points="314.73,147.77 -16.61,-179.34 -15.23,-180.71 316.12,146.4 							"/>
						</g>
						<g>
							<polygon class="st2" points="327.12,147.77 -4.23,-179.34 -2.84,-180.71 328.51,146.4 							"/>
						</g>
						<g>
							<polygon class="st2" points="339.51,147.77 8.16,-179.34 9.55,-180.71 340.89,146.4 							"/>
						</g>
						<g>
							<polygon class="st2" points="351.89,147.77 20.55,-179.34 21.94,-180.71 353.28,146.4 							"/>
						</g>
						<g>
							<polygon class="st2" points="364.28,147.77 32.94,-179.34 34.32,-180.71 365.67,146.4 							"/>
						</g>
						<g>
							<polygon class="st2" points="376.67,147.77 45.32,-179.34 46.71,-180.71 378.06,146.4 							"/>
						</g>
						<g>
							<polygon class="st2" points="389.05,147.77 57.71,-179.34 59.1,-180.71 390.44,146.4 							"/>
						</g>
						<g>
							<polygon class="st2" points="401.44,147.77 70.1,-179.34 71.49,-180.71 402.83,146.4 							"/>
						</g>
						<g>
							<polygon class="st2" points="413.83,147.77 82.48,-179.34 83.87,-180.71 415.22,146.4 							"/>
						</g>
						<g>
							<polygon class="st2" points="426.22,147.77 94.87,-179.34 96.26,-180.71 427.61,146.4 							"/>
						</g>
						<g>
							<polygon class="st2" points="438.6,147.77 107.26,-179.34 108.65,-180.71 439.99,146.4 							"/>
						</g>
						<g>
							<polygon class="st2" points="450.99,147.77 119.65,-179.34 121.03,-180.71 452.38,146.4 							"/>
						</g>
						<g>
							<polygon class="st2" points="463.38,147.77 132.03,-179.34 133.42,-180.71 464.77,146.4 							"/>
						</g>
						<g>
							<polygon class="st2" points="475.77,147.77 144.42,-179.34 145.81,-180.71 477.15,146.4 							"/>
						</g>
						<g>
							<polygon class="st2" points="488.15,147.77 156.81,-179.34 158.2,-180.71 489.54,146.4 							"/>
						</g>
						<g>
							<polygon class="st2" points="500.54,147.77 169.2,-179.34 170.58,-180.71 501.93,146.4 							"/>
						</g>
						<g>
							<polygon class="st2" points="5.05,147.77 -326.3,-179.34 -324.91,-180.71 6.44,146.4 							"/>
						</g>
						<g>
							<polygon class="st2" points="17.43,147.77 -313.91,-179.34 -312.52,-180.71 18.82,146.4 							"/>
						</g>
						<g>
							<polygon class="st2" points="29.82,147.77 -301.52,-179.34 -300.13,-180.71 31.21,146.4 							"/>
						</g>
						<g>
							<polygon class="st2" points="42.21,147.77 -289.14,-179.34 -287.75,-180.71 43.6,146.4 							"/>
						</g>
						<g>
							<polygon class="st2" points="54.6,147.77 -276.75,-179.34 -275.36,-180.71 55.98,146.4 							"/>
						</g>
						<g>
							<polygon class="st2" points="-328.63,138.7 2.71,-188.4 4.1,-187.03 -327.25,140.07 							"/>
						</g>
						<g>
							<polygon class="st2" points="-316.29,138.7 15.05,-188.4 16.44,-187.03 -314.9,140.07 							"/>
						</g>
						<g>
							<polygon class="st2" points="-303.95,138.7 27.39,-188.4 28.78,-187.03 -302.56,140.07 							"/>
						</g>
						<g>
							<polygon class="st2" points="-291.61,138.7 39.73,-188.4 41.12,-187.03 -290.22,140.07 							"/>
						</g>
						<g>
							<polygon class="st2" points="-279.27,138.7 52.08,-188.4 53.46,-187.03 -277.88,140.07 							"/>
						</g>
						<g>
							<polygon class="st2" points="-266.93,138.7 64.42,-188.4 65.81,-187.03 -265.54,140.07 							"/>
						</g>
						<g>
							<polygon class="st2" points="-254.59,138.7 76.76,-188.4 78.15,-187.03 -253.2,140.07 							"/>
						</g>
						<g>
							<polygon class="st2" points="-242.25,138.7 89.1,-188.4 90.49,-187.03 -240.86,140.07 							"/>
						</g>
						<g>
							<polygon class="st2" points="-229.9,138.7 101.44,-188.4 102.83,-187.03 -228.52,140.07 							"/>
						</g>
						<g>
							<polygon class="st2" points="-217.56,138.7 113.78,-188.4 115.17,-187.03 -216.17,140.07 							"/>
						</g>
						<g>
							<polygon class="st2" points="-205.22,138.7 126.12,-188.4 127.51,-187.03 -203.83,140.07 							"/>
						</g>
						<g>
							<polygon class="st2" points="-192.88,138.7 138.46,-188.4 139.85,-187.03 -191.49,140.07 							"/>
						</g>
						<g>
							<polygon class="st2" points="-180.54,138.7 150.81,-188.4 152.19,-187.03 -179.15,140.07 							"/>
						</g>
						<g>
							<polygon class="st2" points="-168.2,138.7 163.15,-188.4 164.53,-187.03 -166.81,140.07 							"/>
						</g>
						<g>
							<polygon class="st2" points="-155.86,138.7 175.49,-188.4 176.88,-187.03 -154.47,140.07 							"/>
						</g>
						<g>
							<polygon class="st2" points="-143.52,138.7 187.83,-188.4 189.22,-187.03 -142.13,140.07 							"/>
						</g>
						<g>
							<polygon class="st2" points="-131.17,138.7 200.17,-188.4 201.56,-187.03 -129.79,140.07 							"/>
						</g>
						<g>
							<polygon class="st2" points="-118.83,138.7 212.51,-188.4 213.9,-187.03 -117.45,140.07 							"/>
						</g>
						<g>
							<polygon class="st2" points="-106.49,138.7 224.85,-188.4 226.24,-187.03 -105.1,140.07 							"/>
						</g>
						<g>
							<polygon class="st2" points="-94.15,138.7 237.19,-188.4 238.58,-187.03 -92.76,140.07 							"/>
						</g>
						<g>
							<polygon class="st2" points="-81.81,138.7 249.53,-188.4 250.92,-187.03 -80.42,140.07 							"/>
						</g>
						<g>
							<polygon class="st2" points="-69.47,138.7 261.88,-188.4 263.26,-187.03 -68.08,140.07 							"/>
						</g>
						<g>
							<polygon class="st2" points="-57.13,138.7 274.22,-188.4 275.61,-187.03 -55.74,140.07 							"/>
						</g>
						<g>
							<polygon class="st2" points="-44.79,138.7 286.56,-188.4 287.95,-187.03 -43.4,140.07 							"/>
						</g>
						<g>
							<polygon class="st2" points="-32.45,138.7 298.9,-188.4 300.29,-187.03 -31.06,140.07 							"/>
						</g>
						<g>
							<polygon class="st2" points="-20.1,138.7 311.24,-188.4 312.63,-187.03 -18.72,140.07 							"/>
						</g>
						<g>
							<polygon class="st2" points="-7.76,138.7 323.58,-188.4 324.97,-187.03 -6.37,140.07 							"/>
						</g>
						<g>
							<polygon class="st2" points="4.58,138.7 335.92,-188.4 337.31,-187.03 5.97,140.07 							"/>
						</g>
						<g>
							<polygon class="st2" points="16.92,138.7 348.26,-188.4 349.65,-187.03 18.31,140.07 							"/>
						</g>
						<g>
							<polygon class="st2" points="29.26,138.7 360.61,-188.4 361.99,-187.03 30.65,140.07 							"/>
						</g>
						<g>
							<polygon class="st2" points="41.6,138.7 372.95,-188.4 374.34,-187.03 42.99,140.07 							"/>
						</g>
						<g>
							<polygon class="st2" points="53.94,138.7 385.29,-188.4 386.68,-187.03 55.33,140.07 							"/>
						</g>
						<g>
							<polygon class="st2" points="66.28,138.7 397.63,-188.4 399.02,-187.03 67.67,140.07 							"/>
						</g>
						<g>
							<polygon class="st2" points="78.63,138.7 409.97,-188.4 411.36,-187.03 80.01,140.07 							"/>
						</g>
						<g>
							<polygon class="st2" points="90.97,138.7 422.31,-188.4 423.7,-187.03 92.36,140.07 							"/>
						</g>
						<g>
							<polygon class="st2" points="103.31,138.7 434.65,-188.4 436.04,-187.03 104.7,140.07 							"/>
						</g>
						<g>
							<polygon class="st2" points="115.65,138.7 446.99,-188.4 448.38,-187.03 117.04,140.07 							"/>
						</g>
						<g>
							<polygon class="st2" points="127.99,138.7 459.33,-188.4 460.72,-187.03 129.38,140.07 							"/>
						</g>
						<g>
							<polygon class="st2" points="140.33,138.7 471.68,-188.4 473.06,-187.03 141.72,140.07 							"/>
						</g>
						<g>
							<polygon class="st2" points="152.67,138.7 484.02,-188.4 485.41,-187.03 154.06,140.07 							"/>
						</g>
						<g>
							<polygon class="st2" points="165.01,138.7 496.36,-188.4 497.75,-187.03 166.4,140.07 							"/>
						</g>
					</g>
				</g>
			</g>
		</g>
	</g>
</g>
<g id="Camada_3" class="st0">
</g>
</svg>
