<?xml version="1.0" encoding="utf-8"?>
<!-- Generator: Adobe Illustrator 28.0.0, SVG Export Plug-In . SVG Version: 6.00 Build 0)  -->
<svg version="1.1" id="Camada_1" xmlns="http://www.w3.org/2000/svg" xmlns:xlink="http://www.w3.org/1999/xlink" x="0px" y="0px"
	 viewBox="0 0 173 105" style="enable-background:new 0 0 173 105;" xml:space="preserve">
<style type="text/css">
	.st0{display:none;}
	.st1{display:inline;fill:#59778E;}
	.st2{fill:#000000;}
	.st3{clip-path:url(#SVGID_00000109018810798446722790000002828139900859691192_);}
	.st4{clip-path:url(#SVGID_00000103950315242748319690000017138536567770468780_);}
</style>
<g id="Camada_2_00000069385809214291454780000009061948522810203834_" class="st0">
	<rect x="-1311.5" y="-209.5" class="st1" width="2269" height="1089"/>
</g>
<g>
	<path class="st2" d="M123.1,1c3.8,2.5,48.6,32.7,48.6,51.2s-44.8,48.8-48.6,51.2H1V1H123.1 M123.4,0H0v104.5h123.4
		c0,0,49.3-32.2,49.3-52.2S123.4,0,123.4,0L123.4,0z"/>
</g>
<g>
	<g>
		<defs>
			<path id="SVGID_1_" d="M123.4,104.5H0V0h123.4c0,0,49.3,32.2,49.3,52.2S123.4,104.5,123.4,104.5z"/>
		</defs>
		<clipPath id="SVGID_00000088818954065876872880000010193742126879778178_">
			<use xlink:href="#SVGID_1_"  style="overflow:visible;"/>
		</clipPath>
		<g style="clip-path:url(#SVGID_00000088818954065876872880000010193742126879778178_);">
			<g>
				<defs>
					<rect id="SVGID_00000071559282176994331800000007695106166527797681_" x="-240" y="-161.5" width="443.3" height="297.5"/>
				</defs>
				<clipPath id="SVGID_00000150073971275648614120000004986702993876743064_">
					<use xlink:href="#SVGID_00000071559282176994331800000007695106166527797681_"  style="overflow:visible;"/>
				</clipPath>
				<g style="clip-path:url(#SVGID_00000150073971275648614120000004986702993876743064_);">
					<g>
						<g>
							<g>
								<polygon class="st2" points="67,147.8 -264.4,-179.3 -263,-180.7 68.4,146.4 								"/>
							</g>
							<g>
								<polygon class="st2" points="79.4,147.8 -252,-179.3 -250.6,-180.7 80.8,146.4 								"/>
							</g>
							<g>
								<polygon class="st2" points="91.8,147.8 -239.6,-179.3 -238.2,-180.7 93.1,146.4 								"/>
							</g>
							<g>
								<polygon class="st2" points="104.1,147.8 -227.2,-179.3 -225.8,-180.7 105.5,146.4 								"/>
							</g>
							<g>
								<polygon class="st2" points="-81.7,147.8 -413,-179.3 -411.6,-180.7 -80.3,146.4 								"/>
							</g>
							<g>
								<polygon class="st2" points="-69.3,147.8 -400.6,-179.3 -399.2,-180.7 -67.9,146.4 								"/>
							</g>
							<g>
								<polygon class="st2" points="-56.9,147.8 -388.2,-179.3 -386.9,-180.7 -55.5,146.4 								"/>
							</g>
							<g>
								<polygon class="st2" points="-44.5,147.8 -375.9,-179.3 -374.5,-180.7 -43.1,146.4 								"/>
							</g>
							<g>
								<polygon class="st2" points="-32.1,147.8 -363.5,-179.3 -362.1,-180.7 -30.7,146.4 								"/>
							</g>
							<g>
								<polygon class="st2" points="-19.7,147.8 -351.1,-179.3 -349.7,-180.7 -18.3,146.4 								"/>
							</g>
							<g>
								<polygon class="st2" points="-7.3,147.8 -338.7,-179.3 -337.3,-180.7 -6,146.4 								"/>
							</g>
							<g>
								<polygon class="st2" points="5,147.8 -326.3,-179.3 -324.9,-180.7 6.4,146.4 								"/>
							</g>
							<g>
								<polygon class="st2" points="17.4,147.8 -313.9,-179.3 -312.5,-180.7 18.8,146.4 								"/>
							</g>
							<g>
								<polygon class="st2" points="29.8,147.8 -301.5,-179.3 -300.1,-180.7 31.2,146.4 								"/>
							</g>
							<g>
								<polygon class="st2" points="42.2,147.8 -289.1,-179.3 -287.8,-180.7 43.6,146.4 								"/>
							</g>
							<g>
								<polygon class="st2" points="54.6,147.8 -276.8,-179.3 -275.4,-180.7 56,146.4 								"/>
							</g>
							<g>
								<polygon class="st2" points="-230.3,147.8 -561.7,-179.3 -560.3,-180.7 -228.9,146.4 								"/>
							</g>
							<g>
								<polygon class="st2" points="-217.9,147.8 -549.3,-179.3 -547.9,-180.7 -216.5,146.4 								"/>
							</g>
							<g>
								<polygon class="st2" points="-205.5,147.8 -536.9,-179.3 -535.5,-180.7 -204.2,146.4 								"/>
							</g>
							<g>
								<polygon class="st2" points="-193.2,147.8 -524.5,-179.3 -523.1,-180.7 -191.8,146.4 								"/>
							</g>
							<g>
								<polygon class="st2" points="-180.8,147.8 -512.1,-179.3 -510.7,-180.7 -179.4,146.4 								"/>
							</g>
							<g>
								<polygon class="st2" points="-168.4,147.8 -499.7,-179.3 -498.3,-180.7 -167,146.4 								"/>
							</g>
							<g>
								<polygon class="st2" points="-156,147.8 -487.3,-179.3 -485.9,-180.7 -154.6,146.4 								"/>
							</g>
							<g>
								<polygon class="st2" points="-143.6,147.8 -475,-179.3 -473.6,-180.7 -142.2,146.4 								"/>
							</g>
							<g>
								<polygon class="st2" points="-131.2,147.8 -462.6,-179.3 -461.2,-180.7 -129.8,146.4 								"/>
							</g>
							<g>
								<polygon class="st2" points="-118.8,147.8 -450.2,-179.3 -448.8,-180.7 -117.4,146.4 								"/>
							</g>
							<g>
								<polygon class="st2" points="-106.4,147.8 -437.8,-179.3 -436.4,-180.7 -105.1,146.4 								"/>
							</g>
							<g>
								<polygon class="st2" points="-94.1,147.8 -425.4,-179.3 -424,-180.7 -92.7,146.4 								"/>
							</g>
							<g>
								<polygon class="st2" points="-550.8,138.7 -219.4,-188.4 -218,-187 -549.4,140.1 								"/>
							</g>
							<g>
								<polygon class="st2" points="-538.4,138.7 -207.1,-188.4 -205.7,-187 -537.1,140.1 								"/>
							</g>
							<g>
								<polygon class="st2" points="-526.1,138.7 -194.8,-188.4 -193.4,-187 -524.7,140.1 								"/>
							</g>
							<g>
								<polygon class="st2" points="-513.8,138.7 -182.4,-188.4 -181,-187 -512.4,140.1 								"/>
							</g>
							<g>
								<polygon class="st2" points="-501.4,138.7 -170.1,-188.4 -168.7,-187 -500,140.1 								"/>
							</g>
							<g>
								<polygon class="st2" points="-489.1,138.7 -157.7,-188.4 -156.3,-187 -487.7,140.1 								"/>
							</g>
							<g>
								<polygon class="st2" points="-476.7,138.7 -145.4,-188.4 -144,-187 -475.3,140.1 								"/>
							</g>
							<g>
								<polygon class="st2" points="-464.4,138.7 -133,-188.4 -131.7,-187 -463,140.1 								"/>
							</g>
							<g>
								<polygon class="st2" points="-452.1,138.7 -120.7,-188.4 -119.3,-187 -450.7,140.1 								"/>
							</g>
							<g>
								<polygon class="st2" points="-439.7,138.7 -108.4,-188.4 -107,-187 -438.3,140.1 								"/>
							</g>
							<g>
								<polygon class="st2" points="-427.4,138.7 -96,-188.4 -94.6,-187 -426,140.1 								"/>
							</g>
							<g>
								<polygon class="st2" points="-415,138.7 -83.7,-188.4 -82.3,-187 -413.6,140.1 								"/>
							</g>
							<g>
								<polygon class="st2" points="-402.7,138.7 -71.3,-188.4 -70,-187 -401.3,140.1 								"/>
							</g>
							<g>
								<polygon class="st2" points="-390.3,138.7 -59,-188.4 -57.6,-187 -389,140.1 								"/>
							</g>
							<g>
								<polygon class="st2" points="-378,138.7 -46.7,-188.4 -45.3,-187 -376.6,140.1 								"/>
							</g>
							<g>
								<polygon class="st2" points="-365.7,138.7 -34.3,-188.4 -32.9,-187 -364.3,140.1 								"/>
							</g>
							<g>
								<polygon class="st2" points="-353.3,138.7 -22,-188.4 -20.6,-187 -351.9,140.1 								"/>
							</g>
							<g>
								<polygon class="st2" points="-341,138.7 -9.6,-188.4 -8.2,-187 -339.6,140.1 								"/>
							</g>
							<g>
								<polygon class="st2" points="-328.6,138.7 2.7,-188.4 4.1,-187 -327.3,140.1 								"/>
							</g>
							<g>
								<polygon class="st2" points="-316.3,138.7 15,-188.4 16.4,-187 -314.9,140.1 								"/>
							</g>
							<g>
								<polygon class="st2" points="-304,138.7 27.4,-188.4 28.8,-187 -302.6,140.1 								"/>
							</g>
							<g>
								<polygon class="st2" points="-291.6,138.7 39.7,-188.4 41.1,-187 -290.2,140.1 								"/>
							</g>
							<g>
								<polygon class="st2" points="-279.3,138.7 52.1,-188.4 53.5,-187 -277.9,140.1 								"/>
							</g>
							<g>
								<polygon class="st2" points="-266.9,138.7 64.4,-188.4 65.8,-187 -265.5,140.1 								"/>
							</g>
							<g>
								<polygon class="st2" points="-254.6,138.7 76.8,-188.4 78.1,-187 -253.2,140.1 								"/>
							</g>
							<g>
								<polygon class="st2" points="-242.3,138.7 89.1,-188.4 90.5,-187 -240.9,140.1 								"/>
							</g>
							<g>
								<polygon class="st2" points="-229.9,138.7 101.4,-188.4 102.8,-187 -228.5,140.1 								"/>
							</g>
						</g>
					</g>
				</g>
			</g>
		</g>
	</g>
</g>
<g id="Camada_3" class="st0">
</g>
</svg>
