<?xml version="1.0" encoding="utf-8"?>
<!-- Generator: Adobe Illustrator 28.0.0, SVG Export Plug-In . SVG Version: 6.00 Build 0)  -->
<svg version="1.1" id="Camada_1" xmlns="http://www.w3.org/2000/svg" xmlns:xlink="http://www.w3.org/1999/xlink" x="0px" y="0px"
	 viewBox="0 0 500 335" style="enable-background:new 0 0 500 335;" xml:space="preserve">
<style type="text/css">
	.st0{display:none;}
	.st1{display:inline;fill:#59778E;}
	.st2{fill:#000000;}
	.st3{clip-path:url(#SVGID_00000080197706108226553790000000278849052213426105_);}
</style>
<g id="Camada_2_00000034047528625072255800000007895964169672519084_" class="st0">
	<rect x="-228" y="-209.5" class="st1" width="2269" height="1089"/>
</g>
<g id="Camada_1_00000178167277492249614170000011783983033012138397_">
	<g>
		<path class="st2" d="M498.5,1.1V334H1V1.1H498.5 M499.5,0.1H0V335h499.5V0.1L499.5,0.1z"/>
	</g>
	<g>
		<path class="st2" d="M409.3,182.9c4,2.7,54.8,36.8,54.8,57.8s-50.8,55.2-54.8,57.8H271.7V182.9H409.3 M409.6,181.9H270.7v117.6
			h138.9c0,0,55.5-36.2,55.5-58.8S409.6,181.9,409.6,181.9L409.6,181.9z"/>
	</g>
	<g>
		<g>
			<defs>
				<path id="SVGID_1_" d="M1,0.1V335h499V0.1H1z M410.1,299.5H271.2V181.9h138.9c0,0,55.5,36.2,55.5,58.8S410.1,299.5,410.1,299.5z
					"/>
			</defs>
			<clipPath id="SVGID_00000169548796634874715050000005015384930876032173_">
				<use xlink:href="#SVGID_1_"  style="overflow:visible;"/>
			</clipPath>
			<g style="clip-path:url(#SVGID_00000169548796634874715050000005015384930876032173_);">
				<g>
					<g>
						<polygon class="st2" points="346.6,348.2 -26.4,-20 -24.9,-21.5 348.2,346.7 						"/>
					</g>
					<g>
						<polygon class="st2" points="360.5,348.2 -12.5,-20 -10.9,-21.5 362.1,346.7 						"/>
					</g>
					<g>
						<polygon class="st2" points="374.5,348.2 1.5,-20 3,-21.5 376,346.7 						"/>
					</g>
					<g>
						<polygon class="st2" points="388.4,348.2 15.4,-20 17,-21.5 390,346.7 						"/>
					</g>
					<g>
						<polygon class="st2" points="402.4,348.2 29.4,-20 30.9,-21.5 403.9,346.7 						"/>
					</g>
					<g>
						<polygon class="st2" points="416.3,348.2 43.3,-20 44.9,-21.5 417.9,346.7 						"/>
					</g>
					<g>
						<polygon class="st2" points="430.3,348.2 57.2,-20 58.8,-21.5 431.8,346.7 						"/>
					</g>
					<g>
						<polygon class="st2" points="444.2,348.2 71.2,-20 72.8,-21.5 445.8,346.7 						"/>
					</g>
					<g>
						<polygon class="st2" points="458.1,348.2 85.1,-20 86.7,-21.5 459.7,346.7 						"/>
					</g>
					<g>
						<polygon class="st2" points="472.1,348.2 99.1,-20 100.7,-21.5 473.7,346.7 						"/>
					</g>
					<g>
						<polygon class="st2" points="486,348.2 113,-20 114.6,-21.5 487.6,346.7 						"/>
					</g>
					<g>
						<polygon class="st2" points="500,348.2 127,-20 128.5,-21.5 501.5,346.7 						"/>
					</g>
					<g>
						<polygon class="st2" points="513.9,348.2 140.9,-20 142.5,-21.5 515.5,346.7 						"/>
					</g>
					<g>
						<polygon class="st2" points="527.9,348.2 154.9,-20 156.4,-21.5 529.4,346.7 						"/>
					</g>
					<g>
						<polygon class="st2" points="541.8,348.2 168.8,-20 170.4,-21.5 543.4,346.7 						"/>
					</g>
					<g>
						<polygon class="st2" points="555.8,348.2 182.8,-20 184.3,-21.5 557.3,346.7 						"/>
					</g>
					<g>
						<polygon class="st2" points="569.7,348.2 196.7,-20 198.3,-21.5 571.3,346.7 						"/>
					</g>
					<g>
						<polygon class="st2" points="583.7,348.2 210.6,-20 212.2,-21.5 585.2,346.7 						"/>
					</g>
					<g>
						<polygon class="st2" points="597.6,348.2 224.6,-20 226.2,-21.5 599.2,346.7 						"/>
					</g>
					<g>
						<polygon class="st2" points="611.5,348.2 238.5,-20 240.1,-21.5 613.1,346.7 						"/>
					</g>
					<g>
						<polygon class="st2" points="625.5,348.2 252.5,-20 254.1,-21.5 627.1,346.7 						"/>
					</g>
					<g>
						<polygon class="st2" points="639.4,348.2 266.4,-20 268,-21.5 641,346.7 						"/>
					</g>
					<g>
						<polygon class="st2" points="653.4,348.2 280.4,-20 281.9,-21.5 655,346.7 						"/>
					</g>
					<g>
						<polygon class="st2" points="667.3,348.2 294.3,-20 295.9,-21.5 668.9,346.7 						"/>
					</g>
					<g>
						<polygon class="st2" points="681.3,348.2 308.3,-20 309.8,-21.5 682.8,346.7 						"/>
					</g>
					<g>
						<polygon class="st2" points="695.2,348.2 322.2,-20 323.8,-21.5 696.8,346.7 						"/>
					</g>
					<g>
						<polygon class="st2" points="709.2,348.2 336.1,-20 337.7,-21.5 710.7,346.7 						"/>
					</g>
					<g>
						<polygon class="st2" points="723.1,348.2 350.1,-20 351.7,-21.5 724.7,346.7 						"/>
					</g>
					<g>
						<polygon class="st2" points="737.1,348.2 364,-20 365.6,-21.5 738.6,346.7 						"/>
					</g>
					<g>
						<polygon class="st2" points="751,348.2 378,-20 379.5,-21.5 752.6,346.7 						"/>
					</g>
					<g>
						<polygon class="st2" points="765,348.2 391.9,-20 393.5,-21.5 766.5,346.7 						"/>
					</g>
					<g>
						<polygon class="st2" points="778.9,348.2 405.9,-20 407.4,-21.5 780.5,346.7 						"/>
					</g>
					<g>
						<polygon class="st2" points="792.8,348.2 419.8,-20 421.4,-21.5 794.4,346.7 						"/>
					</g>
					<g>
						<polygon class="st2" points="806.8,348.2 433.8,-20 435.3,-21.5 808.3,346.7 						"/>
					</g>
					<g>
						<polygon class="st2" points="820.7,348.2 447.7,-20 449.3,-21.5 822.3,346.7 						"/>
					</g>
					<g>
						<polygon class="st2" points="834.7,348.2 461.7,-20 463.2,-21.5 836.2,346.7 						"/>
					</g>
					<g>
						<polygon class="st2" points="179.2,348.2 -193.8,-20 -192.2,-21.5 180.8,346.7 						"/>
					</g>
					<g>
						<polygon class="st2" points="193.2,348.2 -179.8,-20 -178.2,-21.5 194.8,346.7 						"/>
					</g>
					<g>
						<polygon class="st2" points="207.1,348.2 -165.9,-20 -164.3,-21.5 208.7,346.7 						"/>
					</g>
					<g>
						<polygon class="st2" points="221.1,348.2 -151.9,-20 -150.4,-21.5 222.6,346.7 						"/>
					</g>
					<g>
						<polygon class="st2" points="235,348.2 -138,-20 -136.4,-21.5 236.6,346.7 						"/>
					</g>
					<g>
						<polygon class="st2" points="249,348.2 -124,-20 -122.5,-21.5 250.5,346.7 						"/>
					</g>
					<g>
						<polygon class="st2" points="262.9,348.2 -110.1,-20 -108.5,-21.5 264.5,346.7 						"/>
					</g>
					<g>
						<polygon class="st2" points="276.9,348.2 -96.1,-20 -94.6,-21.5 278.4,346.7 						"/>
					</g>
					<g>
						<polygon class="st2" points="290.8,348.2 -82.2,-20 -80.6,-21.5 292.4,346.7 						"/>
					</g>
					<g>
						<polygon class="st2" points="304.8,348.2 -68.2,-20 -66.7,-21.5 306.3,346.7 						"/>
					</g>
					<g>
						<polygon class="st2" points="318.7,348.2 -54.3,-20 -52.7,-21.5 320.3,346.7 						"/>
					</g>
					<g>
						<polygon class="st2" points="332.6,348.2 -40.4,-20 -38.8,-21.5 334.2,346.7 						"/>
					</g>
					<g>
						<polygon class="st2" points="11.9,348.2 -361.1,-20 -359.5,-21.5 13.5,346.7 						"/>
					</g>
					<g>
						<polygon class="st2" points="25.9,348.2 -347.1,-20 -345.6,-21.5 27.4,346.7 						"/>
					</g>
					<g>
						<polygon class="st2" points="39.8,348.2 -333.2,-20 -331.6,-21.5 41.4,346.7 						"/>
					</g>
					<g>
						<polygon class="st2" points="53.8,348.2 -319.3,-20 -317.7,-21.5 55.3,346.7 						"/>
					</g>
					<g>
						<polygon class="st2" points="67.7,348.2 -305.3,-20 -303.8,-21.5 69.3,346.7 						"/>
					</g>
					<g>
						<polygon class="st2" points="81.6,348.2 -291.4,-20 -289.8,-21.5 83.2,346.7 						"/>
					</g>
					<g>
						<polygon class="st2" points="95.6,348.2 -277.4,-20 -275.9,-21.5 97.2,346.7 						"/>
					</g>
					<g>
						<polygon class="st2" points="109.5,348.2 -263.5,-20 -261.9,-21.5 111.1,346.7 						"/>
					</g>
					<g>
						<polygon class="st2" points="123.5,348.2 -249.5,-20 -248,-21.5 125,346.7 						"/>
					</g>
					<g>
						<polygon class="st2" points="137.4,348.2 -235.6,-20 -234,-21.5 139,346.7 						"/>
					</g>
					<g>
						<polygon class="st2" points="151.4,348.2 -221.6,-20 -220.1,-21.5 152.9,346.7 						"/>
					</g>
					<g>
						<polygon class="st2" points="165.3,348.2 -207.7,-20 -206.1,-21.5 166.9,346.7 						"/>
					</g>
					<g>
						<polygon class="st2" points="-348.9,338 24.2,-30.2 25.7,-28.7 -347.3,339.6 						"/>
					</g>
					<g>
						<polygon class="st2" points="-335,338 38.1,-30.2 39.6,-28.7 -333.4,339.6 						"/>
					</g>
					<g>
						<polygon class="st2" points="-321.1,338 52,-30.2 53.5,-28.7 -319.5,339.6 						"/>
					</g>
					<g>
						<polygon class="st2" points="-307.2,338 65.8,-30.2 67.4,-28.7 -305.6,339.6 						"/>
					</g>
					<g>
						<polygon class="st2" points="-293.3,338 79.7,-30.2 81.3,-28.7 -291.7,339.6 						"/>
					</g>
					<g>
						<polygon class="st2" points="-279.4,338 93.6,-30.2 95.2,-28.7 -277.8,339.6 						"/>
					</g>
					<g>
						<polygon class="st2" points="-265.5,338 107.5,-30.2 109.1,-28.7 -263.9,339.6 						"/>
					</g>
					<g>
						<polygon class="st2" points="-251.6,338 121.4,-30.2 123,-28.7 -250,339.6 						"/>
					</g>
					<g>
						<polygon class="st2" points="-237.7,338 135.3,-30.2 136.9,-28.7 -236.1,339.6 						"/>
					</g>
					<g>
						<polygon class="st2" points="-223.8,338 149.2,-30.2 150.8,-28.7 -222.2,339.6 						"/>
					</g>
					<g>
						<polygon class="st2" points="-209.9,338 163.1,-30.2 164.7,-28.7 -208.4,339.6 						"/>
					</g>
					<g>
						<polygon class="st2" points="-196,338 177,-30.2 178.6,-28.7 -194.5,339.6 						"/>
					</g>
					<g>
						<polygon class="st2" points="-182.1,338 190.9,-30.2 192.4,-28.7 -180.6,339.6 						"/>
					</g>
					<g>
						<polygon class="st2" points="-168.2,338 204.8,-30.2 206.3,-28.7 -166.7,339.6 						"/>
					</g>
					<g>
						<polygon class="st2" points="-154.3,338 218.7,-30.2 220.2,-28.7 -152.8,339.6 						"/>
					</g>
					<g>
						<polygon class="st2" points="-140.4,338 232.6,-30.2 234.1,-28.7 -138.9,339.6 						"/>
					</g>
					<g>
						<polygon class="st2" points="-126.6,338 246.4,-30.2 248,-28.7 -125,339.6 						"/>
					</g>
					<g>
						<polygon class="st2" points="-112.7,338 260.4,-30.2 261.9,-28.7 -111.1,339.6 						"/>
					</g>
					<g>
						<polygon class="st2" points="-98.8,338 274.2,-30.2 275.8,-28.7 -97.2,339.6 						"/>
					</g>
					<g>
						<polygon class="st2" points="-84.9,338 288.1,-30.2 289.7,-28.7 -83.3,339.6 						"/>
					</g>
					<g>
						<polygon class="st2" points="-71,338 302,-30.2 303.6,-28.7 -69.4,339.6 						"/>
					</g>
					<g>
						<polygon class="st2" points="-57.1,338 315.9,-30.2 317.5,-28.7 -55.5,339.6 						"/>
					</g>
					<g>
						<polygon class="st2" points="-43.2,338 329.8,-30.2 331.4,-28.7 -41.6,339.6 						"/>
					</g>
					<g>
						<polygon class="st2" points="-29.3,338 343.7,-30.2 345.3,-28.7 -27.7,339.6 						"/>
					</g>
					<g>
						<polygon class="st2" points="-15.4,338 357.6,-30.2 359.2,-28.7 -13.9,339.6 						"/>
					</g>
					<g>
						<polygon class="st2" points="-1.5,338 371.5,-30.2 373,-28.7 0,339.6 						"/>
					</g>
					<g>
						<polygon class="st2" points="12.4,338 385.4,-30.2 387,-28.7 13.9,339.6 						"/>
					</g>
					<g>
						<polygon class="st2" points="26.3,338 399.3,-30.2 400.8,-28.7 27.8,339.6 						"/>
					</g>
					<g>
						<polygon class="st2" points="40.2,338 413.2,-30.2 414.7,-28.7 41.7,339.6 						"/>
					</g>
					<g>
						<polygon class="st2" points="54,338 427.1,-30.2 428.6,-28.7 55.6,339.6 						"/>
					</g>
					<g>
						<polygon class="st2" points="67.9,338 441,-30.2 442.5,-28.7 69.5,339.6 						"/>
					</g>
					<g>
						<polygon class="st2" points="81.8,338 454.9,-30.2 456.4,-28.7 83.4,339.6 						"/>
					</g>
					<g>
						<polygon class="st2" points="95.7,338 468.7,-30.2 470.3,-28.7 97.3,339.6 						"/>
					</g>
					<g>
						<polygon class="st2" points="109.6,338 482.6,-30.2 484.2,-28.7 111.2,339.6 						"/>
					</g>
					<g>
						<polygon class="st2" points="123.5,338 496.5,-30.2 498.1,-28.7 125.1,339.6 						"/>
					</g>
					<g>
						<polygon class="st2" points="137.4,338 510.4,-30.2 512,-28.7 139,339.6 						"/>
					</g>
					<g>
						<polygon class="st2" points="151.3,338 524.3,-30.2 525.9,-28.7 152.9,339.6 						"/>
					</g>
					<g>
						<polygon class="st2" points="165.2,338 538.2,-30.2 539.8,-28.7 166.8,339.6 						"/>
					</g>
					<g>
						<polygon class="st2" points="179.1,338 552.1,-30.2 553.7,-28.7 180.6,339.6 						"/>
					</g>
					<g>
						<polygon class="st2" points="193,338 566,-30.2 567.6,-28.7 194.6,339.6 						"/>
					</g>
					<g>
						<polygon class="st2" points="206.9,338 579.9,-30.2 581.5,-28.7 208.4,339.6 						"/>
					</g>
					<g>
						<polygon class="st2" points="220.8,338 593.8,-30.2 595.3,-28.7 222.3,339.6 						"/>
					</g>
					<g>
						<polygon class="st2" points="234.7,338 607.7,-30.2 609.2,-28.7 236.2,339.6 						"/>
					</g>
					<g>
						<polygon class="st2" points="248.6,338 621.6,-30.2 623.1,-28.7 250.1,339.6 						"/>
					</g>
					<g>
						<polygon class="st2" points="262.5,338 635.5,-30.2 637,-28.7 264,339.6 						"/>
					</g>
					<g>
						<polygon class="st2" points="276.3,338 649.3,-30.2 650.9,-28.7 277.9,339.6 						"/>
					</g>
					<g>
						<polygon class="st2" points="290.2,338 663.2,-30.2 664.8,-28.7 291.8,339.6 						"/>
					</g>
					<g>
						<polygon class="st2" points="304.1,338 677.1,-30.2 678.7,-28.7 305.7,339.6 						"/>
					</g>
					<g>
						<polygon class="st2" points="318,338 691,-30.2 692.6,-28.7 319.6,339.6 						"/>
					</g>
					<g>
						<polygon class="st2" points="331.9,338 704.9,-30.2 706.5,-28.7 333.5,339.6 						"/>
					</g>
					<g>
						<polygon class="st2" points="345.8,338 718.8,-30.2 720.4,-28.7 347.4,339.6 						"/>
					</g>
					<g>
						<polygon class="st2" points="359.7,338 732.7,-30.2 734.3,-28.7 361.3,339.6 						"/>
					</g>
					<g>
						<polygon class="st2" points="373.6,338 746.6,-30.2 748.2,-28.7 375.2,339.6 						"/>
					</g>
					<g>
						<polygon class="st2" points="387.5,338 760.5,-30.2 762.1,-28.7 389,339.6 						"/>
					</g>
					<g>
						<polygon class="st2" points="401.4,338 774.4,-30.2 776,-28.7 402.9,339.6 						"/>
					</g>
					<g>
						<polygon class="st2" points="415.3,338 788.3,-30.2 789.8,-28.7 416.8,339.6 						"/>
					</g>
					<g>
						<polygon class="st2" points="429.2,338 802.2,-30.2 803.7,-28.7 430.7,339.6 						"/>
					</g>
					<g>
						<polygon class="st2" points="443.1,338 816.1,-30.2 817.6,-28.7 444.6,339.6 						"/>
					</g>
					<g>
						<polygon class="st2" points="457,338 830,-30.2 831.5,-28.7 458.5,339.6 						"/>
					</g>
					<g>
						<polygon class="st2" points="470.8,338 843.9,-30.2 845.4,-28.7 472.4,339.6 						"/>
					</g>
					<g>
						<polygon class="st2" points="484.7,338 857.8,-30.2 859.3,-28.7 486.3,339.6 						"/>
					</g>
					<g>
						<polygon class="st2" points="498.6,338 871.6,-30.2 873.2,-28.7 500.2,339.6 						"/>
					</g>
				</g>
			</g>
		</g>
	</g>
</g>
<g id="Camada_3" class="st0">
</g>
</svg>
