<?xml version="1.0" encoding="utf-8"?>
<!-- Generator: Adobe Illustrator 28.0.0, SVG Export Plug-In . SVG Version: 6.00 Build 0)  -->
<svg version="1.1" xmlns="http://www.w3.org/2000/svg" xmlns:xlink="http://www.w3.org/1999/xlink" x="0px" y="0px"
	 viewBox="0 0 173 105" style="enable-background:new 0 0 173 105;" xml:space="preserve">
<style type="text/css">
	.st0{display:none;}
	.st1{display:inline;fill:#59778E;}
	.st2{clip-path:url(#SVGID_00000102509403992636634940000001196292446768387509_);}
	.st3{fill:#000000;}
	.st4{clip-path:url(#SVGID_00000135669646014155881260000000413556981899313572_);}
</style>
<g id="Camada_2">
</g>
<g id="Camada_1">
	<g id="Camada_2_00000088115627211945897400000002217092605672126338_" class="st0">
		<rect x="-911.5" y="-209.5" class="st1" width="2269" height="1089"/>
	</g>
	<g id="Camada_1_00000073717446753586815190000009297267899059174068_">
		<g>
			<g>
				<defs>
					<path id="SVGID_1_" d="M123.3,104.4H0V0h123.3c0,0,49.2,32.2,49.2,52.2S123.3,104.4,123.3,104.4z"/>
				</defs>
				<clipPath id="SVGID_00000093894082125163256030000010733121954773839275_">
					<use xlink:href="#SVGID_1_"  style="overflow:visible;"/>
				</clipPath>
				<g style="clip-path:url(#SVGID_00000093894082125163256030000010733121954773839275_);">
					<g>
						<g>
							<rect x="152.4" y="-160.9" class="st3" width="7.1" height="296.8"/>
						</g>
						<g>
							<rect x="134.4" y="-160.9" class="st3" width="7.1" height="296.8"/>
						</g>
						<g>
							<rect x="116.3" y="-160.9" class="st3" width="7.1" height="296.8"/>
						</g>
						<g>
							<rect x="98.3" y="-160.9" class="st3" width="7.1" height="296.8"/>
						</g>
						<g>
							<rect x="80.2" y="-160.9" class="st3" width="7.1" height="296.8"/>
						</g>
						<g>
							<rect x="62.2" y="-160.9" class="st3" width="7.1" height="296.8"/>
						</g>
						<g>
							<rect x="44.2" y="-160.9" class="st3" width="7.1" height="296.8"/>
						</g>
						<g>
							<rect x="26.1" y="-160.9" class="st3" width="7.1" height="296.8"/>
						</g>
						<g>
							<rect x="8.1" y="-160.9" class="st3" width="7.1" height="296.8"/>
						</g>
						<g>
							<rect x="-245.5" y="11.8" class="st3" width="449.4" height="4.8"/>
						</g>
						<g>
							<rect x="-245.5" y="29.8" class="st3" width="449.4" height="4.8"/>
						</g>
						<g>
							<rect x="-245.5" y="47.8" class="st3" width="449.4" height="4.8"/>
						</g>
						<g>
							<rect x="-245.5" y="65.8" class="st3" width="449.4" height="4.8"/>
						</g>
						<g>
							<rect x="-245.5" y="83.8" class="st3" width="449.4" height="4.8"/>
						</g>
						<g>
							<rect x="-245.5" y="101.8" class="st3" width="449.4" height="4.8"/>
						</g>
						<g>
							<rect x="170.5" y="-160.9" class="st3" width="7.1" height="296.8"/>
						</g>
					</g>
				</g>
			</g>
			<g>
				<defs>
					<path id="SVGID_00000183224800660902808400000005244828654153451455_" d="M123.3,104.4H0V0h123.3c0,0,49.2,32.2,49.2,52.2
						S123.3,104.4,123.3,104.4z"/>
				</defs>
				<clipPath id="SVGID_00000178917005122863165630000005377434466596604351_">
					<use xlink:href="#SVGID_00000183224800660902808400000005244828654153451455_"  style="overflow:visible;"/>
				</clipPath>
				<g style="clip-path:url(#SVGID_00000178917005122863165630000005377434466596604351_);">
					<path class="st3" d="M202.2-160.3v295.2H-239v-295.2H202.2 M203.2-161.3H-240v297.2h443.2V-161.3L203.2-161.3z"/>
				</g>
			</g>
		</g>
		<g>
			<path class="st3" d="M123,1c3.8,2.5,48.5,32.7,48.5,51.2c0,18.5-44.8,48.7-48.5,51.2H1V1H123 M123.3,0H0v104.4h123.3
				c0,0,49.2-32.2,49.2-52.2S123.3,0,123.3,0L123.3,0z"/>
		</g>
	</g>
	<g id="Camada_3" class="st0">
	</g>
</g>
</svg>
