<?xml version="1.0" encoding="utf-8"?>
<!-- Generator: Adobe Illustrator 28.0.0, SVG Export Plug-In . SVG Version: 6.00 Build 0)  -->
<svg version="1.1" id="Camada_1" xmlns="http://www.w3.org/2000/svg" xmlns:xlink="http://www.w3.org/1999/xlink" x="0px" y="0px"
	 viewBox="0 0 173 105" style="enable-background:new 0 0 173 105;" xml:space="preserve">
<style type="text/css">
	.st0{display:none;}
	.st1{display:inline;fill:#59778E;}
	.st2{fill:#000000;}
	.st3{clip-path:url(#SVGID_00000057844376337639742150000000936498629202747031_);}
	.st4{clip-path:url(#SVGID_00000041276953821556150050000016202348523719339410_);}
	.st5{clip-path:url(#SVGID_00000063622304637949727580000017354648746761001128_);}
</style>
<g id="Camada_2_00000058565076714846184110000002770482849820512415_" class="st0">
	<rect x="-1311.5" y="-209.5" class="st1" width="2269" height="1089"/>
</g>
<g id="Camada_1_00000163060783553181267010000015217766308967490962_">
	<g>
		<path class="st2" d="M123,1c3.8,2.5,48.5,32.7,48.5,51.2c0,18.5-44.8,48.7-48.5,51.2H1V1H123 M123.3,0H0v104.4h123.3
			c0,0,49.2-32.2,49.2-52.2S123.3,0,123.3,0L123.3,0z"/>
	</g>
	<g>
		<g>
			<defs>
				<path id="SVGID_1_" d="M92.9,68.9c8.3-22.2,6.6-42.1,13.2-54C111.8,4.5,121,0.9,123.4,0.1C123.3,0,123.3,0,123.3,0H0v104.4h70.3
					C71.5,103.2,84.9,90.1,92.9,68.9z"/>
			</defs>
			<clipPath id="SVGID_00000004546913485184393540000005049034762622272924_">
				<use xlink:href="#SVGID_1_"  style="overflow:visible;"/>
			</clipPath>
			<g style="clip-path:url(#SVGID_00000004546913485184393540000005049034762622272924_);">
				<g>
					<defs>
						<path id="SVGID_00000129900091762073856220000000488860434629341620_" d="M123.3,104.4H0V0h123.3c0,0,49.2,32.2,49.2,52.2
							S123.3,104.4,123.3,104.4z"/>
					</defs>
					<clipPath id="SVGID_00000062159790134937273630000014258858508826783646_">
						<use xlink:href="#SVGID_00000129900091762073856220000000488860434629341620_"  style="overflow:visible;"/>
					</clipPath>
					<g style="clip-path:url(#SVGID_00000062159790134937273630000014258858508826783646_);">
						<g>
							<g>
								<rect x="152.4" y="-160.9" class="st2" width="7.1" height="296.8"/>
							</g>
							<g>
								<rect x="134.4" y="-160.9" class="st2" width="7.1" height="296.8"/>
							</g>
							<g>
								<rect x="116.3" y="-160.9" class="st2" width="7.1" height="296.8"/>
							</g>
							<g>
								<rect x="98.3" y="-160.9" class="st2" width="7.1" height="296.8"/>
							</g>
							<g>
								<rect x="80.2" y="-160.9" class="st2" width="7.1" height="296.8"/>
							</g>
							<g>
								<rect x="62.2" y="-160.9" class="st2" width="7.1" height="296.8"/>
							</g>
							<g>
								<rect x="44.2" y="-160.9" class="st2" width="7.1" height="296.8"/>
							</g>
							<g>
								<rect x="26.1" y="-160.9" class="st2" width="7.1" height="296.8"/>
							</g>
							<g>
								<rect x="8.1" y="-160.9" class="st2" width="7.1" height="296.8"/>
							</g>
							<g>
								<rect x="-245.5" y="11.8" class="st2" width="449.4" height="4.8"/>
							</g>
							<g>
								<rect x="-245.5" y="29.8" class="st2" width="449.4" height="4.8"/>
							</g>
							<g>
								<rect x="-245.5" y="47.8" class="st2" width="449.4" height="4.8"/>
							</g>
							<g>
								<rect x="-245.5" y="65.8" class="st2" width="449.4" height="4.8"/>
							</g>
							<g>
								<rect x="-245.5" y="83.8" class="st2" width="449.4" height="4.8"/>
							</g>
							<g>
								<rect x="-245.5" y="101.8" class="st2" width="449.4" height="4.8"/>
							</g>
							<g>
								<rect x="170.5" y="-160.9" class="st2" width="7.1" height="296.8"/>
							</g>
						</g>
					</g>
				</g>
				<g>
					<defs>
						<path id="SVGID_00000121975970968776824660000014099504522694383036_" d="M123.3,104.4H0V0h123.3c0,0,49.2,32.2,49.2,52.2
							S123.3,104.4,123.3,104.4z"/>
					</defs>
					<clipPath id="SVGID_00000060026872821175207280000010064464571811193232_">
						<use xlink:href="#SVGID_00000121975970968776824660000014099504522694383036_"  style="overflow:visible;"/>
					</clipPath>
					<g style="clip-path:url(#SVGID_00000060026872821175207280000010064464571811193232_);">
						<path class="st2" d="M202.2-160.3v295.2H-239v-295.2H202.2 M203.2-161.3H-240v297.2h443.2V-161.3L203.2-161.3z"/>
					</g>
				</g>
			</g>
		</g>
	</g>
</g>
<g id="Camada_3" class="st0">
</g>
</svg>
