<?xml version="1.0" encoding="utf-8"?>
<!-- Generator: Adobe Illustrator 28.0.0, SVG Export Plug-In . SVG Version: 6.00 Build 0)  -->
<svg version="1.1" id="Camada_1" xmlns="http://www.w3.org/2000/svg" xmlns:xlink="http://www.w3.org/1999/xlink" x="0px" y="0px"
	 viewBox="0 0 173 105" style="enable-background:new 0 0 173 105;" xml:space="preserve">
<style type="text/css">
	.st0{display:none;}
	.st1{display:inline;fill:#59778E;}
	.st2{fill:#000000;}
	.st3{clip-path:url(#SVGID_00000180352847591491743050000012842743143483092117_);}
	.st4{clip-path:url(#SVGID_00000110439325473523973840000012440044366905412995_);}
	.st5{clip-path:url(#SVGID_00000152223817548072017490000016920401699936134318_);}
</style>
<g id="Camada_2_00000066505731248210898950000009863805931927336849_" class="st0">
	<rect x="-1508" y="-209.5" class="st1" width="2269" height="1089"/>
</g>
<g id="Camada_1_00000161627536035907360910000013338732598826070189_">
	<g>
		<path class="st2" d="M123,1c3.8,2.5,48.5,32.7,48.5,51.2c0,18.5-44.8,48.7-48.5,51.2H1V1H123 M123.3,0H0v104.4h123.3
			c0,0,49.2-32.2,49.2-52.2S123.3,0,123.3,0L123.3,0z"/>
	</g>
	<g>
		<g>
			<defs>
				<path id="SVGID_1_" d="M93.9,68.9c8.3-22.2,6.6-42.1,13.2-54C112.8,4.5,122,0.9,124.4,0.1C124.3,0,124.3,0,124.3,0H1v104.4h70.3
					C72.5,103.2,85.9,90.1,93.9,68.9z"/>
			</defs>
			<clipPath id="SVGID_00000043442237659916219510000006240607814042608566_">
				<use xlink:href="#SVGID_1_"  style="overflow:visible;"/>
			</clipPath>
			<g style="clip-path:url(#SVGID_00000043442237659916219510000006240607814042608566_);">
				<g>
					<defs>
						<path id="SVGID_00000090984012688713999530000007616984737094764471_" d="M124.3,104.4H1V0h123.3c0,0,49.2,32.2,49.2,52.2
							S124.3,104.4,124.3,104.4z"/>
					</defs>
					<clipPath id="SVGID_00000151502477241570082870000007935983283045951898_">
						<use xlink:href="#SVGID_00000090984012688713999530000007616984737094764471_"  style="overflow:visible;"/>
					</clipPath>
					<g style="clip-path:url(#SVGID_00000151502477241570082870000007935983283045951898_);">
						<g>
							<g>
								<rect x="-244.5" y="11.8" class="st2" width="449.4" height="4.8"/>
							</g>
							<g>
								<rect x="-244.5" y="29.8" class="st2" width="449.4" height="4.8"/>
							</g>
							<g>
								<rect x="-244.5" y="47.8" class="st2" width="449.4" height="4.8"/>
							</g>
							<g>
								<rect x="-244.5" y="65.8" class="st2" width="449.4" height="4.8"/>
							</g>
							<g>
								<rect x="-244.5" y="83.8" class="st2" width="449.4" height="4.8"/>
							</g>
							<g>
								<rect x="-244.5" y="101.8" class="st2" width="449.4" height="4.8"/>
							</g>
						</g>
					</g>
				</g>
				<g>
					<defs>
						<path id="SVGID_00000021827670210926443310000011390488342688964250_" d="M124.3,104.4H1V0h123.3c0,0,49.2,32.2,49.2,52.2
							S124.3,104.4,124.3,104.4z"/>
					</defs>
					<clipPath id="SVGID_00000131327779950473612130000002947439541521895095_">
						<use xlink:href="#SVGID_00000021827670210926443310000011390488342688964250_"  style="overflow:visible;"/>
					</clipPath>
					<g style="clip-path:url(#SVGID_00000131327779950473612130000002947439541521895095_);">
						<path class="st2" d="M203.2-160.3v295.2H-238v-295.2H203.2 M204.2-161.3H-239v297.2h443.2V-161.3L204.2-161.3z"/>
					</g>
				</g>
			</g>
		</g>
	</g>
</g>
<g id="Camada_3" class="st0">
</g>
</svg>
