<?xml version="1.0" encoding="utf-8"?>
<!-- Generator: Adobe Illustrator 28.0.0, SVG Export Plug-In . SVG Version: 6.00 Build 0)  -->
<svg version="1.1" id="Camada_1" xmlns="http://www.w3.org/2000/svg" xmlns:xlink="http://www.w3.org/1999/xlink" x="0px" y="0px"
	 viewBox="0 0 500 335" style="enable-background:new 0 0 500 335;" xml:space="preserve">
<style type="text/css">
	.st0{display:none;}
	.st1{display:inline;fill:#59778E;}
	.st2{fill:#000000;}
	.st3{clip-path:url(#SVGID_00000080179041684436330010000013938171859422038180_);}
</style>
<g id="Camada_2_00000072252883500915267380000001760971672401485462_" class="st0">
	<rect x="-228" y="-209.5" class="st1" width="2269" height="1089"/>
</g>
<g id="Camada_1_00000052096705959609867640000005024492590034794387_">
	<g>
		<path class="st2" d="M498.5,1.1V334H1V1.1H498.5 M499.5,0.1H0V335h499.5V0.1L499.5,0.1z"/>
	</g>
	<g>
		<path class="st2" d="M409.3,182.9c4,2.7,54.8,36.8,54.8,57.8s-50.8,55.2-54.8,57.8H271.7V182.9H409.3 M409.6,181.9H270.7v117.6
			h138.9c0,0,55.5-36.2,55.5-58.8S409.6,181.9,409.6,181.9L409.6,181.9z"/>
	</g>
	<g>
		<g>
			<defs>
				<path id="SVGID_1_" d="M1,0.1V335h499V0.1H1z M410.1,299.5H271.2V181.9h138.9c0,0,55.5,36.2,55.5,58.8S410.1,299.5,410.1,299.5z
					"/>
			</defs>
			<clipPath id="SVGID_00000118397119220947682560000018216471255633917590_">
				<use xlink:href="#SVGID_1_"  style="overflow:visible;"/>
			</clipPath>
			<g style="clip-path:url(#SVGID_00000118397119220947682560000018216471255633917590_);">
				<g>
					<g>
						<rect x="442" y="0.6" class="st2" width="8" height="334.4"/>
					</g>
					<g>
						<rect x="482.7" y="0.6" class="st2" width="8" height="334.4"/>
					</g>
					<g>
						<rect x="421.6" y="0.6" class="st2" width="8" height="334.4"/>
					</g>
					<g>
						<rect x="401.3" y="0.6" class="st2" width="8" height="334.4"/>
					</g>
					<g>
						<rect x="381" y="0.6" class="st2" width="8" height="334.4"/>
					</g>
					<g>
						<rect x="360.6" y="0.6" class="st2" width="8" height="334.4"/>
					</g>
					<g>
						<rect x="340.3" y="0.6" class="st2" width="8" height="334.4"/>
					</g>
					<g>
						<rect x="319.9" y="0.6" class="st2" width="8" height="334.4"/>
					</g>
					<g>
						<rect x="299.6" y="0.6" class="st2" width="8" height="334.4"/>
					</g>
					<g>
						<rect x="279.3" y="0.6" class="st2" width="8" height="334.4"/>
					</g>
					<g>
						<rect x="258.9" y="0.6" class="st2" width="8" height="334.4"/>
					</g>
					<g>
						<rect x="238.6" y="0.6" class="st2" width="8" height="334.4"/>
					</g>
					<g>
						<rect x="218.2" y="0.6" class="st2" width="8" height="334.4"/>
					</g>
					<g>
						<rect x="197.9" y="0.6" class="st2" width="8" height="334.4"/>
					</g>
					<g>
						<rect x="177.6" y="0.6" class="st2" width="8" height="334.4"/>
					</g>
					<g>
						<rect x="157.2" y="0.6" class="st2" width="8" height="334.4"/>
					</g>
					<g>
						<rect x="136.9" y="0.6" class="st2" width="8" height="334.4"/>
					</g>
					<g>
						<rect x="116.5" y="0.6" class="st2" width="8" height="334.4"/>
					</g>
					<g>
						<rect x="96.2" y="0.6" class="st2" width="8" height="334.4"/>
					</g>
					<g>
						<rect x="75.9" y="0.6" class="st2" width="8" height="334.4"/>
					</g>
					<g>
						<rect x="55.5" y="0.6" class="st2" width="8" height="334.4"/>
					</g>
					<g>
						<rect x="35.2" y="0.6" class="st2" width="8" height="334.4"/>
					</g>
					<g>
						<rect x="14.8" y="0.6" class="st2" width="8" height="334.4"/>
					</g>
					<g>
						<rect x="-6.5" y="12.5" class="st2" width="506.5" height="5.4"/>
					</g>
					<g>
						<rect x="-6.5" y="32.8" class="st2" width="506.5" height="5.4"/>
					</g>
					<g>
						<rect x="-6.5" y="53.1" class="st2" width="506.5" height="5.4"/>
					</g>
					<g>
						<rect x="-6.5" y="73.4" class="st2" width="506.5" height="5.4"/>
					</g>
					<g>
						<rect x="-6.5" y="93.7" class="st2" width="506.5" height="5.4"/>
					</g>
					<g>
						<rect x="-6.5" y="114" class="st2" width="506.5" height="5.4"/>
					</g>
					<g>
						<rect x="-6.5" y="134.3" class="st2" width="506.5" height="5.4"/>
					</g>
					<g>
						<rect x="-6.5" y="154.6" class="st2" width="506.5" height="5.4"/>
					</g>
					<g>
						<rect x="-6.5" y="174.9" class="st2" width="506.5" height="5.4"/>
					</g>
					<g>
						<rect x="-6.5" y="195.2" class="st2" width="506.5" height="5.4"/>
					</g>
					<g>
						<rect x="-6.5" y="215.5" class="st2" width="506.5" height="5.4"/>
					</g>
					<g>
						<rect x="-6.5" y="235.8" class="st2" width="506.5" height="5.4"/>
					</g>
					<g>
						<rect x="-6.5" y="256.1" class="st2" width="506.5" height="5.4"/>
					</g>
					<g>
						<rect x="-6.5" y="276.4" class="st2" width="506.5" height="5.4"/>
					</g>
					<g>
						<rect x="-6.5" y="296.6" class="st2" width="506.5" height="5.4"/>
					</g>
					<g>
						<rect x="-6.5" y="317" class="st2" width="506.5" height="5.4"/>
					</g>
					<g>
						<rect x="462.3" y="0.6" class="st2" width="8" height="334.4"/>
					</g>
				</g>
			</g>
		</g>
	</g>
</g>
<g id="Camada_3" class="st0">
</g>
</svg>
