<?xml version="1.0" encoding="utf-8"?>
<!-- Generator: Adobe Illustrator 25.0.0, SVG Export Plug-In . SVG Version: 6.00 Build 0)  -->
<svg version="1.1" xmlns="http://www.w3.org/2000/svg" xmlns:xlink="http://www.w3.org/1999/xlink" x="0px" y="0px"
	 viewBox="0 0 173 105" style="enable-background:new 0 0 173 105;" xml:space="preserve">
<style type="text/css">
	.st0{display:none;}
	.st1{display:inline;fill:#59778E;}
	.st2{fill:#000000;}
	.st3{fill:none;stroke:#000000;stroke-miterlimit:10;}
	.st4{clip-path:url(#SVGID_2_);}
	.st5{clip-path:url(#SVGID_4_);}
	.st6{display:inline;}
	.st7{clip-path:url(#SVGID_5_);}
</style>
<g id="Camada_2" class="st0">
	<rect x="-1711.5" y="-209.5" class="st1" width="2269" height="1089"/>
</g>
<g id="Camada_1">
	<g>
		<g>
			<path class="st2" d="M125.98,1c3.69,2.61,45.65,32.7,45.65,51.25s-41.96,48.64-45.65,51.25H1V1H125.98 M126.3,0H0v104.5h126.3
				c0,0,46.33-32.2,46.33-52.25S126.3,0,126.3,0L126.3,0z"/>
		</g>
		<g>
			<g>
				<polygon class="st2" points="161.5,31.5 0,32.09 0,29.6 159.5,29.5 				"/>
			</g>
			<g>
				<rect x="34" class="st2" width="2.5" height="104.5"/>
			</g>
			<g>
				<rect x="73.31" class="st2" width="2.5" height="104.5"/>
			</g>
			<g>
				<rect x="113.86" class="st2" width="2.5" height="104.5"/>
			</g>
			<g>
				<polygon class="st2" points="165.5,68.5 0,68.85 0,66.36 166.01,66.36 				"/>
			</g>
		</g>
	</g>
</g>
<g id="Camada_3" class="st0">
</g>
</svg>
