<?xml version="1.0" encoding="utf-8"?>
<!-- Generator: Adobe Illustrator 25.0.0, SVG Export Plug-In . SVG Version: 6.00 Build 0)  -->
<svg version="1.1" xmlns="http://www.w3.org/2000/svg" xmlns:xlink="http://www.w3.org/1999/xlink" x="0px" y="0px"
	 viewBox="0 0 173 105" style="enable-background:new 0 0 173 105;" xml:space="preserve">
<style type="text/css">
	.st0{display:none;}
	.st1{display:inline;fill:#59778E;}
	.st2{fill:#000000;}
	.st3{fill:none;stroke:#000000;stroke-miterlimit:10;}
	.st4{clip-path:url(#SVGID_2_);}
	.st5{clip-path:url(#SVGID_4_);}
	.st6{display:inline;}
	.st7{clip-path:url(#SVGID_5_);}
</style>
<g id="Camada_2" class="st0">
	<rect x="-911.5" y="-209.5" class="st1" width="2269" height="1089"/>
</g>
<g id="Camada_1">
	<g>
		<g>
			<path class="st2" d="M125.89,1c3.68,2.6,45.61,32.68,45.61,51.21c0,18.53-41.93,48.61-45.61,51.21H1V1H125.89 M126.2,0H0v104.42
				h126.2c0,0,46.3-32.18,46.3-52.21C172.5,32.18,126.2,0,126.2,0L126.2,0z"/>
		</g>
		<g>
			<g>
				<rect x="10.46" y="16.4" class="st2" width="39.63" height="2.52"/>
			</g>
			<g>
				<rect x="10.46" y="40.18" class="st2" width="39.63" height="2.52"/>
			</g>
			<g>
				<rect x="10.46" y="63.96" class="st2" width="39.63" height="2.52"/>
			</g>
			<g>
				<rect x="10.46" y="87.74" class="st2" width="39.63" height="2.52"/>
			</g>
			<g>
				<rect x="73.2" y="16.4" class="st2" width="39.63" height="2.52"/>
			</g>
			<g>
				<rect x="73.2" y="40.18" class="st2" width="39.63" height="2.52"/>
			</g>
			<g>
				<rect x="73.2" y="63.96" class="st2" width="39.63" height="2.52"/>
			</g>
			<g>
				<polygon class="st2" points="169.18,42.69 138.1,42.69 138.1,40.18 166.94,40.18 				"/>
			</g>
			<g>
				<polygon class="st2" points="164.25,66.47 138.1,66.47 138.1,63.96 167.76,63.96 				"/>
			</g>
			<g>
				<rect x="73.2" y="87.74" class="st2" width="39.63" height="2.52"/>
			</g>
		</g>
	</g>
	<g>
		<g>
			<defs>
				<path id="SVGID_3_" d="M323.41,104.5H200V0h123.41c0,0,49.28,32.2,49.28,52.25S323.41,104.5,323.41,104.5z"/>
			</defs>
			<clipPath id="SVGID_2_">
				<use xlink:href="#SVGID_3_"  style="overflow:visible;"/>
			</clipPath>
			<g class="st4">
				<g>
					<g>
						<circle class="st2" cx="16.24" cy="20.33" r="6.81"/>
					</g>
					<g>
						<circle class="st2" cx="16.24" cy="53.44" r="6.81"/>
					</g>
					<g>
						<circle class="st2" cx="16.24" cy="86.55" r="6.81"/>
					</g>
				</g>
				<g>
					<g>
						<circle class="st2" cx="49.32" cy="20.33" r="6.81"/>
					</g>
					<g>
						<circle class="st2" cx="49.32" cy="53.44" r="6.81"/>
					</g>
					<g>
						<circle class="st2" cx="49.32" cy="86.55" r="6.81"/>
					</g>
				</g>
				<g>
					<g>
						<circle class="st2" cx="82.39" cy="20.33" r="6.81"/>
					</g>
					<g>
						<circle class="st2" cx="82.39" cy="53.44" r="6.81"/>
					</g>
					<g>
						<circle class="st2" cx="82.39" cy="86.55" r="6.81"/>
					</g>
				</g>
				<g>
					<g>
						<circle class="st2" cx="115.47" cy="20.33" r="6.81"/>
					</g>
					<g>
						<circle class="st2" cx="115.47" cy="53.44" r="6.81"/>
					</g>
					<g>
						<circle class="st2" cx="115.47" cy="86.55" r="6.81"/>
					</g>
				</g>
				<g>
					<g>
						<circle class="st2" cx="148.55" cy="20.33" r="6.81"/>
					</g>
					<g>
						<circle class="st2" cx="148.55" cy="53.44" r="6.81"/>
					</g>
					<g>
						<circle class="st2" cx="148.55" cy="86.55" r="6.81"/>
					</g>
				</g>
			</g>
		</g>
	</g>
</g>
<g id="Camada_3" class="st0">
</g>
</svg>
