<?xml version="1.0" encoding="utf-8"?>
<!-- Generator: Adobe Illustrator 25.0.0, SVG Export Plug-In . SVG Version: 6.00 Build 0)  -->
<svg version="1.1" xmlns="http://www.w3.org/2000/svg" xmlns:xlink="http://www.w3.org/1999/xlink" x="0px" y="0px"
	 viewBox="0 0 173 105" style="enable-background:new 0 0 173 105;" xml:space="preserve">
<style type="text/css">
	.st0{display:none;}
	.st1{display:inline;fill:#59778E;}
	.st2{fill:#000000;}
	.st3{fill:none;stroke:#000000;stroke-miterlimit:10;}
	.st4{clip-path:url(#SVGID_2_);}
	.st5{clip-path:url(#SVGID_4_);}
	.st6{display:inline;}
	.st7{clip-path:url(#SVGID_5_);}
</style>
<g id="Camada_2" class="st0">
	<rect x="-1111.5" y="-209.5" class="st1" width="2269" height="1089"/>
</g>
<g id="Camada_1">
	<g>
		<g>
			<path class="st2" d="M123.11,1c3.76,2.5,48.58,32.68,48.58,51.25S126.87,101,123.11,103.5H1V1H123.11 M123.41,0H0v104.5h123.41
				c0,0,49.28-32.2,49.28-52.25S123.41,0,123.41,0L123.41,0z"/>
		</g>
		<g>
			<defs>
				<path id="SVGID_3_" d="M123.41,104.5H0V0h123.41c0,0,49.28,32.2,49.28,52.25S123.41,104.5,123.41,104.5z"/>
			</defs>
			<clipPath id="SVGID_2_">
				<use xlink:href="#SVGID_3_"  style="overflow:visible;"/>
			</clipPath>
			<g class="st4">
				<g>
					<g>
						<circle class="st2" cx="14.7" cy="20.33" r="6.81"/>
					</g>
					<g>
						<circle class="st2" cx="14.7" cy="53.44" r="6.81"/>
					</g>
					<g>
						<circle class="st2" cx="14.7" cy="86.55" r="6.81"/>
					</g>
				</g>
				<g>
					<g>
						<circle class="st2" cx="47.78" cy="20.33" r="6.81"/>
					</g>
					<g>
						<circle class="st2" cx="47.78" cy="53.44" r="6.81"/>
					</g>
					<g>
						<circle class="st2" cx="47.78" cy="86.55" r="6.81"/>
					</g>
				</g>
				<g>
					<g>
						<circle class="st2" cx="80.85" cy="20.33" r="6.81"/>
					</g>
					<g>
						<circle class="st2" cx="80.85" cy="53.44" r="6.81"/>
					</g>
					<g>
						<circle class="st2" cx="80.85" cy="86.55" r="6.81"/>
					</g>
				</g>
				<g>
					<g>
						<circle class="st2" cx="113.93" cy="20.33" r="6.81"/>
					</g>
					<g>
						<circle class="st2" cx="113.93" cy="53.44" r="6.81"/>
					</g>
					<g>
						<circle class="st2" cx="113.93" cy="86.55" r="6.81"/>
					</g>
				</g>
				<g>
					<g>
						<circle class="st2" cx="147.01" cy="20.33" r="6.81"/>
					</g>
					<g>
						<circle class="st2" cx="147.01" cy="53.44" r="6.81"/>
					</g>
					<g>
						<circle class="st2" cx="147.01" cy="86.55" r="6.81"/>
					</g>
				</g>
			</g>
		</g>
	</g>
</g>
<g id="Camada_3" class="st0">
</g>
</svg>
