<?xml version="1.0" encoding="utf-8"?>
<!-- Generator: Adobe Illustrator 25.0.0, SVG Export Plug-In . SVG Version: 6.00 Build 0)  -->
<svg version="1.1" xmlns="http://www.w3.org/2000/svg" xmlns:xlink="http://www.w3.org/1999/xlink" x="0px" y="0px"
	 viewBox="0 0 500 335" style="enable-background:new 0 0 500 335;" xml:space="preserve">
<style type="text/css">
	.st0{display:none;}
	.st1{display:inline;fill:#59778E;}
	.st2{fill:#000000;}
	.st3{fill:none;stroke:#000000;stroke-miterlimit:10;}
	.st4{clip-path:url(#SVGID_2_);}
	.st5{clip-path:url(#SVGID_4_);}
	.st6{display:inline;}
	.st7{clip-path:url(#SVGID_5_);}
</style>
<g id="Camada_2" class="st0">
	<rect x="-228" y="-209.5" class="st1" width="2269" height="1089"/>
</g>
<g id="Camada_1">
	<g>
		<path class="st2" d="M498.5,1.09V334H1V1.09H498.5 M499.5,0.09H0V335h499.5V0.09L499.5,0.09z"/>
	</g>
	<g>
		<path class="st2" d="M409.32,182.88c4.01,2.66,54.78,36.8,54.78,57.82s-50.77,55.16-54.78,57.82H271.69V182.88H409.32
			 M409.62,181.88H270.69v117.64h138.93c0,0,55.48-36.25,55.48-58.82S409.62,181.88,409.62,181.88L409.62,181.88z"/>
	</g>
	<g>
		<defs>
			<path id="SVGID_1_" d="M0.49,0.04v334.91h499.02V0.04H0.49z M409.63,299.48H270.7V181.84h138.93c0,0,55.48,36.25,55.48,58.82
				S409.63,299.48,409.63,299.48z"/>
		</defs>
		<clipPath id="SVGID_2_">
			<use xlink:href="#SVGID_1_"  style="overflow:visible;"/>
		</clipPath>
		<g class="st4">
			<g>
				<g>
					<circle class="st2" cx="26.58" cy="18.42" r="7.67"/>
				</g>
				<g>
					<circle class="st2" cx="26.58" cy="55.69" r="7.67"/>
				</g>
				<g>
					<circle class="st2" cx="26.58" cy="92.96" r="7.67"/>
				</g>
				<g>
					<circle class="st2" cx="26.58" cy="130.23" r="7.67"/>
				</g>
				<g>
					<circle class="st2" cx="26.58" cy="167.5" r="7.67"/>
				</g>
				<g>
					<circle class="st2" cx="26.58" cy="204.77" r="7.67"/>
				</g>
				<g>
					<circle class="st2" cx="26.58" cy="242.04" r="7.67"/>
				</g>
				<g>
					<circle class="st2" cx="26.58" cy="279.31" r="7.67"/>
				</g>
				<g>
					<circle class="st2" cx="26.58" cy="316.58" r="7.67"/>
				</g>
			</g>
			<g>
				<g>
					<circle class="st2" cx="63.82" cy="18.42" r="7.67"/>
				</g>
				<g>
					<circle class="st2" cx="63.82" cy="55.69" r="7.67"/>
				</g>
				<g>
					<circle class="st2" cx="63.82" cy="92.96" r="7.67"/>
				</g>
				<g>
					<circle class="st2" cx="63.82" cy="130.23" r="7.67"/>
				</g>
				<g>
					<circle class="st2" cx="63.82" cy="167.5" r="7.67"/>
				</g>
				<g>
					<circle class="st2" cx="63.82" cy="204.77" r="7.67"/>
				</g>
				<g>
					<circle class="st2" cx="63.82" cy="242.04" r="7.67"/>
				</g>
				<g>
					<circle class="st2" cx="63.82" cy="279.31" r="7.67"/>
				</g>
				<g>
					<circle class="st2" cx="63.82" cy="316.58" r="7.67"/>
				</g>
			</g>
			<g>
				<g>
					<circle class="st2" cx="101.06" cy="18.42" r="7.67"/>
				</g>
				<g>
					<circle class="st2" cx="101.06" cy="55.69" r="7.67"/>
				</g>
				<g>
					<circle class="st2" cx="101.06" cy="92.96" r="7.67"/>
				</g>
				<g>
					<circle class="st2" cx="101.06" cy="130.23" r="7.67"/>
				</g>
				<g>
					<circle class="st2" cx="101.06" cy="167.5" r="7.67"/>
				</g>
				<g>
					<circle class="st2" cx="101.06" cy="204.77" r="7.67"/>
				</g>
				<g>
					<circle class="st2" cx="101.06" cy="242.04" r="7.67"/>
				</g>
				<g>
					<circle class="st2" cx="101.06" cy="279.31" r="7.67"/>
				</g>
				<g>
					<circle class="st2" cx="101.06" cy="316.58" r="7.67"/>
				</g>
			</g>
			<g>
				<g>
					<circle class="st2" cx="138.29" cy="18.42" r="7.67"/>
				</g>
				<g>
					<circle class="st2" cx="138.29" cy="55.69" r="7.67"/>
				</g>
				<g>
					<circle class="st2" cx="138.29" cy="92.96" r="7.67"/>
				</g>
				<g>
					<circle class="st2" cx="138.29" cy="130.23" r="7.67"/>
				</g>
				<g>
					<circle class="st2" cx="138.29" cy="167.5" r="7.67"/>
				</g>
				<g>
					<circle class="st2" cx="138.29" cy="204.77" r="7.67"/>
				</g>
				<g>
					<circle class="st2" cx="138.29" cy="242.04" r="7.67"/>
				</g>
				<g>
					<circle class="st2" cx="138.29" cy="279.31" r="7.67"/>
				</g>
				<g>
					<circle class="st2" cx="138.29" cy="316.58" r="7.67"/>
				</g>
			</g>
			<g>
				<g>
					<circle class="st2" cx="175.53" cy="18.42" r="7.67"/>
				</g>
				<g>
					<circle class="st2" cx="175.53" cy="55.69" r="7.67"/>
				</g>
				<g>
					<circle class="st2" cx="175.53" cy="92.96" r="7.67"/>
				</g>
				<g>
					<circle class="st2" cx="175.53" cy="130.23" r="7.67"/>
				</g>
				<g>
					<circle class="st2" cx="175.53" cy="167.5" r="7.67"/>
				</g>
				<g>
					<circle class="st2" cx="175.53" cy="204.77" r="7.67"/>
				</g>
				<g>
					<circle class="st2" cx="175.53" cy="242.04" r="7.67"/>
				</g>
				<g>
					<circle class="st2" cx="175.53" cy="279.31" r="7.67"/>
				</g>
				<g>
					<circle class="st2" cx="175.53" cy="316.58" r="7.67"/>
				</g>
			</g>
			<g>
				<g>
					<circle class="st2" cx="212.76" cy="18.42" r="7.67"/>
				</g>
				<g>
					<circle class="st2" cx="212.76" cy="55.69" r="7.67"/>
				</g>
				<g>
					<circle class="st2" cx="212.76" cy="92.96" r="7.67"/>
				</g>
				<g>
					<circle class="st2" cx="212.76" cy="130.23" r="7.67"/>
				</g>
				<g>
					<circle class="st2" cx="212.76" cy="167.5" r="7.67"/>
				</g>
				<g>
					<circle class="st2" cx="212.76" cy="204.77" r="7.67"/>
				</g>
				<g>
					<circle class="st2" cx="212.76" cy="242.04" r="7.67"/>
				</g>
				<g>
					<circle class="st2" cx="212.76" cy="279.31" r="7.67"/>
				</g>
				<g>
					<circle class="st2" cx="212.76" cy="316.58" r="7.67"/>
				</g>
			</g>
			<g>
				<g>
					<circle class="st2" cx="250" cy="18.42" r="7.67"/>
				</g>
				<g>
					<circle class="st2" cx="250" cy="55.69" r="7.67"/>
				</g>
				<g>
					<circle class="st2" cx="250" cy="92.96" r="7.67"/>
				</g>
				<g>
					<circle class="st2" cx="250" cy="130.23" r="7.67"/>
				</g>
				<g>
					<circle class="st2" cx="250" cy="167.5" r="7.67"/>
				</g>
				<g>
					<circle class="st2" cx="250" cy="204.77" r="7.67"/>
				</g>
				<g>
					<circle class="st2" cx="250" cy="242.04" r="7.67"/>
				</g>
				<g>
					<circle class="st2" cx="250" cy="279.31" r="7.67"/>
				</g>
				<g>
					<circle class="st2" cx="250" cy="316.58" r="7.67"/>
				</g>
			</g>
			<g>
				<g>
					<circle class="st2" cx="287.24" cy="18.42" r="7.67"/>
				</g>
				<g>
					<circle class="st2" cx="287.24" cy="55.69" r="7.67"/>
				</g>
				<g>
					<circle class="st2" cx="287.24" cy="92.96" r="7.67"/>
				</g>
				<g>
					<circle class="st2" cx="287.24" cy="130.23" r="7.67"/>
				</g>
				<g>
					<circle class="st2" cx="287.24" cy="167.5" r="7.67"/>
				</g>
				<g>
					<circle class="st2" cx="287.24" cy="204.77" r="7.67"/>
				</g>
				<g>
					<circle class="st2" cx="287.24" cy="242.04" r="7.67"/>
				</g>
				<g>
					<circle class="st2" cx="287.24" cy="279.31" r="7.67"/>
				</g>
				<g>
					<circle class="st2" cx="287.24" cy="316.58" r="7.67"/>
				</g>
			</g>
			<g>
				<g>
					<circle class="st2" cx="324.47" cy="18.42" r="7.67"/>
				</g>
				<g>
					<circle class="st2" cx="324.47" cy="55.69" r="7.67"/>
				</g>
				<g>
					<circle class="st2" cx="324.47" cy="92.96" r="7.67"/>
				</g>
				<g>
					<circle class="st2" cx="324.47" cy="130.23" r="7.67"/>
				</g>
				<g>
					<circle class="st2" cx="324.47" cy="167.5" r="7.67"/>
				</g>
				<g>
					<circle class="st2" cx="324.47" cy="204.77" r="7.67"/>
				</g>
				<g>
					<circle class="st2" cx="324.47" cy="242.04" r="7.67"/>
				</g>
				<g>
					<circle class="st2" cx="324.47" cy="279.31" r="7.67"/>
				</g>
				<g>
					<circle class="st2" cx="324.47" cy="316.58" r="7.67"/>
				</g>
			</g>
			<g>
				<g>
					<circle class="st2" cx="361.71" cy="18.42" r="7.67"/>
				</g>
				<g>
					<circle class="st2" cx="361.71" cy="55.69" r="7.67"/>
				</g>
				<g>
					<circle class="st2" cx="361.71" cy="92.96" r="7.67"/>
				</g>
				<g>
					<circle class="st2" cx="361.71" cy="130.23" r="7.67"/>
				</g>
				<g>
					<circle class="st2" cx="361.71" cy="167.5" r="7.67"/>
				</g>
				<g>
					<circle class="st2" cx="361.71" cy="204.77" r="7.67"/>
				</g>
				<g>
					<circle class="st2" cx="361.71" cy="242.04" r="7.67"/>
				</g>
				<g>
					<circle class="st2" cx="361.71" cy="279.31" r="7.67"/>
				</g>
				<g>
					<circle class="st2" cx="361.71" cy="316.58" r="7.67"/>
				</g>
			</g>
			<g>
				<g>
					<circle class="st2" cx="398.94" cy="18.42" r="7.67"/>
				</g>
				<g>
					<circle class="st2" cx="398.94" cy="55.69" r="7.67"/>
				</g>
				<g>
					<circle class="st2" cx="398.94" cy="92.96" r="7.67"/>
				</g>
				<g>
					<circle class="st2" cx="398.94" cy="130.23" r="7.67"/>
				</g>
				<g>
					<circle class="st2" cx="398.94" cy="167.5" r="7.67"/>
				</g>
				<g>
					<circle class="st2" cx="398.94" cy="204.77" r="7.67"/>
				</g>
				<g>
					<circle class="st2" cx="398.94" cy="242.04" r="7.67"/>
				</g>
				<g>
					<circle class="st2" cx="398.94" cy="279.31" r="7.67"/>
				</g>
				<g>
					<circle class="st2" cx="398.94" cy="316.58" r="7.67"/>
				</g>
			</g>
			<g>
				<g>
					<circle class="st2" cx="436.18" cy="18.42" r="7.67"/>
				</g>
				<g>
					<circle class="st2" cx="436.18" cy="55.69" r="7.67"/>
				</g>
				<g>
					<circle class="st2" cx="436.18" cy="92.96" r="7.67"/>
				</g>
				<g>
					<circle class="st2" cx="436.18" cy="130.23" r="7.67"/>
				</g>
				<g>
					<circle class="st2" cx="436.18" cy="167.5" r="7.67"/>
				</g>
				<g>
					<circle class="st2" cx="436.18" cy="204.77" r="7.67"/>
				</g>
				<g>
					<circle class="st2" cx="436.18" cy="242.04" r="7.67"/>
				</g>
				<g>
					<circle class="st2" cx="436.18" cy="279.31" r="7.67"/>
				</g>
				<g>
					<circle class="st2" cx="436.18" cy="316.58" r="7.67"/>
				</g>
			</g>
			<g>
				<g>
					<circle class="st2" cx="473.42" cy="18.42" r="7.67"/>
				</g>
				<g>
					<circle class="st2" cx="473.42" cy="55.69" r="7.67"/>
				</g>
				<g>
					<circle class="st2" cx="473.42" cy="92.96" r="7.67"/>
				</g>
				<g>
					<circle class="st2" cx="473.42" cy="130.23" r="7.67"/>
				</g>
				<g>
					<circle class="st2" cx="473.42" cy="167.5" r="7.67"/>
				</g>
				<g>
					<circle class="st2" cx="473.42" cy="204.77" r="7.67"/>
				</g>
				<g>
					<circle class="st2" cx="473.42" cy="242.04" r="7.67"/>
				</g>
				<g>
					<circle class="st2" cx="473.42" cy="279.31" r="7.67"/>
				</g>
				<g>
					<circle class="st2" cx="473.42" cy="316.58" r="7.67"/>
				</g>
			</g>
		</g>
	</g>
</g>
<g id="Camada_3" class="st0">
</g>
</svg>
