<?xml version="1.0" encoding="utf-8"?>
<!-- Generator: Adobe Illustrator 25.0.0, SVG Export Plug-In . SVG Version: 6.00 Build 0)  -->
<svg version="1.1" xmlns="http://www.w3.org/2000/svg" xmlns:xlink="http://www.w3.org/1999/xlink" x="0px" y="0px"
	 viewBox="0 0 173 105" style="enable-background:new 0 0 173 105;" xml:space="preserve">
<style type="text/css">
	.st0{display:none;}
	.st1{display:inline;fill:#59778E;}
	.st2{fill:#000000;}
	.st3{clip-path:url(#SVGID_2_);}
	.st4{clip-path:url(#SVGID_4_);}
	.st5{clip-path:url(#SVGID_6_);}
	.st6{clip-path:url(#SVGID_8_);}
	.st7{clip-path:url(#SVGID_10_);}
	.st8{display:inline;}
	.st9{clip-path:url(#SVGID_11_);}
</style>
<g id="Camada_2" class="st0">
	<rect x="-1911.5" y="-209.5" class="st1" width="2269" height="1089"/>
</g>
<g id="Camada_1">
	<g>
		<g>
			<path class="st2" d="M122.97,1c3.75,2.49,48.53,32.65,48.53,51.19s-44.77,48.7-48.53,51.19H1V1H122.97 M123.27,0H0v104.38h123.27
				c0,0,49.23-32.16,49.23-52.19S123.27,0,123.27,0L123.27,0z"/>
		</g>
		<g>
			<defs>
				<path id="SVGID_7_" d="M123.27,104.38H0V0h123.27c0,0,49.23,32.16,49.23,52.19S123.27,104.38,123.27,104.38z"/>
			</defs>
			<clipPath id="SVGID_2_">
				<use xlink:href="#SVGID_7_"  style="overflow:visible;"/>
			</clipPath>
			<g class="st3">
				<defs>
					<rect id="SVGID_9_" x="-239.96" y="-161.31" width="443.21" height="297.17"/>
				</defs>
				<clipPath id="SVGID_4_">
					<use xlink:href="#SVGID_9_"  style="overflow:visible;"/>
				</clipPath>
				<g class="st4">
					<g>
						<g>
							<g>
								<path class="st2" d="M33.62,12.14c-3.07,0-5.57-2.5-5.57-5.57c0-1.62,0.98-4.44,2.21-8c0.92-2.64,1.95-5.63,2.69-8.47
									l0.71-2.77l0.64,2.79c0.7,3.05,1.83,6.26,2.83,9.09c1.15,3.26,2.06,5.84,2.06,7.37C39.19,9.64,36.69,12.14,33.62,12.14z
									 M33.6-7.06c-0.63,2.09-1.36,4.18-2.02,6.09c-1.15,3.31-2.14,6.16-2.14,7.55c0,2.3,1.88,4.18,4.18,4.18s4.18-1.87,4.18-4.18
									c0-1.29-0.92-3.89-1.98-6.9C35.08-2.44,34.26-4.75,33.6-7.06z"/>
							</g>
							<g>
								<path class="st2" d="M33.58,35.57l-0.64-2.79c-0.7-3.05-1.83-6.26-2.83-9.09c-1.15-3.26-2.06-5.84-2.06-7.37
									c0-3.07,2.5-5.57,5.57-5.57s5.57,2.5,5.57,5.57c0,1.62-0.98,4.44-2.21,8c-0.92,2.64-1.95,5.63-2.68,8.47L33.58,35.57z
									 M33.62,12.14c-2.3,0-4.18,1.88-4.18,4.18c0,1.29,0.92,3.89,1.98,6.9c0.74,2.11,1.56,4.42,2.22,6.73
									c0.63-2.09,1.36-4.18,2.02-6.09c1.15-3.31,2.14-6.16,2.14-7.55C37.8,14.02,35.93,12.14,33.62,12.14z"/>
							</g>
							<g>
								<path class="st2" d="M38.5,17.02c-3.07,0-5.57-2.5-5.57-5.57s2.5-5.57,5.57-5.57c1.62,0,4.44,0.98,8.01,2.21
									c2.64,0.92,5.63,1.95,8.47,2.68l2.77,0.71l-2.79,0.64c-3.04,0.7-6.26,1.83-9.09,2.83C42.6,16.11,40.02,17.02,38.5,17.02z
									 M38.5,7.27c-2.3,0-4.18,1.87-4.18,4.18s1.87,4.18,4.18,4.18c1.29,0,3.89-0.92,6.91-1.98c2.1-0.74,4.42-1.56,6.73-2.22
									c-2.09-0.63-4.18-1.35-6.09-2.02C42.74,8.26,39.89,7.27,38.5,7.27z"/>
							</g>
							<g>
								<path class="st2" d="M28.75,17.02c-1.62,0-4.44-0.98-8-2.21c-2.64-0.92-5.63-1.95-8.47-2.69L9.5,11.41l2.79-0.64
									c3.05-0.7,6.26-1.83,9.09-2.83c3.26-1.15,5.84-2.06,7.36-2.06c3.07,0,5.57,2.5,5.57,5.57S31.82,17.02,28.75,17.02z
									 M15.11,11.47c2.09,0.63,4.18,1.36,6.09,2.02c3.3,1.15,6.16,2.14,7.54,2.14c2.3,0,4.18-1.88,4.18-4.18s-1.88-4.18-4.18-4.18
									c-1.29,0-3.89,0.92-6.9,1.98C19.74,9.99,17.43,10.81,15.11,11.47z"/>
							</g>
						</g>
						<g>
							<g>
								<path class="st2" d="M-13.48,17.02c-3.07,0-5.57-2.5-5.57-5.57s2.5-5.57,5.57-5.57c1.62,0,4.44,0.98,8,2.21
									C-2.84,9,0.15,10.04,3,10.77l2.77,0.71l-2.79,0.64c-3.05,0.7-6.26,1.83-9.09,2.83C-9.38,16.11-11.95,17.02-13.48,17.02z
									 M-13.48,7.27c-2.3,0-4.18,1.87-4.18,4.18s1.87,4.18,4.18,4.18c1.29,0,3.89-0.92,6.9-1.98c2.11-0.74,4.42-1.56,6.73-2.22
									c-2.09-0.63-4.18-1.36-6.09-2.02C-9.24,8.26-12.09,7.27-13.48,7.27z"/>
							</g>
						</g>
						<g>
							<g>
								<path class="st2" d="M137.58,12.14c-3.07,0-5.57-2.5-5.57-5.57c0-1.62,0.98-4.44,2.21-8.01c0.92-2.64,1.95-5.63,2.68-8.47
									l0.71-2.77l0.64,2.79c0.7,3.04,1.83,6.26,2.83,9.09c1.15,3.26,2.06,5.84,2.06,7.37C143.15,9.64,140.65,12.14,137.58,12.14z
									 M137.55-7.07c-0.63,2.09-1.35,4.18-2.02,6.09c-1.15,3.31-2.14,6.16-2.14,7.55c0,2.3,1.87,4.18,4.18,4.18
									c2.3,0,4.18-1.87,4.18-4.18c0-1.29-0.92-3.89-1.98-6.91C139.03-2.44,138.22-4.75,137.55-7.07z"/>
							</g>
							<g>
								<path class="st2" d="M137.54,35.57l-0.64-2.79c-0.7-3.05-1.83-6.26-2.83-9.09c-1.15-3.26-2.06-5.84-2.06-7.36
									c0-3.07,2.5-5.57,5.57-5.57c3.07,0,5.57,2.5,5.57,5.57c0,1.62-0.98,4.44-2.21,8c-0.92,2.64-1.95,5.63-2.69,8.47
									L137.54,35.57z M137.58,12.14c-2.3,0-4.18,1.88-4.18,4.18c0,1.29,0.92,3.89,1.98,6.9c0.74,2.11,1.56,4.42,2.22,6.73
									c0.63-2.09,1.36-4.18,2.02-6.09c1.15-3.3,2.14-6.16,2.14-7.54C141.76,14.02,139.88,12.14,137.58,12.14z"/>
							</g>
							<g>
								<path class="st2" d="M142.45,17.02c-3.07,0-5.57-2.5-5.57-5.57s2.5-5.57,5.57-5.57c1.62,0,4.44,0.98,8,2.21
									c2.64,0.92,5.63,1.95,8.47,2.68l2.77,0.71l-2.79,0.64c-3.05,0.7-6.26,1.83-9.09,2.83
									C146.56,16.11,143.98,17.02,142.45,17.02z M142.45,7.27c-2.3,0-4.18,1.87-4.18,4.18s1.88,4.18,4.18,4.18
									c1.29,0,3.89-0.92,6.9-1.98c2.11-0.74,4.42-1.56,6.73-2.22c-2.09-0.63-4.18-1.36-6.09-2.02
									C146.69,8.26,143.84,7.27,142.45,7.27z"/>
							</g>
							<g>
								<path class="st2" d="M132.7,17.02c-1.62,0-4.44-0.98-8-2.21c-2.64-0.92-5.63-1.95-8.47-2.69l-2.77-0.71l2.79-0.64
									c3.05-0.7,6.26-1.83,9.09-2.83c3.26-1.15,5.84-2.06,7.37-2.06c3.07,0,5.57,2.5,5.57,5.57S135.77,17.02,132.7,17.02z
									 M119.07,11.47c2.09,0.63,4.18,1.36,6.09,2.02c3.31,1.15,6.16,2.14,7.55,2.14c2.3,0,4.18-1.88,4.18-4.18
									s-1.87-4.18-4.18-4.18c-1.29,0-3.89,0.92-6.9,1.98C123.69,9.99,121.38,10.81,119.07,11.47z"/>
							</g>
						</g>
						<g>
							<g>
								<path class="st2" d="M184.68,17.02c-1.62,0-4.44-0.98-8-2.21c-2.64-0.92-5.63-1.95-8.47-2.69l-2.77-0.71l2.79-0.64
									c3.05-0.7,6.26-1.83,9.09-2.83c3.26-1.15,5.84-2.06,7.36-2.06c3.07,0,5.57,2.5,5.57,5.57S187.75,17.02,184.68,17.02z
									 M171.04,11.47c2.09,0.63,4.18,1.36,6.09,2.02c3.3,1.15,6.16,2.14,7.54,2.14c2.3,0,4.18-1.88,4.18-4.18
									s-1.88-4.18-4.18-4.18c-1.29,0-3.89,0.92-6.9,1.98C175.67,9.99,173.36,10.81,171.04,11.47z"/>
							</g>
						</g>
						<g>
							<g>
								<path class="st2" d="M85.6,12.14c-3.07,0-5.57-2.5-5.57-5.57c0-1.62,0.98-4.44,2.21-8c0.92-2.64,1.95-5.63,2.69-8.47
									l0.71-2.77l0.64,2.79c0.7,3.05,1.83,6.26,2.83,9.09c1.15,3.26,2.06,5.84,2.06,7.36C91.17,9.64,88.67,12.14,85.6,12.14z
									 M85.57-7.06c-0.63,2.09-1.36,4.18-2.02,6.09c-1.15,3.31-2.14,6.16-2.14,7.55c0,2.3,1.88,4.18,4.18,4.18
									c2.3,0,4.18-1.87,4.18-4.18c0-1.29-0.92-3.89-1.98-6.9C87.05-2.44,86.24-4.75,85.57-7.06z"/>
							</g>
							<g>
								<path class="st2" d="M85.56,35.57l-0.64-2.79c-0.7-3.05-1.83-6.26-2.83-9.09c-1.15-3.26-2.06-5.84-2.06-7.36
									c0-3.07,2.5-5.57,5.57-5.57c3.07,0,5.57,2.5,5.57,5.57c0,1.62-0.98,4.44-2.21,8c-0.92,2.64-1.95,5.63-2.69,8.47L85.56,35.57
									z M85.6,12.14c-2.3,0-4.18,1.88-4.18,4.18c0,1.29,0.92,3.89,1.98,6.9c0.74,2.11,1.56,4.42,2.23,6.74
									c0.63-2.09,1.36-4.18,2.02-6.09c1.15-3.3,2.14-6.16,2.14-7.54C89.78,14.02,87.9,12.14,85.6,12.14z"/>
							</g>
							<g>
								<path class="st2" d="M90.48,17.02c-3.07,0-5.57-2.5-5.57-5.57s2.5-5.57,5.57-5.57c1.62,0,4.44,0.98,8,2.21
									c2.64,0.92,5.63,1.95,8.47,2.68l2.77,0.71l-2.79,0.64c-3.04,0.7-6.26,1.83-9.09,2.83C94.58,16.11,92,17.02,90.48,17.02z
									 M90.48,7.27c-2.3,0-4.18,1.87-4.18,4.18s1.88,4.18,4.18,4.18c1.29,0,3.89-0.92,6.9-1.98c2.1-0.74,4.42-1.56,6.73-2.22
									c-2.09-0.63-4.18-1.35-6.09-2.02C94.72,8.26,91.86,7.27,90.48,7.27z"/>
							</g>
							<g>
								<path class="st2" d="M80.72,17.02c-1.62,0-4.44-0.98-8-2.21c-2.64-0.92-5.63-1.95-8.47-2.69l-2.77-0.71l2.79-0.64
									c3.05-0.7,6.26-1.83,9.09-2.83c3.26-1.15,5.84-2.06,7.36-2.06c3.07,0,5.57,2.5,5.57,5.57S83.8,17.02,80.72,17.02z
									 M67.09,11.47c2.09,0.63,4.18,1.36,6.09,2.02c3.3,1.15,6.16,2.14,7.54,2.14c2.3,0,4.18-1.88,4.18-4.18s-1.88-4.18-4.18-4.18
									c-1.29,0-3.89,0.92-6.9,1.98C71.72,9.99,69.4,10.81,67.09,11.47z"/>
							</g>
						</g>
					</g>
					<g>
						<g>
							<g>
								<path class="st2" d="M33.62,63.59c-3.07,0-5.57-2.5-5.57-5.57c0-1.62,0.98-4.44,2.21-8c0.92-2.64,1.95-5.63,2.69-8.47
									l0.71-2.77l0.64,2.79c0.7,3.05,1.83,6.26,2.83,9.09c1.15,3.26,2.06,5.84,2.06,7.36C39.19,61.09,36.69,63.59,33.62,63.59z
									 M33.6,44.38c-0.63,2.09-1.36,4.18-2.02,6.09c-1.15,3.3-2.14,6.16-2.14,7.54c0,2.3,1.88,4.18,4.18,4.18s4.18-1.88,4.18-4.18
									c0-1.29-0.92-3.89-1.98-6.9C35.08,49.01,34.26,46.7,33.6,44.38z"/>
							</g>
							<g>
								<path class="st2" d="M33.58,87.01l-0.64-2.79c-0.7-3.05-1.83-6.26-2.83-9.09c-1.15-3.26-2.06-5.84-2.06-7.37
									c0-3.07,2.5-5.57,5.57-5.57s5.57,2.5,5.57,5.57c0,1.62-0.98,4.44-2.21,8c-0.92,2.64-1.95,5.63-2.68,8.47L33.58,87.01z
									 M33.62,63.59c-2.3,0-4.18,1.87-4.18,4.18c0,1.29,0.92,3.89,1.98,6.9c0.74,2.11,1.56,4.42,2.22,6.73
									c0.63-2.09,1.36-4.18,2.02-6.09c1.15-3.31,2.14-6.16,2.14-7.55C37.8,65.46,35.93,63.59,33.62,63.59z"/>
							</g>
							<g>
								<path class="st2" d="M38.5,68.46c-3.07,0-5.57-2.5-5.57-5.57s2.5-5.57,5.57-5.57c1.62,0,4.44,0.98,8,2.21
									c2.64,0.92,5.63,1.95,8.47,2.69l2.77,0.71l-2.79,0.64c-3.05,0.7-6.26,1.83-9.09,2.83C42.6,67.56,40.02,68.46,38.5,68.46z
									 M38.5,58.71c-2.3,0-4.18,1.88-4.18,4.18c0,2.3,1.87,4.18,4.18,4.18c1.29,0,3.89-0.92,6.9-1.98
									c2.11-0.74,4.42-1.56,6.73-2.22c-2.09-0.63-4.18-1.36-6.09-2.02C42.74,59.7,39.88,58.71,38.5,58.71z"/>
							</g>
							<g>
								<path class="st2" d="M28.75,68.46c-1.62,0-4.44-0.98-8-2.21c-2.64-0.92-5.63-1.95-8.47-2.68L9.5,62.85l2.79-0.64
									c3.04-0.7,6.26-1.83,9.09-2.83c3.26-1.15,5.84-2.06,7.37-2.06c3.07,0,5.57,2.5,5.57,5.57S31.82,68.46,28.75,68.46z
									 M15.11,62.92c2.09,0.63,4.18,1.35,6.09,2.02c3.31,1.15,6.16,2.14,7.55,2.14c2.3,0,4.18-1.87,4.18-4.18
									c0-2.3-1.88-4.18-4.18-4.18c-1.29,0-3.89,0.92-6.9,1.98C19.74,61.44,17.43,62.25,15.11,62.92z"/>
							</g>
						</g>
						<g>
							<g>
								<path class="st2" d="M-13.48,68.46c-3.07,0-5.57-2.5-5.57-5.57s2.5-5.57,5.57-5.57c1.62,0,4.44,0.98,8,2.21
									c2.64,0.92,5.63,1.95,8.47,2.69l2.77,0.71l-2.79,0.64c-3.05,0.7-6.26,1.83-9.09,2.83C-9.38,67.56-11.96,68.46-13.48,68.46z
									 M-13.48,58.71c-2.3,0-4.18,1.88-4.18,4.18c0,2.3,1.87,4.18,4.18,4.18c1.29,0,3.89-0.92,6.9-1.98
									c2.11-0.74,4.42-1.56,6.73-2.22c-2.09-0.63-4.18-1.36-6.09-2.02C-9.24,59.7-12.09,58.71-13.48,58.71z"/>
							</g>
						</g>
						<g>
							<g>
								<path class="st2" d="M137.58,63.59c-3.07,0-5.57-2.5-5.57-5.57c0-1.62,0.98-4.44,2.21-8c0.92-2.64,1.95-5.63,2.68-8.47
									l0.71-2.77l0.64,2.79c0.7,3.05,1.83,6.26,2.83,9.09c1.15,3.26,2.06,5.84,2.06,7.37C143.15,61.09,140.65,63.59,137.58,63.59z
									 M137.55,44.38c-0.63,2.09-1.36,4.18-2.02,6.09c-1.15,3.31-2.14,6.16-2.14,7.55c0,2.3,1.87,4.18,4.18,4.18
									c2.3,0,4.18-1.88,4.18-4.18c0-1.29-0.92-3.89-1.98-6.9C139.03,49.01,138.22,46.7,137.55,44.38z"/>
							</g>
							<g>
								<path class="st2" d="M137.54,87.01l-0.64-2.79c-0.7-3.05-1.83-6.26-2.83-9.09c-1.15-3.26-2.06-5.84-2.06-7.36
									c0-3.07,2.5-5.57,5.57-5.57c3.07,0,5.57,2.5,5.57,5.57c0,1.62-0.98,4.44-2.21,8c-0.92,2.64-1.95,5.63-2.69,8.47
									L137.54,87.01z M137.58,63.59c-2.3,0-4.18,1.87-4.18,4.18c0,1.29,0.92,3.89,1.98,6.9c0.74,2.11,1.56,4.42,2.22,6.73
									c0.63-2.09,1.36-4.18,2.02-6.09c1.15-3.3,2.14-6.16,2.14-7.54C141.76,65.46,139.88,63.59,137.58,63.59z"/>
							</g>
							<g>
								<path class="st2" d="M142.45,68.46c-3.07,0-5.57-2.5-5.57-5.57s2.5-5.57,5.57-5.57c1.62,0,4.44,0.98,8,2.21
									c2.64,0.92,5.63,1.95,8.47,2.69l2.77,0.71l-2.79,0.64c-3.05,0.7-6.26,1.83-9.09,2.83
									C146.56,67.56,143.98,68.46,142.45,68.46z M142.45,58.71c-2.3,0-4.18,1.88-4.18,4.18c0,2.3,1.88,4.18,4.18,4.18
									c1.29,0,3.89-0.92,6.9-1.98c2.11-0.74,4.42-1.56,6.73-2.22c-2.09-0.63-4.18-1.36-6.09-2.02
									C146.69,59.7,143.84,58.71,142.45,58.71z"/>
							</g>
							<g>
								<path class="st2" d="M132.7,68.46c-1.62,0-4.44-0.98-8.01-2.21c-2.64-0.92-5.63-1.95-8.47-2.68l-2.77-0.71l2.79-0.64
									c3.04-0.7,6.26-1.83,9.09-2.83c3.26-1.15,5.84-2.06,7.37-2.06c3.07,0,5.57,2.5,5.57,5.57S135.77,68.46,132.7,68.46z
									 M119.06,62.92c2.09,0.63,4.18,1.35,6.09,2.02c3.31,1.15,6.16,2.14,7.55,2.14c2.3,0,4.18-1.87,4.18-4.18
									c0-2.3-1.87-4.18-4.18-4.18c-1.29,0-3.89,0.92-6.91,1.98C123.69,61.44,121.38,62.25,119.06,62.92z"/>
							</g>
						</g>
						<g>
							<g>
								<path class="st2" d="M184.68,68.46c-1.62,0-4.44-0.98-8-2.21c-2.64-0.92-5.63-1.95-8.47-2.68l-2.77-0.71l2.79-0.64
									c3.05-0.7,6.26-1.83,9.09-2.83c3.26-1.15,5.84-2.06,7.37-2.06c3.07,0,5.57,2.5,5.57,5.57S187.75,68.46,184.68,68.46z
									 M171.04,62.92c2.09,0.63,4.18,1.36,6.09,2.02c3.31,1.15,6.16,2.14,7.55,2.14c2.3,0,4.18-1.87,4.18-4.18
									c0-2.3-1.88-4.18-4.18-4.18c-1.29,0-3.89,0.92-6.9,1.98C175.67,61.44,173.36,62.25,171.04,62.92z"/>
							</g>
						</g>
						<g>
							<g>
								<path class="st2" d="M85.6,63.59c-3.07,0-5.57-2.5-5.57-5.57c0-1.62,0.98-4.44,2.21-8c0.92-2.64,1.95-5.63,2.69-8.47
									l0.71-2.77l0.64,2.79c0.7,3.05,1.83,6.26,2.83,9.09c1.15,3.26,2.06,5.84,2.06,7.36C91.17,61.09,88.67,63.59,85.6,63.59z
									 M85.57,44.38c-0.63,2.09-1.36,4.18-2.02,6.09c-1.15,3.3-2.14,6.16-2.14,7.54c0,2.3,1.88,4.18,4.18,4.18
									c2.3,0,4.18-1.88,4.18-4.18c0-1.29-0.92-3.89-1.98-6.9C87.05,49.01,86.24,46.7,85.57,44.38z"/>
							</g>
							<g>
								<path class="st2" d="M85.56,87.01l-0.64-2.79c-0.7-3.05-1.83-6.26-2.83-9.09c-1.15-3.26-2.06-5.84-2.06-7.36
									c0-3.07,2.5-5.57,5.57-5.57c3.07,0,5.57,2.5,5.57,5.57c0,1.62-0.98,4.44-2.21,8c-0.92,2.64-1.95,5.63-2.69,8.47L85.56,87.01
									z M85.6,63.59c-2.3,0-4.18,1.87-4.18,4.18c0,1.29,0.92,3.89,1.98,6.9c0.74,2.11,1.56,4.42,2.23,6.74
									c0.63-2.09,1.36-4.18,2.02-6.09c1.15-3.3,2.14-6.16,2.14-7.54C89.78,65.46,87.9,63.59,85.6,63.59z"/>
							</g>
							<g>
								<path class="st2" d="M90.48,68.46c-3.07,0-5.57-2.5-5.57-5.57s2.5-5.57,5.57-5.57c1.62,0,4.44,0.98,8,2.21
									c2.64,0.92,5.63,1.95,8.47,2.69l2.77,0.71l-2.79,0.64c-3.05,0.7-6.26,1.83-9.09,2.83C94.58,67.56,92,68.46,90.48,68.46z
									 M90.48,58.71c-2.3,0-4.18,1.88-4.18,4.18c0,2.3,1.88,4.18,4.18,4.18c1.29,0,3.89-0.92,6.9-1.98
									c2.11-0.74,4.42-1.56,6.73-2.22c-2.09-0.63-4.18-1.36-6.09-2.02C94.72,59.7,91.86,58.71,90.48,58.71z"/>
							</g>
							<g>
								<path class="st2" d="M80.72,68.46c-1.62,0-4.44-0.98-8-2.21c-2.64-0.92-5.63-1.95-8.47-2.68l-2.77-0.71l2.79-0.64
									c3.04-0.7,6.26-1.83,9.09-2.83c3.26-1.15,5.84-2.06,7.37-2.06c3.07,0,5.57,2.5,5.57,5.57S83.8,68.46,80.72,68.46z
									 M67.09,62.92c2.09,0.63,4.18,1.35,6.09,2.02c3.31,1.15,6.16,2.14,7.55,2.14c2.3,0,4.18-1.87,4.18-4.18
									c0-2.3-1.88-4.18-4.18-4.18c-1.29,0-3.89,0.92-6.9,1.98C71.71,61.44,69.4,62.25,67.09,62.92z"/>
							</g>
						</g>
					</g>
					<g>
						<g>
							<g>
								<path class="st2" d="M33.62,118.06c-3.07,0-5.57-2.5-5.57-5.57c0-1.62,0.98-4.44,2.21-8c0.92-2.64,1.95-5.63,2.69-8.47
									l0.71-2.77l0.64,2.79c0.7,3.05,1.83,6.26,2.83,9.09c1.15,3.26,2.06,5.84,2.06,7.36C39.19,115.56,36.69,118.06,33.62,118.06z
									 M33.6,98.85c-0.63,2.09-1.36,4.18-2.02,6.09c-1.15,3.3-2.14,6.16-2.14,7.54c0,2.3,1.88,4.18,4.18,4.18s4.18-1.88,4.18-4.18
									c0-1.29-0.92-3.89-1.98-6.9C35.08,103.48,34.26,101.17,33.6,98.85z"/>
							</g>
						</g>
						<g>
						</g>
						<g>
							<g>
								<path class="st2" d="M137.58,118.06c-3.07,0-5.57-2.5-5.57-5.57c0-1.62,0.98-4.44,2.21-8c0.92-2.64,1.95-5.63,2.68-8.47
									l0.71-2.77l0.64,2.79c0.7,3.05,1.83,6.26,2.83,9.09c1.15,3.26,2.06,5.84,2.06,7.37
									C143.15,115.56,140.65,118.06,137.58,118.06z M137.55,98.85c-0.63,2.09-1.36,4.18-2.02,6.09c-1.15,3.31-2.14,6.16-2.14,7.55
									c0,2.3,1.87,4.18,4.18,4.18c2.3,0,4.18-1.88,4.18-4.18c0-1.29-0.92-3.89-1.98-6.9C139.03,103.48,138.22,101.17,137.55,98.85
									z"/>
							</g>
						</g>
						<g>
						</g>
						<g>
							<g>
								<path class="st2" d="M85.6,118.06c-3.07,0-5.57-2.5-5.57-5.57c0-1.62,0.98-4.44,2.21-8c0.92-2.64,1.95-5.63,2.69-8.47
									l0.71-2.77l0.64,2.79c0.7,3.05,1.83,6.26,2.83,9.09c1.15,3.26,2.06,5.84,2.06,7.36C91.17,115.56,88.67,118.06,85.6,118.06z
									 M85.57,98.85c-0.63,2.09-1.36,4.18-2.02,6.09c-1.15,3.3-2.14,6.16-2.14,7.54c0,2.3,1.88,4.18,4.18,4.18
									c2.3,0,4.18-1.88,4.18-4.18c0-1.29-0.92-3.89-1.98-6.9C87.05,103.48,86.24,101.17,85.57,98.85z"/>
							</g>
						</g>
					</g>
				</g>
			</g>
		</g>
	</g>
</g>
<g id="Camada_3" class="st0">
</g>
</svg>
