<?xml version="1.0" encoding="utf-8"?>
<!-- Generator: Adobe Illustrator 25.0.0, SVG Export Plug-In . SVG Version: 6.00 Build 0)  -->
<svg version="1.1" xmlns="http://www.w3.org/2000/svg" xmlns:xlink="http://www.w3.org/1999/xlink" x="0px" y="0px"
	 viewBox="0 0 173 105" style="enable-background:new 0 0 173 105;" xml:space="preserve">
<style type="text/css">
	.st0{display:none;}
	.st1{display:inline;fill:#59778E;}
	.st2{fill:#000000;}
	.st3{clip-path:url(#SVGID_2_);}
	.st4{clip-path:url(#SVGID_4_);}
	.st5{clip-path:url(#SVGID_6_);}
	.st6{clip-path:url(#SVGID_8_);}
	.st7{clip-path:url(#SVGID_10_);}
	.st8{display:inline;}
	.st9{clip-path:url(#SVGID_11_);}
</style>
<g id="Camada_2" class="st0">
	<rect x="-1311.5" y="-209.5" class="st1" width="2269" height="1089"/>
</g>
<g id="Camada_1">
	<g>
		<path class="st2" d="M123.11,0.94c3.76,2.5,48.58,32.68,48.58,51.25s-44.82,48.75-48.58,51.25H1V0.94H123.11 M123.41-0.06H0v104.5
			h123.41c0,0,49.28-32.2,49.28-52.25S123.41-0.06,123.41-0.06L123.41-0.06z"/>
	</g>
	<g>
		<g>
			<path class="st2" d="M70.64,52.81c-3.35,0-6.08-2.73-6.08-6.08c0-1.79,1.09-4.93,2.47-8.91c1.03-2.96,2.19-6.32,3.01-9.51
				l0.63-2.45l0.57,2.47c0.78,3.42,2.06,7.02,3.18,10.2c1.28,3.64,2.3,6.51,2.3,8.19C76.72,50.08,73.99,52.81,70.64,52.81z
				 M70.61,30.87c-0.74,2.52-1.62,5.06-2.42,7.36c-1.29,3.71-2.4,6.92-2.4,8.5c0,2.67,2.17,4.84,4.85,4.84
				c2.67,0,4.85-2.17,4.85-4.84c0-1.47-1.03-4.4-2.23-7.79C72.37,36.43,71.38,33.64,70.61,30.87z"/>
		</g>
		<g>
			<path class="st2" d="M70.61,78.52l-0.57-2.47c-0.78-3.42-2.06-7.02-3.18-10.2c-1.28-3.64-2.3-6.51-2.3-8.19
				c0-3.35,2.73-6.08,6.08-6.08s6.08,2.73,6.08,6.08c0,1.79-1.09,4.93-2.47,8.91c-1.03,2.96-2.19,6.31-3.01,9.5L70.61,78.52z
				 M70.64,52.81c-2.67,0-4.85,2.17-4.85,4.85c0,1.47,1.03,4.4,2.23,7.79c0.89,2.52,1.87,5.31,2.64,8.08
				c0.74-2.52,1.62-5.06,2.42-7.36c1.29-3.72,2.4-6.92,2.4-8.5C75.49,54.98,73.31,52.81,70.64,52.81z"/>
		</g>
		<g>
			<path class="st2" d="M76.1,58.27c-3.35,0-6.08-2.73-6.08-6.08s2.73-6.08,6.08-6.08c1.79,0,4.93,1.09,8.91,2.47
				c2.96,1.03,6.32,2.19,9.51,3.01l2.45,0.63l-2.47,0.57c-3.42,0.78-7.02,2.06-10.2,3.18C80.66,57.26,77.78,58.27,76.1,58.27z
				 M76.1,47.35c-2.67,0-4.85,2.17-4.85,4.84c0,2.67,2.17,4.85,4.85,4.85c1.47,0,4.4-1.03,7.79-2.23c2.52-0.89,5.31-1.87,8.08-2.64
				c-2.53-0.74-5.06-1.62-7.36-2.42C80.89,48.46,77.68,47.35,76.1,47.35z"/>
		</g>
		<g>
			<path class="st2" d="M65.18,58.27c-1.79,0-4.93-1.09-8.9-2.47c-2.96-1.03-6.32-2.19-9.51-3.01l-2.45-0.63l2.47-0.57
				c3.42-0.78,7.02-2.05,10.2-3.17c3.64-1.28,6.52-2.3,8.2-2.3c3.35,0,6.08,2.73,6.08,6.08S68.53,58.27,65.18,58.27z M49.31,52.22
				c2.53,0.74,5.06,1.62,7.36,2.42c3.71,1.29,6.92,2.4,8.5,2.4c2.67,0,4.85-2.17,4.85-4.85c0-2.67-2.17-4.84-4.85-4.84
				c-1.47,0-4.4,1.03-7.79,2.23C54.87,50.47,52.08,51.45,49.31,52.22z"/>
		</g>
	</g>
</g>
<g id="Camada_3" class="st0">
</g>
</svg>
