<?xml version="1.0" encoding="utf-8"?>
<!-- Generator: Adobe Illustrator 25.0.0, SVG Export Plug-In . SVG Version: 6.00 Build 0)  -->
<svg version="1.1" xmlns="http://www.w3.org/2000/svg" xmlns:xlink="http://www.w3.org/1999/xlink" x="0px" y="0px"
	 viewBox="0 0 173 105" style="enable-background:new 0 0 173 105;" xml:space="preserve">
<style type="text/css">
	.st0{display:none;}
	.st1{display:inline;fill:#59778E;}
	.st2{fill:#000000;}
	.st3{clip-path:url(#SVGID_2_);}
	.st4{clip-path:url(#SVGID_4_);}
	.st5{clip-path:url(#SVGID_6_);}
	.st6{clip-path:url(#SVGID_8_);}
	.st7{clip-path:url(#SVGID_10_);}
	.st8{display:inline;}
	.st9{clip-path:url(#SVGID_11_);}
</style>
<g id="Camada_2" class="st0">
	<rect x="-1111.5" y="-209.5" class="st1" width="2269" height="1089"/>
</g>
<g id="Camada_1">
	<g>
		<path class="st2" d="M123.11,0.94c3.76,2.5,48.58,32.68,48.58,51.25s-44.82,48.75-48.58,51.25H1V0.94H123.11 M123.41-0.06H0v104.5
			h123.41c0,0,49.28-32.2,49.28-52.25S123.41-0.06,123.41-0.06L123.41-0.06z"/>
	</g>
	<g>
		<defs>
			<path id="SVGID_1_" d="M122.5,104.44H0.5V-0.06l123,0.5c0,0,48,31.7,48,51.75S122.5,104.44,122.5,104.44z"/>
		</defs>
		<clipPath id="SVGID_2_">
			<use xlink:href="#SVGID_1_"  style="overflow:visible;"/>
		</clipPath>
		<g class="st3">
			<g>
				<g>
					<path class="st2" d="M25.48,1.23c-1.67,0-3.03-1.43-3.03-3.19c0-0.93,0.54-2.57,1.22-4.64c0.51-1.54,1.09-3.29,1.49-4.95
						l0.33-1.36l0.3,1.37c0.39,1.78,1.02,3.66,1.57,5.31c0.64,1.89,1.14,3.39,1.14,4.27C28.51-0.2,27.15,1.23,25.48,1.23z
						 M25.47-10.13c-0.36,1.29-0.79,2.58-1.18,3.76c-0.64,1.93-1.19,3.6-1.19,4.41c0,1.38,1.07,2.5,2.38,2.5s2.38-1.12,2.38-2.5
						c0-0.76-0.51-2.28-1.1-4.04C26.32-7.29,25.85-8.71,25.47-10.13z"/>
				</g>
				<g>
					<path class="st2" d="M25.46,14.67l-0.3-1.37c-0.39-1.78-1.02-3.65-1.57-5.3c-0.64-1.9-1.14-3.4-1.14-4.28
						c0-1.76,1.36-3.18,3.03-3.18s3.03,1.43,3.03,3.18c0,0.94-0.54,2.57-1.22,4.64c-0.51,1.54-1.08,3.28-1.49,4.94L25.46,14.67z
						 M25.48,1.23c-1.31,0-2.38,1.12-2.38,2.5c0,0.76,0.51,2.28,1.1,4.05c0.43,1.29,0.91,2.71,1.29,4.12
						c0.36-1.29,0.79-2.58,1.18-3.75c0.64-1.93,1.19-3.6,1.19-4.42C27.86,2.35,26.79,1.23,25.48,1.23z"/>
				</g>
				<g>
					<path class="st2" d="M28.18,4.07c-1.67,0-3.03-1.43-3.03-3.18s1.36-3.19,3.03-3.19c0.89,0,2.45,0.57,4.41,1.29
						c1.47,0.53,3.13,1.14,4.7,1.57l1.29,0.35l-1.3,0.32c-1.69,0.41-3.47,1.07-5.05,1.65C30.44,3.54,29.01,4.07,28.18,4.07z
						 M28.18-1.62c-1.31,0-2.38,1.12-2.38,2.5s1.07,2.5,2.38,2.5c0.72,0,2.17-0.54,3.85-1.16c1.23-0.46,2.58-0.96,3.93-1.35
						c-1.23-0.38-2.46-0.83-3.58-1.24C30.55-1.04,28.96-1.62,28.18-1.62z"/>
				</g>
				<g>
					<path class="st2" d="M22.77,4.07c-0.89,0-2.45-0.57-4.42-1.29c-1.46-0.53-3.12-1.14-4.7-1.57l-1.29-0.35l1.3-0.32
						c1.7-0.41,3.48-1.07,5.05-1.65c1.8-0.67,3.22-1.2,4.06-1.2c1.67,0,3.03,1.43,3.03,3.19S24.44,4.07,22.77,4.07z M15,0.9
						c1.23,0.38,2.46,0.83,3.57,1.24c1.84,0.67,3.42,1.25,4.2,1.25c1.31,0,2.38-1.12,2.38-2.5s-1.07-2.5-2.38-2.5
						c-0.72,0-2.17,0.54-3.84,1.16C17.71,0,16.35,0.5,15,0.9z"/>
				</g>
			</g>
			<g>
				<g>
					<path class="st2" d="M25.48,26.86c-1.67,0-3.03-1.43-3.03-3.18c0-0.93,0.54-2.57,1.22-4.64c0.51-1.54,1.09-3.29,1.49-4.95
						l0.33-1.36l0.3,1.37c0.39,1.78,1.02,3.65,1.57,5.3c0.64,1.9,1.14,3.4,1.14,4.27C28.51,25.43,27.15,26.86,25.48,26.86z
						 M25.47,15.5c-0.36,1.29-0.79,2.58-1.18,3.76c-0.64,1.93-1.19,3.6-1.19,4.41c0,1.38,1.07,2.5,2.38,2.5s2.38-1.12,2.38-2.5
						c0-0.76-0.51-2.28-1.1-4.04C26.32,18.34,25.84,16.92,25.47,15.5z"/>
				</g>
				<g>
					<path class="st2" d="M25.46,40.31l-0.3-1.37c-0.39-1.78-1.02-3.65-1.57-5.3c-0.64-1.9-1.14-3.39-1.14-4.27
						c0-1.76,1.36-3.19,3.03-3.19s3.03,1.43,3.03,3.19c0,0.94-0.54,2.57-1.22,4.64c-0.51,1.54-1.08,3.28-1.49,4.94L25.46,40.31z
						 M25.48,26.86c-1.31,0-2.38,1.12-2.38,2.5c0,0.76,0.51,2.28,1.1,4.05c0.43,1.29,0.91,2.71,1.29,4.13
						c0.36-1.29,0.79-2.58,1.18-3.75c0.64-1.93,1.19-3.6,1.19-4.42C27.86,27.98,26.79,26.86,25.48,26.86z"/>
				</g>
				<g>
					<path class="st2" d="M28.18,29.71c-1.67,0-3.03-1.43-3.03-3.19s1.36-3.18,3.03-3.18c0.89,0,2.45,0.57,4.42,1.29
						c1.46,0.53,3.12,1.14,4.7,1.57l1.29,0.35l-1.3,0.32c-1.69,0.41-3.47,1.07-5.04,1.65C30.44,29.18,29.02,29.71,28.18,29.71z
						 M28.18,24.02c-1.31,0-2.38,1.12-2.38,2.5s1.07,2.5,2.38,2.5c0.72,0,2.17-0.54,3.85-1.16c1.23-0.46,2.58-0.96,3.92-1.35
						c-1.23-0.38-2.46-0.83-3.57-1.24C30.55,24.6,28.96,24.02,28.18,24.02z"/>
				</g>
				<g>
					<path class="st2" d="M22.77,29.71c-0.89,0-2.45-0.57-4.41-1.29c-1.47-0.53-3.13-1.14-4.7-1.57l-1.29-0.35l1.3-0.32
						c1.69-0.41,3.48-1.07,5.05-1.65c1.8-0.67,3.23-1.2,4.06-1.2c1.67,0,3.03,1.43,3.03,3.18S24.44,29.71,22.77,29.71z M15,26.53
						c1.23,0.38,2.46,0.83,3.58,1.24c1.84,0.67,3.42,1.25,4.2,1.25c1.31,0,2.38-1.12,2.38-2.5s-1.07-2.5-2.38-2.5
						c-0.72,0-2.17,0.54-3.84,1.16C17.7,25.63,16.35,26.13,15,26.53z"/>
				</g>
			</g>
			<g>
				<g>
					<path class="st2" d="M25.48,52.5c-1.67,0-3.03-1.43-3.03-3.19c0-0.93,0.54-2.57,1.22-4.64c0.51-1.54,1.09-3.29,1.49-4.95
						l0.33-1.36l0.3,1.37c0.39,1.78,1.02,3.66,1.57,5.31c0.64,1.89,1.14,3.39,1.14,4.27C28.51,51.07,27.15,52.5,25.48,52.5z
						 M25.47,41.14c-0.36,1.29-0.79,2.58-1.18,3.76c-0.64,1.93-1.19,3.6-1.19,4.41c0,1.38,1.07,2.5,2.38,2.5s2.38-1.12,2.38-2.5
						c0-0.76-0.51-2.28-1.1-4.04C26.32,43.98,25.85,42.56,25.47,41.14z"/>
				</g>
				<g>
					<path class="st2" d="M25.46,65.94l-0.3-1.37c-0.39-1.77-1.02-3.65-1.57-5.3c-0.64-1.9-1.14-3.4-1.14-4.28
						c0-1.76,1.36-3.18,3.03-3.18s3.03,1.43,3.03,3.18c0,0.94-0.54,2.58-1.23,4.65c-0.51,1.54-1.08,3.28-1.49,4.93L25.46,65.94z
						 M25.48,52.5c-1.31,0-2.38,1.12-2.38,2.5c0,0.76,0.51,2.29,1.11,4.05c0.43,1.29,0.91,2.71,1.29,4.12
						c0.36-1.29,0.79-2.58,1.17-3.75c0.64-1.93,1.19-3.61,1.19-4.43C27.86,53.62,26.79,52.5,25.48,52.5z"/>
				</g>
				<g>
					<path class="st2" d="M28.18,55.34c-1.67,0-3.03-1.43-3.03-3.18s1.36-3.19,3.03-3.19c0.89,0,2.45,0.57,4.41,1.29
						c1.47,0.53,3.13,1.14,4.7,1.57l1.29,0.35l-1.3,0.32c-1.69,0.41-3.47,1.07-5.05,1.65C30.44,54.81,29.01,55.34,28.18,55.34z
						 M28.18,49.66c-1.31,0-2.38,1.12-2.38,2.5c0,1.38,1.07,2.5,2.38,2.5c0.72,0,2.17-0.54,3.85-1.16c1.23-0.46,2.58-0.96,3.93-1.35
						c-1.23-0.38-2.46-0.83-3.58-1.24C30.55,50.24,28.96,49.66,28.18,49.66z"/>
				</g>
				<g>
					<path class="st2" d="M22.77,55.34c-0.89,0-2.45-0.57-4.42-1.29c-1.46-0.53-3.12-1.14-4.7-1.57l-1.29-0.35l1.3-0.32
						c1.7-0.41,3.48-1.07,5.05-1.65c1.8-0.67,3.22-1.2,4.06-1.2c1.67,0,3.03,1.43,3.03,3.19S24.44,55.34,22.77,55.34z M15,52.17
						c1.23,0.38,2.46,0.83,3.57,1.24c1.84,0.67,3.42,1.25,4.2,1.25c1.31,0,2.38-1.12,2.38-2.5c0-1.38-1.07-2.5-2.38-2.5
						c-0.72,0-2.17,0.54-3.84,1.16C17.71,51.27,16.35,51.77,15,52.17z"/>
				</g>
			</g>
			<g>
				<g>
					<path class="st2" d="M25.48,78.13c-1.67,0-3.03-1.43-3.03-3.18c0-0.93,0.54-2.57,1.22-4.64c0.51-1.54,1.09-3.29,1.49-4.95
						L25.5,64l0.3,1.37c0.39,1.78,1.02,3.65,1.57,5.3c0.64,1.9,1.14,3.4,1.14,4.27C28.51,76.71,27.15,78.13,25.48,78.13z
						 M25.47,66.77c-0.36,1.29-0.79,2.58-1.18,3.76c-0.64,1.93-1.19,3.6-1.19,4.41c0,1.38,1.07,2.5,2.38,2.5s2.38-1.12,2.38-2.5
						c0-0.76-0.51-2.28-1.1-4.04C26.32,69.62,25.84,68.19,25.47,66.77z"/>
				</g>
				<g>
					<path class="st2" d="M25.46,91.58l-0.3-1.37c-0.39-1.78-1.02-3.65-1.57-5.3c-0.64-1.9-1.14-3.39-1.14-4.27
						c0-1.76,1.36-3.19,3.03-3.19s3.03,1.43,3.03,3.19c0,0.94-0.54,2.57-1.22,4.64c-0.51,1.54-1.08,3.28-1.49,4.94L25.46,91.58z
						 M25.48,78.13c-1.31,0-2.38,1.12-2.38,2.5c0,0.76,0.51,2.28,1.1,4.05c0.43,1.29,0.91,2.71,1.29,4.13
						c0.36-1.29,0.79-2.58,1.18-3.75c0.64-1.93,1.19-3.6,1.19-4.42C27.86,79.26,26.79,78.13,25.48,78.13z"/>
				</g>
				<g>
					<path class="st2" d="M28.18,80.98c-1.67,0-3.03-1.43-3.03-3.19s1.36-3.18,3.03-3.18c0.89,0,2.45,0.57,4.42,1.29
						c1.46,0.53,3.12,1.14,4.7,1.57l1.29,0.35l-1.3,0.32c-1.69,0.41-3.47,1.07-5.04,1.65C30.44,80.45,29.02,80.98,28.18,80.98z
						 M28.18,75.29c-1.31,0-2.38,1.12-2.38,2.5c0,1.38,1.07,2.5,2.38,2.5c0.72,0,2.17-0.54,3.85-1.16c1.23-0.46,2.58-0.96,3.92-1.35
						c-1.23-0.38-2.46-0.83-3.57-1.24C30.55,75.87,28.96,75.29,28.18,75.29z"/>
				</g>
				<g>
					<path class="st2" d="M22.77,80.98c-0.89,0-2.45-0.57-4.41-1.29c-1.47-0.53-3.13-1.14-4.7-1.57l-1.29-0.35l1.3-0.32
						c1.69-0.41,3.48-1.07,5.05-1.65c1.8-0.67,3.23-1.2,4.06-1.2c1.67,0,3.03,1.43,3.03,3.18S24.44,80.98,22.77,80.98z M15,77.8
						c1.23,0.38,2.46,0.83,3.58,1.24c1.84,0.67,3.42,1.25,4.2,1.25c1.31,0,2.38-1.12,2.38-2.5c0-1.38-1.07-2.5-2.38-2.5
						c-0.72,0-2.17,0.54-3.84,1.16C17.7,76.9,16.35,77.41,15,77.8z"/>
				</g>
			</g>
			<g>
				<g>
					<path class="st2" d="M25.48,103.77c-1.67,0-3.03-1.43-3.03-3.18c0-0.94,0.54-2.57,1.23-4.64c0.51-1.54,1.08-3.29,1.49-4.94
						l0.33-1.36l0.3,1.37c0.39,1.78,1.02,3.65,1.57,5.31c0.64,1.9,1.14,3.39,1.14,4.27C28.51,102.34,27.15,103.77,25.48,103.77z
						 M25.47,92.41c-0.36,1.29-0.79,2.58-1.18,3.76c-0.64,1.93-1.19,3.6-1.19,4.42c0,1.38,1.07,2.5,2.38,2.5s2.38-1.12,2.38-2.5
						c0-0.76-0.51-2.28-1.1-4.05C26.32,95.25,25.84,93.83,25.47,92.41z"/>
				</g>
				<g>
					<path class="st2" d="M25.46,117.21l-0.3-1.37c-0.39-1.77-1.02-3.65-1.57-5.3c-0.64-1.9-1.14-3.4-1.14-4.28
						c0-1.76,1.36-3.18,3.03-3.18s3.03,1.43,3.03,3.18c0,0.94-0.54,2.58-1.23,4.65c-0.51,1.54-1.08,3.28-1.49,4.93L25.46,117.21z
						 M25.48,103.77c-1.31,0-2.38,1.12-2.38,2.5c0,0.76,0.51,2.29,1.11,4.05c0.43,1.29,0.91,2.71,1.29,4.12
						c0.36-1.29,0.79-2.58,1.17-3.75c0.64-1.93,1.19-3.61,1.19-4.43C27.86,104.89,26.79,103.77,25.48,103.77z"/>
				</g>
				<g>
					<path class="st2" d="M28.18,106.61c-1.67,0-3.03-1.43-3.03-3.18c0-1.76,1.36-3.18,3.03-3.18c0.89,0,2.45,0.57,4.42,1.29
						c1.46,0.53,3.12,1.14,4.7,1.57l1.29,0.35l-1.3,0.32c-1.69,0.41-3.47,1.07-5.05,1.65C30.44,106.08,29.01,106.61,28.18,106.61z
						 M28.18,100.93c-1.31,0-2.38,1.12-2.38,2.5c0,1.38,1.07,2.5,2.38,2.5c0.72,0,2.17-0.54,3.85-1.16
						c1.23-0.46,2.58-0.96,3.93-1.35c-1.23-0.38-2.46-0.83-3.57-1.24C30.55,101.51,28.96,100.93,28.18,100.93z"/>
				</g>
				<g>
					<path class="st2" d="M22.77,106.61c-0.89,0-2.45-0.57-4.42-1.29c-1.46-0.53-3.12-1.14-4.7-1.57l-1.29-0.35l1.3-0.32
						c1.69-0.41,3.48-1.07,5.05-1.65c1.8-0.67,3.23-1.2,4.06-1.2c1.67,0,3.03,1.43,3.03,3.18C25.8,105.18,24.44,106.61,22.77,106.61
						z M15,103.44c1.23,0.38,2.46,0.83,3.57,1.24c1.84,0.67,3.42,1.25,4.2,1.25c1.31,0,2.38-1.12,2.38-2.5c0-1.38-1.07-2.5-2.38-2.5
						c-0.72,0-2.17,0.54-3.84,1.16C17.7,102.54,16.35,103.04,15,103.44z"/>
				</g>
			</g>
			<g>
				<g>
					<path class="st2" d="M0.21,1.23c-1.67,0-3.03-1.43-3.03-3.19c0-0.93,0.54-2.57,1.22-4.64c0.51-1.54,1.09-3.29,1.49-4.95
						l0.33-1.36l0.3,1.37C0.92-9.76,1.55-7.88,2.1-6.23c0.64,1.89,1.14,3.39,1.14,4.27C3.24-0.2,1.88,1.23,0.21,1.23z M0.2-10.13
						c-0.36,1.29-0.79,2.58-1.18,3.76c-0.64,1.93-1.19,3.6-1.19,4.41c0,1.38,1.07,2.5,2.38,2.5s2.38-1.12,2.38-2.5
						c0-0.76-0.51-2.28-1.1-4.04C1.06-7.29,0.58-8.71,0.2-10.13z"/>
				</g>
				<g>
					<path class="st2" d="M0.2,14.67l-0.3-1.37C-0.49,11.53-1.12,9.66-1.67,8c-0.64-1.9-1.14-3.4-1.14-4.28
						c0-1.76,1.36-3.18,3.03-3.18s3.03,1.43,3.03,3.18c0,0.94-0.54,2.57-1.22,4.64c-0.51,1.54-1.08,3.28-1.49,4.94L0.2,14.67z
						 M0.21,1.23c-1.31,0-2.38,1.12-2.38,2.5c0,0.76,0.51,2.28,1.1,4.05c0.43,1.29,0.91,2.71,1.29,4.12
						c0.36-1.29,0.79-2.58,1.18-3.75c0.64-1.93,1.19-3.6,1.19-4.42C2.59,2.35,1.53,1.23,0.21,1.23z"/>
				</g>
				<g>
					<path class="st2" d="M2.92,4.07c-1.67,0-3.03-1.43-3.03-3.18S1.25-2.3,2.92-2.3c0.89,0,2.45,0.57,4.41,1.29
						c1.47,0.53,3.13,1.14,4.7,1.57l1.29,0.35l-1.3,0.32c-1.69,0.41-3.47,1.07-5.05,1.65C5.18,3.54,3.75,4.07,2.92,4.07z M2.92-1.62
						c-1.31,0-2.38,1.12-2.38,2.5s1.07,2.5,2.38,2.5c0.72,0,2.17-0.54,3.85-1.16c1.23-0.46,2.58-0.96,3.93-1.35
						C9.46,0.49,8.23,0.04,7.11-0.37C5.28-1.04,3.69-1.62,2.92-1.62z"/>
				</g>
				<g>
					<path class="st2" d="M-2.49,4.07c-0.89,0-2.45-0.57-4.42-1.29c-1.46-0.53-3.12-1.14-4.7-1.57l-1.29-0.35l1.3-0.32
						c1.7-0.41,3.48-1.07,5.05-1.65c1.8-0.67,3.22-1.2,4.06-1.2c1.67,0,3.03,1.43,3.03,3.19S-0.82,4.07-2.49,4.07z M-10.27,0.9
						c1.23,0.38,2.46,0.83,3.57,1.24c1.84,0.67,3.42,1.25,4.2,1.25c1.31,0,2.38-1.12,2.38-2.5s-1.07-2.5-2.38-2.5
						c-0.72,0-2.17,0.54-3.84,1.16C-7.56,0-8.91,0.5-10.27,0.9z"/>
				</g>
			</g>
			<g>
				<g>
					<path class="st2" d="M0.21,26.86c-1.67,0-3.03-1.43-3.03-3.18c0-0.93,0.54-2.57,1.22-4.64c0.51-1.54,1.09-3.29,1.49-4.95
						l0.33-1.36l0.3,1.37c0.39,1.78,1.02,3.65,1.57,5.3c0.64,1.9,1.14,3.4,1.14,4.27C3.24,25.43,1.88,26.86,0.21,26.86z M0.2,15.5
						c-0.36,1.29-0.79,2.58-1.18,3.76c-0.64,1.93-1.19,3.6-1.19,4.41c0,1.38,1.07,2.5,2.38,2.5s2.38-1.12,2.38-2.5
						c0-0.76-0.51-2.28-1.1-4.04C1.06,18.34,0.58,16.92,0.2,15.5z"/>
				</g>
				<g>
					<path class="st2" d="M0.2,40.31l-0.3-1.37c-0.39-1.78-1.02-3.65-1.57-5.3c-0.64-1.9-1.14-3.39-1.14-4.27
						c0-1.76,1.36-3.19,3.03-3.19s3.03,1.43,3.03,3.19c0,0.94-0.54,2.57-1.22,4.64c-0.51,1.54-1.08,3.28-1.49,4.94L0.2,40.31z
						 M0.21,26.86c-1.31,0-2.38,1.12-2.38,2.5c0,0.76,0.51,2.28,1.1,4.05c0.43,1.29,0.91,2.71,1.29,4.13
						c0.36-1.29,0.79-2.58,1.18-3.75c0.64-1.93,1.19-3.6,1.19-4.42C2.59,27.98,1.53,26.86,0.21,26.86z"/>
				</g>
				<g>
					<path class="st2" d="M2.92,29.71c-1.67,0-3.03-1.43-3.03-3.19s1.36-3.18,3.03-3.18c0.89,0,2.45,0.57,4.42,1.29
						c1.46,0.53,3.12,1.14,4.7,1.57l1.29,0.35l-1.3,0.32c-1.69,0.41-3.47,1.07-5.04,1.65C5.18,29.18,3.75,29.71,2.92,29.71z
						 M2.92,24.02c-1.31,0-2.38,1.12-2.38,2.5s1.07,2.5,2.38,2.5c0.72,0,2.17-0.54,3.85-1.16c1.23-0.46,2.58-0.96,3.92-1.35
						c-1.23-0.38-2.46-0.83-3.57-1.24C5.28,24.6,3.7,24.02,2.92,24.02z"/>
				</g>
				<g>
					<path class="st2" d="M-2.49,29.71c-0.89,0-2.45-0.57-4.41-1.29c-1.47-0.53-3.13-1.14-4.7-1.57l-1.29-0.35l1.3-0.32
						c1.69-0.41,3.48-1.07,5.05-1.65c1.8-0.67,3.23-1.2,4.06-1.2c1.67,0,3.03,1.43,3.03,3.18S-0.82,29.71-2.49,29.71z M-10.27,26.53
						c1.23,0.38,2.46,0.83,3.58,1.24c1.84,0.67,3.42,1.25,4.2,1.25c1.31,0,2.38-1.12,2.38-2.5s-1.07-2.5-2.38-2.5
						c-0.72,0-2.17,0.54-3.84,1.16C-7.56,25.63-8.92,26.13-10.27,26.53z"/>
				</g>
			</g>
			<g>
				<g>
					<path class="st2" d="M0.21,52.5c-1.67,0-3.03-1.43-3.03-3.19c0-0.93,0.54-2.57,1.22-4.64c0.51-1.54,1.09-3.29,1.49-4.95
						l0.33-1.36l0.3,1.37c0.39,1.78,1.02,3.66,1.57,5.31c0.64,1.89,1.14,3.39,1.14,4.27C3.24,51.07,1.88,52.5,0.21,52.5z M0.2,41.14
						c-0.36,1.29-0.79,2.58-1.18,3.76c-0.64,1.93-1.19,3.6-1.19,4.41c0,1.38,1.07,2.5,2.38,2.5s2.38-1.12,2.38-2.5
						c0-0.76-0.51-2.28-1.1-4.04C1.06,43.98,0.58,42.56,0.2,41.14z"/>
				</g>
				<g>
					<path class="st2" d="M0.2,65.94l-0.3-1.37c-0.39-1.77-1.02-3.65-1.57-5.3c-0.64-1.9-1.14-3.4-1.14-4.28
						c0-1.76,1.36-3.18,3.03-3.18S3.24,53.24,3.24,55c0,0.94-0.54,2.58-1.23,4.65c-0.51,1.54-1.08,3.28-1.49,4.93L0.2,65.94z
						 M0.21,52.5c-1.31,0-2.38,1.12-2.38,2.5c0,0.76,0.51,2.29,1.11,4.05c0.43,1.29,0.91,2.71,1.29,4.12
						c0.36-1.29,0.79-2.58,1.17-3.75c0.64-1.93,1.19-3.61,1.19-4.43C2.59,53.62,1.53,52.5,0.21,52.5z"/>
				</g>
				<g>
					<path class="st2" d="M2.92,55.34c-1.67,0-3.03-1.43-3.03-3.18s1.36-3.19,3.03-3.19c0.89,0,2.45,0.57,4.41,1.29
						c1.47,0.53,3.13,1.14,4.7,1.57l1.29,0.35l-1.3,0.32c-1.69,0.41-3.47,1.07-5.05,1.65C5.18,54.81,3.75,55.34,2.92,55.34z
						 M2.92,49.66c-1.31,0-2.38,1.12-2.38,2.5c0,1.38,1.07,2.5,2.38,2.5c0.72,0,2.17-0.54,3.85-1.16c1.23-0.46,2.58-0.96,3.93-1.35
						c-1.23-0.38-2.46-0.83-3.58-1.24C5.28,50.24,3.69,49.66,2.92,49.66z"/>
				</g>
				<g>
					<path class="st2" d="M-2.49,55.34c-0.89,0-2.45-0.57-4.42-1.29c-1.46-0.53-3.12-1.14-4.7-1.57l-1.29-0.35l1.3-0.32
						c1.7-0.41,3.48-1.07,5.05-1.65c1.8-0.67,3.22-1.2,4.06-1.2c1.67,0,3.03,1.43,3.03,3.19S-0.82,55.34-2.49,55.34z M-10.27,52.17
						c1.23,0.38,2.46,0.83,3.57,1.24c1.84,0.67,3.42,1.25,4.2,1.25c1.31,0,2.38-1.12,2.38-2.5c0-1.38-1.07-2.5-2.38-2.5
						c-0.72,0-2.17,0.54-3.84,1.16C-7.56,51.27-8.91,51.77-10.27,52.17z"/>
				</g>
			</g>
			<g>
				<g>
					<path class="st2" d="M0.21,78.13c-1.67,0-3.03-1.43-3.03-3.18c0-0.93,0.54-2.57,1.22-4.64c0.51-1.54,1.09-3.29,1.49-4.95
						L0.23,64l0.3,1.37c0.39,1.78,1.02,3.65,1.57,5.3c0.64,1.9,1.14,3.4,1.14,4.27C3.24,76.71,1.88,78.13,0.21,78.13z M0.2,66.77
						c-0.36,1.29-0.79,2.58-1.18,3.76c-0.64,1.93-1.19,3.6-1.19,4.41c0,1.38,1.07,2.5,2.38,2.5s2.38-1.12,2.38-2.5
						c0-0.76-0.51-2.28-1.1-4.04C1.06,69.62,0.58,68.19,0.2,66.77z"/>
				</g>
				<g>
					<path class="st2" d="M0.2,91.58l-0.3-1.37c-0.39-1.78-1.02-3.65-1.57-5.3c-0.64-1.9-1.14-3.39-1.14-4.27
						c0-1.76,1.36-3.19,3.03-3.19s3.03,1.43,3.03,3.19c0,0.94-0.54,2.57-1.22,4.64c-0.51,1.54-1.08,3.28-1.49,4.94L0.2,91.58z
						 M0.21,78.13c-1.31,0-2.38,1.12-2.38,2.5c0,0.76,0.51,2.28,1.1,4.05c0.43,1.29,0.91,2.71,1.29,4.13
						c0.36-1.29,0.79-2.58,1.18-3.75c0.64-1.93,1.19-3.6,1.19-4.42C2.59,79.26,1.53,78.13,0.21,78.13z"/>
				</g>
				<g>
					<path class="st2" d="M2.92,80.98c-1.67,0-3.03-1.43-3.03-3.19s1.36-3.18,3.03-3.18c0.89,0,2.45,0.57,4.42,1.29
						c1.46,0.53,3.12,1.14,4.7,1.57l1.29,0.35l-1.3,0.32c-1.69,0.41-3.47,1.07-5.04,1.65C5.18,80.45,3.75,80.98,2.92,80.98z
						 M2.92,75.29c-1.31,0-2.38,1.12-2.38,2.5c0,1.38,1.07,2.5,2.38,2.5c0.72,0,2.17-0.54,3.85-1.16c1.23-0.46,2.58-0.96,3.92-1.35
						c-1.23-0.38-2.46-0.83-3.57-1.24C5.28,75.87,3.7,75.29,2.92,75.29z"/>
				</g>
				<g>
					<path class="st2" d="M-2.49,80.98c-0.89,0-2.45-0.57-4.41-1.29c-1.47-0.53-3.13-1.14-4.7-1.57l-1.29-0.35l1.3-0.32
						c1.69-0.41,3.48-1.07,5.05-1.65c1.8-0.67,3.23-1.2,4.06-1.2c1.67,0,3.03,1.43,3.03,3.18S-0.82,80.98-2.49,80.98z M-10.27,77.8
						c1.23,0.38,2.46,0.83,3.58,1.24c1.84,0.67,3.42,1.25,4.2,1.25c1.31,0,2.38-1.12,2.38-2.5c0-1.38-1.07-2.5-2.38-2.5
						c-0.72,0-2.17,0.54-3.84,1.16C-7.56,76.9-8.92,77.41-10.27,77.8z"/>
				</g>
			</g>
			<g>
				<g>
					<path class="st2" d="M0.21,103.77c-1.67,0-3.03-1.43-3.03-3.18c0-0.94,0.54-2.57,1.23-4.64C-1.08,94.4-0.51,92.66-0.1,91
						l0.33-1.36l0.3,1.37c0.39,1.78,1.02,3.65,1.57,5.31c0.64,1.9,1.14,3.39,1.14,4.27C3.24,102.34,1.88,103.77,0.21,103.77z
						 M0.2,92.41c-0.36,1.29-0.79,2.58-1.18,3.76c-0.64,1.93-1.19,3.6-1.19,4.42c0,1.38,1.07,2.5,2.38,2.5s2.38-1.12,2.38-2.5
						c0-0.76-0.51-2.28-1.1-4.05C1.06,95.25,0.58,93.83,0.2,92.41z"/>
				</g>
				<g>
					<path class="st2" d="M0.2,117.21l-0.3-1.37c-0.39-1.77-1.02-3.65-1.57-5.3c-0.64-1.9-1.14-3.4-1.14-4.28
						c0-1.76,1.36-3.18,3.03-3.18s3.03,1.43,3.03,3.18c0,0.94-0.54,2.58-1.23,4.65c-0.51,1.54-1.08,3.28-1.49,4.93L0.2,117.21z
						 M0.21,103.77c-1.31,0-2.38,1.12-2.38,2.5c0,0.76,0.51,2.29,1.11,4.05c0.43,1.29,0.91,2.71,1.29,4.12
						c0.36-1.29,0.79-2.58,1.17-3.75c0.64-1.93,1.19-3.61,1.19-4.43C2.59,104.89,1.53,103.77,0.21,103.77z"/>
				</g>
				<g>
					<path class="st2" d="M2.92,106.61c-1.67,0-3.03-1.43-3.03-3.18c0-1.76,1.36-3.18,3.03-3.18c0.89,0,2.45,0.57,4.42,1.29
						c1.46,0.53,3.12,1.14,4.7,1.57l1.29,0.35l-1.3,0.32c-1.69,0.41-3.47,1.07-5.05,1.65C5.18,106.08,3.75,106.61,2.92,106.61z
						 M2.92,100.93c-1.31,0-2.38,1.12-2.38,2.5c0,1.38,1.07,2.5,2.38,2.5c0.72,0,2.17-0.54,3.85-1.16c1.23-0.46,2.58-0.96,3.93-1.35
						c-1.23-0.38-2.46-0.83-3.57-1.24C5.28,101.51,3.7,100.93,2.92,100.93z"/>
				</g>
				<g>
					<path class="st2" d="M-2.49,106.61c-0.89,0-2.45-0.57-4.42-1.29c-1.46-0.53-3.12-1.14-4.7-1.57l-1.29-0.35l1.3-0.32
						c1.69-0.41,3.48-1.07,5.05-1.65c1.8-0.67,3.23-1.2,4.06-1.2c1.67,0,3.03,1.43,3.03,3.18C0.54,105.18-0.82,106.61-2.49,106.61z
						 M-10.27,103.44c1.23,0.38,2.46,0.83,3.57,1.24c1.84,0.67,3.42,1.25,4.2,1.25c1.31,0,2.38-1.12,2.38-2.5
						c0-1.38-1.07-2.5-2.38-2.5c-0.72,0-2.17,0.54-3.84,1.16C-7.56,102.54-8.92,103.04-10.27,103.44z"/>
				</g>
			</g>
			<g>
				<g>
					<path class="st2" d="M76.01,1.23c-1.67,0-3.03-1.43-3.03-3.19c0-0.93,0.54-2.57,1.22-4.64c0.51-1.54,1.09-3.29,1.49-4.95
						l0.33-1.36l0.3,1.37c0.39,1.78,1.02,3.66,1.57,5.31c0.64,1.89,1.14,3.39,1.14,4.27C79.04-0.2,77.68,1.23,76.01,1.23z M76-10.13
						c-0.36,1.29-0.79,2.58-1.18,3.76c-0.64,1.93-1.19,3.6-1.19,4.41c0,1.38,1.07,2.5,2.38,2.5c1.31,0,2.38-1.12,2.38-2.5
						c0-0.76-0.51-2.28-1.1-4.04C76.85-7.29,76.38-8.71,76-10.13z"/>
				</g>
				<g>
					<path class="st2" d="M75.99,14.67l-0.3-1.37c-0.39-1.78-1.02-3.65-1.57-5.3c-0.64-1.9-1.14-3.4-1.14-4.28
						c0-1.76,1.36-3.18,3.03-3.18s3.03,1.43,3.03,3.18c0,0.93-0.54,2.57-1.22,4.63c-0.51,1.54-1.09,3.29-1.49,4.95L75.99,14.67z
						 M76.01,1.23c-1.31,0-2.38,1.12-2.38,2.5c0,0.76,0.51,2.28,1.1,4.05c0.43,1.29,0.91,2.71,1.29,4.12
						c0.36-1.29,0.79-2.59,1.18-3.77c0.64-1.93,1.18-3.59,1.18-4.41C78.39,2.35,77.32,1.23,76.01,1.23z"/>
				</g>
				<g>
					<path class="st2" d="M78.71,4.07c-1.67,0-3.03-1.43-3.03-3.18s1.36-3.19,3.03-3.19c0.89,0,2.45,0.57,4.41,1.29
						c1.47,0.53,3.13,1.14,4.7,1.57l1.29,0.35l-1.3,0.32c-1.69,0.41-3.47,1.07-5.05,1.65C80.97,3.54,79.55,4.07,78.71,4.07z
						 M78.71-1.62c-1.31,0-2.38,1.12-2.38,2.5s1.07,2.5,2.38,2.5c0.72,0,2.17-0.54,3.85-1.16c1.23-0.46,2.58-0.96,3.93-1.35
						c-1.23-0.38-2.46-0.83-3.58-1.24C81.08-1.04,79.49-1.62,78.71-1.62z"/>
				</g>
				<g>
					<path class="st2" d="M73.31,4.07c-0.89,0-2.45-0.57-4.42-1.29c-1.46-0.53-3.12-1.14-4.7-1.57l-1.29-0.35l1.3-0.32
						c1.69-0.41,3.47-1.07,5.05-1.65c1.8-0.67,3.23-1.2,4.06-1.2c1.67,0,3.03,1.43,3.03,3.19S74.98,4.07,73.31,4.07z M65.53,0.9
						c1.23,0.38,2.46,0.83,3.57,1.24c1.84,0.67,3.42,1.25,4.2,1.25c1.31,0,2.38-1.12,2.38-2.5s-1.07-2.5-2.38-2.5
						c-0.72,0-2.17,0.54-3.84,1.16C68.24,0,66.88,0.5,65.53,0.9z"/>
				</g>
			</g>
			<g>
				<g>
					<path class="st2" d="M76.01,26.86c-1.67,0-3.03-1.43-3.03-3.18c0-0.93,0.54-2.57,1.22-4.64c0.51-1.54,1.09-3.29,1.49-4.95
						l0.33-1.36l0.3,1.37c0.39,1.78,1.02,3.65,1.57,5.3c0.64,1.9,1.14,3.4,1.14,4.27C79.04,25.43,77.68,26.86,76.01,26.86z M76,15.5
						c-0.36,1.29-0.79,2.58-1.18,3.76c-0.64,1.93-1.19,3.6-1.19,4.41c0,1.38,1.07,2.5,2.38,2.5c1.31,0,2.38-1.12,2.38-2.5
						c0-0.76-0.51-2.28-1.1-4.04C76.85,18.34,76.37,16.92,76,15.5z"/>
				</g>
				<g>
					<path class="st2" d="M75.99,40.31l-0.3-1.37c-0.39-1.78-1.02-3.65-1.57-5.3c-0.64-1.9-1.14-3.39-1.14-4.27
						c0-1.76,1.36-3.19,3.03-3.19s3.03,1.43,3.03,3.19c0,0.93-0.54,2.57-1.22,4.63c-0.51,1.54-1.09,3.29-1.49,4.95L75.99,40.31z
						 M76.01,26.86c-1.31,0-2.38,1.12-2.38,2.5c0,0.76,0.51,2.28,1.1,4.05c0.43,1.29,0.91,2.71,1.29,4.13
						c0.36-1.29,0.79-2.59,1.18-3.77c0.64-1.93,1.18-3.59,1.18-4.41C78.39,27.98,77.32,26.86,76.01,26.86z"/>
				</g>
				<g>
					<path class="st2" d="M78.71,29.71c-1.67,0-3.03-1.43-3.03-3.19s1.36-3.18,3.03-3.18c0.89,0,2.45,0.57,4.42,1.29
						c1.46,0.53,3.12,1.14,4.7,1.57l1.29,0.35l-1.3,0.32c-1.69,0.41-3.47,1.07-5.04,1.65C80.97,29.18,79.55,29.71,78.71,29.71z
						 M78.71,24.02c-1.31,0-2.38,1.12-2.38,2.5s1.07,2.5,2.38,2.5c0.72,0,2.17-0.54,3.85-1.16c1.23-0.46,2.58-0.96,3.92-1.35
						c-1.23-0.38-2.46-0.83-3.57-1.24C81.08,24.6,79.49,24.02,78.71,24.02z"/>
				</g>
				<g>
					<path class="st2" d="M73.31,29.71c-0.89,0-2.45-0.57-4.41-1.29c-1.47-0.53-3.13-1.14-4.7-1.57l-1.29-0.35l1.3-0.32
						c1.69-0.41,3.47-1.07,5.05-1.65c1.8-0.67,3.23-1.2,4.06-1.2c1.67,0,3.03,1.43,3.03,3.18S74.98,29.71,73.31,29.71z M65.53,26.53
						c1.23,0.38,2.46,0.83,3.58,1.24c1.84,0.67,3.42,1.25,4.2,1.25c1.31,0,2.38-1.12,2.38-2.5s-1.07-2.5-2.38-2.5
						c-0.72,0-2.17,0.54-3.85,1.16C68.23,25.64,66.88,26.13,65.53,26.53z"/>
				</g>
			</g>
			<g>
				<g>
					<path class="st2" d="M76.01,52.5c-1.67,0-3.03-1.43-3.03-3.19c0-0.93,0.54-2.57,1.22-4.64c0.51-1.54,1.09-3.29,1.49-4.95
						l0.33-1.36l0.3,1.37c0.39,1.78,1.02,3.66,1.57,5.31c0.64,1.89,1.14,3.39,1.14,4.27C79.04,51.07,77.68,52.5,76.01,52.5z
						 M76,41.14c-0.36,1.29-0.79,2.58-1.18,3.76c-0.64,1.93-1.19,3.6-1.19,4.41c0,1.38,1.07,2.5,2.38,2.5c1.31,0,2.38-1.12,2.38-2.5
						c0-0.76-0.51-2.28-1.1-4.04C76.85,43.98,76.38,42.56,76,41.14z"/>
				</g>
				<g>
					<path class="st2" d="M75.99,65.94l-0.3-1.37c-0.39-1.77-1.02-3.65-1.57-5.3c-0.64-1.9-1.14-3.4-1.14-4.28
						c0-1.76,1.36-3.18,3.03-3.18s3.03,1.43,3.03,3.18c0,0.94-0.54,2.57-1.22,4.64c-0.51,1.54-1.09,3.29-1.49,4.95L75.99,65.94z
						 M76.01,52.5c-1.31,0-2.38,1.12-2.38,2.5c0,0.76,0.51,2.29,1.11,4.05c0.43,1.29,0.91,2.71,1.29,4.12
						c0.36-1.29,0.79-2.58,1.18-3.76c0.64-1.93,1.19-3.59,1.19-4.41C78.39,53.62,77.32,52.5,76.01,52.5z"/>
				</g>
				<g>
					<path class="st2" d="M78.71,55.34c-1.67,0-3.03-1.43-3.03-3.18s1.36-3.19,3.03-3.19c0.89,0,2.45,0.57,4.41,1.29
						c1.47,0.53,3.13,1.14,4.7,1.57l1.29,0.35l-1.3,0.32c-1.69,0.41-3.47,1.07-5.05,1.65C80.97,54.81,79.55,55.34,78.71,55.34z
						 M78.71,49.66c-1.31,0-2.38,1.12-2.38,2.5c0,1.38,1.07,2.5,2.38,2.5c0.72,0,2.17-0.54,3.85-1.16c1.23-0.46,2.58-0.96,3.93-1.35
						c-1.23-0.38-2.46-0.83-3.58-1.24C81.08,50.24,79.49,49.66,78.71,49.66z"/>
				</g>
				<g>
					<path class="st2" d="M73.31,55.34c-0.89,0-2.45-0.57-4.42-1.29c-1.46-0.53-3.12-1.14-4.7-1.57l-1.29-0.35l1.3-0.32
						c1.69-0.41,3.47-1.07,5.05-1.65c1.8-0.67,3.23-1.2,4.06-1.2c1.67,0,3.03,1.43,3.03,3.19S74.98,55.34,73.31,55.34z M65.53,52.17
						c1.23,0.38,2.46,0.83,3.57,1.24c1.84,0.67,3.42,1.25,4.2,1.25c1.31,0,2.38-1.12,2.38-2.5c0-1.38-1.07-2.5-2.38-2.5
						c-0.72,0-2.17,0.54-3.84,1.16C68.24,51.27,66.88,51.77,65.53,52.17z"/>
				</g>
			</g>
			<g>
				<g>
					<path class="st2" d="M76.01,78.13c-1.67,0-3.03-1.43-3.03-3.18c0-0.93,0.54-2.57,1.22-4.64c0.51-1.54,1.09-3.29,1.49-4.95
						L76.03,64l0.3,1.37c0.39,1.78,1.02,3.65,1.57,5.3c0.64,1.9,1.14,3.4,1.14,4.27C79.04,76.71,77.68,78.13,76.01,78.13z M76,66.77
						c-0.36,1.29-0.79,2.58-1.18,3.76c-0.64,1.93-1.19,3.6-1.19,4.41c0,1.38,1.07,2.5,2.38,2.5c1.31,0,2.38-1.12,2.38-2.5
						c0-0.76-0.51-2.28-1.1-4.04C76.85,69.62,76.37,68.19,76,66.77z"/>
				</g>
				<g>
					<path class="st2" d="M75.99,91.58l-0.3-1.37c-0.39-1.78-1.02-3.65-1.57-5.3c-0.64-1.9-1.14-3.39-1.14-4.27
						c0-1.76,1.36-3.19,3.03-3.19s3.03,1.43,3.03,3.19c0,0.93-0.54,2.57-1.22,4.63c-0.51,1.54-1.09,3.29-1.49,4.95L75.99,91.58z
						 M76.01,78.13c-1.31,0-2.38,1.12-2.38,2.5c0,0.76,0.51,2.28,1.1,4.05c0.43,1.29,0.91,2.71,1.29,4.13
						c0.36-1.29,0.79-2.59,1.18-3.77c0.64-1.93,1.18-3.59,1.18-4.41C78.39,79.26,77.32,78.13,76.01,78.13z"/>
				</g>
				<g>
					<path class="st2" d="M78.71,80.98c-1.67,0-3.03-1.43-3.03-3.19s1.36-3.18,3.03-3.18c0.89,0,2.45,0.57,4.42,1.29
						c1.46,0.53,3.12,1.14,4.7,1.57l1.29,0.35l-1.3,0.32c-1.69,0.41-3.47,1.07-5.04,1.65C80.97,80.45,79.55,80.98,78.71,80.98z
						 M78.71,75.29c-1.31,0-2.38,1.12-2.38,2.5c0,1.38,1.07,2.5,2.38,2.5c0.72,0,2.17-0.54,3.85-1.16c1.23-0.46,2.58-0.96,3.92-1.35
						c-1.23-0.38-2.46-0.83-3.57-1.24C81.08,75.87,79.49,75.29,78.71,75.29z"/>
				</g>
				<g>
					<path class="st2" d="M73.31,80.98c-0.89,0-2.45-0.57-4.41-1.29c-1.47-0.53-3.13-1.14-4.7-1.57l-1.29-0.35l1.3-0.32
						c1.69-0.41,3.47-1.07,5.05-1.65c1.8-0.67,3.23-1.2,4.06-1.2c1.67,0,3.03,1.43,3.03,3.18S74.98,80.98,73.31,80.98z M65.53,77.8
						c1.23,0.38,2.46,0.83,3.58,1.24c1.84,0.67,3.42,1.25,4.2,1.25c1.31,0,2.38-1.12,2.38-2.5c0-1.38-1.07-2.5-2.38-2.5
						c-0.72,0-2.17,0.54-3.85,1.16C68.23,76.91,66.88,77.41,65.53,77.8z"/>
				</g>
			</g>
			<g>
				<g>
					<path class="st2" d="M76.01,103.77c-1.67,0-3.03-1.43-3.03-3.18c0-0.94,0.54-2.57,1.23-4.64c0.51-1.54,1.08-3.29,1.49-4.94
						l0.33-1.36l0.3,1.37c0.39,1.78,1.02,3.65,1.57,5.31c0.64,1.9,1.14,3.39,1.14,4.27C79.04,102.34,77.68,103.77,76.01,103.77z
						 M76,92.41c-0.36,1.29-0.79,2.58-1.18,3.76c-0.64,1.93-1.19,3.6-1.19,4.42c0,1.38,1.07,2.5,2.38,2.5c1.31,0,2.38-1.12,2.38-2.5
						c0-0.76-0.51-2.28-1.1-4.05C76.85,95.25,76.37,93.83,76,92.41z"/>
				</g>
				<g>
					<path class="st2" d="M75.99,117.21l-0.3-1.37c-0.39-1.77-1.02-3.65-1.57-5.3c-0.64-1.9-1.14-3.4-1.14-4.28
						c0-1.76,1.36-3.18,3.03-3.18s3.03,1.43,3.03,3.18c0,0.94-0.54,2.57-1.22,4.64c-0.51,1.54-1.09,3.29-1.49,4.95L75.99,117.21z
						 M76.01,103.77c-1.31,0-2.38,1.12-2.38,2.5c0,0.76,0.51,2.29,1.11,4.05c0.43,1.29,0.91,2.71,1.29,4.12
						c0.36-1.29,0.79-2.58,1.18-3.76c0.64-1.93,1.19-3.59,1.19-4.41C78.39,104.89,77.32,103.77,76.01,103.77z"/>
				</g>
				<g>
					<path class="st2" d="M78.71,106.61c-1.67,0-3.03-1.43-3.03-3.18c0-1.76,1.36-3.18,3.03-3.18c0.89,0,2.45,0.57,4.42,1.29
						c1.46,0.53,3.12,1.14,4.7,1.57l1.29,0.35l-1.3,0.32c-1.69,0.41-3.47,1.07-5.05,1.65C80.97,106.08,79.55,106.61,78.71,106.61z
						 M78.71,100.93c-1.31,0-2.38,1.12-2.38,2.5c0,1.38,1.07,2.5,2.38,2.5c0.72,0,2.17-0.54,3.85-1.16
						c1.23-0.46,2.58-0.96,3.93-1.35c-1.23-0.38-2.46-0.83-3.57-1.24C81.08,101.51,79.49,100.93,78.71,100.93z"/>
				</g>
				<g>
					<path class="st2" d="M73.31,106.61c-0.89,0-2.45-0.57-4.42-1.29c-1.46-0.53-3.12-1.14-4.7-1.57l-1.29-0.35l1.3-0.32
						c1.69-0.41,3.47-1.07,5.05-1.65c1.8-0.67,3.23-1.2,4.06-1.2c1.67,0,3.03,1.43,3.03,3.18
						C76.34,105.18,74.98,106.61,73.31,106.61z M65.53,103.44c1.23,0.38,2.46,0.83,3.57,1.24c1.84,0.67,3.42,1.25,4.2,1.25
						c1.31,0,2.38-1.12,2.38-2.5c0-1.38-1.07-2.5-2.38-2.5c-0.72,0-2.17,0.54-3.85,1.16C68.23,102.54,66.88,103.04,65.53,103.44z"/>
				</g>
			</g>
			<g>
				<g>
					<path class="st2" d="M50.74,1.23c-1.67,0-3.03-1.43-3.03-3.19c0-0.93,0.54-2.57,1.22-4.64c0.51-1.54,1.09-3.29,1.49-4.95
						l0.33-1.36l0.3,1.37c0.39,1.78,1.02,3.66,1.57,5.31c0.64,1.89,1.14,3.39,1.14,4.27C53.77-0.2,52.41,1.23,50.74,1.23z
						 M50.73-10.13c-0.36,1.29-0.79,2.58-1.18,3.76c-0.64,1.93-1.19,3.6-1.19,4.41c0,1.38,1.07,2.5,2.38,2.5s2.38-1.12,2.38-2.5
						c0-0.76-0.51-2.28-1.1-4.04C51.59-7.29,51.11-8.71,50.73-10.13z"/>
				</g>
				<g>
					<path class="st2" d="M50.73,14.67l-0.3-1.37c-0.39-1.78-1.02-3.65-1.57-5.3c-0.64-1.9-1.14-3.4-1.14-4.28
						c0-1.76,1.36-3.18,3.03-3.18s3.03,1.43,3.03,3.18c0,0.94-0.54,2.57-1.22,4.64c-0.51,1.54-1.08,3.28-1.49,4.94L50.73,14.67z
						 M50.74,1.23c-1.31,0-2.38,1.12-2.38,2.5c0,0.76,0.51,2.28,1.1,4.05c0.43,1.29,0.91,2.71,1.29,4.12
						c0.36-1.29,0.79-2.58,1.18-3.75c0.64-1.93,1.19-3.6,1.19-4.42C53.12,2.35,52.06,1.23,50.74,1.23z"/>
				</g>
				<g>
					<path class="st2" d="M53.45,4.07c-1.67,0-3.03-1.43-3.03-3.18s1.36-3.19,3.03-3.19c0.89,0,2.45,0.57,4.41,1.29
						c1.47,0.53,3.13,1.14,4.7,1.57l1.29,0.35l-1.3,0.32c-1.69,0.41-3.47,1.07-5.05,1.65C55.71,3.54,54.28,4.07,53.45,4.07z
						 M53.45-1.62c-1.31,0-2.38,1.12-2.38,2.5s1.07,2.5,2.38,2.5c0.72,0,2.17-0.54,3.85-1.16c1.23-0.46,2.58-0.96,3.93-1.35
						c-1.23-0.38-2.46-0.83-3.58-1.24C55.81-1.04,54.22-1.62,53.45-1.62z"/>
				</g>
				<g>
					<path class="st2" d="M48.04,4.07c-0.89,0-2.45-0.57-4.42-1.29c-1.46-0.53-3.12-1.14-4.7-1.57l-1.29-0.35l1.3-0.32
						c1.7-0.41,3.48-1.07,5.05-1.65c1.8-0.67,3.22-1.2,4.06-1.2c1.67,0,3.03,1.43,3.03,3.19S49.71,4.07,48.04,4.07z M40.27,0.9
						c1.23,0.38,2.46,0.83,3.57,1.24c1.84,0.67,3.42,1.25,4.2,1.25c1.31,0,2.38-1.12,2.38-2.5s-1.07-2.5-2.38-2.5
						c-0.72,0-2.17,0.54-3.84,1.16C42.97,0,41.62,0.5,40.27,0.9z"/>
				</g>
			</g>
			<g>
				<g>
					<path class="st2" d="M50.74,26.86c-1.67,0-3.03-1.43-3.03-3.18c0-0.93,0.54-2.57,1.22-4.64c0.51-1.54,1.09-3.29,1.49-4.95
						l0.33-1.36l0.3,1.37c0.39,1.78,1.02,3.65,1.57,5.3c0.64,1.9,1.14,3.4,1.14,4.27C53.77,25.43,52.41,26.86,50.74,26.86z
						 M50.73,15.5c-0.36,1.29-0.79,2.58-1.18,3.76c-0.64,1.93-1.19,3.6-1.19,4.41c0,1.38,1.07,2.5,2.38,2.5s2.38-1.12,2.38-2.5
						c0-0.76-0.51-2.28-1.1-4.04C51.59,18.34,51.11,16.92,50.73,15.5z"/>
				</g>
				<g>
					<path class="st2" d="M50.73,40.31l-0.3-1.37c-0.39-1.78-1.02-3.65-1.57-5.3c-0.64-1.9-1.14-3.39-1.14-4.27
						c0-1.76,1.36-3.19,3.03-3.19s3.03,1.43,3.03,3.19c0,0.94-0.54,2.57-1.22,4.64c-0.51,1.54-1.08,3.28-1.49,4.94L50.73,40.31z
						 M50.74,26.86c-1.31,0-2.38,1.12-2.38,2.5c0,0.76,0.51,2.28,1.1,4.05c0.43,1.29,0.91,2.71,1.29,4.13
						c0.36-1.29,0.79-2.58,1.18-3.75c0.64-1.93,1.19-3.6,1.19-4.42C53.12,27.98,52.06,26.86,50.74,26.86z"/>
				</g>
				<g>
					<path class="st2" d="M53.45,29.71c-1.67,0-3.03-1.43-3.03-3.19s1.36-3.18,3.03-3.18c0.89,0,2.45,0.57,4.42,1.29
						c1.46,0.53,3.12,1.14,4.7,1.57l1.29,0.35l-1.3,0.32c-1.69,0.41-3.47,1.07-5.04,1.65C55.71,29.18,54.28,29.71,53.45,29.71z
						 M53.45,24.02c-1.31,0-2.38,1.12-2.38,2.5s1.07,2.5,2.38,2.5c0.72,0,2.17-0.54,3.85-1.16c1.23-0.46,2.58-0.96,3.92-1.35
						c-1.23-0.38-2.46-0.83-3.57-1.24C55.81,24.6,54.23,24.02,53.45,24.02z"/>
				</g>
				<g>
					<path class="st2" d="M48.04,29.71c-0.89,0-2.45-0.57-4.41-1.29c-1.47-0.53-3.13-1.14-4.7-1.57l-1.29-0.35l1.3-0.32
						c1.69-0.41,3.48-1.07,5.05-1.65c1.8-0.67,3.23-1.2,4.06-1.2c1.67,0,3.03,1.43,3.03,3.18S49.71,29.71,48.04,29.71z M40.27,26.53
						c1.23,0.38,2.46,0.83,3.58,1.24c1.84,0.67,3.42,1.25,4.2,1.25c1.31,0,2.38-1.12,2.38-2.5s-1.07-2.5-2.38-2.5
						c-0.72,0-2.17,0.54-3.84,1.16C42.97,25.63,41.61,26.13,40.27,26.53z"/>
				</g>
			</g>
			<g>
				<g>
					<path class="st2" d="M50.74,52.5c-1.67,0-3.03-1.43-3.03-3.19c0-0.93,0.54-2.57,1.22-4.64c0.51-1.54,1.09-3.29,1.49-4.95
						l0.33-1.36l0.3,1.37c0.39,1.78,1.02,3.66,1.57,5.31c0.64,1.89,1.14,3.39,1.14,4.27C53.77,51.07,52.41,52.5,50.74,52.5z
						 M50.73,41.14c-0.36,1.29-0.79,2.58-1.18,3.76c-0.64,1.93-1.19,3.6-1.19,4.41c0,1.38,1.07,2.5,2.38,2.5s2.38-1.12,2.38-2.5
						c0-0.76-0.51-2.28-1.1-4.04C51.59,43.98,51.11,42.56,50.73,41.14z"/>
				</g>
				<g>
					<path class="st2" d="M50.73,65.94l-0.3-1.37c-0.39-1.77-1.02-3.65-1.57-5.3c-0.64-1.9-1.14-3.4-1.14-4.28
						c0-1.76,1.36-3.18,3.03-3.18s3.03,1.43,3.03,3.18c0,0.94-0.54,2.58-1.23,4.65c-0.51,1.54-1.08,3.28-1.49,4.93L50.73,65.94z
						 M50.74,52.5c-1.31,0-2.38,1.12-2.38,2.5c0,0.76,0.51,2.29,1.11,4.05c0.43,1.29,0.91,2.71,1.29,4.12
						c0.36-1.29,0.79-2.58,1.17-3.75c0.64-1.93,1.19-3.61,1.19-4.43C53.12,53.62,52.06,52.5,50.74,52.5z"/>
				</g>
				<g>
					<path class="st2" d="M53.45,55.34c-1.67,0-3.03-1.43-3.03-3.18s1.36-3.19,3.03-3.19c0.89,0,2.45,0.57,4.41,1.29
						c1.47,0.53,3.13,1.14,4.7,1.57l1.29,0.35l-1.3,0.32c-1.69,0.41-3.47,1.07-5.05,1.65C55.71,54.81,54.28,55.34,53.45,55.34z
						 M53.45,49.66c-1.31,0-2.38,1.12-2.38,2.5c0,1.38,1.07,2.5,2.38,2.5c0.72,0,2.17-0.54,3.85-1.16c1.23-0.46,2.58-0.96,3.93-1.35
						c-1.23-0.38-2.46-0.83-3.58-1.24C55.81,50.24,54.22,49.66,53.45,49.66z"/>
				</g>
				<g>
					<path class="st2" d="M48.04,55.34c-0.89,0-2.45-0.57-4.42-1.29c-1.46-0.53-3.12-1.14-4.7-1.57l-1.29-0.35l1.3-0.32
						c1.7-0.41,3.48-1.07,5.05-1.65c1.8-0.67,3.22-1.2,4.06-1.2c1.67,0,3.03,1.43,3.03,3.19S49.71,55.34,48.04,55.34z M40.27,52.17
						c1.23,0.38,2.46,0.83,3.57,1.24c1.84,0.67,3.42,1.25,4.2,1.25c1.31,0,2.38-1.12,2.38-2.5c0-1.38-1.07-2.5-2.38-2.5
						c-0.72,0-2.17,0.54-3.84,1.16C42.97,51.27,41.62,51.77,40.27,52.17z"/>
				</g>
			</g>
			<g>
				<g>
					<path class="st2" d="M50.74,78.13c-1.67,0-3.03-1.43-3.03-3.18c0-0.93,0.54-2.57,1.22-4.64c0.51-1.54,1.09-3.29,1.49-4.95
						L50.76,64l0.3,1.37c0.39,1.78,1.02,3.65,1.57,5.3c0.64,1.9,1.14,3.4,1.14,4.27C53.77,76.71,52.41,78.13,50.74,78.13z
						 M50.73,66.77c-0.36,1.29-0.79,2.58-1.18,3.76c-0.64,1.93-1.19,3.6-1.19,4.41c0,1.38,1.07,2.5,2.38,2.5s2.38-1.12,2.38-2.5
						c0-0.76-0.51-2.28-1.1-4.04C51.59,69.62,51.11,68.19,50.73,66.77z"/>
				</g>
				<g>
					<path class="st2" d="M50.73,91.58l-0.3-1.37c-0.39-1.78-1.02-3.65-1.57-5.3c-0.64-1.9-1.14-3.39-1.14-4.27
						c0-1.76,1.36-3.19,3.03-3.19s3.03,1.43,3.03,3.19c0,0.94-0.54,2.57-1.22,4.64c-0.51,1.54-1.08,3.28-1.49,4.94L50.73,91.58z
						 M50.74,78.13c-1.31,0-2.38,1.12-2.38,2.5c0,0.76,0.51,2.28,1.1,4.05c0.43,1.29,0.91,2.71,1.29,4.13
						c0.36-1.29,0.79-2.58,1.18-3.75c0.64-1.93,1.19-3.6,1.19-4.42C53.12,79.26,52.06,78.13,50.74,78.13z"/>
				</g>
				<g>
					<path class="st2" d="M53.45,80.98c-1.67,0-3.03-1.43-3.03-3.19s1.36-3.18,3.03-3.18c0.89,0,2.45,0.57,4.42,1.29
						c1.46,0.53,3.12,1.14,4.7,1.57l1.29,0.35l-1.3,0.32c-1.69,0.41-3.47,1.07-5.04,1.65C55.71,80.45,54.28,80.98,53.45,80.98z
						 M53.45,75.29c-1.31,0-2.38,1.12-2.38,2.5c0,1.38,1.07,2.5,2.38,2.5c0.72,0,2.17-0.54,3.85-1.16c1.23-0.46,2.58-0.96,3.92-1.35
						c-1.23-0.38-2.46-0.83-3.57-1.24C55.81,75.87,54.23,75.29,53.45,75.29z"/>
				</g>
				<g>
					<path class="st2" d="M48.04,80.98c-0.89,0-2.45-0.57-4.41-1.29c-1.47-0.53-3.13-1.14-4.7-1.57l-1.29-0.35l1.3-0.32
						c1.69-0.41,3.48-1.07,5.05-1.65c1.8-0.67,3.23-1.2,4.06-1.2c1.67,0,3.03,1.43,3.03,3.18S49.71,80.98,48.04,80.98z M40.27,77.8
						c1.23,0.38,2.46,0.83,3.58,1.24c1.84,0.67,3.42,1.25,4.2,1.25c1.31,0,2.38-1.12,2.38-2.5c0-1.38-1.07-2.5-2.38-2.5
						c-0.72,0-2.17,0.54-3.84,1.16C42.97,76.9,41.61,77.41,40.27,77.8z"/>
				</g>
			</g>
			<g>
				<g>
					<path class="st2" d="M50.74,103.77c-1.67,0-3.03-1.43-3.03-3.18c0-0.94,0.54-2.57,1.23-4.64c0.51-1.54,1.08-3.29,1.49-4.94
						l0.33-1.36l0.3,1.37c0.39,1.78,1.02,3.65,1.57,5.31c0.64,1.9,1.14,3.39,1.14,4.27C53.77,102.34,52.41,103.77,50.74,103.77z
						 M50.73,92.41c-0.36,1.29-0.79,2.58-1.18,3.76c-0.64,1.93-1.19,3.6-1.19,4.42c0,1.38,1.07,2.5,2.38,2.5s2.38-1.12,2.38-2.5
						c0-0.76-0.51-2.28-1.1-4.05C51.59,95.25,51.11,93.83,50.73,92.41z"/>
				</g>
				<g>
					<path class="st2" d="M50.73,117.21l-0.3-1.37c-0.39-1.77-1.02-3.65-1.57-5.3c-0.64-1.9-1.14-3.4-1.14-4.28
						c0-1.76,1.36-3.18,3.03-3.18s3.03,1.43,3.03,3.18c0,0.94-0.54,2.58-1.23,4.65c-0.51,1.54-1.08,3.28-1.49,4.93L50.73,117.21z
						 M50.74,103.77c-1.31,0-2.38,1.12-2.38,2.5c0,0.76,0.51,2.29,1.11,4.05c0.43,1.29,0.91,2.71,1.29,4.12
						c0.36-1.29,0.79-2.58,1.17-3.75c0.64-1.93,1.19-3.61,1.19-4.43C53.12,104.89,52.06,103.77,50.74,103.77z"/>
				</g>
				<g>
					<path class="st2" d="M53.45,106.61c-1.67,0-3.03-1.43-3.03-3.18c0-1.76,1.36-3.18,3.03-3.18c0.89,0,2.45,0.57,4.42,1.29
						c1.46,0.53,3.12,1.14,4.7,1.57l1.29,0.35l-1.3,0.32c-1.69,0.41-3.47,1.07-5.05,1.65C55.71,106.08,54.28,106.61,53.45,106.61z
						 M53.45,100.93c-1.31,0-2.38,1.12-2.38,2.5c0,1.38,1.07,2.5,2.38,2.5c0.72,0,2.17-0.54,3.85-1.16
						c1.23-0.46,2.58-0.96,3.93-1.35c-1.23-0.38-2.46-0.83-3.57-1.24C55.81,101.51,54.23,100.93,53.45,100.93z"/>
				</g>
				<g>
					<path class="st2" d="M48.04,106.61c-0.89,0-2.45-0.57-4.42-1.29c-1.46-0.53-3.12-1.14-4.7-1.57l-1.29-0.35l1.3-0.32
						c1.69-0.41,3.48-1.07,5.05-1.65c1.8-0.67,3.23-1.2,4.06-1.2c1.67,0,3.03,1.43,3.03,3.18
						C51.07,105.18,49.71,106.61,48.04,106.61z M40.27,103.44c1.23,0.38,2.46,0.83,3.57,1.24c1.84,0.67,3.42,1.25,4.2,1.25
						c1.31,0,2.38-1.12,2.38-2.5c0-1.38-1.07-2.5-2.38-2.5c-0.72,0-2.17,0.54-3.84,1.16C42.97,102.54,41.61,103.04,40.27,103.44z"/>
				</g>
			</g>
			<g>
				<g>
					<path class="st2" d="M126.54,1.23c-1.67,0-3.03-1.43-3.03-3.19c0-0.93,0.54-2.57,1.22-4.63c0.51-1.54,1.09-3.29,1.49-4.95
						l0.33-1.36l0.3,1.37c0.39,1.78,1.02,3.65,1.57,5.3c0.64,1.9,1.14,3.39,1.14,4.27C129.57-0.2,128.21,1.23,126.54,1.23z
						 M126.53-10.13c-0.36,1.29-0.79,2.59-1.18,3.77c-0.64,1.93-1.18,3.59-1.18,4.41c0,1.38,1.07,2.5,2.38,2.5
						c1.31,0,2.38-1.12,2.38-2.5c0-0.76-0.51-2.28-1.1-4.05C127.38-7.29,126.91-8.72,126.53-10.13z"/>
				</g>
				<g>
					<path class="st2" d="M126.52,14.67l-0.3-1.37c-0.39-1.78-1.02-3.65-1.57-5.3c-0.64-1.9-1.14-3.4-1.14-4.27
						c0-1.76,1.36-3.18,3.03-3.18c1.67,0,3.03,1.43,3.03,3.18c0,0.93-0.54,2.57-1.22,4.64c-0.51,1.54-1.09,3.29-1.49,4.95
						L126.52,14.67z M126.54,1.23c-1.31,0-2.38,1.12-2.38,2.5c0,0.76,0.51,2.28,1.1,4.04c0.43,1.29,0.91,2.72,1.29,4.13
						c0.36-1.29,0.79-2.58,1.18-3.76c0.64-1.93,1.19-3.6,1.19-4.41C128.92,2.35,127.85,1.23,126.54,1.23z"/>
				</g>
				<g>
					<path class="st2" d="M129.24,4.07c-1.67,0-3.03-1.43-3.03-3.18s1.36-3.19,3.03-3.19c0.89,0,2.45,0.57,4.41,1.29
						c1.47,0.53,3.13,1.14,4.7,1.57l1.29,0.35l-1.3,0.32c-1.69,0.41-3.47,1.07-5.05,1.65C131.5,3.54,130.08,4.07,129.24,4.07z
						 M129.24-1.62c-1.31,0-2.38,1.12-2.38,2.5s1.07,2.5,2.38,2.5c0.72,0,2.17-0.54,3.85-1.16c1.23-0.46,2.58-0.96,3.93-1.35
						c-1.23-0.38-2.46-0.83-3.58-1.24C131.61-1.04,130.02-1.62,129.24-1.62z"/>
				</g>
				<g>
					<path class="st2" d="M123.84,4.07c-0.89,0-2.45-0.57-4.42-1.29c-1.46-0.53-3.12-1.14-4.7-1.57l-1.29-0.35l1.3-0.32
						c1.69-0.41,3.47-1.07,5.05-1.65c1.8-0.67,3.23-1.2,4.06-1.2c1.67,0,3.03,1.43,3.03,3.19S125.51,4.07,123.84,4.07z M116.06,0.9
						c1.23,0.38,2.46,0.83,3.57,1.24c1.84,0.67,3.42,1.25,4.2,1.25c1.31,0,2.38-1.12,2.38-2.5s-1.07-2.5-2.38-2.5
						c-0.72,0-2.17,0.54-3.84,1.16C118.77,0,117.41,0.5,116.06,0.9z"/>
				</g>
			</g>
			<g>
				<g>
					<path class="st2" d="M126.54,26.86c-1.67,0-3.03-1.43-3.03-3.18c0-0.93,0.54-2.57,1.22-4.63c0.51-1.54,1.09-3.29,1.49-4.95
						l0.33-1.36l0.3,1.37c0.39,1.78,1.02,3.65,1.57,5.3c0.64,1.9,1.14,3.4,1.14,4.28C129.57,25.43,128.21,26.86,126.54,26.86z
						 M126.53,15.5c-0.36,1.29-0.79,2.59-1.18,3.77c-0.64,1.93-1.18,3.59-1.18,4.41c0,1.38,1.07,2.5,2.38,2.5
						c1.31,0,2.38-1.12,2.38-2.5c0-0.76-0.51-2.28-1.1-4.05C127.38,18.34,126.91,16.92,126.53,15.5z"/>
				</g>
				<g>
					<path class="st2" d="M126.52,40.31l-0.3-1.37c-0.39-1.78-1.02-3.66-1.57-5.31c-0.64-1.89-1.14-3.39-1.14-4.27
						c0-1.76,1.36-3.19,3.03-3.19c1.67,0,3.03,1.43,3.03,3.19c0,0.93-0.54,2.57-1.22,4.64c-0.51,1.54-1.09,3.29-1.49,4.95
						L126.52,40.31z M126.54,26.86c-1.31,0-2.38,1.12-2.38,2.5c0,0.76,0.51,2.28,1.1,4.04c0.43,1.29,0.91,2.72,1.29,4.13
						c0.36-1.29,0.79-2.58,1.18-3.76c0.64-1.93,1.19-3.6,1.19-4.41C128.92,27.98,127.85,26.86,126.54,26.86z"/>
				</g>
				<g>
					<path class="st2" d="M129.24,29.71c-1.67,0-3.03-1.43-3.03-3.19s1.36-3.18,3.03-3.18c0.89,0,2.45,0.57,4.42,1.29
						c1.46,0.53,3.12,1.14,4.7,1.57l1.29,0.35l-1.3,0.32c-1.69,0.41-3.47,1.07-5.04,1.65C131.51,29.18,130.08,29.71,129.24,29.71z
						 M129.24,24.02c-1.31,0-2.38,1.12-2.38,2.5s1.07,2.5,2.38,2.5c0.72,0,2.17-0.54,3.85-1.16c1.23-0.46,2.58-0.96,3.92-1.35
						c-1.23-0.38-2.46-0.83-3.57-1.24C131.61,24.6,130.02,24.02,129.24,24.02z"/>
				</g>
				<g>
					<path class="st2" d="M123.84,29.71c-0.89,0-2.45-0.57-4.41-1.29c-1.47-0.53-3.13-1.14-4.7-1.57l-1.29-0.35l1.3-0.32
						c1.69-0.41,3.47-1.07,5.05-1.65c1.8-0.67,3.23-1.2,4.06-1.2c1.67,0,3.03,1.43,3.03,3.18S125.51,29.71,123.84,29.71z
						 M116.06,26.53c1.23,0.38,2.46,0.83,3.58,1.24c1.84,0.67,3.42,1.25,4.2,1.25c1.31,0,2.38-1.12,2.38-2.5s-1.07-2.5-2.38-2.5
						c-0.72,0-2.17,0.54-3.85,1.16C118.76,25.64,117.41,26.13,116.06,26.53z"/>
				</g>
			</g>
			<g>
				<g>
					<path class="st2" d="M126.54,52.5c-1.67,0-3.03-1.43-3.03-3.19c0-0.93,0.54-2.57,1.22-4.63c0.51-1.54,1.09-3.29,1.49-4.95
						l0.33-1.36l0.3,1.37c0.39,1.78,1.02,3.65,1.57,5.3c0.64,1.9,1.14,3.39,1.14,4.27C129.57,51.07,128.21,52.5,126.54,52.5z
						 M126.53,41.14c-0.36,1.29-0.79,2.59-1.18,3.77c-0.64,1.93-1.18,3.59-1.18,4.41c0,1.38,1.07,2.5,2.38,2.5
						c1.31,0,2.38-1.12,2.38-2.5c0-0.76-0.51-2.28-1.1-4.05C127.38,43.98,126.91,42.55,126.53,41.14z"/>
				</g>
				<g>
					<path class="st2" d="M126.52,65.94l-0.3-1.37c-0.39-1.78-1.02-3.65-1.57-5.3c-0.64-1.9-1.14-3.4-1.14-4.28
						c0-1.76,1.36-3.18,3.03-3.18c1.67,0,3.03,1.43,3.03,3.18c0,0.94-0.54,2.57-1.23,4.65c-0.51,1.54-1.08,3.28-1.49,4.94
						L126.52,65.94z M126.54,52.5c-1.31,0-2.38,1.12-2.38,2.5c0,0.76,0.51,2.28,1.1,4.05c0.43,1.29,0.91,2.71,1.29,4.13
						c0.36-1.29,0.79-2.58,1.18-3.75c0.64-1.93,1.19-3.6,1.19-4.42C128.92,53.62,127.85,52.5,126.54,52.5z"/>
				</g>
				<g>
					<path class="st2" d="M129.24,55.34c-1.67,0-3.03-1.43-3.03-3.18s1.36-3.19,3.03-3.19c0.89,0,2.45,0.57,4.41,1.29
						c1.47,0.53,3.13,1.14,4.7,1.57l1.29,0.35l-1.3,0.32c-1.69,0.41-3.47,1.07-5.05,1.65C131.5,54.81,130.08,55.34,129.24,55.34z
						 M129.24,49.66c-1.31,0-2.38,1.12-2.38,2.5c0,1.38,1.07,2.5,2.38,2.5c0.72,0,2.17-0.54,3.85-1.16
						c1.23-0.46,2.58-0.96,3.93-1.35c-1.23-0.38-2.46-0.83-3.58-1.24C131.61,50.24,130.02,49.66,129.24,49.66z"/>
				</g>
				<g>
					<path class="st2" d="M123.84,55.34c-0.89,0-2.45-0.57-4.42-1.29c-1.46-0.53-3.12-1.14-4.7-1.57l-1.29-0.35l1.3-0.32
						c1.69-0.41,3.47-1.07,5.05-1.65c1.8-0.67,3.23-1.2,4.06-1.2c1.67,0,3.03,1.43,3.03,3.19S125.51,55.34,123.84,55.34z
						 M116.06,52.17c1.23,0.38,2.46,0.83,3.57,1.24c1.84,0.67,3.42,1.25,4.2,1.25c1.31,0,2.38-1.12,2.38-2.5
						c0-1.38-1.07-2.5-2.38-2.5c-0.72,0-2.17,0.54-3.84,1.16C118.77,51.27,117.41,51.77,116.06,52.17z"/>
				</g>
			</g>
			<g>
				<g>
					<path class="st2" d="M126.54,78.13c-1.67,0-3.03-1.43-3.03-3.18c0-0.93,0.54-2.57,1.22-4.63c0.51-1.54,1.09-3.29,1.49-4.95
						l0.33-1.36l0.3,1.37c0.39,1.78,1.02,3.65,1.57,5.3c0.64,1.9,1.14,3.4,1.14,4.28C129.57,76.71,128.21,78.13,126.54,78.13z
						 M126.53,66.77c-0.36,1.29-0.79,2.59-1.18,3.77c-0.64,1.93-1.18,3.59-1.18,4.41c0,1.38,1.07,2.5,2.38,2.5
						c1.31,0,2.38-1.12,2.38-2.5c0-0.76-0.51-2.28-1.1-4.05C127.38,69.61,126.91,68.19,126.53,66.77z"/>
				</g>
				<g>
					<path class="st2" d="M126.52,91.58l-0.3-1.37c-0.39-1.78-1.02-3.66-1.57-5.31c-0.64-1.89-1.14-3.39-1.14-4.27
						c0-1.76,1.36-3.19,3.03-3.19c1.67,0,3.03,1.43,3.03,3.19c0,0.93-0.54,2.57-1.22,4.64c-0.51,1.54-1.09,3.29-1.49,4.95
						L126.52,91.58z M126.54,78.13c-1.31,0-2.38,1.12-2.38,2.5c0,0.76,0.51,2.28,1.1,4.04c0.43,1.29,0.91,2.72,1.29,4.13
						c0.36-1.29,0.79-2.58,1.18-3.76c0.64-1.93,1.19-3.6,1.19-4.41C128.92,79.26,127.85,78.13,126.54,78.13z"/>
				</g>
				<g>
					<path class="st2" d="M129.24,80.98c-1.67,0-3.03-1.43-3.03-3.19s1.36-3.18,3.03-3.18c0.89,0,2.45,0.57,4.42,1.29
						c1.46,0.53,3.12,1.14,4.7,1.57l1.29,0.35l-1.3,0.32c-1.69,0.41-3.47,1.07-5.04,1.65C131.51,80.45,130.08,80.98,129.24,80.98z
						 M129.24,75.29c-1.31,0-2.38,1.12-2.38,2.5c0,1.38,1.07,2.5,2.38,2.5c0.72,0,2.17-0.54,3.85-1.16
						c1.23-0.46,2.58-0.96,3.92-1.35c-1.23-0.38-2.46-0.83-3.57-1.24C131.61,75.87,130.02,75.29,129.24,75.29z"/>
				</g>
				<g>
					<path class="st2" d="M123.84,80.98c-0.89,0-2.45-0.57-4.41-1.29c-1.47-0.53-3.13-1.14-4.7-1.57l-1.29-0.35l1.3-0.32
						c1.69-0.41,3.47-1.07,5.05-1.65c1.8-0.67,3.23-1.2,4.06-1.2c1.67,0,3.03,1.43,3.03,3.18S125.51,80.98,123.84,80.98z
						 M116.06,77.8c1.23,0.38,2.46,0.83,3.58,1.24c1.84,0.67,3.42,1.25,4.2,1.25c1.31,0,2.38-1.12,2.38-2.5
						c0-1.38-1.07-2.5-2.38-2.5c-0.72,0-2.17,0.54-3.85,1.16C118.76,76.91,117.41,77.41,116.06,77.8z"/>
				</g>
			</g>
			<g>
				<g>
					<path class="st2" d="M126.54,103.77c-1.67,0-3.03-1.43-3.03-3.18c0-0.94,0.54-2.57,1.22-4.64c0.51-1.54,1.09-3.29,1.49-4.95
						l0.33-1.36l0.3,1.37c0.39,1.78,1.02,3.65,1.57,5.3c0.64,1.9,1.14,3.4,1.14,4.28C129.57,102.34,128.21,103.77,126.54,103.77z
						 M126.53,92.41c-0.36,1.29-0.79,2.59-1.18,3.76c-0.64,1.93-1.18,3.59-1.18,4.41c0,1.38,1.07,2.5,2.38,2.5
						c1.31,0,2.38-1.12,2.38-2.5c0-0.76-0.51-2.29-1.1-4.05C127.38,95.25,126.91,93.83,126.53,92.41z"/>
				</g>
				<g>
					<path class="st2" d="M126.52,117.21l-0.3-1.37c-0.39-1.78-1.02-3.65-1.57-5.3c-0.64-1.9-1.14-3.4-1.14-4.28
						c0-1.76,1.36-3.18,3.03-3.18c1.67,0,3.03,1.43,3.03,3.18c0,0.94-0.54,2.57-1.23,4.65c-0.51,1.54-1.08,3.28-1.49,4.94
						L126.52,117.21z M126.54,103.77c-1.31,0-2.38,1.12-2.38,2.5c0,0.76,0.51,2.28,1.1,4.05c0.43,1.29,0.91,2.71,1.29,4.13
						c0.36-1.29,0.79-2.58,1.18-3.75c0.64-1.93,1.19-3.6,1.19-4.42C128.92,104.89,127.85,103.77,126.54,103.77z"/>
				</g>
				<g>
					<path class="st2" d="M129.24,106.61c-1.67,0-3.03-1.43-3.03-3.18c0-1.76,1.36-3.18,3.03-3.18c0.89,0,2.45,0.57,4.42,1.29
						c1.46,0.53,3.12,1.14,4.7,1.57l1.29,0.35l-1.3,0.32c-1.69,0.41-3.47,1.07-5.05,1.65C131.5,106.08,130.08,106.61,129.24,106.61z
						 M129.24,100.93c-1.31,0-2.38,1.12-2.38,2.5c0,1.38,1.07,2.5,2.38,2.5c0.72,0,2.17-0.54,3.85-1.16
						c1.23-0.46,2.58-0.96,3.93-1.35c-1.23-0.38-2.46-0.83-3.57-1.24C131.61,101.51,130.02,100.93,129.24,100.93z"/>
				</g>
				<g>
					<path class="st2" d="M123.84,106.61c-0.89,0-2.45-0.57-4.42-1.29c-1.46-0.53-3.12-1.14-4.7-1.57l-1.29-0.35l1.3-0.32
						c1.69-0.41,3.47-1.07,5.05-1.65c1.8-0.67,3.23-1.2,4.06-1.2c1.67,0,3.03,1.43,3.03,3.18
						C126.86,105.18,125.51,106.61,123.84,106.61z M116.06,103.44c1.23,0.38,2.46,0.83,3.57,1.24c1.84,0.67,3.42,1.25,4.2,1.25
						c1.31,0,2.38-1.12,2.38-2.5c0-1.38-1.07-2.5-2.38-2.5c-0.72,0-2.17,0.54-3.85,1.16C118.76,102.54,117.41,103.04,116.06,103.44z
						"/>
				</g>
			</g>
			<g>
				<g>
					<path class="st2" d="M101.28,1.23c-1.67,0-3.03-1.43-3.03-3.19c0-0.93,0.54-2.57,1.22-4.64c0.51-1.54,1.09-3.29,1.49-4.95
						l0.33-1.36l0.3,1.37c0.39,1.78,1.02,3.66,1.57,5.31c0.64,1.89,1.14,3.39,1.14,4.27C104.3-0.2,102.95,1.23,101.28,1.23z
						 M101.26-10.13c-0.36,1.29-0.79,2.58-1.18,3.76c-0.64,1.93-1.19,3.6-1.19,4.41c0,1.38,1.07,2.5,2.38,2.5
						c1.31,0,2.38-1.12,2.38-2.5c0-0.76-0.51-2.28-1.1-4.04C102.12-7.29,101.64-8.71,101.26-10.13z"/>
				</g>
				<g>
					<path class="st2" d="M101.26,14.67l-0.3-1.37c-0.39-1.78-1.02-3.65-1.57-5.3c-0.64-1.9-1.14-3.4-1.14-4.28
						c0-1.76,1.36-3.18,3.03-3.18s3.03,1.43,3.03,3.18c0,0.93-0.54,2.57-1.22,4.63c-0.51,1.54-1.09,3.29-1.49,4.95L101.26,14.67z
						 M101.28,1.23c-1.31,0-2.38,1.12-2.38,2.5c0,0.76,0.51,2.28,1.1,4.05c0.43,1.29,0.91,2.71,1.29,4.12
						c0.36-1.29,0.79-2.59,1.18-3.77c0.64-1.93,1.18-3.59,1.18-4.41C103.65,2.35,102.59,1.23,101.28,1.23z"/>
				</g>
				<g>
					<path class="st2" d="M103.98,4.07c-1.67,0-3.03-1.43-3.03-3.18s1.36-3.19,3.03-3.19c0.89,0,2.45,0.57,4.41,1.29
						c1.47,0.53,3.13,1.14,4.7,1.57l1.29,0.35l-1.3,0.32c-1.69,0.41-3.47,1.07-5.05,1.65C106.24,3.54,104.81,4.07,103.98,4.07z
						 M103.98-1.62c-1.31,0-2.38,1.12-2.38,2.5s1.07,2.5,2.38,2.5c0.72,0,2.17-0.54,3.85-1.16c1.23-0.46,2.58-0.96,3.93-1.35
						c-1.23-0.38-2.46-0.83-3.58-1.24C106.34-1.04,104.76-1.62,103.98-1.62z"/>
				</g>
				<g>
					<path class="st2" d="M98.57,4.07c-0.89,0-2.45-0.57-4.42-1.29c-1.46-0.53-3.12-1.14-4.7-1.57l-1.29-0.35l1.3-0.32
						c1.69-0.41,3.47-1.07,5.05-1.65c1.8-0.67,3.23-1.2,4.06-1.2c1.67,0,3.03,1.43,3.03,3.19S100.24,4.07,98.57,4.07z M90.8,0.9
						c1.23,0.38,2.46,0.83,3.57,1.24c1.84,0.67,3.42,1.25,4.2,1.25c1.31,0,2.38-1.12,2.38-2.5s-1.07-2.5-2.38-2.5
						c-0.72,0-2.17,0.54-3.84,1.16C93.5,0,92.15,0.5,90.8,0.9z"/>
				</g>
			</g>
			<g>
				<g>
					<path class="st2" d="M101.28,26.86c-1.67,0-3.03-1.43-3.03-3.18c0-0.93,0.54-2.57,1.22-4.64c0.51-1.54,1.09-3.29,1.49-4.95
						l0.33-1.36l0.3,1.37c0.39,1.78,1.02,3.65,1.57,5.3c0.64,1.9,1.14,3.4,1.14,4.27C104.3,25.43,102.95,26.86,101.28,26.86z
						 M101.26,15.5c-0.36,1.29-0.79,2.58-1.18,3.76c-0.64,1.93-1.19,3.6-1.19,4.41c0,1.38,1.07,2.5,2.38,2.5
						c1.31,0,2.38-1.12,2.38-2.5c0-0.76-0.51-2.28-1.1-4.04C102.12,18.34,101.64,16.92,101.26,15.5z"/>
				</g>
				<g>
					<path class="st2" d="M101.26,40.31l-0.3-1.37c-0.39-1.78-1.02-3.65-1.57-5.3c-0.64-1.9-1.14-3.39-1.14-4.27
						c0-1.76,1.36-3.19,3.03-3.19s3.03,1.43,3.03,3.19c0,0.93-0.54,2.57-1.22,4.63c-0.51,1.54-1.09,3.29-1.49,4.95L101.26,40.31z
						 M101.28,26.86c-1.31,0-2.38,1.12-2.38,2.5c0,0.76,0.51,2.28,1.1,4.05c0.43,1.29,0.91,2.71,1.29,4.13
						c0.36-1.29,0.79-2.59,1.18-3.77c0.64-1.93,1.18-3.59,1.18-4.41C103.65,27.98,102.59,26.86,101.28,26.86z"/>
				</g>
				<g>
					<path class="st2" d="M103.98,29.71c-1.67,0-3.03-1.43-3.03-3.19s1.36-3.18,3.03-3.18c0.89,0,2.45,0.57,4.42,1.29
						c1.46,0.53,3.12,1.14,4.7,1.57l1.29,0.35l-1.3,0.32c-1.69,0.41-3.47,1.07-5.04,1.65C106.24,29.18,104.81,29.71,103.98,29.71z
						 M103.98,24.02c-1.31,0-2.38,1.12-2.38,2.5s1.07,2.5,2.38,2.5c0.72,0,2.17-0.54,3.85-1.16c1.23-0.46,2.58-0.96,3.92-1.35
						c-1.23-0.38-2.46-0.83-3.57-1.24C106.34,24.6,104.76,24.02,103.98,24.02z"/>
				</g>
				<g>
					<path class="st2" d="M98.57,29.71c-0.89,0-2.45-0.57-4.41-1.29c-1.47-0.53-3.13-1.14-4.7-1.57l-1.29-0.35l1.3-0.32
						c1.69-0.41,3.47-1.07,5.05-1.65c1.8-0.67,3.23-1.2,4.06-1.2c1.67,0,3.03,1.43,3.03,3.18S100.24,29.71,98.57,29.71z M90.8,26.53
						c1.23,0.38,2.46,0.83,3.58,1.24c1.84,0.67,3.42,1.25,4.2,1.25c1.31,0,2.38-1.12,2.38-2.5s-1.07-2.5-2.38-2.5
						c-0.72,0-2.17,0.54-3.85,1.16C93.5,25.64,92.14,26.13,90.8,26.53z"/>
				</g>
			</g>
			<g>
				<g>
					<path class="st2" d="M101.28,52.5c-1.67,0-3.03-1.43-3.03-3.19c0-0.93,0.54-2.57,1.22-4.64c0.51-1.54,1.09-3.29,1.49-4.95
						l0.33-1.36l0.3,1.37c0.39,1.78,1.02,3.66,1.57,5.31c0.64,1.89,1.14,3.39,1.14,4.27C104.3,51.07,102.95,52.5,101.28,52.5z
						 M101.26,41.14c-0.36,1.29-0.79,2.58-1.18,3.76c-0.64,1.93-1.19,3.6-1.19,4.41c0,1.38,1.07,2.5,2.38,2.5
						c1.31,0,2.38-1.12,2.38-2.5c0-0.76-0.51-2.28-1.1-4.04C102.12,43.98,101.64,42.56,101.26,41.14z"/>
				</g>
				<g>
					<path class="st2" d="M101.26,65.94l-0.3-1.37c-0.39-1.77-1.02-3.65-1.57-5.3c-0.64-1.9-1.14-3.4-1.14-4.28
						c0-1.76,1.36-3.18,3.03-3.18s3.03,1.43,3.03,3.18c0,0.94-0.54,2.57-1.22,4.64c-0.51,1.54-1.09,3.29-1.49,4.95L101.26,65.94z
						 M101.28,52.5c-1.31,0-2.38,1.12-2.38,2.5c0,0.76,0.51,2.29,1.11,4.05c0.43,1.29,0.91,2.71,1.29,4.12
						c0.36-1.29,0.79-2.58,1.18-3.76c0.64-1.93,1.19-3.59,1.19-4.41C103.65,53.62,102.59,52.5,101.28,52.5z"/>
				</g>
				<g>
					<path class="st2" d="M103.98,55.34c-1.67,0-3.03-1.43-3.03-3.18s1.36-3.19,3.03-3.19c0.89,0,2.45,0.57,4.41,1.29
						c1.47,0.53,3.13,1.14,4.7,1.57l1.29,0.35l-1.3,0.32c-1.69,0.41-3.47,1.07-5.05,1.65C106.24,54.81,104.81,55.34,103.98,55.34z
						 M103.98,49.66c-1.31,0-2.38,1.12-2.38,2.5c0,1.38,1.07,2.5,2.38,2.5c0.72,0,2.17-0.54,3.85-1.16
						c1.23-0.46,2.58-0.96,3.93-1.35c-1.23-0.38-2.46-0.83-3.58-1.24C106.34,50.24,104.76,49.66,103.98,49.66z"/>
				</g>
				<g>
					<path class="st2" d="M98.57,55.34c-0.89,0-2.45-0.57-4.42-1.29c-1.46-0.53-3.12-1.14-4.7-1.57l-1.29-0.35l1.3-0.32
						c1.69-0.41,3.47-1.07,5.05-1.65c1.8-0.67,3.23-1.2,4.06-1.2c1.67,0,3.03,1.43,3.03,3.19S100.24,55.34,98.57,55.34z M90.8,52.17
						c1.23,0.38,2.46,0.83,3.57,1.24c1.84,0.67,3.42,1.25,4.2,1.25c1.31,0,2.38-1.12,2.38-2.5c0-1.38-1.07-2.5-2.38-2.5
						c-0.72,0-2.17,0.54-3.84,1.16C93.5,51.27,92.15,51.77,90.8,52.17z"/>
				</g>
			</g>
			<g>
				<g>
					<path class="st2" d="M101.28,78.13c-1.67,0-3.03-1.43-3.03-3.18c0-0.93,0.54-2.57,1.22-4.64c0.51-1.54,1.09-3.29,1.49-4.95
						l0.33-1.36l0.3,1.37c0.39,1.78,1.02,3.65,1.57,5.3c0.64,1.9,1.14,3.4,1.14,4.27C104.3,76.71,102.95,78.13,101.28,78.13z
						 M101.26,66.77c-0.36,1.29-0.79,2.58-1.18,3.76c-0.64,1.93-1.19,3.6-1.19,4.41c0,1.38,1.07,2.5,2.38,2.5
						c1.31,0,2.38-1.12,2.38-2.5c0-0.76-0.51-2.28-1.1-4.04C102.12,69.62,101.64,68.19,101.26,66.77z"/>
				</g>
				<g>
					<path class="st2" d="M101.26,91.58l-0.3-1.37c-0.39-1.78-1.02-3.65-1.57-5.3c-0.64-1.9-1.14-3.39-1.14-4.27
						c0-1.76,1.36-3.19,3.03-3.19s3.03,1.43,3.03,3.19c0,0.93-0.54,2.57-1.22,4.63c-0.51,1.54-1.09,3.29-1.49,4.95L101.26,91.58z
						 M101.28,78.13c-1.31,0-2.38,1.12-2.38,2.5c0,0.76,0.51,2.28,1.1,4.05c0.43,1.29,0.91,2.71,1.29,4.13
						c0.36-1.29,0.79-2.59,1.18-3.77c0.64-1.93,1.18-3.59,1.18-4.41C103.65,79.26,102.59,78.13,101.28,78.13z"/>
				</g>
				<g>
					<path class="st2" d="M103.98,80.98c-1.67,0-3.03-1.43-3.03-3.19s1.36-3.18,3.03-3.18c0.89,0,2.45,0.57,4.42,1.29
						c1.46,0.53,3.12,1.14,4.7,1.57l1.29,0.35l-1.3,0.32c-1.69,0.41-3.47,1.07-5.04,1.65C106.24,80.45,104.81,80.98,103.98,80.98z
						 M103.98,75.29c-1.31,0-2.38,1.12-2.38,2.5c0,1.38,1.07,2.5,2.38,2.5c0.72,0,2.17-0.54,3.85-1.16
						c1.23-0.46,2.58-0.96,3.92-1.35c-1.23-0.38-2.46-0.83-3.57-1.24C106.34,75.87,104.76,75.29,103.98,75.29z"/>
				</g>
				<g>
					<path class="st2" d="M98.57,80.98c-0.89,0-2.45-0.57-4.41-1.29c-1.47-0.53-3.13-1.14-4.7-1.57l-1.29-0.35l1.3-0.32
						c1.69-0.41,3.47-1.07,5.05-1.65c1.8-0.67,3.23-1.2,4.06-1.2c1.67,0,3.03,1.43,3.03,3.18S100.24,80.98,98.57,80.98z M90.8,77.8
						c1.23,0.38,2.46,0.83,3.58,1.24c1.84,0.67,3.42,1.25,4.2,1.25c1.31,0,2.38-1.12,2.38-2.5c0-1.38-1.07-2.5-2.38-2.5
						c-0.72,0-2.17,0.54-3.85,1.16C93.5,76.91,92.14,77.41,90.8,77.8z"/>
				</g>
			</g>
			<g>
				<g>
					<path class="st2" d="M101.28,103.77c-1.67,0-3.03-1.43-3.03-3.18c0-0.94,0.54-2.57,1.23-4.64c0.51-1.54,1.08-3.29,1.49-4.94
						l0.33-1.36l0.3,1.37c0.39,1.78,1.02,3.65,1.57,5.31c0.64,1.9,1.14,3.39,1.14,4.27C104.3,102.34,102.95,103.77,101.28,103.77z
						 M101.26,92.41c-0.36,1.29-0.79,2.58-1.18,3.76c-0.64,1.93-1.19,3.6-1.19,4.42c0,1.38,1.07,2.5,2.38,2.5
						c1.31,0,2.38-1.12,2.38-2.5c0-0.76-0.51-2.28-1.1-4.05C102.12,95.25,101.64,93.83,101.26,92.41z"/>
				</g>
				<g>
					<path class="st2" d="M101.26,117.21l-0.3-1.37c-0.39-1.77-1.02-3.65-1.57-5.3c-0.64-1.9-1.14-3.4-1.14-4.28
						c0-1.76,1.36-3.18,3.03-3.18s3.03,1.43,3.03,3.18c0,0.94-0.54,2.57-1.22,4.64c-0.51,1.54-1.09,3.29-1.49,4.95L101.26,117.21z
						 M101.28,103.77c-1.31,0-2.38,1.12-2.38,2.5c0,0.76,0.51,2.29,1.11,4.05c0.43,1.29,0.91,2.71,1.29,4.12
						c0.36-1.29,0.79-2.58,1.18-3.76c0.64-1.93,1.19-3.59,1.19-4.41C103.65,104.89,102.59,103.77,101.28,103.77z"/>
				</g>
				<g>
					<path class="st2" d="M103.98,106.61c-1.67,0-3.03-1.43-3.03-3.18c0-1.76,1.36-3.18,3.03-3.18c0.89,0,2.45,0.57,4.42,1.29
						c1.46,0.53,3.12,1.14,4.7,1.57l1.29,0.35l-1.3,0.32c-1.69,0.41-3.47,1.07-5.05,1.65C106.24,106.08,104.81,106.61,103.98,106.61
						z M103.98,100.93c-1.31,0-2.38,1.12-2.38,2.5c0,1.38,1.07,2.5,2.38,2.5c0.72,0,2.17-0.54,3.85-1.16
						c1.23-0.46,2.58-0.96,3.93-1.35c-1.23-0.38-2.46-0.83-3.57-1.24C106.34,101.51,104.76,100.93,103.98,100.93z"/>
				</g>
				<g>
					<path class="st2" d="M98.57,106.61c-0.89,0-2.45-0.57-4.42-1.29c-1.46-0.53-3.12-1.14-4.7-1.57l-1.29-0.35l1.3-0.32
						c1.69-0.41,3.47-1.07,5.05-1.65c1.8-0.67,3.23-1.2,4.06-1.2c1.67,0,3.03,1.43,3.03,3.18
						C101.6,105.18,100.24,106.61,98.57,106.61z M90.8,103.44c1.23,0.38,2.46,0.83,3.57,1.24c1.84,0.67,3.42,1.25,4.2,1.25
						c1.31,0,2.38-1.12,2.38-2.5c0-1.38-1.07-2.5-2.38-2.5c-0.72,0-2.17,0.54-3.85,1.16C93.5,102.54,92.14,103.04,90.8,103.44z"/>
				</g>
			</g>
			<g>
				<g>
					<path class="st2" d="M174.37,4.07c-0.89,0-2.45-0.57-4.42-1.29c-1.46-0.53-3.12-1.14-4.7-1.57l-1.29-0.35l1.3-0.32
						c1.69-0.41,3.47-1.07,5.05-1.65c1.8-0.67,3.23-1.2,4.06-1.2c1.67,0,3.03,1.43,3.03,3.19S176.04,4.07,174.37,4.07z M166.59,0.9
						c1.23,0.38,2.46,0.83,3.57,1.24c1.84,0.67,3.42,1.25,4.2,1.25c1.31,0,2.38-1.12,2.38-2.5s-1.07-2.5-2.38-2.5
						c-0.72,0-2.17,0.54-3.84,1.16C169.3,0,167.94,0.5,166.59,0.9z"/>
				</g>
			</g>
			<g>
				<g>
					<path class="st2" d="M174.37,29.71c-0.89,0-2.45-0.57-4.41-1.29c-1.47-0.53-3.13-1.14-4.7-1.57l-1.29-0.35l1.3-0.32
						c1.69-0.41,3.47-1.07,5.05-1.65c1.8-0.67,3.23-1.2,4.06-1.2c1.67,0,3.03,1.43,3.03,3.18S176.04,29.71,174.37,29.71z
						 M166.59,26.53c1.23,0.38,2.46,0.83,3.58,1.24c1.84,0.67,3.42,1.25,4.2,1.25c1.31,0,2.38-1.12,2.38-2.5s-1.07-2.5-2.38-2.5
						c-0.72,0-2.17,0.54-3.85,1.16C169.29,25.64,167.94,26.13,166.59,26.53z"/>
				</g>
			</g>
			<g>
				<g>
					<path class="st2" d="M174.37,55.34c-0.89,0-2.45-0.57-4.42-1.29c-1.46-0.53-3.12-1.14-4.7-1.57l-1.29-0.35l1.3-0.32
						c1.69-0.41,3.47-1.07,5.05-1.65c1.8-0.67,3.23-1.2,4.06-1.2c1.67,0,3.03,1.43,3.03,3.19S176.04,55.34,174.37,55.34z
						 M166.59,52.17c1.23,0.38,2.46,0.83,3.57,1.24c1.84,0.67,3.42,1.25,4.2,1.25c1.31,0,2.38-1.12,2.38-2.5
						c0-1.38-1.07-2.5-2.38-2.5c-0.72,0-2.17,0.54-3.84,1.16C169.3,51.27,167.94,51.77,166.59,52.17z"/>
				</g>
			</g>
			<g>
				<g>
					<path class="st2" d="M174.37,80.98c-0.89,0-2.45-0.57-4.41-1.29c-1.47-0.53-3.13-1.14-4.7-1.57l-1.29-0.35l1.3-0.32
						c1.69-0.41,3.47-1.07,5.05-1.65c1.8-0.67,3.23-1.2,4.06-1.2c1.67,0,3.03,1.43,3.03,3.18S176.04,80.98,174.37,80.98z
						 M166.59,77.8c1.23,0.38,2.46,0.83,3.58,1.24c1.84,0.67,3.42,1.25,4.2,1.25c1.31,0,2.38-1.12,2.38-2.5
						c0-1.38-1.07-2.5-2.38-2.5c-0.72,0-2.17,0.54-3.85,1.16C169.29,76.91,167.94,77.41,166.59,77.8z"/>
				</g>
			</g>
			<g>
				<g>
					<path class="st2" d="M174.37,106.61c-0.89,0-2.45-0.57-4.42-1.29c-1.46-0.53-3.12-1.14-4.7-1.57l-1.29-0.35l1.3-0.32
						c1.69-0.41,3.47-1.07,5.05-1.65c1.8-0.67,3.23-1.2,4.06-1.2c1.67,0,3.03,1.43,3.03,3.18
						C177.4,105.18,176.04,106.61,174.37,106.61z M166.59,103.44c1.23,0.38,2.46,0.83,3.57,1.24c1.84,0.67,3.42,1.25,4.2,1.25
						c1.31,0,2.38-1.12,2.38-2.5c0-1.38-1.07-2.5-2.38-2.5c-0.72,0-2.17,0.54-3.85,1.16C169.29,102.54,167.94,103.04,166.59,103.44z
						"/>
				</g>
			</g>
			<g>
				<g>
					<path class="st2" d="M151.8,1.23c-1.67,0-3.03-1.43-3.03-3.19c0-0.93,0.54-2.57,1.22-4.63c0.51-1.54,1.09-3.29,1.49-4.95
						l0.33-1.36l0.3,1.37c0.39,1.78,1.02,3.65,1.57,5.3c0.64,1.9,1.14,3.39,1.14,4.27C154.83-0.2,153.47,1.23,151.8,1.23z
						 M151.79-10.13c-0.36,1.29-0.79,2.59-1.18,3.77c-0.64,1.93-1.18,3.59-1.18,4.41c0,1.38,1.07,2.5,2.38,2.5
						c1.31,0,2.38-1.12,2.38-2.5c0-0.76-0.51-2.28-1.1-4.05C152.65-7.29,152.17-8.72,151.79-10.13z"/>
				</g>
				<g>
					<path class="st2" d="M151.79,14.67l-0.3-1.37c-0.39-1.78-1.02-3.65-1.57-5.3c-0.64-1.9-1.14-3.4-1.14-4.27
						c0-1.76,1.36-3.18,3.03-3.18s3.03,1.43,3.03,3.18c0,0.93-0.54,2.57-1.22,4.64c-0.51,1.54-1.09,3.29-1.49,4.95L151.79,14.67z
						 M151.8,1.23c-1.31,0-2.38,1.12-2.38,2.5c0,0.76,0.51,2.28,1.1,4.04c0.43,1.29,0.91,2.72,1.29,4.13
						c0.36-1.29,0.79-2.58,1.18-3.76c0.64-1.93,1.19-3.6,1.19-4.41C154.18,2.35,153.12,1.23,151.8,1.23z"/>
				</g>
				<g>
					<path class="st2" d="M154.51,4.07c-1.67,0-3.03-1.43-3.03-3.18s1.36-3.19,3.03-3.19c0.89,0,2.45,0.57,4.41,1.29
						c1.47,0.53,3.13,1.14,4.7,1.57l1.29,0.35l-1.3,0.32c-1.69,0.41-3.47,1.07-5.05,1.65C156.77,3.54,155.34,4.07,154.51,4.07z
						 M154.51-1.62c-1.31,0-2.38,1.12-2.38,2.5s1.07,2.5,2.38,2.5c0.72,0,2.17-0.54,3.85-1.16c1.23-0.46,2.58-0.96,3.93-1.35
						c-1.23-0.38-2.46-0.83-3.58-1.24C156.87-1.04,155.29-1.62,154.51-1.62z"/>
				</g>
				<g>
					<path class="st2" d="M149.1,4.07c-0.89,0-2.45-0.57-4.42-1.29c-1.46-0.53-3.12-1.14-4.7-1.57l-1.29-0.35l1.3-0.32
						c1.69-0.41,3.47-1.07,5.05-1.65c1.8-0.67,3.23-1.2,4.06-1.2c1.67,0,3.03,1.43,3.03,3.19S150.77,4.07,149.1,4.07z M141.33,0.9
						c1.23,0.38,2.46,0.83,3.57,1.24c1.84,0.67,3.42,1.25,4.2,1.25c1.31,0,2.38-1.12,2.38-2.5s-1.07-2.5-2.38-2.5
						c-0.72,0-2.17,0.54-3.84,1.16C144.03,0,142.68,0.5,141.33,0.9z"/>
				</g>
			</g>
			<g>
				<g>
					<path class="st2" d="M151.8,26.86c-1.67,0-3.03-1.43-3.03-3.18c0-0.93,0.54-2.57,1.22-4.63c0.51-1.54,1.09-3.29,1.49-4.95
						l0.33-1.36l0.3,1.37c0.39,1.78,1.02,3.65,1.57,5.3c0.64,1.9,1.14,3.4,1.14,4.28C154.83,25.43,153.47,26.86,151.8,26.86z
						 M151.79,15.5c-0.36,1.29-0.79,2.59-1.18,3.77c-0.64,1.93-1.18,3.59-1.18,4.41c0,1.38,1.07,2.5,2.38,2.5
						c1.31,0,2.38-1.12,2.38-2.5c0-0.76-0.51-2.28-1.1-4.05C152.65,18.34,152.17,16.92,151.79,15.5z"/>
				</g>
				<g>
					<path class="st2" d="M151.79,40.31l-0.3-1.37c-0.39-1.78-1.02-3.66-1.57-5.31c-0.64-1.89-1.14-3.39-1.14-4.27
						c0-1.76,1.36-3.19,3.03-3.19s3.03,1.43,3.03,3.19c0,0.93-0.54,2.57-1.22,4.64c-0.51,1.54-1.09,3.29-1.49,4.95L151.79,40.31z
						 M151.8,26.86c-1.31,0-2.38,1.12-2.38,2.5c0,0.76,0.51,2.28,1.1,4.04c0.43,1.29,0.91,2.72,1.29,4.13
						c0.36-1.29,0.79-2.58,1.18-3.76c0.64-1.93,1.19-3.6,1.19-4.41C154.18,27.98,153.12,26.86,151.8,26.86z"/>
				</g>
				<g>
					<path class="st2" d="M154.51,29.71c-1.67,0-3.03-1.43-3.03-3.19s1.36-3.18,3.03-3.18c0.89,0,2.45,0.57,4.42,1.29
						c1.46,0.53,3.12,1.14,4.7,1.57l1.29,0.35l-1.3,0.32c-1.69,0.41-3.47,1.07-5.04,1.65C156.77,29.18,155.35,29.71,154.51,29.71z
						 M154.51,24.02c-1.31,0-2.38,1.12-2.38,2.5s1.07,2.5,2.38,2.5c0.72,0,2.17-0.54,3.85-1.16c1.23-0.46,2.58-0.96,3.92-1.35
						c-1.23-0.38-2.46-0.83-3.57-1.24C156.88,24.6,155.29,24.02,154.51,24.02z"/>
				</g>
				<g>
					<path class="st2" d="M149.1,29.71c-0.89,0-2.45-0.57-4.41-1.29c-1.47-0.53-3.13-1.14-4.7-1.57l-1.29-0.35l1.3-0.32
						c1.69-0.41,3.47-1.07,5.05-1.65c1.8-0.67,3.23-1.2,4.06-1.2c1.67,0,3.03,1.43,3.03,3.18S150.77,29.71,149.1,29.71z
						 M141.33,26.53c1.23,0.38,2.46,0.83,3.58,1.24c1.84,0.67,3.42,1.25,4.2,1.25c1.31,0,2.38-1.12,2.38-2.5s-1.07-2.5-2.38-2.5
						c-0.72,0-2.17,0.54-3.85,1.16C144.03,25.64,142.67,26.13,141.33,26.53z"/>
				</g>
			</g>
			<g>
				<g>
					<path class="st2" d="M151.8,52.5c-1.67,0-3.03-1.43-3.03-3.19c0-0.93,0.54-2.57,1.22-4.63c0.51-1.54,1.09-3.29,1.49-4.95
						l0.33-1.36l0.3,1.37c0.39,1.78,1.02,3.65,1.57,5.3c0.64,1.9,1.14,3.39,1.14,4.27C154.83,51.07,153.47,52.5,151.8,52.5z
						 M151.79,41.14c-0.36,1.29-0.79,2.59-1.18,3.77c-0.64,1.93-1.18,3.59-1.18,4.41c0,1.38,1.07,2.5,2.38,2.5
						c1.31,0,2.38-1.12,2.38-2.5c0-0.76-0.51-2.28-1.1-4.05C152.65,43.98,152.17,42.55,151.79,41.14z"/>
				</g>
				<g>
					<path class="st2" d="M151.79,65.94l-0.3-1.37c-0.39-1.78-1.02-3.65-1.57-5.3c-0.64-1.9-1.14-3.4-1.14-4.28
						c0-1.76,1.36-3.18,3.03-3.18s3.03,1.43,3.03,3.18c0,0.94-0.54,2.57-1.23,4.65c-0.51,1.54-1.08,3.28-1.49,4.94L151.79,65.94z
						 M151.8,52.5c-1.31,0-2.38,1.12-2.38,2.5c0,0.76,0.51,2.28,1.1,4.05c0.43,1.29,0.91,2.71,1.29,4.13
						c0.36-1.29,0.79-2.58,1.18-3.75c0.64-1.93,1.19-3.6,1.19-4.42C154.18,53.62,153.12,52.5,151.8,52.5z"/>
				</g>
				<g>
					<path class="st2" d="M154.51,55.34c-1.67,0-3.03-1.43-3.03-3.18s1.36-3.19,3.03-3.19c0.89,0,2.45,0.57,4.41,1.29
						c1.47,0.53,3.13,1.14,4.7,1.57l1.29,0.35l-1.3,0.32c-1.69,0.41-3.47,1.07-5.05,1.65C156.77,54.81,155.34,55.34,154.51,55.34z
						 M154.51,49.66c-1.31,0-2.38,1.12-2.38,2.5c0,1.38,1.07,2.5,2.38,2.5c0.72,0,2.17-0.54,3.85-1.16
						c1.23-0.46,2.58-0.96,3.93-1.35c-1.23-0.38-2.46-0.83-3.58-1.24C156.87,50.24,155.29,49.66,154.51,49.66z"/>
				</g>
				<g>
					<path class="st2" d="M149.1,55.34c-0.89,0-2.45-0.57-4.42-1.29c-1.46-0.53-3.12-1.14-4.7-1.57l-1.29-0.35l1.3-0.32
						c1.69-0.41,3.47-1.07,5.05-1.65c1.8-0.67,3.23-1.2,4.06-1.2c1.67,0,3.03,1.43,3.03,3.19S150.77,55.34,149.1,55.34z
						 M141.33,52.17c1.23,0.38,2.46,0.83,3.57,1.24c1.84,0.67,3.42,1.25,4.2,1.25c1.31,0,2.38-1.12,2.38-2.5
						c0-1.38-1.07-2.5-2.38-2.5c-0.72,0-2.17,0.54-3.84,1.16C144.03,51.27,142.68,51.77,141.33,52.17z"/>
				</g>
			</g>
			<g>
				<g>
					<path class="st2" d="M151.8,78.13c-1.67,0-3.03-1.43-3.03-3.18c0-0.93,0.54-2.57,1.22-4.63c0.51-1.54,1.09-3.29,1.49-4.95
						l0.33-1.36l0.3,1.37c0.39,1.78,1.02,3.65,1.57,5.3c0.64,1.9,1.14,3.4,1.14,4.28C154.83,76.71,153.47,78.13,151.8,78.13z
						 M151.79,66.77c-0.36,1.29-0.79,2.59-1.18,3.77c-0.64,1.93-1.18,3.59-1.18,4.41c0,1.38,1.07,2.5,2.38,2.5
						c1.31,0,2.38-1.12,2.38-2.5c0-0.76-0.51-2.28-1.1-4.05C152.65,69.61,152.17,68.19,151.79,66.77z"/>
				</g>
				<g>
					<path class="st2" d="M151.79,91.58l-0.3-1.37c-0.39-1.78-1.02-3.66-1.57-5.31c-0.64-1.89-1.14-3.39-1.14-4.27
						c0-1.76,1.36-3.19,3.03-3.19s3.03,1.43,3.03,3.19c0,0.93-0.54,2.57-1.22,4.64c-0.51,1.54-1.09,3.29-1.49,4.95L151.79,91.58z
						 M151.8,78.13c-1.31,0-2.38,1.12-2.38,2.5c0,0.76,0.51,2.28,1.1,4.04c0.43,1.29,0.91,2.72,1.29,4.13
						c0.36-1.29,0.79-2.58,1.18-3.76c0.64-1.93,1.19-3.6,1.19-4.41C154.18,79.26,153.12,78.13,151.8,78.13z"/>
				</g>
				<g>
					<path class="st2" d="M154.51,80.98c-1.67,0-3.03-1.43-3.03-3.19s1.36-3.18,3.03-3.18c0.89,0,2.45,0.57,4.42,1.29
						c1.46,0.53,3.12,1.14,4.7,1.57l1.29,0.35l-1.3,0.32c-1.69,0.41-3.47,1.07-5.04,1.65C156.77,80.45,155.35,80.98,154.51,80.98z
						 M154.51,75.29c-1.31,0-2.38,1.12-2.38,2.5c0,1.38,1.07,2.5,2.38,2.5c0.72,0,2.17-0.54,3.85-1.16
						c1.23-0.46,2.58-0.96,3.92-1.35c-1.23-0.38-2.46-0.83-3.57-1.24C156.88,75.87,155.29,75.29,154.51,75.29z"/>
				</g>
				<g>
					<path class="st2" d="M149.1,80.98c-0.89,0-2.45-0.57-4.41-1.29c-1.47-0.53-3.13-1.14-4.7-1.57l-1.29-0.35l1.3-0.32
						c1.69-0.41,3.47-1.07,5.05-1.65c1.8-0.67,3.23-1.2,4.06-1.2c1.67,0,3.03,1.43,3.03,3.18S150.77,80.98,149.1,80.98z
						 M141.33,77.8c1.23,0.38,2.46,0.83,3.58,1.24c1.84,0.67,3.42,1.25,4.2,1.25c1.31,0,2.38-1.12,2.38-2.5
						c0-1.38-1.07-2.5-2.38-2.5c-0.72,0-2.17,0.54-3.85,1.16C144.03,76.91,142.67,77.41,141.33,77.8z"/>
				</g>
			</g>
			<g>
				<g>
					<path class="st2" d="M151.8,103.77c-1.67,0-3.03-1.43-3.03-3.18c0-0.94,0.54-2.57,1.22-4.64c0.51-1.54,1.09-3.29,1.49-4.95
						l0.33-1.36l0.3,1.37c0.39,1.78,1.02,3.65,1.57,5.3c0.64,1.9,1.14,3.4,1.14,4.28C154.83,102.34,153.47,103.77,151.8,103.77z
						 M151.79,92.41c-0.36,1.29-0.79,2.59-1.18,3.76c-0.64,1.93-1.18,3.59-1.18,4.41c0,1.38,1.07,2.5,2.38,2.5
						c1.31,0,2.38-1.12,2.38-2.5c0-0.76-0.51-2.29-1.1-4.05C152.65,95.25,152.17,93.83,151.79,92.41z"/>
				</g>
				<g>
					<path class="st2" d="M151.79,117.21l-0.3-1.37c-0.39-1.78-1.02-3.65-1.57-5.3c-0.64-1.9-1.14-3.4-1.14-4.28
						c0-1.76,1.36-3.18,3.03-3.18s3.03,1.43,3.03,3.18c0,0.94-0.54,2.57-1.23,4.65c-0.51,1.54-1.08,3.28-1.49,4.94L151.79,117.21z
						 M151.8,103.77c-1.31,0-2.38,1.12-2.38,2.5c0,0.76,0.51,2.28,1.1,4.05c0.43,1.29,0.91,2.71,1.29,4.13
						c0.36-1.29,0.79-2.58,1.18-3.75c0.64-1.93,1.19-3.6,1.19-4.42C154.18,104.89,153.12,103.77,151.8,103.77z"/>
				</g>
				<g>
					<path class="st2" d="M154.51,106.61c-1.67,0-3.03-1.43-3.03-3.18c0-1.76,1.36-3.18,3.03-3.18c0.89,0,2.45,0.57,4.42,1.29
						c1.46,0.53,3.12,1.14,4.7,1.57l1.29,0.35l-1.3,0.32c-1.69,0.41-3.47,1.07-5.05,1.65C156.77,106.08,155.34,106.61,154.51,106.61
						z M154.51,100.93c-1.31,0-2.38,1.12-2.38,2.5c0,1.38,1.07,2.5,2.38,2.5c0.72,0,2.17-0.54,3.85-1.16
						c1.23-0.46,2.58-0.96,3.93-1.35c-1.23-0.38-2.46-0.83-3.57-1.24C156.88,101.51,155.29,100.93,154.51,100.93z"/>
				</g>
				<g>
					<path class="st2" d="M149.1,106.61c-0.89,0-2.45-0.57-4.42-1.29c-1.46-0.53-3.12-1.14-4.7-1.57l-1.29-0.35l1.3-0.32
						c1.69-0.41,3.47-1.07,5.05-1.65c1.8-0.67,3.23-1.2,4.06-1.2c1.67,0,3.03,1.43,3.03,3.18
						C152.13,105.18,150.77,106.61,149.1,106.61z M141.33,103.44c1.23,0.38,2.46,0.83,3.57,1.24c1.84,0.67,3.42,1.25,4.2,1.25
						c1.31,0,2.38-1.12,2.38-2.5c0-1.38-1.07-2.5-2.38-2.5c-0.72,0-2.17,0.54-3.85,1.16C144.03,102.54,142.67,103.04,141.33,103.44z
						"/>
				</g>
			</g>
			<g>
				<ellipse class="st2" cx="12.85" cy="13.84" rx="4.05" ry="4.26"/>
			</g>
			<g>
				<ellipse class="st2" cx="13.13" cy="39.51" rx="4.05" ry="4.26"/>
			</g>
			<g>
				<ellipse class="st2" cx="13.13" cy="65.05" rx="4.05" ry="4.26"/>
			</g>
			<g>
				<ellipse class="st2" cx="12.85" cy="90.65" rx="4.05" ry="4.26"/>
			</g>
			<g>
				<ellipse class="st2" cx="38.12" cy="13.84" rx="4.05" ry="4.26"/>
			</g>
			<g>
				<ellipse class="st2" cx="38.28" cy="39.51" rx="4.05" ry="4.26"/>
			</g>
			<g>
				<ellipse class="st2" cx="38.35" cy="65.05" rx="4.05" ry="4.26"/>
			</g>
			<g>
				<ellipse class="st2" cx="38.12" cy="90.65" rx="4.05" ry="4.26"/>
			</g>
			<g>
				<ellipse class="st2" cx="63.38" cy="13.84" rx="4.05" ry="4.26"/>
			</g>
			<g>
				<ellipse class="st2" cx="63.44" cy="39.51" rx="4.05" ry="4.26"/>
			</g>
			<g>
				<ellipse class="st2" cx="63.57" cy="65.05" rx="4.05" ry="4.26"/>
			</g>
			<g>
				<ellipse class="st2" cx="63.38" cy="90.65" rx="4.05" ry="4.26"/>
			</g>
			<g>
				<ellipse class="st2" cx="88.65" cy="13.84" rx="4.05" ry="4.26"/>
			</g>
			<g>
				<ellipse class="st2" cx="88.6" cy="39.51" rx="4.05" ry="4.26"/>
			</g>
			<g>
				<ellipse class="st2" cx="88.79" cy="65.05" rx="4.05" ry="4.26"/>
			</g>
			<g>
				<ellipse class="st2" cx="88.65" cy="90.65" rx="4.05" ry="4.26"/>
			</g>
			<g>
				<ellipse class="st2" cx="113.91" cy="13.84" rx="4.05" ry="4.26"/>
			</g>
			<g>
				<ellipse class="st2" cx="113.75" cy="39.51" rx="4.05" ry="4.26"/>
			</g>
			<g>
				<ellipse class="st2" cx="114.01" cy="65.05" rx="4.05" ry="4.26"/>
			</g>
			<g>
				<ellipse class="st2" cx="113.91" cy="90.65" rx="4.05" ry="4.26"/>
			</g>
			<g>
				<ellipse class="st2" cx="139.18" cy="13.84" rx="4.05" ry="4.26"/>
			</g>
			<g>
				<ellipse class="st2" cx="138.91" cy="39.51" rx="4.05" ry="4.26"/>
			</g>
			<g>
				<ellipse class="st2" cx="139.23" cy="65.05" rx="4.05" ry="4.26"/>
			</g>
			<g>
				<ellipse class="st2" cx="139.18" cy="90.65" rx="4.05" ry="4.26"/>
			</g>
			<g>
				<ellipse class="st2" cx="164.45" cy="13.84" rx="4.05" ry="4.26"/>
			</g>
			<g>
				<ellipse class="st2" cx="164.45" cy="39.44" rx="4.05" ry="4.26"/>
			</g>
			<g>
				<ellipse class="st2" cx="164.45" cy="65.05" rx="4.05" ry="4.26"/>
			</g>
			<g>
				<ellipse class="st2" cx="164.45" cy="90.65" rx="4.05" ry="4.26"/>
			</g>
		</g>
	</g>
</g>
<g id="Camada_3" class="st0">
</g>
</svg>
