<?xml version="1.0" encoding="utf-8"?>
<!-- Generator: Adobe Illustrator 25.0.0, SVG Export Plug-In . SVG Version: 6.00 Build 0)  -->
<svg version="1.1" xmlns="http://www.w3.org/2000/svg" xmlns:xlink="http://www.w3.org/1999/xlink" x="0px" y="0px"
	 viewBox="0 0 173 105" style="enable-background:new 0 0 173 105;" xml:space="preserve">
<style type="text/css">
	.st0{display:none;}
	.st1{display:inline;fill:#59778E;}
	.st2{fill:#000000;}
	.st3{clip-path:url(#SVGID_2_);}
	.st4{clip-path:url(#SVGID_4_);}
	.st5{clip-path:url(#SVGID_6_);}
	.st6{clip-path:url(#SVGID_8_);}
	.st7{clip-path:url(#SVGID_10_);}
	.st8{display:inline;}
	.st9{clip-path:url(#SVGID_11_);}
</style>
<g id="Camada_2" class="st0">
	<rect x="-1508" y="-209.5" class="st1" width="2269" height="1089"/>
</g>
<g id="Camada_1">
	<g>
		<path class="st2" d="M123.11,0.94c3.76,2.5,48.58,32.68,48.58,51.25c0,18.57-44.82,48.75-48.58,51.25H1V0.94H123.11 M123.41-0.06
			H0v104.5h123.41c0,0,49.28-32.2,49.28-52.25S123.41-0.06,123.41-0.06L123.41-0.06z"/>
	</g>
	<g>
		<g>
			<path class="st2" d="M100.9,52.83c-3.44,0-6.24-2.8-6.24-6.24c0-1.84,1.12-5.07,2.54-9.16c1.06-3.04,2.25-6.49,3.09-9.76
				l0.65-2.52l0.58,2.53c0.81,3.51,2.11,7.21,3.26,10.47c1.32,3.74,2.36,6.7,2.36,8.43C107.14,50.02,104.34,52.83,100.9,52.83z
				 M100.87,30.28c-0.76,2.59-1.67,5.19-2.48,7.55c-1.32,3.82-2.47,7.12-2.47,8.74c0,2.75,2.23,4.98,4.98,4.98s4.98-2.23,4.98-4.98
				c0-1.51-1.06-4.52-2.29-8.01C102.67,35.99,101.66,33.13,100.87,30.28z"/>
		</g>
		<g>
			<path class="st2" d="M100.86,79.23l-0.58-2.53c-0.81-3.51-2.11-7.21-3.26-10.48c-1.32-3.74-2.36-6.69-2.36-8.42
				c0-3.44,2.8-6.24,6.24-6.24c3.44,0,6.24,2.8,6.24,6.24c0,1.84-1.12,5.07-2.54,9.16c-1.06,3.04-2.25,6.48-3.09,9.75L100.86,79.23z
				 M100.9,52.83c-2.75,0-4.98,2.23-4.98,4.98c0,1.51,1.06,4.52,2.29,8c0.91,2.59,1.92,5.45,2.71,8.3c0.76-2.59,1.67-5.19,2.48-7.55
				c1.33-3.82,2.47-7.12,2.47-8.75C105.88,55.06,103.64,52.83,100.9,52.83z"/>
		</g>
		<g>
			<path class="st2" d="M106.51,58.43c-3.44,0-6.24-2.8-6.24-6.24c0-3.44,2.8-6.24,6.24-6.24c1.84,0,5.07,1.12,9.16,2.54
				c3.04,1.06,6.48,2.25,9.75,3.09l2.52,0.65l-2.53,0.58c-3.51,0.81-7.21,2.11-10.48,3.26C111.19,57.39,108.24,58.43,106.51,58.43z
				 M106.51,47.21c-2.75,0-4.98,2.23-4.98,4.98s2.23,4.98,4.98,4.98c1.51,0,4.52-1.06,8-2.29c2.59-0.91,5.45-1.92,8.3-2.71
				c-2.59-0.76-5.19-1.67-7.55-2.48C111.44,48.36,108.14,47.21,106.51,47.21z"/>
		</g>
		<g>
			<path class="st2" d="M95.29,58.43c-1.84,0-5.07-1.12-9.16-2.54c-3.04-1.06-6.49-2.25-9.76-3.09l-2.52-0.65l2.53-0.58
				c3.51-0.81,7.21-2.11,10.48-3.26c3.74-1.32,6.69-2.36,8.42-2.36c3.44,0,6.24,2.8,6.24,6.24C101.53,55.64,98.73,58.43,95.29,58.43
				z M78.99,52.22c2.59,0.76,5.19,1.67,7.55,2.48c3.82,1.32,7.12,2.47,8.74,2.47c2.75,0,4.98-2.23,4.98-4.98s-2.23-4.98-4.98-4.98
				c-1.51,0-4.52,1.06-8,2.29C84.7,50.42,81.84,51.43,78.99,52.22z"/>
		</g>
	</g>
	<g>
		<g>
			<path class="st2" d="M37.73,52.83c-3.44,0-6.24-2.8-6.24-6.24c0-1.84,1.12-5.07,2.54-9.15c1.06-3.04,2.25-6.49,3.09-9.76
				l0.65-2.52l0.58,2.53c0.81,3.51,2.11,7.21,3.26,10.48c1.32,3.74,2.36,6.69,2.36,8.42C43.97,50.02,41.17,52.83,37.73,52.83z
				 M37.7,30.28c-0.76,2.59-1.67,5.2-2.49,7.56c-1.32,3.82-2.47,7.11-2.47,8.74c0,2.75,2.23,4.98,4.98,4.98
				c2.75,0,4.98-2.23,4.98-4.98c0-1.51-1.06-4.52-2.29-8C39.5,35.99,38.49,33.13,37.7,30.28z"/>
		</g>
		<g>
			<path class="st2" d="M37.69,79.23l-0.58-2.53c-0.81-3.51-2.11-7.21-3.26-10.48c-1.32-3.74-2.36-6.69-2.36-8.42
				c0-3.44,2.8-6.24,6.24-6.24c3.44,0,6.24,2.8,6.24,6.24c0,1.84-1.12,5.07-2.54,9.16c-1.06,3.04-2.25,6.49-3.09,9.76L37.69,79.23z
				 M37.73,52.83c-2.75,0-4.98,2.23-4.98,4.98c0,1.51,1.06,4.52,2.29,8c0.91,2.59,1.92,5.45,2.71,8.3c0.76-2.59,1.67-5.19,2.48-7.55
				c1.32-3.82,2.47-7.12,2.47-8.74C42.7,55.06,40.47,52.83,37.73,52.83z"/>
		</g>
		<g>
			<path class="st2" d="M43.34,58.43c-3.44,0-6.24-2.8-6.24-6.24c0-3.44,2.8-6.24,6.24-6.24c1.84,0,5.07,1.12,9.16,2.54
				c3.04,1.05,6.48,2.25,9.76,3.09l2.52,0.65l-2.53,0.58c-3.51,0.81-7.21,2.11-10.48,3.26C48.02,57.39,45.06,58.43,43.34,58.43z
				 M43.34,47.21c-2.75,0-4.98,2.23-4.98,4.98s2.23,4.98,4.98,4.98c1.51,0,4.52-1.06,8-2.29c2.59-0.91,5.45-1.92,8.3-2.71
				c-2.59-0.76-5.19-1.67-7.55-2.48C48.26,48.36,44.96,47.21,43.34,47.21z"/>
		</g>
		<g>
			<path class="st2" d="M32.11,58.43c-1.84,0-5.07-1.12-9.16-2.54c-3.04-1.06-6.49-2.25-9.76-3.09l-2.52-0.65l2.53-0.58
				c3.51-0.81,7.21-2.11,10.48-3.26c3.74-1.32,6.69-2.36,8.42-2.36c3.44,0,6.24,2.8,6.24,6.24C38.36,55.64,35.56,58.43,32.11,58.43z
				 M15.82,52.22c2.59,0.76,5.19,1.67,7.55,2.48c3.82,1.32,7.12,2.47,8.74,2.47c2.75,0,4.98-2.23,4.98-4.98s-2.23-4.98-4.98-4.98
				c-1.51,0-4.52,1.06-8,2.29C21.53,50.42,18.66,51.43,15.82,52.22z"/>
		</g>
	</g>
	<g>
		<g>
			<defs>
				<path id="SVGID_7_" d="M526.77,104.38H403.5V0h123.27c0,0,49.23,32.16,49.23,52.19S526.77,104.38,526.77,104.38z"/>
			</defs>
			<clipPath id="SVGID_2_">
				<use xlink:href="#SVGID_7_"  style="overflow:visible;"/>
			</clipPath>
			<g class="st3">
				<defs>
					<rect id="SVGID_9_" x="163.54" y="-161.31" width="443.21" height="297.17"/>
				</defs>
				<clipPath id="SVGID_4_">
					<use xlink:href="#SVGID_9_"  style="overflow:visible;"/>
				</clipPath>
				<g class="st4">
					<g>
						<g>
							<g>
								<path class="st2" d="M177.23,12.14c-3.07,0-5.57-2.5-5.57-5.57c0-1.62,0.98-4.44,2.21-8c0.92-2.64,1.95-5.63,2.69-8.47
									l0.71-2.77l0.64,2.79c0.7,3.05,1.83,6.26,2.83,9.09c1.15,3.26,2.06,5.84,2.06,7.37C182.81,9.64,180.31,12.14,177.23,12.14z
									 M177.21-7.06c-0.63,2.09-1.36,4.18-2.02,6.09c-1.15,3.31-2.14,6.16-2.14,7.55c0,2.3,1.88,4.18,4.18,4.18
									c2.3,0,4.18-1.87,4.18-4.18c0-1.29-0.92-3.89-1.98-6.9C178.69-2.44,177.87-4.75,177.21-7.06z"/>
							</g>
							<g>
								<path class="st2" d="M177.2,35.57l-0.64-2.79c-0.7-3.05-1.83-6.26-2.83-9.09c-1.15-3.26-2.06-5.84-2.06-7.37
									c0-3.07,2.5-5.57,5.57-5.57s5.57,2.5,5.57,5.57c0,1.62-0.98,4.44-2.21,8c-0.92,2.64-1.95,5.63-2.68,8.47L177.2,35.57z
									 M177.23,12.14c-2.3,0-4.18,1.88-4.18,4.18c0,1.29,0.92,3.89,1.98,6.9c0.74,2.11,1.56,4.42,2.22,6.73
									c0.63-2.09,1.36-4.18,2.02-6.09c1.15-3.31,2.14-6.16,2.14-7.55C181.41,14.02,179.54,12.14,177.23,12.14z"/>
							</g>
							<g>
								<path class="st2" d="M172.36,17.02c-1.62,0-4.44-0.98-8-2.21c-2.64-0.92-5.63-1.95-8.47-2.69l-2.77-0.71l2.79-0.64
									c3.05-0.7,6.26-1.83,9.09-2.83c3.26-1.15,5.84-2.06,7.36-2.06c3.07,0,5.57,2.5,5.57,5.57S175.43,17.02,172.36,17.02z
									 M158.72,11.47c2.09,0.63,4.18,1.36,6.09,2.02c3.3,1.15,6.16,2.14,7.54,2.14c2.3,0,4.18-1.88,4.18-4.18
									s-1.88-4.18-4.18-4.18c-1.29,0-3.89,0.92-6.9,1.98C163.35,9.99,161.04,10.81,158.72,11.47z"/>
							</g>
						</g>
					</g>
					<g>
						<g>
							<g>
								<path class="st2" d="M177.23,63.59c-3.07,0-5.57-2.5-5.57-5.57c0-1.62,0.98-4.44,2.21-8c0.92-2.64,1.95-5.63,2.69-8.47
									l0.71-2.77l0.64,2.79c0.7,3.05,1.83,6.26,2.83,9.09c1.15,3.26,2.06,5.84,2.06,7.36C182.81,61.09,180.31,63.59,177.23,63.59z
									 M177.21,44.38c-0.63,2.09-1.36,4.18-2.02,6.09c-1.15,3.3-2.14,6.16-2.14,7.54c0,2.3,1.88,4.18,4.18,4.18
									c2.3,0,4.18-1.88,4.18-4.18c0-1.29-0.92-3.89-1.98-6.9C178.69,49.01,177.87,46.7,177.21,44.38z"/>
							</g>
							<g>
								<path class="st2" d="M177.2,87.01l-0.64-2.79c-0.7-3.05-1.83-6.26-2.83-9.09c-1.15-3.26-2.06-5.84-2.06-7.37
									c0-3.07,2.5-5.57,5.57-5.57s5.57,2.5,5.57,5.57c0,1.62-0.98,4.44-2.21,8c-0.92,2.64-1.95,5.63-2.68,8.47L177.2,87.01z
									 M177.23,63.59c-2.3,0-4.18,1.87-4.18,4.18c0,1.29,0.92,3.89,1.98,6.9c0.74,2.11,1.56,4.42,2.22,6.73
									c0.63-2.09,1.36-4.18,2.02-6.09c1.15-3.31,2.14-6.16,2.14-7.55C181.41,65.46,179.54,63.59,177.23,63.59z"/>
							</g>
							<g>
								<path class="st2" d="M172.36,68.46c-1.62,0-4.44-0.98-8-2.21c-2.64-0.92-5.63-1.95-8.47-2.68l-2.77-0.71l2.79-0.64
									c3.05-0.7,6.26-1.83,9.09-2.83c3.26-1.15,5.84-2.06,7.37-2.06c3.07,0,5.57,2.5,5.57,5.57S175.43,68.46,172.36,68.46z
									 M158.72,62.92c2.09,0.63,4.18,1.36,6.09,2.02c3.31,1.15,6.16,2.14,7.55,2.14c2.3,0,4.18-1.87,4.18-4.18
									c0-2.3-1.88-4.18-4.18-4.18c-1.29,0-3.89,0.92-6.9,1.98C163.35,61.44,161.04,62.25,158.72,62.92z"/>
							</g>
						</g>
					</g>
					<g>
						<g>
							<g>
								<path class="st2" d="M177.23,118.06c-3.07,0-5.57-2.5-5.57-5.57c0-1.62,0.98-4.44,2.21-8c0.92-2.64,1.95-5.63,2.69-8.47
									l0.71-2.77l0.64,2.79c0.7,3.05,1.83,6.26,2.83,9.09c1.15,3.26,2.06,5.84,2.06,7.36
									C182.81,115.56,180.31,118.06,177.23,118.06z M177.21,98.85c-0.63,2.09-1.36,4.18-2.02,6.09c-1.15,3.3-2.14,6.16-2.14,7.54
									c0,2.3,1.88,4.18,4.18,4.18c2.3,0,4.18-1.88,4.18-4.18c0-1.29-0.92-3.89-1.98-6.9C178.69,103.48,177.87,101.17,177.21,98.85
									z"/>
							</g>
						</g>
					</g>
				</g>
			</g>
		</g>
	</g>
</g>
<g id="Camada_3" class="st0">
</g>
</svg>
