<?xml version="1.0" encoding="utf-8"?>
<!-- Generator: Adobe Illustrator 25.0.0, SVG Export Plug-In . SVG Version: 6.00 Build 0)  -->
<svg version="1.1" xmlns="http://www.w3.org/2000/svg" xmlns:xlink="http://www.w3.org/1999/xlink" x="0px" y="0px"
	 viewBox="0 0 173 105" style="enable-background:new 0 0 173 105;" xml:space="preserve">
<style type="text/css">
	.st0{display:none;}
	.st1{display:inline;fill:#59778E;}
	.st2{fill:#000000;}
	.st3{clip-path:url(#SVGID_2_);}
	.st4{clip-path:url(#SVGID_4_);}
	.st5{clip-path:url(#SVGID_6_);}
	.st6{clip-path:url(#SVGID_8_);}
	.st7{display:inline;}
	.st8{clip-path:url(#SVGID_9_);}
</style>
<g id="Camada_2" class="st0">
	<rect x="-1711.5" y="-209.5" class="st1" width="2269" height="1089"/>
</g>
<g id="Camada_1">
	<g>
		<path class="st2" d="M123.11,0.94c3.76,2.5,48.58,32.68,48.58,51.25c0,18.57-44.82,48.75-48.58,51.25H1V0.94H123.11 M123.41-0.06
			H0v104.5h123.41c0,0,49.28-32.2,49.28-52.25S123.41-0.06,123.41-0.06L123.41-0.06z"/>
	</g>
	<g>
		<defs>
			<path id="SVGID_3_" d="M123.1,104.5H0.25V0.69H123.1c0,0,45.4,31.99,45.4,51.91S123.1,104.5,123.1,104.5z"/>
		</defs>
		<clipPath id="SVGID_2_">
			<use xlink:href="#SVGID_3_"  style="overflow:visible;"/>
		</clipPath>
		<g class="st3">
			<polygon class="st2" points="139.93,1.93 130.43,-10.09 65.09,44.71 -0.25,-10.1 -9.76,1.92 53.17,54.7 -6.38,104.64 
				3.12,116.66 65.09,64.7 127.05,116.66 136.55,104.64 77.01,54.7 			"/>
		</g>
	</g>
</g>
<g id="Camada_3" class="st0">
</g>
</svg>
