<?xml version="1.0" encoding="utf-8"?>
<!-- Generator: Adobe Illustrator 25.0.0, SVG Export Plug-In . SVG Version: 6.00 Build 0)  -->
<svg version="1.1" xmlns="http://www.w3.org/2000/svg" xmlns:xlink="http://www.w3.org/1999/xlink" x="0px" y="0px"
	 viewBox="0 0 173 105" style="enable-background:new 0 0 173 105;" xml:space="preserve">
<style type="text/css">
	.st0{display:none;}
	.st1{display:inline;fill:#59778E;}
	.st2{fill:#000000;}
	.st3{clip-path:url(#SVGID_2_);}
	.st4{clip-path:url(#SVGID_4_);}
	.st5{clip-path:url(#SVGID_6_);}
	.st6{clip-path:url(#SVGID_8_);}
	.st7{display:inline;}
	.st8{clip-path:url(#SVGID_9_);}
</style>
<g id="Camada_2" class="st0">
	<rect x="-911.5" y="-209.5" class="st1" width="2269" height="1089"/>
</g>
<g id="Camada_1">
	<g>
		<path class="st2" d="M123.11,0.94c3.76,2.5,48.58,32.68,48.58,51.25s-44.82,48.75-48.58,51.25H1V0.94H123.11 M123.41-0.06H0v104.5
			h123.41c0,0,49.28-32.2,49.28-52.25S123.41-0.06,123.41-0.06L123.41-0.06z"/>
	</g>
	<g>
		<g>
			<polygon class="st2" points="146.81,85.52 135.47,94.94 135.47,9.5 146.81,18.07 			"/>
		</g>
		<g>
			<rect x="102.28" y="0.2" class="st2" width="11.34" height="102.9"/>
		</g>
		<g>
			<rect x="69.09" y="0.2" class="st2" width="11.34" height="102.9"/>
		</g>
		<g>
			<rect x="35.9" y="0.2" class="st2" width="11.34" height="102.9"/>
		</g>
		<g>
			<rect x="2.7" y="0.2" class="st2" width="11.34" height="102.9"/>
		</g>
	</g>
	<g>
		<g>
			<defs>
				<path id="SVGID_7_" d="M523.41,104.5H400V0h123.41c0,0,49.28,32.2,49.28,52.25S523.41,104.5,523.41,104.5z"/>
			</defs>
			<clipPath id="SVGID_2_">
				<use xlink:href="#SVGID_7_"  style="overflow:visible;"/>
			</clipPath>
			<g class="st3">
				<g>
					<rect x="160.07" y="15.18" class="st2" width="443.11" height="11.52"/>
				</g>
				<g>
					<rect x="160.07" y="48.89" class="st2" width="443.11" height="11.52"/>
				</g>
				<g>
					<rect x="160.07" y="82.61" class="st2" width="443.11" height="11.52"/>
				</g>
			</g>
		</g>
	</g>
</g>
<g id="Camada_3" class="st0">
</g>
</svg>
