<?xml version="1.0" encoding="utf-8"?>
<!-- Generator: Adobe Illustrator 25.0.0, SVG Export Plug-In . SVG Version: 6.00 Build 0)  -->
<svg version="1.1" xmlns="http://www.w3.org/2000/svg" xmlns:xlink="http://www.w3.org/1999/xlink" x="0px" y="0px"
	 viewBox="0 0 500 335" style="enable-background:new 0 0 500 335;" xml:space="preserve">
<style type="text/css">
	.st0{display:none;}
	.st1{display:inline;fill:#59778E;}
	.st2{fill:#000000;}
	.st3{clip-path:url(#SVGID_2_);}
	.st4{clip-path:url(#SVGID_4_);}
	.st5{clip-path:url(#SVGID_6_);}
	.st6{clip-path:url(#SVGID_8_);}
	.st7{display:inline;}
	.st8{clip-path:url(#SVGID_9_);}
</style>
<g id="Camada_2" class="st0">
	<rect x="-228" y="-209.5" class="st1" width="2269" height="1089"/>
</g>
<g id="Camada_1">
	<g>
		<path class="st2" d="M498.5,1.09V334H1V1.09H498.5 M499.5,0.09H0V335h499.5V0.09L499.5,0.09z"/>
	</g>
	<g>
		<path class="st2" d="M409.32,182.88c4.01,2.66,54.78,36.8,54.78,57.82s-50.77,55.16-54.78,57.82H271.69V182.88H409.32
			 M409.62,181.88H270.69v117.64h138.93c0,0,55.48-36.25,55.48-58.82S409.62,181.88,409.62,181.88L409.62,181.88z"/>
	</g>
	<g>
		<defs>
			<path id="SVGID_5_" d="M0,0v334.91h499.02V0H0z M409.14,299.44H270.21V181.8h138.93c0,0,55.48,36.25,55.48,58.82
				S409.14,299.44,409.14,299.44z"/>
		</defs>
		<clipPath id="SVGID_2_">
			<use xlink:href="#SVGID_5_"  style="overflow:visible;"/>
		</clipPath>
		<g class="st3">
			<g>
				<rect x="0.58" y="9.19" class="st2" width="498.84" height="12.97"/>
			</g>
			<g>
				<rect x="0.58" y="47.14" class="st2" width="498.84" height="12.97"/>
			</g>
			<g>
				<rect x="0.58" y="85.1" class="st2" width="498.84" height="12.97"/>
			</g>
			<g>
				<rect x="0.58" y="123.06" class="st2" width="498.84" height="12.97"/>
			</g>
			<g>
				<rect x="0.58" y="161.01" class="st2" width="498.84" height="12.97"/>
			</g>
			<g>
				<rect x="0.58" y="198.97" class="st2" width="498.84" height="12.97"/>
			</g>
			<g>
				<rect x="0.58" y="236.93" class="st2" width="498.84" height="12.97"/>
			</g>
			<g>
				<rect x="0.58" y="274.88" class="st2" width="498.84" height="12.97"/>
			</g>
			<g>
				<rect x="0.58" y="312.84" class="st2" width="498.84" height="12.97"/>
			</g>
		</g>
	</g>
</g>
<g id="Camada_3" class="st0">
</g>
</svg>
