<?xml version="1.0" encoding="utf-8"?>
<!-- Generator: Adobe Illustrator 25.0.0, SVG Export Plug-In . SVG Version: 6.00 Build 0)  -->
<svg version="1.1" xmlns="http://www.w3.org/2000/svg" xmlns:xlink="http://www.w3.org/1999/xlink" x="0px" y="0px"
	 viewBox="0 0 173 105" style="enable-background:new 0 0 173 105;" xml:space="preserve">
<style type="text/css">
	.st0{display:none;}
	.st1{display:inline;fill:#59778E;}
	.st2{fill:#000000;}
	.st3{clip-path:url(#SVGID_2_);}
	.st4{clip-path:url(#SVGID_5_);}
	.st5{clip-path:url(#SVGID_8_);}
	.st6{clip-path:url(#SVGID_10_);}
	.st7{clip-path:url(#SVGID_12_);}
	.st8{clip-path:url(#SVGID_14_);}
	.st9{display:inline;}
	.st10{clip-path:url(#SVGID_17_);}
</style>
<g id="Camada_2" class="st0">
	<rect x="-1311.5" y="-209.5" class="st1" width="2269" height="1089"/>
</g>
<g id="Camada_1">
	<g>
		<g>
			<path class="st2" d="M123.11,1c3.76,2.5,48.58,32.68,48.58,51.25S126.87,101,123.11,103.5H1V1H123.11 M123.41,0H0v104.5h123.41
				c0,0,49.28-32.2,49.28-52.25S123.41,0,123.41,0L123.41,0z"/>
		</g>
		<g>
			<g>
				<path class="st2" d="M123.41,0H63.79v36.46h101.85C152.02,18.69,123.41,0,123.41,0z"/>
			</g>
			<g>
				<rect class="st2" width="33.13" height="36.46"/>
			</g>
			<g>
				<rect y="66.18" class="st2" width="33.13" height="38.32"/>
			</g>
			<g>
				<path class="st2" d="M63.79,66.18v38.32h59.62c0,0,30.63-20.02,43.59-38.32H63.79z"/>
			</g>
		</g>
	</g>
</g>
<g id="Camada_3" class="st0">
</g>
</svg>
