<?xml version="1.0" encoding="utf-8"?>
<!-- Generator: Adobe Illustrator 25.0.0, SVG Export Plug-In . SVG Version: 6.00 Build 0)  -->
<svg version="1.1" xmlns="http://www.w3.org/2000/svg" xmlns:xlink="http://www.w3.org/1999/xlink" x="0px" y="0px"
	 viewBox="0 0 173 105" style="enable-background:new 0 0 173 105;" xml:space="preserve">
<style type="text/css">
	.st0{display:none;}
	.st1{display:inline;fill:#59778E;}
	.st2{fill:#000000;}
	.st3{clip-path:url(#SVGID_2_);}
	.st4{clip-path:url(#SVGID_5_);}
	.st5{clip-path:url(#SVGID_8_);}
	.st6{clip-path:url(#SVGID_10_);}
	.st7{clip-path:url(#SVGID_12_);}
	.st8{clip-path:url(#SVGID_14_);}
	.st9{display:inline;}
	.st10{clip-path:url(#SVGID_17_);}
</style>
<g id="Camada_2" class="st0">
	<rect x="-1911.5" y="-209.5" class="st1" width="2269" height="1089"/>
</g>
<g id="Camada_1">
	<g>
		<g>
			<path class="st2" d="M123.11,1c3.76,2.5,48.58,32.68,48.58,51.25c0,18.57-44.82,48.75-48.58,51.25H1V1H123.11 M123.41,0H0v104.5
				h123.41c0,0,49.28-32.2,49.28-52.25S123.41,0,123.41,0L123.41,0z"/>
		</g>
		<g>
			<defs>
				<path id="SVGID_9_" d="M123.41,104.5H0V0h123.41c0,0,49.28,32.2,49.28,52.25S123.41,104.5,123.41,104.5z"/>
			</defs>
			<clipPath id="SVGID_2_">
				<use xlink:href="#SVGID_9_"  style="overflow:visible;"/>
			</clipPath>
			<g class="st3">
				<path class="st2" d="M203.25-66.55v-29.72H85.2v-65.07H54.54v65.07H-84.9v-65.07h-30.66v65.07h-124.45v29.72h124.45V36.39
					h-124.45v29.72h124.45v69.68h30.66V66.11H54.54v69.68H85.2V66.11h118.05V36.39H85.2V-66.55H203.25z M54.54,36.39H-84.9V-66.55
					H54.54V36.39z"/>
			</g>
		</g>
	</g>
</g>
<g id="Camada_3" class="st0">
</g>
</svg>
