<?xml version="1.0" encoding="utf-8"?>
<!-- Generator: Adobe Illustrator 25.0.0, SVG Export Plug-In . SVG Version: 6.00 Build 0)  -->
<svg version="1.1" xmlns="http://www.w3.org/2000/svg" xmlns:xlink="http://www.w3.org/1999/xlink" x="0px" y="0px"
	 viewBox="0 0 173 105" style="enable-background:new 0 0 173 105;" xml:space="preserve">
<style type="text/css">
	.st0{display:none;}
	.st1{display:inline;fill:#59778E;}
	.st2{fill:#000000;}
	.st3{clip-path:url(#SVGID_2_);}
	.st4{clip-path:url(#SVGID_4_);}
	.st5{clip-path:url(#SVGID_6_);}
	.st6{clip-path:url(#SVGID_8_);}
	.st7{clip-path:url(#SVGID_10_);}
	.st8{clip-path:url(#SVGID_12_);}
	.st9{clip-path:url(#SVGID_14_);}
	.st10{display:inline;}
	.st11{clip-path:url(#SVGID_19_);}
	.st12{clip-path:url(#SVGID_21_);}
</style>
<g id="Camada_2" class="st0">
	<rect x="-1311.5" y="-209.5" class="st1" width="2269" height="1089"/>
</g>
<g id="Camada_1">
	<g id="Camada_1_1_">
		<g>
			<g>
				<defs>
					<path id="SVGID_1_" d="M525.96,104.5H400V0h125.96c0,0,46.54,32.2,46.54,52.25S525.96,104.5,525.96,104.5z"/>
				</defs>
				<clipPath id="SVGID_2_">
					<use xlink:href="#SVGID_1_"  style="overflow:visible;"/>
				</clipPath>
				<g class="st3">
					<path class="st2" d="M608.56-76.54v-32.49H486.25v-71.14h-31.77v71.14H310.01v-71.14h-31.77v71.14H149.3v32.49h128.94V36H149.3
						v32.5h128.94v76.18h31.77V68.5h144.47v76.18h31.77V68.5h122.31V36H486.25V-76.54H608.56z M454.48,36H310.01V-76.54h144.47
						L454.48,36L454.48,36z"/>
				</g>
			</g>
		</g>
		<g>
			<g>
				<path class="st2" d="M125.64,1c3.69,2.6,45.86,32.7,45.86,51.25s-42.17,48.65-45.86,51.25H1V1H125.64 M125.96,0H0v104.5h125.96
					c0,0,46.54-32.2,46.54-52.25S125.96,0,125.96,0L125.96,0z"/>
			</g>
			<g>
				<g>
					<defs>
						<path id="SVGID_9_" d="M125.96,104.5H0V0h125.96c0,0,46.54,32.2,46.54,52.25S125.96,104.5,125.96,104.5z"/>
					</defs>
					<clipPath id="SVGID_4_">
						<use xlink:href="#SVGID_9_"  style="overflow:visible;"/>
					</clipPath>
					<g class="st4">
						<g>
							<rect x="51.11" y="-165.75" class="st2" width="14.74" height="324.84"/>
						</g>
						<g>
							<rect x="-249.4" y="45.56" class="st2" width="459.25" height="15.08"/>
						</g>
					</g>
				</g>
			</g>
		</g>
		<g>
			<g>
				<defs>
					<path id="SVGID_11_" d="M-76.73,104.38H-200V0h123.27c0,0,49.23,32.16,49.23,52.19S-76.73,104.38-76.73,104.38z"/>
				</defs>
				<clipPath id="SVGID_6_">
					<use xlink:href="#SVGID_11_"  style="overflow:visible;"/>
				</clipPath>
				<g class="st5">
					<g>
						<rect x="-439.74" y="31.9" class="st2" width="442.76" height="13.78"/>
					</g>
					<g>
						<rect x="-439.74" y="55.48" class="st2" width="442.76" height="13.78"/>
					</g>
				</g>
			</g>
		</g>
	</g>
</g>
<g id="Camada_3" class="st0">
</g>
</svg>
