<?xml version="1.0" encoding="utf-8"?>
<!-- Generator: Adobe Illustrator 25.0.0, SVG Export Plug-In . SVG Version: 6.00 Build 0)  -->
<svg version="1.1" xmlns="http://www.w3.org/2000/svg" xmlns:xlink="http://www.w3.org/1999/xlink" x="0px" y="0px"
	 viewBox="0 0 173 105" style="enable-background:new 0 0 173 105;" xml:space="preserve">
<style type="text/css">
	.st0{display:none;}
	.st1{display:inline;fill:#59778E;}
	.st2{fill:#000000;}
	.st3{clip-path:url(#SVGID_2_);}
	.st4{clip-path:url(#SVGID_4_);}
	.st5{clip-path:url(#SVGID_6_);}
	.st6{clip-path:url(#SVGID_8_);}
	.st7{clip-path:url(#SVGID_10_);}
	.st8{clip-path:url(#SVGID_12_);}
	.st9{clip-path:url(#SVGID_14_);}
	.st10{display:inline;}
	.st11{clip-path:url(#SVGID_19_);}
	.st12{clip-path:url(#SVGID_21_);}
</style>
<g id="Camada_2" class="st0">
	<rect x="-1111.5" y="-209.5" class="st1" width="2269" height="1089"/>
</g>
<g id="Camada_1">
	<g id="Camada_1_1_">
		<g>
			<path class="st2" d="M122.97,1c3.75,2.49,48.53,32.65,48.53,51.19c0,18.55-44.77,48.7-48.53,51.19H1V1H122.97 M123.27,0H0v104.38
				h123.27c0,0,49.23-32.16,49.23-52.19S123.27,0,123.27,0L123.27,0z"/>
		</g>
		<g>
			<g>
				<g>
					<defs>
						<path id="SVGID_7_" d="M-74.04,104.5H-200V0h125.96c0,0,46.54,32.2,46.54,52.25S-74.04,104.5-74.04,104.5z"/>
					</defs>
					<clipPath id="SVGID_2_">
						<use xlink:href="#SVGID_7_"  style="overflow:visible;"/>
					</clipPath>
					<g class="st3">
						<g>
							<rect x="-454.87" y="48.35" class="st2" width="459.25" height="15.08"/>
						</g>
					</g>
				</g>
			</g>
		</g>
		<g>
			<g>
				<g>
					<defs>
						<path id="SVGID_9_" d="M325.96,104.5H200V0h125.96c0,0,46.54,32.2,46.54,52.25S325.96,104.5,325.96,104.5z"/>
					</defs>
					<clipPath id="SVGID_4_">
						<use xlink:href="#SVGID_9_"  style="overflow:visible;"/>
					</clipPath>
					<g class="st4">
						<g>
							<rect x="-49.4" y="45.56" class="st2" width="459.25" height="15.08"/>
						</g>
					</g>
				</g>
			</g>
		</g>
		<g>
			<g>
				<defs>
					<path id="SVGID_11_" d="M123.27,104.38H0V0h123.27c0,0,49.23,32.16,49.23,52.19S123.27,104.38,123.27,104.38z"/>
				</defs>
				<clipPath id="SVGID_6_">
					<use xlink:href="#SVGID_11_"  style="overflow:visible;"/>
				</clipPath>
				<g class="st5">
					<g>
						<rect x="49.99" y="-161.16" class="st2" width="14.22" height="296.8"/>
					</g>
					<g>
						<rect x="74.93" y="-161.16" class="st2" width="14.22" height="296.8"/>
					</g>
					<g>
						<rect x="-239.74" y="31.9" class="st2" width="442.76" height="13.78"/>
					</g>
					<g>
						<rect x="-239.74" y="55.48" class="st2" width="442.76" height="13.78"/>
					</g>
				</g>
			</g>
		</g>
	</g>
</g>
<g id="Camada_3" class="st0">
</g>
</svg>
