<?xml version="1.0" encoding="utf-8"?>
<!-- Generator: Adobe Illustrator 25.0.0, SVG Export Plug-In . SVG Version: 6.00 Build 0)  -->
<svg version="1.1" xmlns="http://www.w3.org/2000/svg" xmlns:xlink="http://www.w3.org/1999/xlink" x="0px" y="0px"
	 viewBox="0 0 173 105" style="enable-background:new 0 0 173 105;" xml:space="preserve">
<style type="text/css">
	.st0{display:none;}
	.st1{display:inline;fill:#59778E;}
	.st2{fill:#000000;}
	.st3{clip-path:url(#SVGID_2_);}
	.st4{clip-path:url(#SVGID_4_);}
	.st5{clip-path:url(#SVGID_6_);}
	.st6{clip-path:url(#SVGID_8_);}
	.st7{clip-path:url(#SVGID_10_);}
	.st8{clip-path:url(#SVGID_12_);}
	.st9{clip-path:url(#SVGID_14_);}
	.st10{display:inline;}
	.st11{clip-path:url(#SVGID_19_);}
	.st12{clip-path:url(#SVGID_21_);}
</style>
<g id="Camada_2" class="st0">
	<rect x="-1911.5" y="-209.5" class="st1" width="2269" height="1089"/>
</g>
<g id="Camada_1">
	<g id="Camada_1_1_">
		<g>
			<path class="st2" d="M126.34,0.65c3.7,2.6,46.16,32.81,46.16,51.42s-42.46,48.83-46.16,51.42H0.89V0.65H126.34 M126.66-0.35
				H-0.11V104.5h126.77c0,0,46.84-32.31,46.84-52.42S126.66-0.35,126.66-0.35L126.66-0.35z"/>
		</g>
		<g>
			<g>
				<defs>
					<path id="SVGID_1_" d="M-74.04,104.5H-200V0h125.96c0,0,46.54,32.2,46.54,52.25S-74.04,104.5-74.04,104.5z"/>
				</defs>
				<clipPath id="SVGID_2_">
					<use xlink:href="#SVGID_1_"  style="overflow:visible;"/>
				</clipPath>
				<g class="st3">
					<path class="st2" d="M8.56-76.54v-32.49h-122.31v-71.14h-31.77v71.14h-144.47v-71.14h-31.77v71.14H-450.7v32.49h128.94V36
						H-450.7v32.5h128.94v76.18h31.77V68.5h144.47v76.18h31.77V68.5H8.56V36h-122.31V-76.54H8.56z M-145.52,36h-144.47V-76.54
						h144.47L-145.52,36L-145.52,36z"/>
				</g>
			</g>
		</g>
		<g>
			<g>
				<defs>
					<path id="SVGID_3_" d="M126.66,104.5H-0.11V-0.35h126.77c0,0,46.84,32.31,46.84,52.42S126.66,104.5,126.66,104.5z"/>
				</defs>
				<clipPath id="SVGID_4_">
					<use xlink:href="#SVGID_3_"  style="overflow:visible;"/>
				</clipPath>
				<g class="st4">
					<g>
						<rect x="60.85" y="-175.07" class="st2" width="14.84" height="325.93"/>
					</g>
					<g>
						<rect x="-256.63" y="36.94" class="st2" width="462.21" height="15.13"/>
					</g>
					<g>
						<rect x="-256.63" y="62.83" class="st2" width="462.21" height="15.13"/>
					</g>
				</g>
			</g>
		</g>
	</g>
</g>
<g id="Camada_3" class="st0">
</g>
</svg>
