<?xml version="1.0" encoding="utf-8"?>
<!-- Generator: Adobe Illustrator 25.0.0, SVG Export Plug-In . SVG Version: 6.00 Build 0)  -->
<svg version="1.1" id="Camada_1" xmlns="http://www.w3.org/2000/svg" xmlns:xlink="http://www.w3.org/1999/xlink" x="0px" y="0px"
	 viewBox="0 0 173 105" style="enable-background:new 0 0 173 105;" xml:space="preserve">
<style type="text/css">
	.st0{fill:#000000;}
	.st1{clip-path:url(#SVGID_2_);}
</style>
<g id="Camada_1_1_">
	<g>
		<path class="st0" d="M122.97,1c3.75,2.49,48.53,32.65,48.53,51.19c0,18.55-44.77,48.7-48.53,51.19H1V1H122.97 M123.27,0H0v104.38
			h123.27c0,0,49.23-32.16,49.23-52.19S123.27,0,123.27,0L123.27,0z"/>
	</g>
	<g>
		<g>
			<defs>
				<path id="SVGID_1_" d="M123.27,104.38H0V0h123.27c0,0,49.23,32.16,49.23,52.19S123.27,104.38,123.27,104.38z"/>
			</defs>
			<clipPath id="SVGID_2_">
				<use xlink:href="#SVGID_1_"  style="overflow:visible;"/>
			</clipPath>
			<g class="st1">
				<g>
					<rect x="-28.99" y="-161.39" class="st0" width="36.44" height="296.67"/>
				</g>
				<g>
					<rect x="18.31" y="-161.39" class="st0" width="36.44" height="296.67"/>
				</g>
				<g>
					<rect x="61.57" y="-161.39" class="st0" width="40.4" height="296.67"/>
				</g>
				<g>
					<rect x="105.81" y="-161.39" class="st0" width="44.76" height="296.67"/>
				</g>
				<g>
					<rect x="152.5" y="-161.39" class="st0" width="50.97" height="296.67"/>
				</g>
			</g>
		</g>
	</g>
</g>
<g id="Camada_3">
</g>
</svg>
