<?xml version="1.0" encoding="utf-8"?>
<!-- Generator: Adobe Illustrator 25.0.0, SVG Export Plug-In . SVG Version: 6.00 Build 0)  -->
<svg version="1.1" id="Camada_1" xmlns="http://www.w3.org/2000/svg" xmlns:xlink="http://www.w3.org/1999/xlink" x="0px" y="0px"
	 viewBox="0 0 173 105" style="enable-background:new 0 0 173 105;" xml:space="preserve">
<style type="text/css">
	.st0{fill:#000000;}
	.st1{clip-path:url(#SVGID_2_);}
</style>
<g id="Camada_1_1_">
	<g>
		<path class="st0" d="M125.64,1c3.69,2.6,45.86,32.7,45.86,51.25s-42.17,48.65-45.86,51.25H1V1H125.64 M125.96,0H0v104.5h125.96
			c0,0,46.54-32.2,46.54-52.25S125.96,0,125.96,0L125.96,0z"/>
	</g>
	<g>
		<g>
			<defs>
				<path id="SVGID_1_" d="M125.96,104.5H0V0h125.96c0,0,46.54,32.2,46.54,52.25S125.96,104.5,125.96,104.5z"/>
			</defs>
			<clipPath id="SVGID_2_">
				<use xlink:href="#SVGID_1_"  style="overflow:visible;"/>
			</clipPath>
			<g class="st1">
				<g>
					<rect x="5.51" class="st0" width="15.76" height="104.5"/>
				</g>
				<g>
					<rect x="116.68" class="st0" width="15.76" height="104.5"/>
				</g>
				<g>
					<rect x="156.74" class="st0" width="15.76" height="104.5"/>
				</g>
				<g>
					<g>
						<polygon class="st0" points="59.1,21.69 59.1,0 43.35,0 43.35,3.6 						"/>
					</g>
					<g>
						<polygon class="st0" points="43.35,36.67 43.35,104.5 59.1,104.5 59.1,54.76 						"/>
					</g>
				</g>
				<g>
					<g>
						<polygon class="st0" points="95.4,63.35 95.4,0 79.64,0 79.64,45.26 						"/>
					</g>
					<g>
						<polygon class="st0" points="79.64,78.33 79.64,104.5 95.4,104.5 95.4,96.42 						"/>
					</g>
				</g>
			</g>
		</g>
	</g>
</g>
<g id="Camada_3">
</g>
</svg>
