<?xml version="1.0" encoding="utf-8"?>
<!-- Generator: Adobe Illustrator 25.0.0, SVG Export Plug-In . SVG Version: 6.00 Build 0)  -->
<svg version="1.1" id="Camada_1" xmlns="http://www.w3.org/2000/svg" xmlns:xlink="http://www.w3.org/1999/xlink" x="0px" y="0px"
	 viewBox="0 0 173 105" style="enable-background:new 0 0 173 105;" xml:space="preserve">
<style type="text/css">
	.st0{fill:#000000;}
	.st1{clip-path:url(#SVGID_2_);}
	.st2{clip-path:url(#SVGID_4_);}
</style>
<g id="Camada_1_1_">
	<g>
		<path class="st0" d="M125.89,1.25c3.69,2.6,45.86,32.7,45.86,51.25s-42.17,48.65-45.86,51.25H1.25V1.25H125.89 M126.21,0.25H0.25
			v104.5h125.96c0,0,46.54-32.2,46.54-52.25S126.21,0.25,126.21,0.25L126.21,0.25z"/>
	</g>
	<g>
		<g>
			<defs>
				<path id="SVGID_1_" d="M126.46,104.75H0.5V0.25h125.96c0,0,46.54,32.2,46.54,52.25S126.46,104.75,126.46,104.75z"/>
			</defs>
			<clipPath id="SVGID_2_">
				<use xlink:href="#SVGID_1_"  style="overflow:visible;"/>
			</clipPath>
			<g class="st1">
				<g>
					<rect x="0.5" y="40.35" class="st0" width="171.96" height="16.12"/>
				</g>
				<g>
					<rect x="6.01" y="0.25" class="st0" width="15.76" height="104.5"/>
				</g>
				<g>
					<rect x="43.85" y="0.25" class="st0" width="15.76" height="104.5"/>
				</g>
				<g>
					<rect x="80.14" y="0.25" class="st0" width="15.76" height="104.5"/>
				</g>
				<g>
					<rect x="117.18" y="0.25" class="st0" width="15.76" height="104.5"/>
				</g>
			</g>
		</g>
	</g>
	<g>
		<g>
			<defs>
				<path id="SVGID_3_" d="M123.77,104.38H0.5V0h123.27c0,0,49.23,32.16,49.23,52.19S123.77,104.38,123.77,104.38z"/>
			</defs>
			<clipPath id="SVGID_4_">
				<use xlink:href="#SVGID_3_"  style="overflow:visible;"/>
			</clipPath>
			<g class="st2">
				<g>
					<rect x="153" y="-161.39" class="st0" width="50.97" height="296.67"/>
				</g>
			</g>
		</g>
	</g>
</g>
<g id="Camada_3">
</g>
</svg>
