<?xml version="1.0" encoding="utf-8"?>
<!-- Generator: Adobe Illustrator 25.0.0, SVG Export Plug-In . SVG Version: 6.00 Build 0)  -->
<svg version="1.1" xmlns="http://www.w3.org/2000/svg" xmlns:xlink="http://www.w3.org/1999/xlink" x="0px" y="0px"
	 viewBox="0 0 173 105" style="enable-background:new 0 0 173 105;" xml:space="preserve">
<style type="text/css">
	.st0{display:none;}
	.st1{display:inline;fill:#59778E;}
	.st2{fill:#000000;}
	.st3{fill:none;stroke:#000000;stroke-miterlimit:10;}
	.st4{clip-path:url(#SVGID_2_);}
	.st5{clip-path:url(#SVGID_4_);}
	.st6{clip-path:url(#SVGID_6_);}
	.st7{clip-path:url(#SVGID_8_);}
	.st8{clip-path:url(#SVGID_10_);}
	.st9{clip-path:url(#SVGID_12_);}
	.st10{display:inline;}
	.st11{clip-path:url(#SVGID_13_);}
	.st12{clip-path:url(#SVGID_19_);}
</style>
<g id="Camada_2" class="st0">
	<rect x="-1911.5" y="-209.5" class="st1" width="2269" height="1089"/>
</g>
<g id="Camada_1">
	<g>
		<path class="st2" d="M125.64,1c3.69,2.6,45.86,32.7,45.86,51.25c0,18.55-42.17,48.65-45.86,51.25H1V1H125.64 M125.96,0H0v104.5
			h125.96c0,0,46.54-32.2,46.54-52.25S125.96,0,125.96,0L125.96,0z"/>
	</g>
	<g>
		<defs>
			<path id="SVGID_7_" d="M125.96,104.5H0V0h125.96c0,0,46.54,32.2,46.54,52.25S125.96,104.5,125.96,104.5z"/>
		</defs>
		<clipPath id="SVGID_2_">
			<use xlink:href="#SVGID_7_"  style="overflow:visible;"/>
		</clipPath>
		<g class="st4">
			<g>
				<polygon class="st2" points="0.12,35.35 193.58,47.39 0.12,67.47 				"/>
			</g>
			<g>
				<polygon class="st2" points="0.12,-3.29 193.58,8.75 0.12,28.83 				"/>
			</g>
			<g>
				<polygon class="st2" points="0.12,74 193.58,86.03 0.12,106.11 				"/>
			</g>
		</g>
	</g>
</g>
<g id="Camada_3" class="st0">
</g>
</svg>
