<?xml version="1.0" encoding="utf-8"?>
<!-- Generator: Adobe Illustrator 25.0.0, SVG Export Plug-In . SVG Version: 6.00 Build 0)  -->
<svg version="1.1" xmlns="http://www.w3.org/2000/svg" xmlns:xlink="http://www.w3.org/1999/xlink" x="0px" y="0px"
	 viewBox="0 0 173 105" style="enable-background:new 0 0 173 105;" xml:space="preserve">
<style type="text/css">
	.st0{display:none;}
	.st1{display:inline;fill:#59778E;}
	.st2{fill:#000000;}
	.st3{fill:none;stroke:#000000;stroke-miterlimit:10;}
	.st4{clip-path:url(#SVGID_2_);}
	.st5{clip-path:url(#SVGID_4_);}
	.st6{clip-path:url(#SVGID_6_);}
	.st7{clip-path:url(#SVGID_8_);}
	.st8{clip-path:url(#SVGID_10_);}
	.st9{clip-path:url(#SVGID_12_);}
	.st10{display:inline;}
	.st11{clip-path:url(#SVGID_13_);}
	.st12{clip-path:url(#SVGID_19_);}
</style>
<g id="Camada_2" class="st0">
	<rect x="-911.5" y="-209.5" class="st1" width="2269" height="1089"/>
</g>
<g id="Camada_1">
	<g>
		<path class="st2" d="M125.64,1c3.69,2.6,45.86,32.7,45.86,51.25s-42.17,48.65-45.86,51.25H1V1H125.64 M125.96,0H0v104.5h125.96
			c0,0,46.54-32.2,46.54-52.25S125.96,0,125.96,0L125.96,0z"/>
	</g>
	<g>
		<defs>
			<path id="SVGID_1_" d="M125.96,104.5H0V0h125.96c0,0,46.54,32.2,46.54,52.25S125.96,104.5,125.96,104.5z"/>
		</defs>
		<clipPath id="SVGID_2_">
			<use xlink:href="#SVGID_1_"  style="overflow:visible;"/>
		</clipPath>
		<g class="st4">
			<g>
				<rect y="17.33" class="st2" width="179.87" height="27.12"/>
			</g>
			<g>
				<rect y="62.6" class="st2" width="179.87" height="27.12"/>
			</g>
		</g>
	</g>
	<g>
		<g>
			<defs>
				<path id="SVGID_11_" d="M523.41,0H400v104.5h123.41c0,0,49.28-32.2,49.28-52.25S523.41,0,523.41,0L523.41,0z"/>
			</defs>
			<clipPath id="SVGID_4_">
				<use xlink:href="#SVGID_11_"  style="overflow:visible;"/>
			</clipPath>
			<g class="st5">
				<polygon class="st2" points="569.46,-161.3 164.91,-137.59 569.46,-118.87 164.91,-95.15 569.46,-76.43 164.91,-52.71 
					569.46,-33.99 164.91,-10.28 569.46,8.44 164.91,32.16 569.46,50.88 164.91,74.6 569.46,93.32 164.91,117.03 569.46,135.75 
					604.14,135.75 604.14,93.32 604.14,50.88 604.14,8.44 604.14,-33.99 604.14,-76.43 604.14,-118.87 604.14,-161.3 				"/>
			</g>
		</g>
	</g>
</g>
<g id="Camada_3" class="st0">
</g>
</svg>
