<?xml version="1.0" encoding="utf-8"?>
<!-- Generator: Adobe Illustrator 25.0.0, SVG Export Plug-In . SVG Version: 6.00 Build 0)  -->
<svg version="1.1" xmlns="http://www.w3.org/2000/svg" xmlns:xlink="http://www.w3.org/1999/xlink" x="0px" y="0px"
	 viewBox="0 0 173 105" style="enable-background:new 0 0 173 105;" xml:space="preserve">
<style type="text/css">
	.st0{display:none;}
	.st1{display:inline;fill:#59778E;}
	.st2{fill:#000000;}
	.st3{fill:none;stroke:#000000;stroke-miterlimit:10;}
	.st4{clip-path:url(#SVGID_2_);}
	.st5{clip-path:url(#SVGID_4_);}
	.st6{clip-path:url(#SVGID_6_);}
	.st7{clip-path:url(#SVGID_8_);}
	.st8{clip-path:url(#SVGID_10_);}
	.st9{clip-path:url(#SVGID_12_);}
	.st10{display:inline;}
	.st11{clip-path:url(#SVGID_13_);}
	.st12{clip-path:url(#SVGID_19_);}
</style>
<g id="Camada_2" class="st0">
	<rect x="-1311.5" y="-209.5" class="st1" width="2269" height="1089"/>
</g>
<g id="Camada_1">
	<g>
		<path class="st2" d="M123.15,0.89c3.56,2.36,48.66,32.69,48.66,51.36s-45.1,49-48.66,51.36H0.89V0.89H123.15 M123.41,0H0v104.5
			h123.41c0,0,49.28-32.2,49.28-52.25S123.41,0,123.41,0L123.41,0z"/>
		<g>
			<defs>
				<path id="SVGID_11_" d="M123.41,0H0v104.5h123.41c0,0,49.28-32.2,49.28-52.25S123.41,0,123.41,0L123.41,0z"/>
			</defs>
			<clipPath id="SVGID_2_">
				<use xlink:href="#SVGID_11_"  style="overflow:visible;"/>
			</clipPath>
			<g class="st4">
				<polygon class="st2" points="169.46,-161.3 -235.09,-137.59 169.46,-118.87 -235.09,-95.15 169.46,-76.43 -235.09,-52.71 
					169.46,-33.99 -235.09,-10.28 169.46,8.44 -235.09,32.16 169.46,50.88 -235.09,74.6 169.46,93.32 -235.09,117.03 169.46,135.75 
					204.14,135.75 204.14,93.32 204.14,50.88 204.14,8.44 204.14,-33.99 204.14,-76.43 204.14,-118.87 204.14,-161.3 				"/>
			</g>
		</g>
	</g>
</g>
<g id="Camada_3" class="st0">
</g>
</svg>
