<?xml version="1.0" encoding="utf-8"?>
<!-- Generator: Adobe Illustrator 25.0.0, SVG Export Plug-In . SVG Version: 6.00 Build 0)  -->
<svg version="1.1" xmlns="http://www.w3.org/2000/svg" xmlns:xlink="http://www.w3.org/1999/xlink" x="0px" y="0px"
	 viewBox="0 0 173 105" style="enable-background:new 0 0 173 105;" xml:space="preserve">
<style type="text/css">
	.st0{display:none;}
	.st1{display:inline;fill:#59778E;}
	.st2{fill:#000000;}
	.st3{fill:none;stroke:#000000;stroke-miterlimit:10;}
	.st4{clip-path:url(#SVGID_2_);}
	.st5{clip-path:url(#SVGID_4_);}
	.st6{fill:none;stroke:#000000;stroke-width:0.5;stroke-miterlimit:10;}
	.st7{fill:#1D1D1B;stroke:#1D1D1B;stroke-width:0.5;stroke-miterlimit:10;}
	.st8{fill:#1D1D1B;}
	.st9{clip-path:url(#SVGID_6_);}
	.st10{clip-path:url(#SVGID_8_);}
	.st11{fill:none;stroke:#000000;stroke-width:0.75;stroke-miterlimit:10;}
	.st12{clip-path:url(#SVGID_10_);}
	.st13{clip-path:url(#SVGID_12_);}
	.st14{display:inline;}
	.st15{clip-path:url(#SVGID_13_);}
	.st16{clip-path:url(#SVGID_19_);}
</style>
<g id="Camada_2" class="st0">
	<rect x="-1111.5" y="-209.5" class="st1" width="2269" height="1089"/>
</g>
<g id="Camada_1">
	<g>
		<path class="st2" d="M125.64,1c3.69,2.6,45.86,32.7,45.86,51.25s-42.17,48.65-45.86,51.25H1V1H125.64 M125.96,0H0v104.5h125.96
			c0,0,46.54-32.2,46.54-52.25S125.96,0,125.96,0L125.96,0z"/>
	</g>
	<g>
		<defs>
			<path id="SVGID_1_" d="M-74.71,104.75h-125.04V0.25h125.04c0,0,46.21,32.2,46.21,52.25S-74.71,104.75-74.71,104.75z"/>
		</defs>
		<clipPath id="SVGID_2_">
			<use xlink:href="#SVGID_1_"  style="overflow:visible;"/>
		</clipPath>
		<g class="st4">
			<g>
				<g>
					<line class="st3" x1="-451.52" y1="54.66" x2="14.13" y2="93.9"/>
					<line class="st3" x1="-451.52" y1="54.66" x2="14.13" y2="80.41"/>
					<line class="st3" x1="-451.52" y1="54.66" x2="14.13" y2="64.68"/>
					<line class="st3" x1="-451.52" y1="54.66" x2="14.13" y2="50.28"/>
					<line class="st3" x1="-451.52" y1="54.66" x2="14.13" y2="38.12"/>
					<line class="st3" x1="-451.52" y1="54.66" x2="14.13" y2="24.5"/>
					<line class="st3" x1="-451.52" y1="54.66" x2="14.13" y2="8.38"/>
				</g>
			</g>
		</g>
	</g>
	<g>
		<defs>
			<path id="SVGID_3_" d="M522.82,104.5H396.5V0h126.32c0,0,46.68,32.2,46.68,52.25S522.82,104.5,522.82,104.5z"/>
		</defs>
		<clipPath id="SVGID_4_">
			<use xlink:href="#SVGID_3_"  style="overflow:visible;"/>
		</clipPath>
		<g class="st5">
			<g>
				<g>
					<line class="st6" x1="142.16" y1="53.61" x2="612.57" y2="92.85"/>
					<line class="st6" x1="142.16" y1="53.61" x2="612.57" y2="79.36"/>
					<line class="st6" x1="142.16" y1="53.61" x2="612.57" y2="63.62"/>
					<line class="st6" x1="142.16" y1="53.61" x2="612.57" y2="49.22"/>
					<line class="st6" x1="142.16" y1="53.61" x2="612.57" y2="35.09"/>
					<line class="st6" x1="142.16" y1="53.61" x2="612.57" y2="21.76"/>
					<line class="st6" x1="142.16" y1="53.61" x2="612.57" y2="5.49"/>
				</g>
			</g>
		</g>
	</g>
	<g>
		<defs>
			<path id="SVGID_5_" d="M325.96,104.5H200V0h125.96c0,0,46.54,32.2,46.54,52.25S325.96,104.5,325.96,104.5z"/>
		</defs>
		<clipPath id="SVGID_6_">
			<use xlink:href="#SVGID_5_"  style="overflow:visible;"/>
		</clipPath>
		<g class="st9">
			<g>
				<g>
					<line class="st6" x1="590.44" y1="54.06" x2="121.38" y2="14.82"/>
					<line class="st6" x1="590.44" y1="54.06" x2="121.38" y2="28.31"/>
					<line class="st6" x1="590.44" y1="54.06" x2="121.38" y2="44.05"/>
					<line class="st6" x1="590.44" y1="54.06" x2="121.38" y2="58.45"/>
					<line class="st6" x1="590.44" y1="54.06" x2="121.38" y2="70.6"/>
					<line class="st6" x1="590.44" y1="54.06" x2="121.38" y2="84.23"/>
					<line class="st6" x1="590.44" y1="54.06" x2="121.38" y2="100.35"/>
				</g>
			</g>
		</g>
	</g>
	<g>
		<line class="st11" x1="40.38" y1="0" x2="40.38" y2="104.5"/>
		<line class="st11" x1="48.39" y1="0" x2="48.39" y2="104.5"/>
		<line class="st11" x1="56.41" y1="0" x2="56.41" y2="104.5"/>
		<line class="st11" x1="64.42" y1="0" x2="64.42" y2="104.5"/>
		<line class="st11" x1="72.43" y1="0" x2="72.43" y2="104.5"/>
		<line class="st11" x1="80.44" y1="0" x2="80.44" y2="104.5"/>
		<line class="st11" x1="88.45" y1="0" x2="88.45" y2="104.5"/>
		<line class="st11" x1="0" y1="72.26" x2="149.48" y2="84.97"/>
		<line class="st11" x1="0" y1="64.74" x2="160.32" y2="74.23"/>
		<line class="st11" x1="0" y1="57.22" x2="169.66" y2="61.46"/>
		<line class="st11" x1="0" y1="49.7" x2="172.5" y2="49.7"/>
		<line class="st11" x1="0" y1="42.18" x2="168.32" y2="39.85"/>
		<line class="st11" x1="0" y1="34.65" x2="159.89" y2="28.96"/>
		<line class="st11" x1="0" y1="27.13" x2="148.73" y2="18.01"/>
	</g>
</g>
<g id="Camada_3" class="st0">
</g>
</svg>
