<?xml version="1.0" encoding="utf-8"?>
<!-- Generator: Adobe Illustrator 25.0.0, SVG Export Plug-In . SVG Version: 6.00 Build 0)  -->
<svg version="1.1" xmlns="http://www.w3.org/2000/svg" xmlns:xlink="http://www.w3.org/1999/xlink" x="0px" y="0px"
	 viewBox="0 0 173 105" style="enable-background:new 0 0 173 105;" xml:space="preserve">
<style type="text/css">
	.st0{display:none;}
	.st1{display:inline;fill:#59778E;}
	.st2{fill:#000000;}
	.st3{fill:none;stroke:#000000;stroke-miterlimit:10;}
	.st4{clip-path:url(#SVGID_2_);}
	.st5{clip-path:url(#SVGID_4_);}
	.st6{fill:none;stroke:#000000;stroke-width:0.5;stroke-miterlimit:10;}
	.st7{fill:#1D1D1B;stroke:#1D1D1B;stroke-width:0.5;stroke-miterlimit:10;}
	.st8{fill:#1D1D1B;}
	.st9{clip-path:url(#SVGID_6_);}
	.st10{clip-path:url(#SVGID_8_);}
	.st11{fill:none;stroke:#000000;stroke-width:0.75;stroke-miterlimit:10;}
	.st12{clip-path:url(#SVGID_10_);}
	.st13{clip-path:url(#SVGID_12_);}
	.st14{display:inline;}
	.st15{clip-path:url(#SVGID_13_);}
	.st16{clip-path:url(#SVGID_19_);}
</style>
<g id="Camada_2" class="st0">
	<rect x="-1711.5" y="-209.5" class="st1" width="2269" height="1089"/>
</g>
<g id="Camada_1">
	<g>
		<defs>
			<path id="SVGID_3_" d="M-77.18,104.5H-203.5V0h126.32c0,0,46.68,32.2,46.68,52.25S-77.18,104.5-77.18,104.5z"/>
		</defs>
		<clipPath id="SVGID_2_">
			<use xlink:href="#SVGID_3_"  style="overflow:visible;"/>
		</clipPath>
		<g class="st4">
			<g>
				<g>
					<line class="st6" x1="-457.84" y1="53.61" x2="12.57" y2="92.85"/>
					<line class="st6" x1="-457.84" y1="53.61" x2="12.57" y2="79.36"/>
					<line class="st6" x1="-457.84" y1="53.61" x2="12.57" y2="63.62"/>
					<line class="st6" x1="-457.84" y1="53.61" x2="12.57" y2="49.22"/>
					<line class="st6" x1="-457.84" y1="53.61" x2="12.57" y2="35.09"/>
					<line class="st6" x1="-457.84" y1="53.61" x2="12.57" y2="21.76"/>
					<line class="st6" x1="-457.84" y1="53.61" x2="12.57" y2="5.49"/>
				</g>
			</g>
		</g>
	</g>
	<g>
		<defs>
			<path id="SVGID_7_" d="M326.37,104.5H200V0h126.37c0,0,46.7,32.2,46.7,52.25S326.37,104.5,326.37,104.5z"/>
		</defs>
		<clipPath id="SVGID_4_">
			<use xlink:href="#SVGID_7_"  style="overflow:visible;"/>
		</clipPath>
		<g class="st5">
			<g>
				<g>
					<line class="st6" x1="112.59" y1="52.25" x2="583.19" y2="91.49"/>
					<line class="st6" x1="112.59" y1="52.25" x2="583.19" y2="78"/>
					<line class="st6" x1="112.59" y1="52.25" x2="583.19" y2="62.27"/>
					<line class="st6" x1="112.59" y1="52.25" x2="583.19" y2="47.87"/>
					<line class="st6" x1="112.59" y1="52.25" x2="583.19" y2="35.71"/>
					<line class="st6" x1="112.59" y1="52.25" x2="583.19" y2="22.09"/>
					<line class="st6" x1="112.59" y1="52.25" x2="583.19" y2="5.97"/>
				</g>
			</g>
		</g>
	</g>
	<g>
		<path class="st3" d="M124.1,0c3.62,2.4,49.4,33.18,49.4,52.14s-45.78,49.74-49.4,52.14H0V0H124.1"/>
		<g>
			<defs>
				<path id="SVGID_11_" d="M124.1,0c3.62,2.4,49.4,33.18,49.4,52.14s-45.78,49.74-49.4,52.14H0V0H124.1"/>
			</defs>
			<clipPath id="SVGID_6_">
				<use xlink:href="#SVGID_11_"  style="overflow:visible;"/>
			</clipPath>
			<g class="st9">
				<g>
					<g>
						
							<rect x="-20.01" y="-150.99" transform="matrix(0.0814 -0.9967 0.9967 0.0814 -92.4581 49.1633)" class="st2" width="0.9" height="451.46"/>
						
							<rect x="-20.01" y="-156.88" transform="matrix(0.0535 -0.9986 0.9986 0.0535 -86.8373 45.2321)" class="st2" width="0.9" height="450.6"/>
						
							<rect x="-20.01" y="-163.97" transform="matrix(0.0208 -0.9998 0.9998 0.0208 -80.1949 40.2311)" class="st2" width="0.9" height="450.06"/>
						
							<rect x="-244.55" y="53.86" transform="matrix(1 -9.765159e-03 9.765159e-03 1 -0.5313 -0.1884)" class="st2" width="449.98" height="0.9"/>
						
							<rect x="-244.67" y="48.17" transform="matrix(0.9994 -0.0351 0.0351 0.9994 -1.7205 -0.6571)" class="st2" width="450.22" height="0.9"/>
						
							<rect x="-244.98" y="41.8" transform="matrix(0.998 -0.0625 0.0625 0.998 -2.6786 -1.1398)" class="st2" width="450.84" height="0.9"/>
						
							<rect x="-245.58" y="34.25" transform="matrix(0.9954 -0.0956 0.0956 0.9954 -3.4083 -1.7115)" class="st2" width="452.04" height="0.9"/>
					</g>
					<g>
						
							<rect x="-110.55" y="-14.32" transform="matrix(0.1211 -0.9926 0.9926 0.1211 50.1379 28.8922)" class="st2" width="303.86" height="0.9"/>
						
							<rect x="-103.58" y="-14.32" transform="matrix(0.0801 -0.9968 0.9968 0.0801 57.712 34.8009)" class="st2" width="302.59" height="0.9"/>
						
							<rect x="-95.8" y="-14.32" transform="matrix(0.0312 -0.9995 0.9995 0.0312 67.23 41.6269)" class="st2" width="301.77" height="0.9"/>
						
							<rect x="60.71" y="-164.69" transform="matrix(1 -9.108366e-03 9.108366e-03 1 0.1289 0.5565)" class="st2" width="0.9" height="301.64"/>
						
							<rect x="67.09" y="-164.88" transform="matrix(0.9987 -0.0514 0.0514 0.9987 0.8013 3.4503)" class="st2" width="0.9" height="302.02"/>
						
							<rect x="74.58" y="-165.45" transform="matrix(0.9949 -0.1006 0.1006 0.9949 1.7753 7.4761)" class="st2" width="0.9" height="303.16"/>
						
							<rect x="81.04" y="-166.23" transform="matrix(0.9898 -0.1424 0.1424 0.9898 2.8062 11.4652)" class="st2" width="0.9" height="304.73"/>
					</g>
				</g>
				<g>
					<polygon class="st2" points="35.64,29.38 87.04,24.48 95.34,84.2 29.67,78.84 					"/>
				</g>
			</g>
		</g>
	</g>
</g>
<g id="Camada_3" class="st0">
</g>
</svg>
