<?xml version="1.0" encoding="utf-8"?>
<!-- Generator: Adobe Illustrator 25.0.0, SVG Export Plug-In . SVG Version: 6.00 Build 0)  -->
<svg version="1.1" xmlns="http://www.w3.org/2000/svg" xmlns:xlink="http://www.w3.org/1999/xlink" x="0px" y="0px"
	 viewBox="0 0 173 105" style="enable-background:new 0 0 173 105;" xml:space="preserve">
<style type="text/css">
	.st0{display:none;}
	.st1{display:inline;fill:#59778E;}
	.st2{fill:#000000;}
	.st3{fill:none;stroke:#000000;stroke-miterlimit:10;}
	.st4{clip-path:url(#SVGID_2_);}
	.st5{clip-path:url(#SVGID_4_);}
	.st6{fill:none;stroke:#000000;stroke-width:0.5;stroke-miterlimit:10;}
	.st7{fill:#1D1D1B;stroke:#1D1D1B;stroke-width:0.5;stroke-miterlimit:10;}
	.st8{fill:#1D1D1B;}
	.st9{clip-path:url(#SVGID_6_);}
	.st10{clip-path:url(#SVGID_8_);}
	.st11{fill:none;stroke:#000000;stroke-width:0.75;stroke-miterlimit:10;}
	.st12{clip-path:url(#SVGID_10_);}
	.st13{clip-path:url(#SVGID_12_);}
	.st14{display:inline;}
	.st15{clip-path:url(#SVGID_13_);}
	.st16{clip-path:url(#SVGID_19_);}
</style>
<g id="Camada_2" class="st0">
	<rect x="-1911.5" y="-209.5" class="st1" width="2269" height="1089"/>
</g>
<g id="Camada_1">
	<g>
		<path class="st2" d="M126.06,1c3.7,2.59,46.01,32.7,46.01,51.25s-42.32,48.66-46.01,51.25H1V1H126.06 M126.37,0H0v104.5h126.37
			c0,0,46.7-32.2,46.7-52.25S126.37,0,126.37,0L126.37,0z"/>
	</g>
	<g>
		<defs>
			<path id="SVGID_7_" d="M126.37,104.5H0V0h126.37c0,0,46.7,32.2,46.7,52.25S126.37,104.5,126.37,104.5z"/>
		</defs>
		<clipPath id="SVGID_2_">
			<use xlink:href="#SVGID_7_"  style="overflow:visible;"/>
		</clipPath>
		<g class="st4">
			<g>
				<g>
					<line class="st6" x1="-87.41" y1="52.25" x2="383.19" y2="91.49"/>
					<line class="st6" x1="-87.41" y1="52.25" x2="383.19" y2="78"/>
					<line class="st6" x1="-87.41" y1="52.25" x2="383.19" y2="62.27"/>
					<line class="st6" x1="-87.41" y1="52.25" x2="383.19" y2="47.87"/>
					<line class="st6" x1="-87.41" y1="52.25" x2="383.19" y2="35.71"/>
					<line class="st6" x1="-87.41" y1="52.25" x2="383.19" y2="22.09"/>
					<line class="st6" x1="-87.41" y1="52.25" x2="383.19" y2="5.97"/>
				</g>
				<g>
					<line class="st6" x1="63.84" y1="-183.82" x2="25.35" y2="138.3"/>
					<line class="st6" x1="63.84" y1="-183.82" x2="38.58" y2="138.3"/>
					<line class="st6" x1="63.84" y1="-183.82" x2="54.01" y2="138.3"/>
					<line class="st6" x1="63.84" y1="-183.82" x2="66.71" y2="138.3"/>
					<line class="st6" x1="63.84" y1="-183.82" x2="80.06" y2="138.3"/>
					<line class="st6" x1="63.84" y1="-183.82" x2="95.73" y2="138.3"/>
					<line class="st6" x1="63.84" y1="-183.82" x2="109.23" y2="138.3"/>
				</g>
			</g>
			<g>
				<polygon class="st2" points="37.1,39.76 94.6,34.27 98.99,67.65 34.31,62.56 				"/>
			</g>
		</g>
	</g>
	<g>
		<g>
			<defs>
				<path id="SVGID_11_" d="M-75.9,0c3.62,2.4,49.4,33.18,49.4,52.14s-45.78,49.74-49.4,52.14H-200V0H-75.9"/>
			</defs>
			<clipPath id="SVGID_4_">
				<use xlink:href="#SVGID_11_"  style="overflow:visible;"/>
			</clipPath>
			<g class="st5">
				<g>
					<g>
						
							<rect x="-220.01" y="-150.99" transform="matrix(0.0814 -0.9967 0.9967 0.0814 -276.1804 -150.1732)" class="st2" width="0.9" height="451.46"/>
						
							<rect x="-220.01" y="-156.88" transform="matrix(0.0535 -0.9986 0.9986 0.0535 -276.1355 -154.4814)" class="st2" width="0.9" height="450.6"/>
						
							<rect x="-220.01" y="-163.97" transform="matrix(0.0208 -0.9998 0.9998 0.0208 -276.0269 -159.7255)" class="st2" width="0.9" height="450.06"/>
						
							<rect x="-444.55" y="53.86" transform="matrix(1 -9.765159e-03 9.765159e-03 1 -0.5409 -2.1414)" class="st2" width="449.98" height="0.9"/>
						
							<rect x="-444.67" y="48.17" transform="matrix(0.9994 -0.0351 0.0351 0.9994 -1.844 -7.6841)" class="st2" width="450.22" height="0.9"/>
						
							<rect x="-444.98" y="41.8" transform="matrix(0.998 -0.0625 0.0625 0.998 -3.0696 -13.6398)" class="st2" width="450.84" height="0.9"/>
						
							<rect x="-445.58" y="34.25" transform="matrix(0.9954 -0.0956 0.0956 0.9954 -4.325 -20.8391)" class="st2" width="452.04" height="0.9"/>
					</g>
				</g>
			</g>
		</g>
	</g>
</g>
<g id="Camada_3" class="st0">
</g>
</svg>
