<?xml version="1.0" encoding="utf-8"?>
<!-- Generator: Adobe Illustrator 25.0.0, SVG Export Plug-In . SVG Version: 6.00 Build 0)  -->
<svg version="1.1" xmlns="http://www.w3.org/2000/svg" xmlns:xlink="http://www.w3.org/1999/xlink" x="0px" y="0px"
	 viewBox="0 0 500 335" style="enable-background:new 0 0 500 335;" xml:space="preserve">
<style type="text/css">
	.st0{display:none;}
	.st1{display:inline;fill:#59778E;}
	.st2{fill:#000000;}
	.st3{fill:none;stroke:#000000;stroke-miterlimit:10;}
	.st4{clip-path:url(#SVGID_2_);}
	.st5{clip-path:url(#SVGID_4_);}
	.st6{fill:none;stroke:#000000;stroke-width:0.5;stroke-miterlimit:10;}
	.st7{fill:#1D1D1B;stroke:#1D1D1B;stroke-width:0.5;stroke-miterlimit:10;}
	.st8{fill:#1D1D1B;}
	.st9{clip-path:url(#SVGID_6_);}
	.st10{clip-path:url(#SVGID_8_);}
	.st11{fill:none;stroke:#000000;stroke-width:0.75;stroke-miterlimit:10;}
	.st12{clip-path:url(#SVGID_10_);}
	.st13{clip-path:url(#SVGID_12_);}
	.st14{display:inline;}
	.st15{clip-path:url(#SVGID_13_);}
	.st16{clip-path:url(#SVGID_19_);}
</style>
<g id="Camada_2" class="st0">
	<rect x="-228" y="-209.5" class="st1" width="2269" height="1089"/>
</g>
<g id="Camada_1">
	<g>
		<path class="st2" d="M498.5,1.09V334H1V1.09H498.5 M499.5,0.09H0V335h499.5V0.09L499.5,0.09z"/>
	</g>
	<g>
		<path class="st2" d="M409.32,182.88c4.01,2.66,54.78,36.8,54.78,57.82s-50.77,55.16-54.78,57.82H271.69V182.88H409.32
			 M409.62,181.88H270.69v117.64h138.93c0,0,55.48-36.25,55.48-58.82S409.62,181.88,409.62,181.88L409.62,181.88z"/>
	</g>
	<g>
		<defs>
			<path id="SVGID_1_" d="M808.79,104.75H683.75V0.25h125.04c0,0,46.21,32.2,46.21,52.25S808.79,104.75,808.79,104.75z"/>
		</defs>
		<clipPath id="SVGID_2_">
			<use xlink:href="#SVGID_1_"  style="overflow:visible;"/>
		</clipPath>
		<g class="st4">
			<g>
				<g>
					<line class="st3" x1="431.98" y1="54.66" x2="897.63" y2="93.9"/>
					<line class="st3" x1="431.98" y1="54.66" x2="897.63" y2="80.41"/>
					<line class="st3" x1="431.98" y1="54.66" x2="897.63" y2="64.68"/>
					<line class="st3" x1="431.98" y1="54.66" x2="897.63" y2="50.28"/>
					<line class="st3" x1="431.98" y1="54.66" x2="897.63" y2="38.12"/>
					<line class="st3" x1="431.98" y1="54.66" x2="897.63" y2="24.5"/>
					<line class="st3" x1="431.98" y1="54.66" x2="897.63" y2="8.38"/>
				</g>
			</g>
		</g>
	</g>
	<g>
		<defs>
			<path id="SVGID_9_" d="M0.49,0.04v334.91h499.02V0.04H0.49z M409.63,299.48H270.7V181.84h138.93c0,0,55.48,36.25,55.48,58.82
				S409.63,299.48,409.63,299.48z"/>
		</defs>
		<clipPath id="SVGID_4_">
			<use xlink:href="#SVGID_9_"  style="overflow:visible;"/>
		</clipPath>
		<g class="st5">
			<g>
				<g>
					<line class="st3" x1="0.5" y1="96.45" x2="499.5" y2="137.2"/>
					<line class="st3" x1="0.5" y1="96.45" x2="499.5" y2="123.19"/>
					<line class="st3" x1="0.5" y1="96.45" x2="499.5" y2="106.85"/>
					<line class="st3" x1="0.5" y1="96.45" x2="499.5" y2="91.9"/>
					<line class="st3" x1="0.5" y1="96.45" x2="499.5" y2="77.23"/>
					<line class="st3" x1="0.5" y1="96.45" x2="499.5" y2="63.38"/>
					<line class="st3" x1="0.5" y1="96.45" x2="499.5" y2="46.49"/>
				</g>
				<g>
					<line class="st3" x1="0.5" y1="245.39" x2="499.5" y2="286.14"/>
					<line class="st3" x1="0.5" y1="245.39" x2="499.5" y2="272.13"/>
					<line class="st3" x1="0.5" y1="245.39" x2="499.5" y2="255.79"/>
					<line class="st3" x1="0.5" y1="245.39" x2="499.5" y2="240.84"/>
					<line class="st3" x1="0.5" y1="245.39" x2="499.5" y2="228.22"/>
					<line class="st3" x1="0.5" y1="245.39" x2="499.5" y2="214.07"/>
					<line class="st3" x1="0.5" y1="245.39" x2="499.5" y2="197.33"/>
				</g>
				<g>
					<line class="st3" x1="160.87" y1="0.25" x2="120.06" y2="334.75"/>
					<line class="st3" x1="160.87" y1="0.25" x2="134.09" y2="334.75"/>
					<line class="st3" x1="160.87" y1="0.25" x2="150.45" y2="334.75"/>
					<line class="st3" x1="160.87" y1="0.25" x2="163.92" y2="334.75"/>
					<line class="st3" x1="160.87" y1="0.25" x2="178.07" y2="334.75"/>
					<line class="st3" x1="160.87" y1="0.25" x2="194.69" y2="334.75"/>
					<line class="st3" x1="160.87" y1="0.25" x2="209.01" y2="334.75"/>
				</g>
				<g>
					<line class="st3" x1="337.99" y1="0.25" x2="297.18" y2="334.75"/>
					<line class="st3" x1="337.99" y1="0.25" x2="311.21" y2="334.75"/>
					<line class="st3" x1="337.99" y1="0.25" x2="327.57" y2="334.75"/>
					<line class="st3" x1="337.99" y1="0.25" x2="341.04" y2="334.75"/>
					<line class="st3" x1="337.99" y1="0.25" x2="355.19" y2="334.75"/>
					<line class="st3" x1="337.99" y1="0.25" x2="371.81" y2="334.75"/>
					<line class="st3" x1="337.99" y1="0.25" x2="386.13" y2="334.75"/>
				</g>
			</g>
			<g>
				<polygon class="st2" points="150.83,80.88 147.48,108.46 176.76,111 172.21,79.09 				"/>
			</g>
			<g>
				<polygon class="st2" points="330.38,63.53 346.59,61.8 356.09,125.54 323.03,122.74 				"/>
			</g>
			<g>
				<polygon class="st2" points="132.52,232.42 193.49,226.72 198.14,261.38 129.56,256.1 				"/>
			</g>
			<g>
				<polygon class="st2" points="311.21,215.47 368.22,210.03 377.42,276.26 304.59,270.31 				"/>
			</g>
		</g>
	</g>
</g>
<g id="Camada_3" class="st0">
</g>
</svg>
