<?xml version="1.0" encoding="utf-8"?>
<!-- Generator: Adobe Illustrator 25.0.0, SVG Export Plug-In . SVG Version: 6.00 Build 0)  -->
<svg version="1.1" xmlns="http://www.w3.org/2000/svg" xmlns:xlink="http://www.w3.org/1999/xlink" x="0px" y="0px"
	 viewBox="0 0 173 105" style="enable-background:new 0 0 173 105;" xml:space="preserve">
<style type="text/css">
	.st0{display:none;}
	.st1{display:inline;fill:#59778E;}
	.st2{fill:#000000;}
	.st3{fill:none;stroke:#000000;stroke-miterlimit:10;}
	.st4{clip-path:url(#SVGID_2_);}
	.st5{fill:none;stroke:#1D1D1B;stroke-miterlimit:10;}
	.st6{fill:#1D1D1B;}
	.st7{clip-path:url(#SVGID_4_);}
	.st8{clip-path:url(#SVGID_6_);}
	.st9{clip-path:url(#SVGID_8_);}
	.st10{clip-path:url(#SVGID_10_);}
	.st11{clip-path:url(#SVGID_12_);}
	.st12{display:inline;}
	.st13{clip-path:url(#SVGID_13_);}
	.st14{clip-path:url(#SVGID_19_);}
</style>
<g id="Camada_2" class="st0">
	<rect x="-1911.5" y="-209.5" class="st1" width="2269" height="1089"/>
</g>
<g id="Camada_1">
	<g>
		<path class="st3" d="M125.96,104.5H0V0h125.96c0,0,46.54,32.2,46.54,52.25S125.96,104.5,125.96,104.5z"/>
		<g>
			<defs>
				<path id="SVGID_1_" d="M125.96,104.5H0V0h125.96c0,0,46.54,32.2,46.54,52.25S125.96,104.5,125.96,104.5z"/>
			</defs>
			<clipPath id="SVGID_2_">
				<use xlink:href="#SVGID_1_"  style="overflow:visible;"/>
			</clipPath>
			<g class="st4">
				<g>
					<path class="st2" d="M55.1,132.81c-7.23-25.02-16.94-49.79-16.94-86.7S65.24-36.62,65.24-85.47
						c0-28.79-11.72-57.75-21.35-84.32l-7.97,0.17c9.61,26.52,21.29,55.41,21.29,84.14c0,48.84-27.08,94.67-27.08,131.58
						s10.83,64.55,16.94,86.7H55.1z"/>
				</g>
				<g>
					<path class="st3" d="M-72.53,29.88c49.81,0,81.18-22.92,146.43-22.92S199.9,35.99,249.21,35.99s83.18-20.82,117.04-20.82"/>
					<path class="st3" d="M-72.53,38.09c49.81,0,81.18-22.92,146.43-22.92S199.9,44.2,249.21,44.2s83.18-20.82,117.04-20.82"/>
				</g>
				<g>
					<path class="st3" d="M-72.53,71.55c49.81,0,81.18,22.92,146.43,22.92S199.9,65.44,249.21,65.44s83.18,20.82,117.04,20.82"/>
					<path class="st3" d="M-72.53,63.34c49.81,0,81.18,22.92,146.43,22.92S199.9,57.23,249.21,57.23s83.18,20.82,117.04,20.82"/>
				</g>
				<g>
					<path class="st2" d="M103.29-168.92c-7.23,25.02-16.94,49.79-16.94,86.7s27.08,82.74,27.08,131.58
						c0,28.74-9.83,57.65-17.92,84.17l-7.94-0.3c8.07-26.44,17.83-55.25,17.83-83.88c0-48.84-27.08-94.67-27.08-131.58
						s10.83-64.55,16.94-86.7H103.29z"/>
				</g>
			</g>
		</g>
	</g>
</g>
<g id="Camada_3" class="st0">
</g>
</svg>
