<?xml version="1.0" encoding="utf-8"?>
<!-- Generator: Adobe Illustrator 25.0.0, SVG Export Plug-In . SVG Version: 6.00 Build 0)  -->
<svg version="1.1" xmlns="http://www.w3.org/2000/svg" xmlns:xlink="http://www.w3.org/1999/xlink" x="0px" y="0px"
	 viewBox="0 0 173 105" style="enable-background:new 0 0 173 105;" xml:space="preserve">
<style type="text/css">
	.st0{display:none;}
	.st1{display:inline;fill:#59778E;}
	.st2{fill:#000000;}
	.st3{fill:none;stroke:#000000;stroke-miterlimit:10;}
	.st4{clip-path:url(#SVGID_2_);}
	.st5{fill:none;stroke:#1D1D1B;stroke-miterlimit:10;}
	.st6{fill:#1D1D1B;}
	.st7{clip-path:url(#SVGID_4_);}
	.st8{clip-path:url(#SVGID_6_);}
	.st9{clip-path:url(#SVGID_8_);}
	.st10{clip-path:url(#SVGID_10_);}
	.st11{clip-path:url(#SVGID_12_);}
	.st12{display:inline;}
	.st13{clip-path:url(#SVGID_13_);}
	.st14{clip-path:url(#SVGID_19_);}
</style>
<g id="Camada_2" class="st0">
	<rect x="-1508" y="-209.5" class="st1" width="2269" height="1089"/>
</g>
<g id="Camada_1">
	<g>
		<g>
			<defs>
				<path id="SVGID_7_" d="M-70.54,104.5H-196.5V0h125.96C-70.54,0-24,32.2-24,52.25S-70.54,104.5-70.54,104.5z"/>
			</defs>
			<clipPath id="SVGID_2_">
				<use xlink:href="#SVGID_7_"  style="overflow:visible;"/>
			</clipPath>
			<g class="st4">
				<g>
					<path class="st3" d="M-468.7,32.23c53.71,0,87.54-24.71,157.9-24.71s135.88,31.3,189.05,31.3S-32.06,16.85,4.46,16.85"/>
					<path class="st3" d="M-468.7,41.08c53.71,0,87.54-24.71,157.9-24.71s135.88,31.3,189.05,31.3S-32.06,25.71,4.46,25.71"/>
				</g>
				<g>
					<path class="st3" d="M-468.7,76.84c53.71,0,87.54,24.71,157.9,24.71s135.88-31.3,189.05-31.3S-32.06,92.69,4.46,92.69"/>
					<path class="st3" d="M-468.7,67.98c53.71,0,87.54,24.71,157.9,24.71s135.88-31.3,189.05-31.3S-32.06,83.84,4.46,83.84"/>
				</g>
			</g>
		</g>
	</g>
	<g>
		<path class="st3" d="M123.18,0c3.59,2.38,49.03,32.94,49.03,51.75s-45.44,49.37-49.03,51.75H0V0H123.18"/>
		<g>
			<defs>
				<path id="SVGID_11_" d="M123.18,0c3.59,2.38,49.03,32.94,49.03,51.75s-45.44,49.37-49.03,51.75H0V0H123.18"/>
			</defs>
			<clipPath id="SVGID_4_">
				<use xlink:href="#SVGID_11_"  style="overflow:visible;"/>
			</clipPath>
			<g class="st7">
				<g>
					<path class="st3" d="M-242.72,33.57c50.69,0,82.63-22.61,149.04-22.61S34.58,39.6,84.76,39.6s84.66-20.54,119.13-20.54"/>
					<path class="st3" d="M-242.72,41.68c50.69,0,82.63-22.61,149.04-22.61S34.58,47.71,84.76,47.71s84.66-20.54,119.13-20.54"/>
				</g>
				<g>
					<path class="st3" d="M-242.72,74.7c50.69,0,82.63,22.61,149.04,22.61S34.58,68.67,84.76,68.67s84.66,20.54,119.13,20.54"/>
					<path class="st3" d="M-242.72,66.59c50.69,0,82.63,22.61,149.04,22.61S34.58,60.56,84.76,60.56S169.42,81.1,203.89,81.1"/>
				</g>
				<g>
					<path class="st2" d="M45.23,135.15c-7.36-24.69-17.25-49.13-17.25-85.56S55.55-32.06,55.55-80.25
						c0-28.42-11.69-56.35-21.49-82.57l-8.21-0.09c9.8,26.22,21.53,54.25,21.53,82.66c0,48.2-27.56,93.42-27.56,129.84
						s11.03,63.7,17.25,85.56H45.23z"/>
				</g>
				<g>
					<path class="st2" d="M94.28-162.61c-7.36,24.69-17.25,49.13-17.25,85.56S104.6,4.6,104.6,52.79
						c0,28.38-10.02,56.94-18.26,83.13l-8.13-0.13c8.23-26.16,18.22-54.67,18.22-83.01c0-48.2-27.56-93.42-27.56-129.84
						s11.03-63.7,17.25-85.56H94.28z"/>
				</g>
			</g>
		</g>
	</g>
</g>
<g id="Camada_3" class="st0">
</g>
</svg>
