<?xml version="1.0" encoding="utf-8"?>
<!-- Generator: Adobe Illustrator 25.0.0, SVG Export Plug-In . SVG Version: 6.00 Build 0)  -->
<svg version="1.1" xmlns="http://www.w3.org/2000/svg" xmlns:xlink="http://www.w3.org/1999/xlink" x="0px" y="0px"
	 viewBox="0 0 173 105" style="enable-background:new 0 0 173 105;" xml:space="preserve">
<style type="text/css">
	.st0{display:none;}
	.st1{display:inline;fill:#59778E;}
	.st2{fill:#000000;}
	.st3{fill:none;stroke:#000000;stroke-miterlimit:10;}
	.st4{clip-path:url(#SVGID_2_);}
	.st5{fill:none;stroke:#1D1D1B;stroke-miterlimit:10;}
	.st6{fill:#1D1D1B;}
	.st7{clip-path:url(#SVGID_4_);}
	.st8{clip-path:url(#SVGID_6_);}
	.st9{clip-path:url(#SVGID_8_);}
	.st10{clip-path:url(#SVGID_10_);}
	.st11{clip-path:url(#SVGID_12_);}
	.st12{display:inline;}
	.st13{clip-path:url(#SVGID_13_);}
	.st14{clip-path:url(#SVGID_19_);}
</style>
<g id="Camada_2" class="st0">
	<rect x="-911.5" y="-209.5" class="st1" width="2269" height="1089"/>
</g>
<g id="Camada_1">
	<g>
		<path class="st3" d="M125.96,104.5H0V0h125.96c0,0,46.54,32.2,46.54,52.25S125.96,104.5,125.96,104.5z"/>
		<g>
			<defs>
				<path id="SVGID_3_" d="M125.96,104.5H0V0h125.96c0,0,46.54,32.2,46.54,52.25S125.96,104.5,125.96,104.5z"/>
			</defs>
			<clipPath id="SVGID_2_">
				<use xlink:href="#SVGID_3_"  style="overflow:visible;"/>
			</clipPath>
			<g class="st4">
				<g>
					<path class="st3" d="M-254.88,32.23c53.71,0,87.54-24.71,157.9-24.71S38.9,38.82,92.07,38.82s89.69-21.97,126.21-21.97"/>
					<path class="st3" d="M-254.88,41.08c53.71,0,87.54-24.71,157.9-24.71S38.9,47.67,92.07,47.67s89.69-21.97,126.21-21.97"/>
				</g>
				<g>
					<path class="st3" d="M-254.88,76.84c53.71,0,87.54,24.71,157.9,24.71S38.9,70.25,92.07,70.25s89.69,22.45,126.21,22.45"/>
					<path class="st3" d="M-254.88,67.98c53.71,0,87.54,24.71,157.9,24.71S38.9,61.39,92.07,61.39s89.69,22.45,126.21,22.45"/>
				</g>
				<g>
					<path class="st2" d="M50.19,287.86c-7.8-26.98-18.27-53.69-18.27-93.49s29.2-89.22,29.2-141.89
						c0-31.06-12.39-61.57-22.77-90.23l-8.7-0.1C40.04-9.2,52.46,21.43,52.46,52.48c0,52.67-29.2,102.08-29.2,141.89
						s11.68,69.6,18.27,93.49H50.19z"/>
				</g>
				<g>
					<path class="st2" d="M102.15-37.51c-7.8,26.98-18.27,53.69-18.27,93.49s29.2,89.22,29.2,141.89
						c0,31.02-10.62,62.22-19.35,90.84l-8.62-0.14c8.72-28.59,19.3-59.74,19.3-90.7c0-52.67-29.2-102.08-29.2-141.89
						S86.9-13.63,93.49-37.51H102.15z"/>
				</g>
			</g>
		</g>
	</g>
	<g>
		<g>
			<defs>
				<path id="SVGID_5_" d="M325.96,104.5H200V0h125.96c0,0,46.54,32.2,46.54,52.25S325.96,104.5,325.96,104.5z"/>
			</defs>
			<clipPath id="SVGID_4_">
				<use xlink:href="#SVGID_5_"  style="overflow:visible;"/>
			</clipPath>
			<g class="st7">
			</g>
		</g>
	</g>
	<g>
		<g>
			<defs>
				<path id="SVGID_7_" d="M525.96,104.5H400V0h125.96c0,0,46.54,32.2,46.54,52.25S525.96,104.5,525.96,104.5z"/>
			</defs>
			<clipPath id="SVGID_6_">
				<use xlink:href="#SVGID_7_"  style="overflow:visible;"/>
			</clipPath>
			<g class="st8">
				<g>
					<path class="st3" d="M127.8,32.23c53.71,0,87.54-24.71,157.9-24.71s135.88,31.3,189.05,31.3c53.17,0,89.69-21.97,126.21-21.97"
						/>
					<path class="st3" d="M127.8,41.08c53.71,0,87.54-24.71,157.9-24.71s135.88,31.3,189.05,31.3c53.17,0,89.69-21.97,126.21-21.97"
						/>
				</g>
				<g>
					<path class="st3" d="M127.8,76.84c53.71,0,87.54,24.71,157.9,24.71s135.88-31.3,189.05-31.3c53.17,0,89.69,22.45,126.21,22.45"
						/>
					<path class="st3" d="M127.8,67.98c53.71,0,87.54,24.71,157.9,24.71s135.88-31.3,189.05-31.3c53.17,0,89.69,22.45,126.21,22.45"
						/>
				</g>
			</g>
		</g>
	</g>
</g>
<g id="Camada_3" class="st0">
</g>
</svg>
