<?xml version="1.0" encoding="utf-8"?>
<!-- Generator: Adobe Illustrator 25.0.0, SVG Export Plug-In . SVG Version: 6.00 Build 0)  -->
<svg version="1.1" xmlns="http://www.w3.org/2000/svg" xmlns:xlink="http://www.w3.org/1999/xlink" x="0px" y="0px"
	 viewBox="0 0 173 105" style="enable-background:new 0 0 173 105;" xml:space="preserve">
<style type="text/css">
	.st0{display:none;}
	.st1{display:inline;fill:#59778E;}
	.st2{fill:#000000;}
	.st3{fill:none;stroke:#000000;stroke-miterlimit:10;}
	.st4{clip-path:url(#SVGID_2_);}
	.st5{fill:none;stroke:#1D1D1B;stroke-miterlimit:10;}
	.st6{fill:#1D1D1B;}
	.st7{clip-path:url(#SVGID_4_);}
	.st8{clip-path:url(#SVGID_6_);}
	.st9{clip-path:url(#SVGID_8_);}
	.st10{clip-path:url(#SVGID_10_);}
	.st11{clip-path:url(#SVGID_12_);}
	.st12{display:inline;}
	.st13{clip-path:url(#SVGID_13_);}
	.st14{clip-path:url(#SVGID_19_);}
</style>
<g id="Camada_2" class="st0">
	<rect x="-1111.5" y="-209.5" class="st1" width="2269" height="1089"/>
</g>
<g id="Camada_1">
	<g>
		<g>
			<defs>
				<path id="SVGID_3_" d="M-74.04,104.5H-200V0h125.96c0,0,46.54,32.2,46.54,52.25S-74.04,104.5-74.04,104.5z"/>
			</defs>
			<clipPath id="SVGID_2_">
				<use xlink:href="#SVGID_3_"  style="overflow:visible;"/>
			</clipPath>
			<g class="st4">
				<g>
					<path class="st3" d="M-454.88,32.23c53.71,0,87.54-24.71,157.9-24.71s135.88,31.3,189.05,31.3s89.69-21.97,126.21-21.97"/>
					<path class="st3" d="M-454.88,41.08c53.71,0,87.54-24.71,157.9-24.71s135.88,31.3,189.05,31.3s89.69-21.97,126.21-21.97"/>
				</g>
				<g>
					<path class="st3" d="M-454.88,76.84c53.71,0,87.54,24.71,157.9,24.71s135.88-31.3,189.05-31.3s89.69,22.45,126.21,22.45"/>
					<path class="st3" d="M-454.88,67.98c53.71,0,87.54,24.71,157.9,24.71s135.88-31.3,189.05-31.3s89.69,22.45,126.21,22.45"/>
				</g>
			</g>
		</g>
	</g>
	<g>
		<path class="st3" d="M125.96,104.5H0V0h125.96c0,0,46.54,32.2,46.54,52.25S125.96,104.5,125.96,104.5z"/>
		<g>
			<defs>
				<path id="SVGID_5_" d="M125.96,104.5H0V0h125.96c0,0,46.54,32.2,46.54,52.25S125.96,104.5,125.96,104.5z"/>
			</defs>
			<clipPath id="SVGID_4_">
				<use xlink:href="#SVGID_5_"  style="overflow:visible;"/>
			</clipPath>
			<g class="st7">
				<g>
					<path class="st2" d="M51.44,129.15c-6.75-23.34-15.81-46.45-15.81-80.88S60.89-28.91,60.89-74.47
						c0-26.86-10.94-53.87-19.92-78.65l-7.43,0.16c8.97,24.74,19.86,51.69,19.86,78.49c0,45.56-25.26,88.31-25.26,122.74
						s10.11,60.21,15.81,80.88H51.44z"/>
				</g>
				<g>
					<path class="st3" d="M0,33.13c22.06,0,35.96-21.38,64.87-21.38s55.82,27.08,77.66,27.08s36.85-19.42,51.85-19.42"/>
					<path class="st3" d="M0,40.79c22.06,0,35.96-21.38,64.87-21.38s55.82,27.08,77.66,27.08s36.85-19.42,51.85-19.42"/>
				</g>
				<g>
					<path class="st3" d="M0,72.01c22.06,0,35.96,21.38,64.87,21.38s55.82-27.08,77.66-27.08s36.85,19.42,51.85,19.42"/>
					<path class="st3" d="M0,64.34c22.06,0,35.96,21.38,64.87,21.38s55.82-27.08,77.66-27.08s36.85,19.42,51.85,19.42"/>
				</g>
				<g>
					<path class="st2" d="M96.39-152.32c-6.75,23.34-15.81,46.45-15.81,80.88S105.85,5.74,105.85,51.3
						c0,26.81-9.17,53.78-16.72,78.52l-7.41-0.28c7.53-24.67,16.63-51.54,16.63-78.25c0-45.56-25.26-88.31-25.26-122.74
						s10.11-60.21,15.81-80.88H96.39z"/>
				</g>
				<path class="st6" d="M196.28,129.15c-6.75-23.34-15.81-46.45-15.81-80.88s25.26-77.18,25.26-122.74
					c0-26.87-10.72-53.27-19.7-78.05l-7.52-0.08c8.98,24.78,19.73,51.28,19.73,78.14c0,45.56-25.26,88.31-25.26,122.74
					s10.11,60.21,15.81,80.88H196.28z"/>
			</g>
		</g>
	</g>
	<g>
		<g>
			<defs>
				<path id="SVGID_7_" d="M325.96,104.5H200V0h125.96c0,0,46.54,32.2,46.54,52.25S325.96,104.5,325.96,104.5z"/>
			</defs>
			<clipPath id="SVGID_6_">
				<use xlink:href="#SVGID_7_"  style="overflow:visible;"/>
			</clipPath>
			<g class="st8">
				<g>
					<path class="st3" d="M-72.2,32.23c53.71,0,87.54-24.71,157.9-24.71s135.88,31.3,189.05,31.3s89.69-21.97,126.21-21.97"/>
					<path class="st3" d="M-72.2,41.08c53.71,0,87.54-24.71,157.9-24.71s135.88,31.3,189.05,31.3s89.69-21.97,126.21-21.97"/>
				</g>
				<g>
					<path class="st3" d="M-72.2,76.84c53.71,0,87.54,24.71,157.9,24.71s135.88-31.3,189.05-31.3s89.69,22.45,126.21,22.45"/>
					<path class="st3" d="M-72.2,67.98c53.71,0,87.54,24.71,157.9,24.71s135.88-31.3,189.05-31.3s89.69,22.45,126.21,22.45"/>
				</g>
			</g>
		</g>
	</g>
	<g>
		<g>
			<defs>
				<path id="SVGID_11_" d="M519.68,0c3.59,2.38,49.03,32.94,49.03,51.75s-45.44,49.37-49.03,51.75H396.5V0H519.68"/>
			</defs>
			<clipPath id="SVGID_8_">
				<use xlink:href="#SVGID_11_"  style="overflow:visible;"/>
			</clipPath>
			<g class="st9">
				<g>
					<path class="st3" d="M153.78,33.57c50.69,0,82.63-22.61,149.04-22.61S431.08,39.6,481.26,39.6s84.66-20.54,119.13-20.54"/>
					<path class="st3" d="M153.78,41.68c50.69,0,82.63-22.61,149.04-22.61s128.26,28.64,178.44,28.64s84.66-20.54,119.13-20.54"/>
				</g>
				<g>
					<path class="st3" d="M153.78,74.7c50.69,0,82.63,22.61,149.04,22.61s128.26-28.64,178.44-28.64s84.66,20.54,119.13,20.54"/>
					<path class="st3" d="M153.78,66.59c50.69,0,82.63,22.61,149.04,22.61s128.26-28.64,178.44-28.64S565.92,81.1,600.39,81.1"/>
				</g>
			</g>
		</g>
	</g>
</g>
<g id="Camada_3" class="st0">
</g>
</svg>
