<?xml version="1.0" encoding="utf-8"?>
<!-- Generator: Adobe Illustrator 25.0.0, SVG Export Plug-In . SVG Version: 6.00 Build 0)  -->
<svg version="1.1" xmlns="http://www.w3.org/2000/svg" xmlns:xlink="http://www.w3.org/1999/xlink" x="0px" y="0px"
	 viewBox="0 0 500 335" style="enable-background:new 0 0 500 335;" xml:space="preserve">
<style type="text/css">
	.st0{display:none;}
	.st1{display:inline;fill:#59778E;}
	.st2{fill:#000000;}
	.st3{fill:none;stroke:#000000;stroke-miterlimit:10;}
	.st4{clip-path:url(#SVGID_2_);}
	.st5{fill:none;stroke:#1D1D1B;stroke-miterlimit:10;}
	.st6{fill:#1D1D1B;}
	.st7{clip-path:url(#SVGID_4_);}
	.st8{clip-path:url(#SVGID_6_);}
	.st9{clip-path:url(#SVGID_8_);}
	.st10{clip-path:url(#SVGID_10_);}
	.st11{clip-path:url(#SVGID_12_);}
	.st12{display:inline;}
	.st13{clip-path:url(#SVGID_13_);}
	.st14{clip-path:url(#SVGID_19_);}
</style>
<g id="Camada_2" class="st0">
	<rect x="-228" y="-209.5" class="st1" width="2269" height="1089"/>
</g>
<g id="Camada_1">
	<g>
		<path class="st2" d="M498.5,1.09V334H1V1.09H498.5 M499.5,0.09H0V335h499.5V0.09L499.5,0.09z"/>
	</g>
	<g>
		<path class="st2" d="M409.32,182.88c4.01,2.66,54.78,36.8,54.78,57.82s-50.77,55.16-54.78,57.82H271.69V182.88H409.32
			 M409.62,181.88H270.69v117.64h138.93c0,0,55.48-36.25,55.48-58.82S409.62,181.88,409.62,181.88L409.62,181.88z"/>
	</g>
	<g>
		<g>
			<defs>
				<path id="SVGID_3_" d="M809.46,104.5H683.5V0h125.96c0,0,46.54,32.2,46.54,52.25S809.46,104.5,809.46,104.5z"/>
			</defs>
			<clipPath id="SVGID_2_">
				<use xlink:href="#SVGID_3_"  style="overflow:visible;"/>
			</clipPath>
			<g class="st4">
				<g>
					<path class="st3" d="M428.62,32.23c53.71,0,87.54-24.71,157.9-24.71s135.88,31.3,189.05,31.3s89.69-21.97,126.21-21.97"/>
					<path class="st3" d="M428.62,41.08c53.71,0,87.54-24.71,157.9-24.71s135.88,31.3,189.05,31.3s89.69-21.97,126.21-21.97"/>
				</g>
				<g>
					<path class="st5" d="M428.62,176.86c53.71,0,87.54-24.71,157.9-24.71s135.88,31.3,189.05,31.3S865.26,161,901.79,161"/>
					<path class="st5" d="M428.62,185.72c53.71,0,87.54-24.71,157.9-24.71s135.88,31.3,189.05,31.3s89.69-22.45,126.21-22.45"/>
				</g>
				<g>
					<path class="st3" d="M428.62,76.84c53.71,0,87.54,24.71,157.9,24.71s135.88-31.3,189.05-31.3s89.69,22.45,126.21,22.45"/>
					<path class="st3" d="M428.62,67.98c53.71,0,87.54,24.71,157.9,24.71s135.88-31.3,189.05-31.3s89.69,22.45,126.21,22.45"/>
				</g>
				<g>
					<path class="st5" d="M428.62,221.8c53.71,0,87.54,24.71,157.9,24.71s135.88-31.3,189.05-31.3s89.69,22.45,126.21,22.45"/>
					<path class="st5" d="M428.62,212.94c53.71,0,87.54,24.71,157.9,24.71s135.88-31.3,189.05-31.3s89.69,22.45,126.21,22.45"/>
				</g>
			</g>
		</g>
	</g>
	<g>
		<defs>
			<path id="SVGID_9_" d="M0.49,0.04v334.91h499.02V0.04H0.49z M409.63,299.48H270.7V181.84h138.93c0,0,55.48,36.25,55.48,58.82
				S409.63,299.48,409.63,299.48z"/>
		</defs>
		<clipPath id="SVGID_4_">
			<use xlink:href="#SVGID_9_"  style="overflow:visible;"/>
		</clipPath>
		<g class="st7">
			<g>
				<path class="st3" d="M0.5,72.51c56.64,0,92.32-25.27,166.52-25.27s143.3,32,199.37,32s94.59-22.46,133.1-22.46"/>
				<path class="st3" d="M0.5,81.56c56.64,0,92.32-25.27,166.52-25.27s143.3,32,199.37,32s94.59-22.46,133.1-22.46"/>
			</g>
			<g>
				<path class="st2" d="M145.65,333.88c-8.22-27.58-19.27-54.9-19.27-95.59s30.8-91.22,30.8-145.07
					c0-31.74-13.33-63.67-24.28-92.96l-9.06,0.19c10.93,29.24,24.21,61.1,24.21,92.77c0,53.85-30.8,104.38-30.8,145.07
					s12.32,71.17,19.27,95.59H145.65z"/>
			</g>
			<g>
				<path class="st3" d="M0.5,220.39c56.64,0,92.32-25.27,166.52-25.27s143.3,32,199.37,32s94.59-22.95,133.1-22.95"/>
				<path class="st3" d="M0.5,229.44c56.64,0,92.32-25.27,166.52-25.27s143.3,32,199.37,32s94.59-22.95,133.1-22.95"/>
			</g>
			<g>
				<path class="st3" d="M0.5,118.12c56.64,0,92.32,25.27,166.52,25.27s143.3-32,199.37-32s94.59,22.95,133.1,22.95"/>
				<path class="st3" d="M0.5,109.07c56.64,0,92.32,25.27,166.52,25.27s143.3-32,199.37-32s94.59,22.95,133.1,22.95"/>
			</g>
			<g>
				<path class="st3" d="M0.5,266.34c56.64,0,92.32,25.27,166.52,25.27s143.3-32,199.37-32s94.59,22.95,133.1,22.95"/>
				<path class="st3" d="M0.5,257.28c56.64,0,92.32,25.27,166.52,25.27s143.3-32,199.37-32s94.59,22.95,133.1,22.95"/>
			</g>
			<g>
				<path class="st2" d="M200.45,1.2c-8.22,27.58-19.27,54.9-19.27,95.59s30.8,91.22,30.8,145.07c0,31.69-11.18,63.56-20.38,92.81
					l-9.03-0.33c9.18-29.16,20.28-60.91,20.28-92.48c0-53.85-30.8-104.38-30.8-145.07s12.32-71.17,19.27-95.59H200.45z"/>
			</g>
			<g>
				<path class="st2" d="M322.23,333.88c-8.22-27.58-19.27-54.9-19.27-95.59s30.8-91.22,30.8-145.07
					c0-31.75-13.07-62.96-24.02-92.25l-9.17-0.1c10.95,29.29,24.05,60.61,24.05,92.35c0,53.85-30.8,104.38-30.8,145.07
					s12.32,71.17,19.27,95.59H322.23z"/>
			</g>
			<g>
				<path class="st2" d="M377.03,1.2c-8.22,27.58-19.27,54.9-19.27,95.59s30.8,91.22,30.8,145.07c0,31.71-11.2,63.62-20.4,92.88
					l-9.09-0.14c9.2-29.23,20.36-61.08,20.36-92.74c0-53.85-30.8-104.38-30.8-145.07s12.32-71.17,19.27-95.59H377.03z"/>
			</g>
		</g>
	</g>
</g>
<g id="Camada_3" class="st0">
</g>
</svg>
