<?xml version="1.0" encoding="utf-8"?>
<!-- Generator: Adobe Illustrator 25.0.0, SVG Export Plug-In . SVG Version: 6.00 Build 0)  -->
<svg version="1.1" xmlns="http://www.w3.org/2000/svg" xmlns:xlink="http://www.w3.org/1999/xlink" x="0px" y="0px"
	 viewBox="0 0 173 105" style="enable-background:new 0 0 173 105;" xml:space="preserve">
<style type="text/css">
	.st0{display:none;}
	.st1{display:inline;fill:#59778E;}
	.st2{fill:#000000;}
	.st3{fill:none;stroke:#000000;stroke-miterlimit:10;}
	.st4{clip-path:url(#SVGID_2_);}
	.st5{display:inline;}
	.st6{clip-path:url(#SVGID_3_);}
	.st7{clip-path:url(#SVGID_5_);}
</style>
<g id="Camada_2" class="st0">
	<rect x="-1111.5" y="-209.5" class="st1" width="2269" height="1089"/>
</g>
<g id="Camada_1">
	<g>
		<path class="st3" d="M124.1,0c3.62,2.4,49.4,33.18,49.4,52.14s-45.78,49.74-49.4,52.14H0V0H124.1"/>
	</g>
	<g>
		<path class="st2" d="M75.81,40.7c-5.07,0-10.07,3.94-10.07,3.94s0.21-5.94,0.21-10.57C65.95,25.82,54.99,17,53.86,17
			c-1.13,0-12.09,8.82-12.09,17.07c0,4.63,0.21,10.57,0.21,10.57s-5-3.94-10.07-3.94s-13.07,4.56-13.07,13.07
			c0,12.26,8,15.76,8,15.76s1.88-8.63,10.76-8.63c6,0,8.13,7,8.13,8.5c0,1.5,0.75,7.63,0.13,8.25c-0.63,0.63-6.38,8.13-6.38,9.38
			c0,1.25,0,5.13,0,5.13h14.38h14.38c0,0,0-3.88,0-5.13c0-1.25-5.53-8.54-6.38-9.38s0.13-6.91,0.13-8.25c0-2.13,2.13-8.5,8.13-8.5
			c8.88,0,10.76,8.63,10.76,8.63s8-3.5,8-15.76C88.88,45.27,80.88,40.7,75.81,40.7z"/>
	</g>
</g>
<g id="Camada_3" class="st0">
</g>
</svg>
