<?xml version="1.0" encoding="utf-8"?>
<!-- Generator: Adobe Illustrator 25.0.0, SVG Export Plug-In . SVG Version: 6.00 Build 0)  -->
<svg version="1.1" xmlns="http://www.w3.org/2000/svg" xmlns:xlink="http://www.w3.org/1999/xlink" x="0px" y="0px"
	 viewBox="0 0 173 105" style="enable-background:new 0 0 173 105;" xml:space="preserve">
<style type="text/css">
	.st0{display:none;}
	.st1{display:inline;fill:#59778E;}
	.st2{fill:#000000;}
	.st3{fill:none;stroke:#000000;stroke-miterlimit:10;}
	.st4{clip-path:url(#SVGID_2_);}
	.st5{display:inline;}
	.st6{clip-path:url(#SVGID_3_);}
	.st7{clip-path:url(#SVGID_5_);}
</style>
<g id="Camada_2" class="st0">
	<rect x="-911.5" y="-209.5" class="st1" width="2269" height="1089"/>
</g>
<g id="Camada_1">
	<g>
		<g>
			<path class="st2" d="M124.91,1c3.69,2.64,45.59,33.02,45.59,51.75s-41.9,49.11-45.59,51.75H1V1H124.91 M125.23,0H0v105.5h125.23
				c0,0,46.27-32.51,46.27-52.75S125.23,0,125.23,0L125.23,0z"/>
		</g>
		<g>
			<polygon class="st2" points="106.14,46.14 67.72,46.14 67.72,13.52 59.45,13.52 59.45,46.14 21.03,46.14 21.03,54.74 
				59.45,54.74 59.45,87.35 67.72,87.35 67.72,54.74 106.14,54.74 			"/>
		</g>
	</g>
</g>
<g id="Camada_3" class="st0">
</g>
</svg>
