<?xml version="1.0" encoding="utf-8"?>
<!-- Generator: Adobe Illustrator 25.0.0, SVG Export Plug-In . SVG Version: 6.00 Build 0)  -->
<svg version="1.1" xmlns="http://www.w3.org/2000/svg" xmlns:xlink="http://www.w3.org/1999/xlink" x="0px" y="0px"
	 viewBox="0 0 173 105" style="enable-background:new 0 0 173 105;" xml:space="preserve">
<style type="text/css">
	.st0{display:none;}
	.st1{display:inline;fill:#59778E;}
	.st2{fill:#000000;}
	.st3{fill:none;stroke:#000000;stroke-miterlimit:10;}
	.st4{clip-path:url(#SVGID_2_);}
	.st5{display:inline;}
	.st6{clip-path:url(#SVGID_3_);}
	.st7{clip-path:url(#SVGID_5_);}
</style>
<g id="Camada_2" class="st0">
	<rect x="-1311.5" y="-209.5" class="st1" width="2269" height="1089"/>
</g>
<g id="Camada_1">
	<g>
		<path class="st3" d="M126.69,104.5H0V0h126.69c0,0,46.81,32.2,46.81,52.25S126.69,104.5,126.69,104.5z"/>
	</g>
	<g>
		<path class="st2" d="M104.55,14.41V84.8H25.38V14.41H104.55 M105.55,13.41H24.38V85.8h81.17V13.41L105.55,13.41z"/>
	</g>
	<g>
		<defs>
			<rect id="SVGID_1_" x="24.38" y="13.41" width="81.17" height="72.39"/>
		</defs>
		<clipPath id="SVGID_2_">
			<use xlink:href="#SVGID_1_"  style="overflow:visible;"/>
		</clipPath>
		<g class="st4">
			<polygon class="st2" points="114.71,87.2 71.31,49.34 113.15,14.19 107.81,7.63 64.86,43.71 20.71,5.2 15.26,11.67 58.31,49.22 
				12.34,87.83 17.67,94.4 64.76,54.84 109.26,93.66 			"/>
		</g>
	</g>
</g>
<g id="Camada_3" class="st0">
</g>
</svg>
