<?xml version="1.0" encoding="utf-8"?>
<!-- Generator: Adobe Illustrator 25.0.0, SVG Export Plug-In . SVG Version: 6.00 Build 0)  -->
<svg version="1.1" xmlns="http://www.w3.org/2000/svg" xmlns:xlink="http://www.w3.org/1999/xlink" x="0px" y="0px"
	 viewBox="0 0 500 335" style="enable-background:new 0 0 500 335;" xml:space="preserve">
<style type="text/css">
	.st0{display:none;}
	.st1{display:inline;fill:#59778E;}
	.st2{fill:#000000;}
	.st3{fill:none;stroke:#000000;stroke-miterlimit:10;}
	.st4{clip-path:url(#SVGID_2_);}
	.st5{display:inline;}
	.st6{clip-path:url(#SVGID_3_);}
	.st7{clip-path:url(#SVGID_5_);}
</style>
<g id="Camada_2" class="st0">
	<rect x="-228" y="-209.5" class="st1" width="2269" height="1089"/>
</g>
<g id="Camada_1">
	<g>
		<path class="st2" d="M498.5,1.09V334H1V1.09H498.5 M499.5,0.09H0V335h499.5V0.09L499.5,0.09z"/>
	</g>
	<g>
		<path class="st2" d="M409.32,182.88c4.01,2.66,54.78,36.8,54.78,57.82s-50.77,55.16-54.78,57.82H271.69V182.88H409.32
			 M409.62,181.88H270.69v117.64h138.93c0,0,55.48-36.25,55.48-58.82S409.62,181.88,409.62,181.88L409.62,181.88z"/>
	</g>
	<g>
		<g>
			<path class="st2" d="M185.02,227.14c-5.62,0-11.16,4.37-11.16,4.37s0.23-6.59,0.23-11.72c0-9.15-12.16-18.93-13.4-18.93
				s-13.4,9.78-13.4,18.93c0,5.13,0.23,11.72,0.23,11.72s-5.55-4.37-11.16-4.37s-14.49,5.06-14.49,14.49
				c0,13.59,8.88,17.48,8.88,17.48s2.08-9.57,11.93-9.57c6.66,0,9.01,7.77,9.01,9.43c0,1.67,0.83,8.46,0.14,9.15
				c-0.69,0.69-7.07,9.01-7.07,10.4s0,5.69,0,5.69h15.95h15.95c0,0,0-4.3,0-5.69s-6.14-9.47-7.07-10.4
				c-0.94-0.94,0.14-7.67,0.14-9.15c0-2.36,2.36-9.43,9.02-9.43c9.85,0,11.93,9.57,11.93,9.57s8.88-3.88,8.88-17.48
				C199.52,232.2,190.64,227.14,185.02,227.14z"/>
		</g>
		<g>
			<path class="st2" d="M185.02,77.07c-5.62,0-11.16,4.37-11.16,4.37s0.23-6.59,0.23-11.72c0-9.15-12.16-18.93-13.4-18.93
				s-13.4,9.78-13.4,18.93c0,5.13,0.23,11.72,0.23,11.72s-5.55-4.37-11.16-4.37s-14.49,5.06-14.49,14.49
				c0,13.59,8.88,17.48,8.88,17.48s2.08-9.57,11.93-9.57c6.66,0,9.01,7.77,9.01,9.43c0,1.67,0.83,8.46,0.14,9.15
				c-0.69,0.69-7.07,9.01-7.07,10.4c0,1.39,0,5.69,0,5.69h15.95h15.95c0,0,0-4.3,0-5.69c0-1.39-6.14-9.47-7.07-10.4
				s0.14-7.67,0.14-9.15c0-2.36,2.36-9.43,9.02-9.43c9.85,0,11.93,9.57,11.93,9.57s8.88-3.88,8.88-17.48
				C199.52,82.14,190.64,77.07,185.02,77.07z"/>
		</g>
		<g>
			<path class="st2" d="M363.66,77.07c-5.62,0-11.16,4.37-11.16,4.37s0.23-6.59,0.23-11.72c0-9.15-12.16-18.93-13.4-18.93
				c-1.25,0-13.4,9.78-13.4,18.93c0,5.13,0.23,11.72,0.23,11.72s-5.55-4.37-11.16-4.37s-14.49,5.06-14.49,14.49
				c0,13.59,8.88,17.48,8.88,17.48s2.08-9.57,11.93-9.57c6.66,0,9.01,7.77,9.01,9.43c0,1.67,0.83,8.46,0.14,9.15
				c-0.69,0.69-7.07,9.01-7.07,10.4c0,1.39,0,5.69,0,5.69h15.95h15.95c0,0,0-4.3,0-5.69c0-1.39-6.14-9.47-7.07-10.4
				c-0.94-0.94,0.14-7.67,0.14-9.15c0-2.36,2.36-9.43,9.02-9.43c9.85,0,11.93,9.57,11.93,9.57s8.88-3.88,8.88-17.48
				C378.15,82.14,369.28,77.07,363.66,77.07z"/>
		</g>
	</g>
</g>
<g id="Camada_3" class="st0">
</g>
</svg>
