<?xml version="1.0" encoding="utf-8"?>
<!-- Generator: Adobe Illustrator 25.0.0, SVG Export Plug-In . SVG Version: 6.00 Build 0)  -->
<svg version="1.1" id="Camada_1" xmlns="http://www.w3.org/2000/svg" xmlns:xlink="http://www.w3.org/1999/xlink" x="0px" y="0px"
	 viewBox="0 0 173 105" style="enable-background:new 0 0 173 105;" xml:space="preserve">
<style type="text/css">
	.st0{fill:#000000;}
	.st1{display:none;}
</style>
<g id="Camada_1_1_">
	<g>
		<g>
			<path class="st0" d="M125.83,104.5H0V0h125.83l0.21,0.14c1.9,1.3,46.46,32.16,46.46,52.11s-44.57,50.8-46.46,52.11L125.83,104.5z
				 M1.65,102.83h123.67c3.35-2.34,45.53-32.18,45.53-50.58S128.67,4.01,125.32,1.67H1.65V102.83z"/>
		</g>
		<g>
			<path class="st0" d="M95.68,85.63h-61.6V21.57h61.6V85.63z M35.73,83.95h58.3V23.24h-58.3V83.95z"/>
		</g>
		<g>
			<polygon class="st0" points="94.85,47.69 70.52,47.69 70.52,22.24 59.24,22.24 59.24,47.69 34.9,47.69 34.9,59.5 59.24,59.5 
				59.24,84.95 70.52,84.95 70.52,59.5 94.85,59.5 			"/>
		</g>
	</g>
</g>
<g id="Camada_3" class="st1">
</g>
</svg>
