<?xml version="1.0" encoding="utf-8"?>
<!-- Generator: Adobe Illustrator 25.0.0, SVG Export Plug-In . SVG Version: 6.00 Build 0)  -->
<svg version="1.1" id="Camada_1" xmlns="http://www.w3.org/2000/svg" xmlns:xlink="http://www.w3.org/1999/xlink" x="0px" y="0px"
	 viewBox="0 0 500 335" style="enable-background:new 0 0 500 335;" xml:space="preserve">
<style type="text/css">
	.st0{fill:#000000;}
	.st1{display:none;}
</style>
<g id="Camada_1_1_">
	<g>
		<path class="st0" d="M498.5,1.09V334H1V1.09H498.5 M499.5,0.09H0V335h499.5V0.09L499.5,0.09z"/>
	</g>
	<g>
		<path class="st0" d="M409.32,182.88c4.01,2.66,54.78,36.8,54.78,57.82s-50.77,55.16-54.78,57.82H271.69V182.88H409.32
			 M409.62,181.88H270.69v117.64h138.93c0,0,55.48-36.25,55.48-58.82S409.62,181.88,409.62,181.88L409.62,181.88z"/>
	</g>
	<g>
		<path class="st0" d="M221.69,138.2H105.45V47.39h116.24V138.2z M106.45,137.2h114.24V48.39H106.45V137.2z"/>
		<rect x="156.82" y="47.89" class="st0" width="13.51" height="89.81"/>
		<rect x="105.95" y="86.24" class="st0" width="115.24" height="13.11"/>
	</g>
	<g>
		<path class="st0" d="M394.55,138.2H278.31V47.39h116.24V138.2z M279.31,137.2h114.24V48.39H279.31V137.2z"/>
		<rect x="329.67" y="47.89" class="st0" width="13.51" height="89.81"/>
		<rect x="278.81" y="86.24" class="st0" width="115.24" height="13.11"/>
	</g>
	<g>
		<path class="st0" d="M221.69,287.61H105.45V196.8h116.24V287.61z M106.45,286.61h114.24V197.8H106.45V286.61z"/>
		<rect x="156.82" y="197.3" class="st0" width="13.51" height="89.81"/>
		<rect x="105.95" y="235.65" class="st0" width="115.24" height="13.11"/>
	</g>
</g>
<g id="Camada_3" class="st1">
</g>
</svg>
