<?xml version="1.0" encoding="utf-8"?>
<!-- Generator: Adobe Illustrator 25.0.0, SVG Export Plug-In . SVG Version: 6.00 Build 0)  -->
<svg version="1.1" xmlns="http://www.w3.org/2000/svg" xmlns:xlink="http://www.w3.org/1999/xlink" x="0px" y="0px"
	 viewBox="0 0 173 105" style="enable-background:new 0 0 173 105;" xml:space="preserve">
<style type="text/css">
	.st0{display:none;}
	.st1{display:inline;fill:#59778E;}
	.st2{fill:#000000;}
	.st3{fill:none;stroke:#000000;stroke-miterlimit:10;}
	.st4{clip-path:url(#SVGID_2_);}
	.st5{clip-path:url(#SVGID_4_);}
	.st6{clip-path:url(#SVGID_6_);}
	.st7{clip-path:url(#SVGID_8_);}
	.st8{clip-path:url(#SVGID_10_);}
	.st9{clip-path:url(#SVGID_12_);}
	.st10{clip-path:url(#SVGID_14_);}
	.st11{fill:none;stroke:#000000;stroke-width:2;stroke-miterlimit:10;}
	.st12{clip-path:url(#SVGID_20_);}
	.st13{clip-path:url(#SVGID_22_);}
	.st14{clip-path:url(#SVGID_24_);}
	.st15{clip-path:url(#SVGID_26_);}
	.st16{clip-path:url(#SVGID_28_);fill:#000000;}
	.st17{display:inline;}
	.st18{clip-path:url(#SVGID_29_);}
	.st19{clip-path:url(#SVGID_31_);}
</style>
<g id="Camada_2" class="st0">
	<rect x="-1911.5" y="-209.5" class="st1" width="2269" height="1089"/>
</g>
<g id="Camada_1">
	<g>
		<g>
			<path class="st2" d="M125.75,104.5H0V0h125.75l0.31,0.21c1.9,1.3,46.45,32,46.45,52.04s-44.55,50.74-46.45,52.04L125.75,104.5z
				 M2.5,101.83h122.51c3.97-2.77,44.99-31.8,44.99-49.58c0-17.78-41.02-46.81-44.99-49.58H2.5V101.83z"/>
		</g>
		<g>
			<path class="st2" d="M111.1,8.7v83.28H13.32V8.7H111.1 M112.1,7.7H12.32v85.28h99.78V7.7L112.1,7.7z"/>
		</g>
		<g>
			<defs>
				
					<rect id="SVGID_23_" x="35.12" y="4.97" transform="matrix(-1.836970e-16 1 -1 -1.836970e-16 116.5052 -26.6648)" width="72.93" height="79.89"/>
			</defs>
			<clipPath id="SVGID_2_">
				<use xlink:href="#SVGID_23_"  style="overflow:visible;"/>
			</clipPath>
			<g class="st4">
				<ellipse class="st2" cx="135.6" cy="-18.36" rx="95.59" ry="102.04"/>
			</g>
		</g>
	</g>
</g>
<g id="Camada_3" class="st0">
</g>
</svg>
