<?xml version="1.0" encoding="utf-8"?>
<!-- Generator: Adobe Illustrator 25.0.0, SVG Export Plug-In . SVG Version: 6.00 Build 0)  -->
<svg version="1.1" xmlns="http://www.w3.org/2000/svg" xmlns:xlink="http://www.w3.org/1999/xlink" x="0px" y="0px"
	 viewBox="0 0 173 105" style="enable-background:new 0 0 173 105;" xml:space="preserve">
<style type="text/css">
	.st0{display:none;}
	.st1{display:inline;fill:#59778E;}
	.st2{fill:#000000;}
	.st3{fill:none;stroke:#000000;stroke-miterlimit:10;}
	.st4{clip-path:url(#SVGID_2_);}
	.st5{clip-path:url(#SVGID_4_);}
	.st6{clip-path:url(#SVGID_6_);}
	.st7{clip-path:url(#SVGID_8_);}
	.st8{clip-path:url(#SVGID_10_);}
	.st9{clip-path:url(#SVGID_12_);}
	.st10{clip-path:url(#SVGID_14_);}
	.st11{fill:none;stroke:#000000;stroke-width:2;stroke-miterlimit:10;}
	.st12{clip-path:url(#SVGID_20_);}
	.st13{clip-path:url(#SVGID_22_);}
	.st14{clip-path:url(#SVGID_24_);}
	.st15{clip-path:url(#SVGID_26_);}
	.st16{clip-path:url(#SVGID_28_);fill:#000000;}
	.st17{display:inline;}
	.st18{clip-path:url(#SVGID_29_);}
	.st19{clip-path:url(#SVGID_31_);}
</style>
<g id="Camada_2" class="st0">
	<rect x="-1311.5" y="-209.5" class="st1" width="2269" height="1089"/>
</g>
<g id="Camada_1">
	<g>
		<g>
			<defs>
				
					<rect id="SVGID_21_" x="213.5" y="15.93" transform="matrix(6.123234e-17 -1 1 6.123234e-17 194.5018 306.4871)" width="73.99" height="80.12"/>
			</defs>
			<clipPath id="SVGID_2_">
				<use xlink:href="#SVGID_21_"  style="overflow:visible;"/>
			</clipPath>
			<g class="st4">
				<ellipse class="st2" cx="186.29" cy="119.8" rx="95.87" ry="102.04"/>
			</g>
		</g>
	</g>
	<g>
		<g>
			<path class="st2" d="M125.75,105.5H0V0h125.75l0.31,0.21c1.9,1.31,46.45,32.31,46.45,52.54c0,20.23-44.55,51.23-46.45,52.54
				L125.75,105.5z M2.5,102.81h122.51C128.98,100.01,170,70.7,170,52.75c0-17.95-41.02-47.26-44.99-50.06H2.5V102.81z"/>
		</g>
		<g>
			<path class="st2" d="M113.89,8.53v84.1H16.11V8.53H113.89 M114.89,7.53H15.11v86.1h99.78V7.53L114.89,7.53z"/>
		</g>
		<g>
			<defs>
				<rect id="SVGID_25_" x="15.11" y="7.53" width="83.39" height="86.1"/>
			</defs>
			<clipPath id="SVGID_4_">
				<use xlink:href="#SVGID_25_"  style="overflow:visible;"/>
			</clipPath>
			<g class="st5">
				<ellipse class="st2" cx="23.74" cy="48.87" rx="28.42" ry="35.2"/>
			</g>
		</g>
	</g>
</g>
<g id="Camada_3" class="st0">
</g>
</svg>
