<?xml version="1.0" encoding="utf-8"?>
<!-- Generator: Adobe Illustrator 25.0.0, SVG Export Plug-In . SVG Version: 6.00 Build 0)  -->
<svg version="1.1" xmlns="http://www.w3.org/2000/svg" xmlns:xlink="http://www.w3.org/1999/xlink" x="0px" y="0px"
	 viewBox="0 0 173 105" style="enable-background:new 0 0 173 105;" xml:space="preserve">
<style type="text/css">
	.st0{display:none;}
	.st1{display:inline;fill:#59778E;}
	.st2{fill:#000000;}
	.st3{fill:none;stroke:#000000;stroke-miterlimit:10;}
	.st4{clip-path:url(#SVGID_2_);}
	.st5{clip-path:url(#SVGID_4_);}
	.st6{clip-path:url(#SVGID_6_);}
	.st7{clip-path:url(#SVGID_8_);}
	.st8{clip-path:url(#SVGID_10_);}
	.st9{clip-path:url(#SVGID_12_);}
	.st10{clip-path:url(#SVGID_14_);}
	.st11{fill:none;stroke:#000000;stroke-width:2;stroke-miterlimit:10;}
	.st12{clip-path:url(#SVGID_20_);}
	.st13{clip-path:url(#SVGID_22_);}
	.st14{clip-path:url(#SVGID_24_);}
	.st15{clip-path:url(#SVGID_26_);}
	.st16{clip-path:url(#SVGID_28_);fill:#000000;}
	.st17{display:inline;}
	.st18{clip-path:url(#SVGID_29_);}
	.st19{clip-path:url(#SVGID_31_);}
</style>
<g id="Camada_2" class="st0">
	<rect x="-911.5" y="-209.5" class="st1" width="2269" height="1089"/>
</g>
<g id="Camada_1">
	<g>
		<defs>
			<rect id="SVGID_19_" x="206.91" y="11.05" width="69.54" height="68.21"/>
		</defs>
		<clipPath id="SVGID_2_">
			<use xlink:href="#SVGID_19_"  style="overflow:visible;"/>
		</clipPath>
		<g class="st4">
			<circle class="st2" cx="182.13" cy="-12.7" r="94.31"/>
		</g>
	</g>
	<g>
		<g>
			<path class="st2" d="M126.47,104.5H0V0h126.47l0.31,0.21c1.91,1.3,46.72,32,46.72,52.04c0,20.04-44.81,50.74-46.72,52.04
				L126.47,104.5z M2.51,101.83h123.22c3.99-2.77,45.25-31.8,45.25-49.58c0-17.78-41.26-46.82-45.25-49.58H2.51V101.83z"/>
		</g>
		<g>
			<path class="st2" d="M115.8,8.45v83.28H17.45V8.45H115.8 M116.8,7.45H16.45v85.28H116.8V7.45L116.8,7.45z"/>
		</g>
		<g>
			<defs>
				<rect id="SVGID_27_" x="16.45" y="7.5" width="84.16" height="79.09"/>
			</defs>
			<clipPath id="SVGID_4_">
				<use xlink:href="#SVGID_27_"  style="overflow:visible;"/>
			</clipPath>
			<path style="clip-path:url(#SVGID_4_);fill:#000000;" d="M-8.82-114.62c51.36,0,93.14,44.43,93.14,99.04S42.54,83.47-8.82,83.47
				s-93.14-44.43-93.14-99.04S-60.18-114.62-8.82-114.62 M-8.82-117.62c-53.1,0-96.14,45.69-96.14,102.04S-61.92,86.47-8.82,86.47
				c53.1,0,96.14-45.69,96.14-102.04S44.28-117.62-8.82-117.62L-8.82-117.62z"/>
		</g>
	</g>
</g>
<g id="Camada_3" class="st0">
</g>
</svg>
