<?xml version="1.0" encoding="utf-8"?>
<!-- Generator: Adobe Illustrator 25.0.0, SVG Export Plug-In . SVG Version: 6.00 Build 0)  -->
<svg version="1.1" xmlns="http://www.w3.org/2000/svg" xmlns:xlink="http://www.w3.org/1999/xlink" x="0px" y="0px"
	 viewBox="0 0 500 335" style="enable-background:new 0 0 500 335;" xml:space="preserve">
<style type="text/css">
	.st0{display:none;}
	.st1{display:inline;fill:#59778E;}
	.st2{fill:#000000;}
	.st3{fill:none;stroke:#000000;stroke-miterlimit:10;}
	.st4{clip-path:url(#SVGID_2_);}
	.st5{clip-path:url(#SVGID_4_);}
	.st6{clip-path:url(#SVGID_6_);}
	.st7{clip-path:url(#SVGID_8_);}
	.st8{clip-path:url(#SVGID_10_);}
	.st9{clip-path:url(#SVGID_12_);}
	.st10{clip-path:url(#SVGID_14_);}
	.st11{fill:none;stroke:#000000;stroke-width:2;stroke-miterlimit:10;}
	.st12{clip-path:url(#SVGID_20_);}
	.st13{clip-path:url(#SVGID_22_);}
	.st14{clip-path:url(#SVGID_24_);}
	.st15{clip-path:url(#SVGID_26_);}
	.st16{clip-path:url(#SVGID_28_);fill:#000000;}
	.st17{display:inline;}
	.st18{clip-path:url(#SVGID_29_);}
	.st19{clip-path:url(#SVGID_31_);}
</style>
<g id="Camada_2" class="st0">
	<rect x="-228" y="-209.5" class="st1" width="2269" height="1089"/>
</g>
<g id="Camada_1">
	<g>
		<path class="st2" d="M498.5,1.09V334H1V1.09H498.5 M499.5,0.09H0V335h499.5V0.09L499.5,0.09z"/>
	</g>
	<g>
		<path class="st2" d="M409.32,182.88c4.01,2.66,54.78,36.8,54.78,57.82s-50.77,55.16-54.78,57.82H271.69V182.88H409.32
			 M409.62,181.88H270.69v117.64h138.93c0,0,55.48-36.25,55.48-58.82S409.62,181.88,409.62,181.88L409.62,181.88z"/>
	</g>
	<g>
		<path class="st2" d="M221.97,141.17H109.42V50.5h112.55V141.17z M112.17,138.42h107.05V53.25H112.17V138.42z"/>
	</g>
	<g>
		<path class="st2" d="M221.97,283.99H109.42v-90.67h112.55V283.99z M112.17,281.24h107.05v-85.17H112.17V281.24z"/>
	</g>
	<g>
		<path class="st2" d="M390.13,141.17H277.58V50.5h112.55V141.17z M280.33,138.42h107.05V53.25H280.33V138.42z"/>
	</g>
	<g>
		<defs>
			<rect id="SVGID_1_" x="128.59" y="62.17" width="92" height="77.62"/>
		</defs>
		<clipPath id="SVGID_2_">
			<use xlink:href="#SVGID_1_"  style="overflow:visible;"/>
		</clipPath>
		<g class="st4">
			<circle class="st2" cx="251.31" cy="168.2" r="105.19"/>
		</g>
	</g>
	<g>
		<defs>
			<rect id="SVGID_3_" x="110.8" y="194.7" width="109.8" height="87.92"/>
		</defs>
		<clipPath id="SVGID_4_">
			<use xlink:href="#SVGID_3_"  style="overflow:visible;"/>
		</clipPath>
		<g class="st5">
			<circle class="st2" cx="251.31" cy="168.2" r="105.19"/>
		</g>
	</g>
	<g>
		<defs>
			<rect id="SVGID_5_" x="278.95" y="51.88" width="109.8" height="87.92"/>
		</defs>
		<clipPath id="SVGID_6_">
			<use xlink:href="#SVGID_5_"  style="overflow:visible;"/>
		</clipPath>
		<g class="st6">
			<circle class="st2" cx="251.31" cy="168.2" r="105.19"/>
		</g>
	</g>
</g>
<g id="Camada_3" class="st0">
</g>
</svg>
