<?xml version="1.0" encoding="utf-8"?>
<!-- Generator: Adobe Illustrator 25.0.0, SVG Export Plug-In . SVG Version: 6.00 Build 0)  -->
<svg version="1.1" xmlns="http://www.w3.org/2000/svg" xmlns:xlink="http://www.w3.org/1999/xlink" x="0px" y="0px"
	 viewBox="0 0 173 105" style="enable-background:new 0 0 173 105;" xml:space="preserve">
<style type="text/css">
	.st0{display:none;}
	.st1{display:inline;fill:#59778E;}
	.st2{fill:#000000;}
	.st3{fill:none;stroke:#000000;stroke-miterlimit:10;}
	.st4{clip-path:url(#SVGID_2_);}
	.st5{clip-path:url(#SVGID_4_);}
	.st6{clip-path:url(#SVGID_6_);fill:#000000;}
	.st7{clip-path:url(#SVGID_8_);}
	.st8{clip-path:url(#SVGID_10_);}
	.st9{clip-path:url(#SVGID_12_);}
	.st10{clip-path:url(#SVGID_14_);}
	.st11{clip-path:url(#SVGID_20_);}
	.st12{clip-path:url(#SVGID_22_);}
	.st13{clip-path:url(#SVGID_24_);}
	.st14{clip-path:url(#SVGID_26_);}
	.st15{display:inline;}
	.st16{clip-path:url(#SVGID_27_);}
	.st17{clip-path:url(#SVGID_29_);}
</style>
<g id="Camada_2" class="st0">
	<rect x="-1111.5" y="-209.5" class="st1" width="2269" height="1089"/>
</g>
<g id="Camada_1">
	<g id="Camada_1_1_">
		<g>
			<g>
				<path class="st2" d="M132.82,1c3.49,2.89,38.93,32.76,38.93,51.25s-35.44,48.36-38.93,51.25H1.25V1H132.82 M133.18,0H0.25v104.5
					h132.93c0,0,39.57-32.2,39.57-52.25S133.18,0,133.18,0L133.18,0z"/>
			</g>
			<g>
				<path class="st2" d="M115.87,14.31v78.05H15.47V14.31H115.87 M116.87,13.31H14.47v80.05h102.4V13.31L116.87,13.31z"/>
			</g>
			<g>
				<g>
					<defs>
						<rect id="SVGID_3_" x="22.42" y="13.31" width="94.45" height="73.83"/>
					</defs>
					<clipPath id="SVGID_2_">
						<use xlink:href="#SVGID_3_"  style="overflow:visible;"/>
					</clipPath>
					<g class="st4">
						<path class="st2" d="M80.18-103.7c-31.15,0-50.19,20.78-50.19,52.24v68.21c0,37.52,19.96,58.11,47.95,58.11h174.97V-103.7
							H80.18z M236.48,60.95H89.07c-34.12,0-42.65-18.99-42.65-47.16V-40.3c0-33.19,14.07-49.49,44.89-49.49h145.17V60.95z"/>
					</g>
				</g>
			</g>
		</g>
	</g>
</g>
<g id="Camada_3" class="st0">
</g>
</svg>
