<?xml version="1.0" encoding="utf-8"?>
<!-- Generator: Adobe Illustrator 25.0.0, SVG Export Plug-In . SVG Version: 6.00 Build 0)  -->
<svg version="1.1" xmlns="http://www.w3.org/2000/svg" xmlns:xlink="http://www.w3.org/1999/xlink" x="0px" y="0px"
	 viewBox="0 0 173 105" style="enable-background:new 0 0 173 105;" xml:space="preserve">
<style type="text/css">
	.st0{display:none;}
	.st1{display:inline;fill:#59778E;}
	.st2{fill:#000000;}
	.st3{fill:none;stroke:#000000;stroke-miterlimit:10;}
	.st4{display:inline;}
	.st5{clip-path:url(#SVGID_1_);}
	.st6{clip-path:url(#SVGID_3_);}
</style>
<g id="Camada_2" class="st0">
	<rect x="-1508" y="-209.5" class="st1" width="2269" height="1089"/>
</g>
<g id="Camada_1">
	<path class="st3" d="M132.55,104.5H0V0h132.55c0,0,39.45,32.2,39.45,52.25S132.55,104.5,132.55,104.5z"/>
	<g>
		<g>
			<path class="st2" d="M115.85,92.15H16.92v-79.2h98.92V92.15z M19.63,89.41h93.51V15.69H19.63V89.41z"/>
		</g>
		<g>
			<polygon class="st2" points="19.11,91.86 17.44,89.7 113.66,13.24 115.33,15.4 			"/>
		</g>
		<g>
			<polygon class="st2" points="19.11,80.99 17.45,78.82 101.04,13.24 102.7,15.4 			"/>
		</g>
		<g>
			<polygon class="st2" points="19.11,70.41 17.44,68.26 86.67,13.24 88.34,15.4 			"/>
		</g>
		<g>
			<polygon class="st2" points="19.59,58.4 17.92,56.25 72.03,13.24 73.7,15.4 			"/>
		</g>
		<g>
			<polygon class="st2" points="19.11,48.57 17.44,46.42 59.24,13.2 60.91,15.36 			"/>
		</g>
		<g>
			<polygon class="st2" points="19.11,37.98 17.44,35.82 45.9,13.2 47.57,15.36 			"/>
		</g>
		<g>
			<polygon class="st2" points="19.11,27.67 17.44,25.52 32.89,13.24 34.56,15.4 			"/>
		</g>
	</g>
</g>
<g id="Camada_3" class="st0">
</g>
</svg>
