<?xml version="1.0" encoding="utf-8"?>
<!-- Generator: Adobe Illustrator 25.0.0, SVG Export Plug-In . SVG Version: 6.00 Build 0)  -->
<svg version="1.1" xmlns="http://www.w3.org/2000/svg" xmlns:xlink="http://www.w3.org/1999/xlink" x="0px" y="0px"
	 viewBox="0 0 173 105" style="enable-background:new 0 0 173 105;" xml:space="preserve">
<style type="text/css">
	.st0{display:none;}
	.st1{display:inline;fill:#59778E;}
	.st2{fill:#000000;}
	.st3{fill:none;stroke:#000000;stroke-miterlimit:10;}
	.st4{clip-path:url(#SVGID_2_);}
	.st5{clip-path:url(#SVGID_4_);}
	.st6{clip-path:url(#SVGID_6_);fill:#000000;}
	.st7{clip-path:url(#SVGID_8_);}
	.st8{clip-path:url(#SVGID_10_);}
	.st9{clip-path:url(#SVGID_12_);}
	.st10{clip-path:url(#SVGID_14_);}
	.st11{clip-path:url(#SVGID_20_);}
	.st12{clip-path:url(#SVGID_22_);}
	.st13{clip-path:url(#SVGID_24_);}
	.st14{clip-path:url(#SVGID_26_);}
	.st15{display:inline;}
	.st16{clip-path:url(#SVGID_27_);}
	.st17{clip-path:url(#SVGID_29_);}
</style>
<g id="Camada_2" class="st0">
	<rect x="-911.5" y="-209.5" class="st1" width="2269" height="1089"/>
</g>
<g id="Camada_1">
	<g id="Camada_1_1_">
		<g>
			<path class="st3" d="M124.35,0c3.62,2.4,49.4,33.18,49.4,52.14s-45.78,49.74-49.4,52.14H0.25V0H124.35"/>
			<g>
				<path class="st2" d="M115.85,12.2v79.46H9.37V12.2H115.85 M116.85,11.2H8.37v81.46h108.48V11.2L116.85,11.2z"/>
			</g>
			<g>
				<g>
					<defs>
						<rect id="SVGID_25_" x="8.37" y="11.36" width="108.48" height="81.3"/>
					</defs>
					<clipPath id="SVGID_2_">
						<use xlink:href="#SVGID_25_"  style="overflow:visible;"/>
					</clipPath>
					<g class="st4">
						<path class="st2" d="M-84.94-107.87c-33,0-53.17,21.15-53.17,53.17v69.42c0,38.18,21.15,59.14,50.8,59.14H98.05v-181.72
							L-84.94-107.87L-84.94-107.87z M80.65,59.69H-75.52c-36.15,0-45.18-19.32-45.18-47.99v-55.04c0-33.78,14.91-50.36,47.55-50.36
							h153.8L80.65,59.69L80.65,59.69z"/>
					</g>
				</g>
			</g>
		</g>
	</g>
</g>
<g id="Camada_3" class="st0">
</g>
</svg>
