<?xml version="1.0" encoding="utf-8"?>
<!-- Generator: Adobe Illustrator 25.0.0, SVG Export Plug-In . SVG Version: 6.00 Build 0)  -->
<svg version="1.1" xmlns="http://www.w3.org/2000/svg" xmlns:xlink="http://www.w3.org/1999/xlink" x="0px" y="0px"
	 viewBox="0 0 173 105" style="enable-background:new 0 0 173 105;" xml:space="preserve">
<style type="text/css">
	.st0{display:none;}
	.st1{display:inline;fill:#59778E;}
	.st2{fill:#000000;}
	.st3{fill:none;stroke:#000000;stroke-miterlimit:10;}
	.st4{clip-path:url(#SVGID_2_);}
	.st5{clip-path:url(#SVGID_4_);}
	.st6{clip-path:url(#SVGID_6_);fill:#000000;}
	.st7{clip-path:url(#SVGID_8_);}
	.st8{clip-path:url(#SVGID_10_);}
	.st9{clip-path:url(#SVGID_12_);}
	.st10{clip-path:url(#SVGID_14_);}
	.st11{clip-path:url(#SVGID_20_);}
	.st12{clip-path:url(#SVGID_22_);}
	.st13{clip-path:url(#SVGID_24_);}
	.st14{clip-path:url(#SVGID_26_);}
	.st15{display:inline;}
	.st16{clip-path:url(#SVGID_27_);}
	.st17{clip-path:url(#SVGID_29_);}
</style>
<g id="Camada_2" class="st0">
	<rect x="-1911.5" y="-209.5" class="st1" width="2269" height="1089"/>
</g>
<g id="Camada_1">
	<g id="Camada_1_1_">
		<g>
			<path class="st2" d="M132.78,1.15c3.49,2.89,38.97,32.71,38.97,51.18c0,18.46-35.48,48.29-38.97,51.18H1.06V1.15H132.78
				 M133.14,0.15H0.06V104.5h133.08c0,0,39.61-32.15,39.61-52.18C172.75,32.3,133.14,0.15,133.14,0.15L133.14,0.15z"/>
		</g>
		<g>
			<path class="st2" d="M114.56,13.36v77.93H14.05V13.36H114.56 M115.56,12.36H13.05v79.93h102.51V12.36L115.56,12.36z"/>
		</g>
		<g>
			<rect x="30.33" y="12.36" class="st2" width="14.09" height="79.93"/>
		</g>
		<g>
			<rect x="14.23" y="30.22" class="st2" width="101.34" height="14.63"/>
		</g>
	</g>
</g>
<g id="Camada_3" class="st0">
</g>
</svg>
