<?xml version="1.0" encoding="utf-8"?>
<!-- Generator: Adobe Illustrator 25.0.0, SVG Export Plug-In . SVG Version: 6.00 Build 0)  -->
<svg version="1.1" xmlns="http://www.w3.org/2000/svg" xmlns:xlink="http://www.w3.org/1999/xlink" x="0px" y="0px"
	 viewBox="0 0 500 335" style="enable-background:new 0 0 500 335;" xml:space="preserve">
<style type="text/css">
	.st0{display:none;}
	.st1{display:inline;fill:#59778E;}
	.st2{fill:#000000;}
	.st3{fill:none;stroke:#000000;stroke-miterlimit:10;}
	.st4{clip-path:url(#SVGID_2_);}
	.st5{clip-path:url(#SVGID_4_);}
	.st6{clip-path:url(#SVGID_6_);fill:#000000;}
	.st7{clip-path:url(#SVGID_8_);}
	.st8{clip-path:url(#SVGID_10_);}
	.st9{clip-path:url(#SVGID_12_);}
	.st10{clip-path:url(#SVGID_14_);}
	.st11{clip-path:url(#SVGID_20_);}
	.st12{clip-path:url(#SVGID_22_);}
	.st13{clip-path:url(#SVGID_24_);}
	.st14{clip-path:url(#SVGID_26_);}
	.st15{display:inline;}
	.st16{clip-path:url(#SVGID_27_);}
	.st17{clip-path:url(#SVGID_29_);}
</style>
<g id="Camada_2" class="st0">
	<rect x="-228" y="-209.5" class="st1" width="2269" height="1089"/>
</g>
<g id="Camada_1">
	<g id="Camada_1_1_">
		<g>
			<path class="st2" d="M498.75,1.09V334H1.25V1.09H498.75 M499.75,0.09H0.25V335h499.5V0.09L499.75,0.09z"/>
		</g>
		<g>
			<path class="st2" d="M409.57,182.88c4.01,2.66,54.78,36.8,54.78,57.82s-50.77,55.16-54.78,57.82H271.94V182.88H409.57
				 M409.87,181.88H270.94v117.64h138.93c0,0,55.48-36.25,55.48-58.82S409.87,181.88,409.87,181.88L409.87,181.88z"/>
		</g>
		<g>
			<path class="st2" d="M218.56,47.75v88.34H100.25V47.75H218.56 M219.56,46.75H99.25v90.34h120.31V46.75L219.56,46.75z"/>
		</g>
		<g>
			<g>
				<defs>
					<rect id="SVGID_7_" x="99.25" y="46.75" width="120.31" height="90.34"/>
				</defs>
				<clipPath id="SVGID_2_">
					<use xlink:href="#SVGID_7_"  style="overflow:visible;"/>
				</clipPath>
				<g class="st4">
					<path class="st2" d="M176.45,65.86c-36.59,0-58.96,23.45-58.96,58.96v76.98c0,42.35,23.45,65.58,56.33,65.58h205.56V65.86
						H176.45z M360.09,251.68H186.9c-40.09,0-50.11-21.43-50.11-53.22v-61.04c0-37.46,16.53-55.85,52.74-55.85h170.56V251.68z"/>
				</g>
			</g>
		</g>
		<g>
			<path class="st2" d="M218.56,198.91v88.34H100.25v-88.34H218.56 M219.56,197.91H99.25v90.34h120.31V197.91L219.56,197.91z"/>
		</g>
		<g>
			<g>
				<defs>
					<rect id="SVGID_9_" x="99.25" y="197.91" width="120.31" height="90.34"/>
				</defs>
				<clipPath id="SVGID_4_">
					<use xlink:href="#SVGID_9_"  style="overflow:visible;"/>
				</clipPath>
				<g class="st5">
					<path class="st2" d="M176.45,65.86c-36.59,0-58.96,23.45-58.96,58.96v76.98c0,42.35,23.45,65.58,56.33,65.58h205.56V65.86
						H176.45z M360.09,251.68H186.9c-40.09,0-50.11-21.43-50.11-53.22v-61.04c0-37.46,16.53-55.85,52.74-55.85h170.56V251.68z"/>
				</g>
			</g>
		</g>
		<g>
			<path class="st2" d="M399.24,47.75v88.34H280.93V47.75H399.24 M400.24,46.75H279.93v90.34h120.31V46.75L400.24,46.75z"/>
		</g>
		<g>
			<g>
				<defs>
					<rect id="SVGID_11_" x="279.93" y="46.75" width="120.31" height="90.34"/>
				</defs>
				<clipPath id="SVGID_6_">
					<use xlink:href="#SVGID_11_"  style="overflow:visible;"/>
				</clipPath>
				<g style="clip-path:url(#SVGID_6_);">
					<path class="st2" d="M176.45,65.86c-36.59,0-58.96,23.45-58.96,58.96v76.98c0,42.35,23.45,65.58,56.33,65.58h205.56V65.86
						H176.45z M360.09,251.68H186.9c-40.09,0-50.11-21.43-50.11-53.22v-61.04c0-37.46,16.53-55.85,52.74-55.85h170.56V251.68z"/>
				</g>
			</g>
		</g>
	</g>
</g>
<g id="Camada_3" class="st0">
</g>
</svg>
