<?xml version="1.0" encoding="utf-8"?>
<!-- Generator: Adobe Illustrator 25.0.0, SVG Export Plug-In . SVG Version: 6.00 Build 0)  -->
<svg version="1.1" xmlns="http://www.w3.org/2000/svg" xmlns:xlink="http://www.w3.org/1999/xlink" x="0px" y="0px"
	 viewBox="0 0 173 105" style="enable-background:new 0 0 173 105;" xml:space="preserve">
<style type="text/css">
	.st0{display:none;}
	.st1{display:inline;fill:#59778E;}
	.st2{fill:#000000;}
	.st3{fill:none;stroke:#000000;stroke-miterlimit:10;}
	.st4{display:inline;}
	.st5{clip-path:url(#SVGID_1_);}
	.st6{clip-path:url(#SVGID_3_);}
</style>
<g id="Camada_2" class="st0">
	<rect x="-1311.5" y="-209.5" class="st1" width="2269" height="1089"/>
</g>
<g id="Camada_1">
	<path class="st3" d="M123.39,0c3.6,2.38,49.11,32.99,49.11,51.84s-45.52,49.45-49.11,51.84H0V0H123.39"/>
	<g>
		<g>
			<path class="st2" d="M106.52,91.41H8.29V13.69h98.22V91.41z M10.98,88.72h92.85V16.38H10.98V88.72z"/>
		</g>
		<g>
			
				<rect x="-3.33" y="51.2" transform="matrix(0.7869 -0.617 0.617 0.7869 -20.1937 46.6178)" class="st2" width="121.47" height="2.69"/>
		</g>
		<g>
			
				<rect x="11.15" y="56.54" transform="matrix(0.7903 -0.6127 0.6127 0.7903 -22.1142 51.1503)" class="st2" width="105.03" height="2.69"/>
		</g>
		<g>
			
				<rect x="27.1" y="61.73" transform="matrix(0.7869 -0.617 0.617 0.7869 -23.8313 57.1266)" class="st2" width="87.4" height="2.69"/>
		</g>
		<g>
			
				<rect x="43.67" y="67.62" transform="matrix(0.7869 -0.617 0.617 0.7869 -25.9688 62.7195)" class="st2" width="68.33" height="2.69"/>
		</g>
		<g>
			
				<rect x="58.04" y="72.46" transform="matrix(0.7869 -0.617 0.617 0.7869 -27.552 67.8173)" class="st2" width="52.77" height="2.69"/>
		</g>
		<g>
			
				<rect x="73.07" y="77.66" transform="matrix(0.7869 -0.617 0.617 0.7869 -29.3494 73.009)" class="st2" width="35.94" height="2.69"/>
		</g>
		<g>
			
				<rect x="87.75" y="82.69" transform="matrix(0.7869 -0.617 0.617 0.7869 -31.0807 78.0691)" class="st2" width="19.51" height="2.69"/>
		</g>
	</g>
</g>
<g id="Camada_3" class="st0">
</g>
</svg>
