<?xml version="1.0" encoding="utf-8"?>
<!-- Generator: Adobe Illustrator 25.0.0, SVG Export Plug-In . SVG Version: 6.00 Build 0)  -->
<svg version="1.1" xmlns="http://www.w3.org/2000/svg" xmlns:xlink="http://www.w3.org/1999/xlink" x="0px" y="0px"
	 viewBox="0 0 173 105" style="enable-background:new 0 0 173 105;" xml:space="preserve">
<style type="text/css">
	.st0{display:none;}
	.st1{display:inline;fill:#59778E;}
	.st2{fill:#000000;}
	.st3{fill:none;stroke:#000000;stroke-miterlimit:10;}
	.st4{display:inline;}
	.st5{clip-path:url(#SVGID_1_);}
	.st6{clip-path:url(#SVGID_3_);}
</style>
<g id="Camada_2" class="st0">
	<rect x="-1711.5" y="-209.5" class="st1" width="2269" height="1089"/>
</g>
<g id="Camada_1">
	<path class="st3" d="M132.93,104.5H0V0h132.93c0,0,39.57,32.2,39.57,52.25S132.93,104.5,132.93,104.5z"/>
	<g>
		<g>
			<path class="st2" d="M114.07,92.15H14.86v-79.2h99.21V92.15z M17.58,89.41h93.78V15.69H17.58V89.41z"/>
		</g>
		<g>
			<polygon class="st2" points="17.06,91.86 15.38,89.7 111.88,13.24 113.55,15.4 			"/>
		</g>
		<g>
			<polygon class="st2" points="17.05,80.99 15.39,78.82 99.22,13.24 100.89,15.4 			"/>
		</g>
		<g>
			<polygon class="st2" points="17.06,70.41 15.38,68.26 84.81,13.24 86.49,15.4 			"/>
		</g>
		<g>
			<polygon class="st2" points="17.53,58.4 15.86,56.25 70.13,13.24 71.81,15.4 			"/>
		</g>
		<g>
			<polygon class="st2" points="17.06,48.57 15.38,46.42 57.3,13.2 58.98,15.36 			"/>
		</g>
		<g>
			<polygon class="st2" points="17.06,37.98 15.38,35.82 43.93,13.2 45.6,15.36 			"/>
		</g>
		<g>
			<polygon class="st2" points="17.06,27.67 15.38,25.52 30.87,13.24 32.55,15.4 			"/>
		</g>
		<g>
			<polygon class="st2" points="16.22,90.78 112.71,90.78 112.71,14.32 			"/>
		</g>
	</g>
</g>
<g id="Camada_3" class="st0">
</g>
</svg>
