<?xml version="1.0" encoding="utf-8"?>
<!-- Generator: Adobe Illustrator 25.0.0, SVG Export Plug-In . SVG Version: 6.00 Build 0)  -->
<svg version="1.1" xmlns="http://www.w3.org/2000/svg" xmlns:xlink="http://www.w3.org/1999/xlink" x="0px" y="0px"
	 viewBox="0 0 500 335" style="enable-background:new 0 0 500 335;" xml:space="preserve">
<style type="text/css">
	.st0{display:none;}
	.st1{display:inline;fill:#59778E;}
	.st2{fill:#000000;}
	.st3{fill:none;stroke:#000000;stroke-miterlimit:10;}
	.st4{display:inline;}
	.st5{clip-path:url(#SVGID_1_);}
	.st6{clip-path:url(#SVGID_3_);}
</style>
<g id="Camada_2" class="st0">
	<rect x="-228" y="-209.5" class="st1" width="2269" height="1089"/>
</g>
<g id="Camada_1">
	<g>
		<path class="st2" d="M498.5,1.09V334H1V1.09H498.5 M499.5,0.09H0V335h499.5V0.09L499.5,0.09z"/>
	</g>
	<g>
		<path class="st2" d="M409.32,182.88c4.01,2.66,54.78,36.8,54.78,57.82s-50.77,55.16-54.78,57.82H271.69V182.88H409.32
			 M409.62,181.88H270.69v117.64h138.93c0,0,55.48-36.25,55.48-58.82S409.62,181.88,409.62,181.88L409.62,181.88z"/>
	</g>
	<g>
		<path class="st2" d="M219.56,135.24H110V48.56h109.56V135.24z M113,132.25h103.56V51.56H113V132.25z"/>
	</g>
	<g>
		<polygon class="st2" points="111.5,133.75 111.5,50.06 218.06,50.06 		"/>
	</g>
	<g>
		<g>
			<path class="st2" d="M219.56,286.44H110v-86.69h109.56V286.44z M113,283.44h103.56v-80.69H113V283.44z"/>
		</g>
		<g>
			<polygon class="st2" points="111.5,201.25 111.5,284.94 218.06,284.94 			"/>
		</g>
	</g>
	<g>
		<g>
			<path class="st2" d="M390,135.24H280.44V48.56H390V135.24z M283.44,132.25H387V51.56H283.44V132.25z"/>
		</g>
		<g>
			
				<rect x="333.72" y="24.16" transform="matrix(0.6176 -0.7865 0.7865 0.6176 55.9001 298.7821)" class="st2" width="3" height="135.49"/>
		</g>
		<g>
			
				<rect x="340.71" y="27.38" transform="matrix(0.6127 -0.7903 0.7903 0.6127 64.5933 303.7255)" class="st2" width="3" height="117.15"/>
		</g>
		<g>
			
				<rect x="348.66" y="31.42" transform="matrix(0.6176 -0.7865 0.7865 0.6176 70.8447 306.0482)" class="st2" width="3" height="97.49"/>
		</g>
		<g>
			
				<rect x="356.51" y="35.49" transform="matrix(0.6176 -0.7865 0.7865 0.6176 79.0108 309.7018)" class="st2" width="3" height="76.21"/>
		</g>
		<g>
			
				<rect x="363.86" y="38.77" transform="matrix(0.6176 -0.7865 0.7865 0.6176 86.0619 313.4123)" class="st2" width="3" height="58.86"/>
		</g>
		<g>
			
				<rect x="371.24" y="42.36" transform="matrix(0.6176 -0.7865 0.7865 0.6176 93.4647 317.0213)" class="st2" width="3" height="40.08"/>
		</g>
		<g>
			
				<rect x="378.45" y="45.9" transform="matrix(0.6176 -0.7865 0.7865 0.6176 100.6423 320.544)" class="st2" width="3" height="21.76"/>
		</g>
	</g>
</g>
<g id="Camada_3" class="st0">
</g>
</svg>
