<?xml version="1.0" encoding="utf-8"?>
<!-- Generator: Adobe Illustrator 25.0.0, SVG Export Plug-In . SVG Version: 6.00 Build 0)  -->
<svg version="1.1" xmlns="http://www.w3.org/2000/svg" xmlns:xlink="http://www.w3.org/1999/xlink" x="0px" y="0px"
	 viewBox="0 0 173 105" style="enable-background:new 0 0 173 105;" xml:space="preserve">
<style type="text/css">
	.st0{display:none;}
	.st1{display:inline;fill:#59778E;}
	.st2{fill:#000000;}
	.st3{fill:none;stroke:#000000;stroke-miterlimit:10;}
	.st4{clip-path:url(#SVGID_2_);}
	.st5{clip-path:url(#SVGID_4_);}
	.st6{clip-path:url(#SVGID_6_);}
	.st7{clip-path:url(#SVGID_8_);}
	.st8{clip-path:url(#SVGID_10_);}
	.st9{fill:none;stroke:#000000;stroke-width:2;stroke-miterlimit:10;}
	.st10{clip-path:url(#SVGID_12_);}
	.st11{display:inline;}
	.st12{clip-path:url(#SVGID_13_);}
	.st13{clip-path:url(#SVGID_19_);}
</style>
<g id="Camada_2" class="st0">
	<rect x="-1711.5" y="-209.5" class="st1" width="2269" height="1089"/>
</g>
<g id="Camada_1">
	<g>
		<path class="st9" d="M123.18,0c3.59,2.38,49.03,32.94,49.03,51.75s-45.44,49.37-49.03,51.75H0V0H123.18"/>
		<g>
			<g>
				<path class="st2" d="M111.47,11.99L8.7,96.25V11.99H111.47 M114.27,10.99H7.7v87.38L114.27,10.99L114.27,10.99z"/>
			</g>
			<g>
				<defs>
					<polygon id="SVGID_11_" points="7.7,98.37 7.7,10.99 114.27,10.99 					"/>
				</defs>
				<clipPath id="SVGID_2_">
					<use xlink:href="#SVGID_11_"  style="overflow:visible;"/>
				</clipPath>
				<g class="st4">
					<g>
						<rect x="7.7" y="10.99" class="st2" width="110.41" height="7.07"/>
					</g>
					<g>
						<rect x="7.7" y="22.92" class="st2" width="110.41" height="7.07"/>
					</g>
					<g>
						<rect x="7.7" y="34.86" class="st2" width="110.41" height="7.07"/>
					</g>
					<g>
						<rect x="7.7" y="47.29" class="st2" width="110.41" height="7.07"/>
					</g>
					<g>
						<rect x="7.7" y="59.23" class="st2" width="110.41" height="7.07"/>
					</g>
					<g>
						<rect x="7.7" y="71.16" class="st2" width="110.41" height="7.07"/>
					</g>
					<g>
						<rect x="7.7" y="83.09" class="st2" width="110.41" height="7.07"/>
					</g>
				</g>
			</g>
		</g>
	</g>
</g>
<g id="Camada_3" class="st0">
</g>
</svg>
