<?xml version="1.0" encoding="utf-8"?>
<!-- Generator: Adobe Illustrator 25.0.0, SVG Export Plug-In . SVG Version: 6.00 Build 0)  -->
<svg version="1.1" xmlns="http://www.w3.org/2000/svg" xmlns:xlink="http://www.w3.org/1999/xlink" x="0px" y="0px"
	 viewBox="0 0 173 105" style="enable-background:new 0 0 173 105;" xml:space="preserve">
<style type="text/css">
	.st0{display:none;}
	.st1{display:inline;fill:#59778E;}
	.st2{fill:#000000;}
	.st3{fill:none;stroke:#000000;stroke-miterlimit:10;}
	.st4{clip-path:url(#SVGID_2_);}
	.st5{clip-path:url(#SVGID_4_);}
	.st6{clip-path:url(#SVGID_6_);}
	.st7{clip-path:url(#SVGID_8_);}
	.st8{clip-path:url(#SVGID_10_);}
	.st9{fill:none;stroke:#000000;stroke-width:2;stroke-miterlimit:10;}
	.st10{clip-path:url(#SVGID_12_);}
	.st11{display:inline;}
	.st12{clip-path:url(#SVGID_13_);}
	.st13{clip-path:url(#SVGID_19_);}
</style>
<g id="Camada_2" class="st0">
	<rect x="-911.5" y="-209.5" class="st1" width="2269" height="1089"/>
</g>
<g id="Camada_1">
	<g>
		<g>
			<path class="st2" d="M132.67,104.5H0V0h132.67L133,0.26c1.61,1.3,39.5,32.01,39.5,51.98c0,19.97-37.89,50.69-39.5,51.99
				L132.67,104.5z M2.47,101.85h129.37c3.74-3.07,38.19-31.87,38.19-49.6c0-17.73-34.45-46.53-38.19-49.6H2.47V101.85z"/>
		</g>
		<g>
			<path class="st2" d="M106.85,10.56v82.16L13.53,10.56H106.85 M107.85,9.56H10.88l96.96,85.37V9.56L107.85,9.56z"/>
		</g>
		<g>
			<defs>
				<polygon id="SVGID_1_" points="107.85,94.94 107.85,9.56 10.88,9.56 				"/>
			</defs>
			<clipPath id="SVGID_2_">
				<use xlink:href="#SVGID_1_"  style="overflow:visible;"/>
			</clipPath>
			<g class="st4">
				<g>
					<rect x="7.39" y="9.56" class="st2" width="100.46" height="6.91"/>
				</g>
				<g>
					<rect x="7.39" y="21.22" class="st2" width="100.46" height="6.91"/>
				</g>
				<g>
					<rect x="7.39" y="32.88" class="st2" width="100.46" height="6.91"/>
				</g>
				<g>
					<rect x="7.39" y="45.03" class="st2" width="100.46" height="6.91"/>
				</g>
				<g>
					<rect x="7.39" y="56.69" class="st2" width="100.46" height="6.91"/>
				</g>
				<g>
					<rect x="7.39" y="68.35" class="st2" width="100.46" height="6.91"/>
				</g>
				<g>
					<rect x="7.39" y="80.01" class="st2" width="100.46" height="6.91"/>
				</g>
			</g>
		</g>
	</g>
</g>
<g id="Camada_3" class="st0">
</g>
</svg>
