<?xml version="1.0" encoding="utf-8"?>
<!-- Generator: Adobe Illustrator 25.0.0, SVG Export Plug-In . SVG Version: 6.00 Build 0)  -->
<svg version="1.1" xmlns="http://www.w3.org/2000/svg" xmlns:xlink="http://www.w3.org/1999/xlink" x="0px" y="0px"
	 viewBox="0 0 500 335" style="enable-background:new 0 0 500 335;" xml:space="preserve">
<style type="text/css">
	.st0{display:none;}
	.st1{display:inline;fill:#59778E;}
	.st2{fill:#000000;}
	.st3{fill:none;stroke:#000000;stroke-miterlimit:10;}
	.st4{clip-path:url(#SVGID_2_);}
	.st5{clip-path:url(#SVGID_4_);}
	.st6{clip-path:url(#SVGID_6_);}
	.st7{clip-path:url(#SVGID_8_);}
	.st8{clip-path:url(#SVGID_10_);}
	.st9{fill:none;stroke:#000000;stroke-width:2;stroke-miterlimit:10;}
	.st10{clip-path:url(#SVGID_12_);}
	.st11{display:inline;}
	.st12{clip-path:url(#SVGID_13_);}
	.st13{clip-path:url(#SVGID_19_);}
</style>
<g id="Camada_2" class="st0">
	<rect x="-228" y="-209.5" class="st1" width="2269" height="1089"/>
</g>
<g id="Camada_1">
	<g>
		<path class="st2" d="M498.75,1.09V334H1.25V1.09H498.75 M499.75,0.09H0.25V335h499.5V0.09L499.75,0.09z"/>
	</g>
	<g>
		<path class="st2" d="M409.57,182.88c4.01,2.66,54.78,36.8,54.78,57.82s-50.77,55.16-54.78,57.82H271.94V182.88H409.57
			 M409.87,181.88H270.94v117.64h138.93c0,0,55.48-36.25,55.48-58.82S409.87,181.88,409.87,181.88L409.87,181.88z"/>
	</g>
	<g>
		<polygon class="st2" points="219.46,41.66 219.46,139.28 100.39,139.28 		"/>
	</g>
	<g>
		<polygon class="st2" points="280.54,41.66 280.54,139.28 399.61,139.28 		"/>
	</g>
	<g>
		<path class="st2" d="M218.46,196.72v94.51l-115.27-94.51H218.46 M219.46,195.72H100.39l119.07,97.62V195.72L219.46,195.72z"/>
	</g>
	<g>
		<defs>
			<polygon id="SVGID_5_" points="219.46,293.34 219.46,195.72 100.39,195.72 			"/>
		</defs>
		<clipPath id="SVGID_2_">
			<use xlink:href="#SVGID_5_"  style="overflow:visible;"/>
		</clipPath>
		<g class="st4">
			<g>
				<rect x="96.1" y="195.72" class="st2" width="123.36" height="7.9"/>
			</g>
			<g>
				<rect x="96.1" y="209.05" class="st2" width="123.36" height="7.9"/>
			</g>
			<g>
				<rect x="96.1" y="222.38" class="st2" width="123.36" height="7.9"/>
			</g>
			<g>
				<rect x="96.1" y="236.27" class="st2" width="123.36" height="7.9"/>
			</g>
			<g>
				<rect x="96.1" y="249.61" class="st2" width="123.36" height="7.9"/>
			</g>
			<g>
				<rect x="96.1" y="262.94" class="st2" width="123.36" height="7.9"/>
			</g>
			<g>
				<rect x="96.1" y="276.27" class="st2" width="123.36" height="7.9"/>
			</g>
		</g>
	</g>
</g>
<g id="Camada_3" class="st0">
</g>
</svg>
