<?xml version="1.0" encoding="utf-8"?>
<!-- Generator: Adobe Illustrator 25.0.0, SVG Export Plug-In . SVG Version: 6.00 Build 0)  -->
<svg version="1.1" xmlns="http://www.w3.org/2000/svg" xmlns:xlink="http://www.w3.org/1999/xlink" x="0px" y="0px"
	 viewBox="0 0 173 105" style="enable-background:new 0 0 173 105;" xml:space="preserve">
<style type="text/css">
	.st0{display:none;}
	.st1{display:inline;fill:#59778E;}
	.st2{fill:#000000;}
	.st3{fill:none;stroke:#000000;stroke-miterlimit:10;}
	.st4{fill:none;stroke:#000000;stroke-width:2;stroke-miterlimit:10;}
	.st5{display:inline;}
	.st6{clip-path:url(#SVGID_1_);}
	.st7{clip-path:url(#SVGID_3_);}
</style>
<g id="Camada_2" class="st0">
	<rect x="-1311.5" y="-209.5" class="st1" width="2269" height="1089"/>
</g>
<g id="Camada_1">
	<g>
		<g>
			<path class="st2" d="M57.77,91.5c-20.4,0-37-16.6-37-37s16.6-37,37-37s37,16.6,37,37S78.17,91.5,57.77,91.5z M57.77,20.21
				c-18.91,0-34.29,15.38-34.29,34.29c0,18.91,15.38,34.29,34.29,34.29S92.06,73.41,92.06,54.5C92.06,35.59,76.67,20.21,57.77,20.21
				z"/>
		</g>
		<g>
			<path class="st2" d="M93.41,54.5c0,19.69-15.96,35.65-35.65,35.65S22.12,74.19,22.12,54.5H93.41z"/>
		</g>
	</g>
	<path class="st4" d="M125.26,0.88c3.59,2.38,49.09,32.97,49.09,51.81s-45.49,49.43-49.09,51.81H1.94V0.88H125.26"/>
</g>
<g id="Camada_3" class="st0">
</g>
</svg>
