<?xml version="1.0" encoding="utf-8"?>
<!-- Generator: Adobe Illustrator 25.0.0, SVG Export Plug-In . SVG Version: 6.00 Build 0)  -->
<svg version="1.1" xmlns="http://www.w3.org/2000/svg" xmlns:xlink="http://www.w3.org/1999/xlink" x="0px" y="0px"
	 viewBox="0 0 500 335" style="enable-background:new 0 0 500 335;" xml:space="preserve">
<style type="text/css">
	.st0{display:none;}
	.st1{display:inline;fill:#59778E;}
	.st2{fill:#000000;}
	.st3{fill:none;stroke:#000000;stroke-miterlimit:10;}
	.st4{fill:none;stroke:#000000;stroke-width:2;stroke-miterlimit:10;}
	.st5{display:inline;}
	.st6{clip-path:url(#SVGID_1_);}
	.st7{clip-path:url(#SVGID_3_);}
</style>
<g id="Camada_2" class="st0">
	<rect x="-228" y="-209.5" class="st1" width="2269" height="1089"/>
</g>
<g id="Camada_1">
	<g>
		<path class="st2" d="M498.75,1.09V334H1.25V1.09H498.75 M499.75,0.09H0.25V335h499.5V0.09L499.75,0.09z"/>
	</g>
	<g>
		<path class="st2" d="M409.57,182.88c4.01,2.66,54.78,36.8,54.78,57.82s-50.77,55.16-54.78,57.82H271.94V182.88H409.57
			 M409.87,181.88H270.94v117.64h138.93c0,0,55.48-36.25,55.48-58.82S409.87,181.88,409.87,181.88L409.87,181.88z"/>
	</g>
	<g>
		<path class="st2" d="M157.66,132.44c-22.9,0-41.52-18.63-41.52-41.52s18.63-41.52,41.52-41.52s41.52,18.63,41.52,41.52
			S180.56,132.44,157.66,132.44z M157.66,52.44c-21.22,0-38.48,17.26-38.48,38.48s17.26,38.48,38.48,38.48s38.48-17.26,38.48-38.48
			S178.88,52.44,157.66,52.44z"/>
	</g>
	<g>
		<path class="st2" d="M197.67,90.92c0,22.09-17.91,40-40,40s-40-17.91-40-40H197.67z"/>
	</g>
	<g>
		<path class="st2" d="M157.66,285.67c-22.9,0-41.52-18.63-41.52-41.52s18.63-41.52,41.52-41.52s41.52,18.63,41.52,41.52
			S180.56,285.67,157.66,285.67z M157.66,205.66c-21.22,0-38.48,17.26-38.48,38.48s17.26,38.48,38.48,38.48s38.48-17.26,38.48-38.48
			S178.88,205.66,157.66,205.66z"/>
	</g>
	<g>
		<path class="st2" d="M197.67,244.15c0,22.09-17.91,40-40,40s-40-17.91-40-40H197.67z"/>
	</g>
	<g>
		<path class="st2" d="M383.86,132.51h-83.19V49.33h83.19V132.51z M303.72,129.48h77.11V52.37h-77.11V129.48z"/>
	</g>
	<g>
		<rect x="302.2" y="90.36" class="st2" width="80.15" height="40.64"/>
	</g>
</g>
<g id="Camada_3" class="st0">
</g>
</svg>
