<?xml version="1.0" encoding="utf-8"?>
<!-- Generator: Adobe Illustrator 25.0.0, SVG Export Plug-In . SVG Version: 6.00 Build 0)  -->
<svg version="1.1" xmlns="http://www.w3.org/2000/svg" xmlns:xlink="http://www.w3.org/1999/xlink" x="0px" y="0px"
	 viewBox="0 0 173 105" style="enable-background:new 0 0 173 105;" xml:space="preserve">
<style type="text/css">
	.st0{display:none;}
	.st1{display:inline;fill:#59778E;}
	.st2{fill:#000000;}
	.st3{fill:none;stroke:#000000;stroke-miterlimit:10;}
	.st4{fill:none;stroke:#000000;stroke-width:2;stroke-miterlimit:10;}
	.st5{clip-path:url(#SVGID_2_);}
	.st6{clip-path:url(#SVGID_4_);}
	.st7{display:inline;}
	.st8{clip-path:url(#SVGID_5_);}
	.st9{clip-path:url(#SVGID_7_);}
</style>
<g id="Camada_2" class="st0">
	<rect x="-1711.5" y="-209.5" class="st1" width="2269" height="1089"/>
</g>
<g id="Camada_1">
	<path class="st4" d="M123.26,1.98c3.59,2.38,49.09,32.97,49.09,51.81s-45.49,49.43-49.09,51.81H-0.06V1.98H123.26"/>
	<g>
		<g>
			<path class="st2" d="M97.84,89.24H26.94V18.35h70.89V89.24z M29.21,86.97h66.35V20.62H29.21V86.97z"/>
		</g>
		<g>
			<g>
				<rect x="34.97" y="19.48" class="st2" width="2.06" height="68.62"/>
			</g>
			<g>
				<rect x="43.77" y="19.48" class="st2" width="2.06" height="68.62"/>
			</g>
			<g>
				<rect x="52.56" y="19.48" class="st2" width="2.06" height="68.62"/>
			</g>
			<g>
				<rect x="61.36" y="19.48" class="st2" width="2.06" height="68.62"/>
			</g>
			<g>
				<rect x="70.16" y="19.48" class="st2" width="2.06" height="68.62"/>
			</g>
			<g>
				<rect x="78.96" y="19.48" class="st2" width="2.06" height="68.62"/>
			</g>
			<g>
				<rect x="87.75" y="19.48" class="st2" width="2.06" height="68.62"/>
			</g>
		</g>
	</g>
</g>
<g id="Camada_3" class="st0">
</g>
</svg>
