<?xml version="1.0" encoding="utf-8"?>
<!-- Generator: Adobe Illustrator 25.0.0, SVG Export Plug-In . SVG Version: 6.00 Build 0)  -->
<svg version="1.1" xmlns="http://www.w3.org/2000/svg" xmlns:xlink="http://www.w3.org/1999/xlink" x="0px" y="0px"
	 viewBox="0 0 500 335" style="enable-background:new 0 0 500 335;" xml:space="preserve">
<style type="text/css">
	.st0{display:none;}
	.st1{display:inline;fill:#59778E;}
	.st2{fill:#000000;}
	.st3{fill:none;stroke:#000000;stroke-miterlimit:10;}
	.st4{fill:none;stroke:#000000;stroke-width:2;stroke-miterlimit:10;}
	.st5{clip-path:url(#SVGID_2_);}
	.st6{clip-path:url(#SVGID_4_);}
	.st7{display:inline;}
	.st8{clip-path:url(#SVGID_5_);}
	.st9{clip-path:url(#SVGID_7_);}
</style>
<g id="Camada_2" class="st0">
	<rect x="-228" y="-209.5" class="st1" width="2269" height="1089"/>
</g>
<g id="Camada_1">
	<g>
		<path class="st2" d="M498.75,1.09V334H1.25V1.09H498.75 M499.75,0.09H0.25V335h499.5V0.09L499.75,0.09z"/>
	</g>
	<g>
		<path class="st2" d="M409.57,182.88c4.01,2.66,54.78,36.8,54.78,57.82s-50.77,55.16-54.78,57.82H271.94V182.88H409.57
			 M409.87,181.88H270.94v117.64h138.93c0,0,55.48-36.25,55.48-58.82S409.87,181.88,409.87,181.88L409.87,181.88z"/>
	</g>
	<g>
		<path class="st2" d="M208.08,286.5h-91.35v-91.35h91.35V286.5z M119.66,283.58h85.5v-85.5h-85.5V283.58z"/>
	</g>
	<g>
		
			<rect x="306.54" y="62.13" transform="matrix(0.7071 -0.7071 0.7071 0.7071 32.218 267.8693)" class="st2" width="65.82" height="65.82"/>
	</g>
	<g>
		<path class="st2" d="M162.61,145.74L114,97.13l48.61-48.61l48.61,48.61L162.61,145.74z M118.14,97.13l44.48,44.48l44.47-44.48
			l-44.47-44.48L118.14,97.13z"/>
	</g>
	<g>
		<rect x="124.01" y="196.61" class="st2" width="2.92" height="88.42"/>
	</g>
	<g>
		<rect x="134.22" y="196.61" class="st2" width="2.92" height="88.42"/>
	</g>
	<g>
		<rect x="144.43" y="196.61" class="st2" width="2.92" height="88.42"/>
	</g>
	<g>
		<rect x="154.65" y="196.61" class="st2" width="2.92" height="88.42"/>
	</g>
	<g>
		<rect x="164.86" y="196.61" class="st2" width="2.92" height="88.42"/>
	</g>
	<g>
		<rect x="175.07" y="196.61" class="st2" width="2.92" height="88.42"/>
	</g>
	<g>
		<rect x="185.28" y="196.61" class="st2" width="2.92" height="88.42"/>
	</g>
	<g>
		<rect x="195.49" y="196.61" class="st2" width="2.92" height="88.42"/>
	</g>
	<g>
		<defs>
			
				<rect id="SVGID_1_" x="129.7" y="64.22" transform="matrix(0.7071 0.7071 -0.7071 0.7071 116.3086 -86.535)" width="65.82" height="65.82"/>
		</defs>
		<clipPath id="SVGID_2_">
			<use xlink:href="#SVGID_1_"  style="overflow:visible;"/>
		</clipPath>
		<g class="st5">
			<g>
				<rect x="121.08" y="35.91" class="st2" width="2.92" height="122.43"/>
			</g>
			<g>
				<rect x="131.15" y="35.91" class="st2" width="2.92" height="122.43"/>
			</g>
			<g>
				<rect x="141.22" y="35.91" class="st2" width="2.92" height="122.43"/>
			</g>
			<g>
				<rect x="151.28" y="35.91" class="st2" width="2.92" height="122.43"/>
			</g>
			<g>
				<rect x="161.35" y="35.91" class="st2" width="2.92" height="122.43"/>
			</g>
			<g>
				<rect x="171.42" y="35.91" class="st2" width="2.92" height="122.43"/>
			</g>
			<g>
				<rect x="181.48" y="35.91" class="st2" width="2.92" height="122.43"/>
			</g>
			<g>
				<rect x="191.55" y="35.91" class="st2" width="2.92" height="122.43"/>
			</g>
			<g>
				<rect x="201.62" y="35.91" class="st2" width="2.92" height="122.43"/>
			</g>
		</g>
	</g>
</g>
<g id="Camada_3" class="st0">
</g>
</svg>
