<?xml version="1.0" encoding="utf-8"?>
<!-- Generator: Adobe Illustrator 25.0.0, SVG Export Plug-In . SVG Version: 6.00 Build 0)  -->
<svg version="1.1" xmlns="http://www.w3.org/2000/svg" xmlns:xlink="http://www.w3.org/1999/xlink" x="0px" y="0px"
	 viewBox="0 0 500 335" style="enable-background:new 0 0 500 335;" xml:space="preserve">
<style type="text/css">
	.st0{display:none;}
	.st1{display:inline;fill:#59778E;}
	.st2{fill:#000000;}
	.st3{fill:none;stroke:#000000;stroke-miterlimit:10;}
	.st4{fill:none;stroke:#000000;stroke-width:2;stroke-miterlimit:10;}
	.st5{display:inline;}
	.st6{clip-path:url(#SVGID_1_);}
	.st7{clip-path:url(#SVGID_3_);}
</style>
<g id="Camada_2" class="st0">
	<rect x="-228" y="-209.5" class="st1" width="2269" height="1089"/>
</g>
<g id="Camada_1">
	<g>
		<path class="st2" d="M498.75,1.09V334H1.25V1.09H498.75 M499.75,0.09H0.25V335h499.5V0.09L499.75,0.09z"/>
	</g>
	<g>
		<path class="st2" d="M409.57,182.88c4.01,2.66,54.78,36.8,54.78,57.82s-50.77,55.16-54.78,57.82H271.94V182.88H409.57
			 M409.87,181.88H270.94v117.64h138.93c0,0,55.48-36.25,55.48-58.82S409.87,181.88,409.87,181.88L409.87,181.88z"/>
	</g>
	<g>
		<g>
			<path class="st2" d="M159.83,137.51l-44.62-44.62l44.62-44.62l44.62,44.62L159.83,137.51z M119.34,92.88l40.49,40.49l40.49-40.49
				l-40.49-40.49L119.34,92.88z"/>
		</g>
	</g>
	<g>
		<g>
			<path class="st2" d="M159.83,286.73l-44.62-44.62l44.62-44.62l44.62,44.62L159.83,286.73z M119.34,242.1l40.49,40.49l40.49-40.49
				l-40.49-40.49L119.34,242.1z"/>
		</g>
		<g>
			<circle class="st2" cx="159.83" cy="242.1" r="8.83"/>
		</g>
	</g>
	<g>
		<path class="st2" d="M335.83,141.27l-16.54-30.39L287.41,94.7l30.6-19.08l17.91-31.12l16.34,31.12l32.53,19.03l-31.32,16.24
			L335.83,141.27z M293.36,94.43l28.07,14.25l14.49,26.63l15.46-26.63l27.37-14.19l-28.68-16.77l-14.26-27.15l-15.62,27.15
			L293.36,94.43z"/>
	</g>
</g>
<g id="Camada_3" class="st0">
</g>
</svg>
