<?xml version="1.0" encoding="utf-8"?>
<!-- Generator: Adobe Illustrator 25.0.0, SVG Export Plug-In . SVG Version: 6.00 Build 0)  -->
<svg version="1.1" xmlns="http://www.w3.org/2000/svg" xmlns:xlink="http://www.w3.org/1999/xlink" x="0px" y="0px"
	 viewBox="0 0 500 335" style="enable-background:new 0 0 500 335;" xml:space="preserve">
<style type="text/css">
	.st0{display:none;}
	.st1{display:inline;fill:#59778E;}
	.st2{fill:#000000;}
	.st3{fill:none;stroke:#000000;stroke-miterlimit:10;}
	.st4{fill:none;stroke:#000000;stroke-width:2;stroke-miterlimit:10;}
	.st5{display:inline;}
	.st6{clip-path:url(#SVGID_1_);}
	.st7{clip-path:url(#SVGID_3_);}
</style>
<g id="Camada_2" class="st0">
	<rect x="-228" y="-209.5" class="st1" width="2269" height="1089"/>
</g>
<g id="Camada_1">
	<g>
		<path class="st2" d="M498.75,1.09V334H1.25V1.09H498.75 M499.75,0.09H0.25V335h499.5V0.09L499.75,0.09z"/>
	</g>
	<g>
		<path class="st2" d="M409.57,182.88c4.01,2.66,54.78,36.8,54.78,57.82s-50.77,55.16-54.78,57.82H271.94V182.88H409.57
			 M409.87,181.88H270.94v117.64h138.93c0,0,55.48-36.25,55.48-58.82S409.87,181.88,409.87,181.88L409.87,181.88z"/>
	</g>
	<g>
		<g>
			<path class="st2" d="M199.26,278.62H125.6v-73.66h73.66V278.62z M128.5,275.72h67.86v-67.86H128.5V275.72z"/>
		</g>
		<g>
			<rect x="160.41" y="206.41" class="st2" width="4.04" height="70.76"/>
		</g>
		<g>
			<rect x="127.05" y="239.77" class="st2" width="70.76" height="4.04"/>
		</g>
	</g>
	<g>
		<path class="st2" d="M164.14,134.65L125,95.51l39.14-39.14l39.14,39.14L164.14,134.65z M129.1,95.51l35.04,35.04l35.04-35.04
			l-35.04-35.04L129.1,95.51z"/>
	</g>
	<g>
		<path class="st2" d="M335.86,134.65l-39.14-39.13l39.14-39.14L375,95.51L335.86,134.65z M300.82,95.51l35.04,35.04l35.04-35.04
			l-35.04-35.04L300.82,95.51z"/>
	</g>
	<g>
		<rect x="127.88" y="94.01" class="st2" width="72.51" height="3"/>
	</g>
	<g>
		<rect x="162.64" y="59.03" class="st2" width="3" height="72.96"/>
	</g>
</g>
<g id="Camada_3" class="st0">
</g>
</svg>
