<?xml version="1.0" encoding="utf-8"?>
<!-- Generator: Adobe Illustrator 25.0.0, SVG Export Plug-In . SVG Version: 6.00 Build 0)  -->
<svg version="1.1" xmlns="http://www.w3.org/2000/svg" xmlns:xlink="http://www.w3.org/1999/xlink" x="0px" y="0px"
	 viewBox="0 0 173 105" style="enable-background:new 0 0 173 105;" xml:space="preserve">
<style type="text/css">
	.st0{display:none;}
	.st1{display:inline;fill:#59778E;}
	.st2{fill:#000000;}
	.st3{fill:none;stroke:#000000;stroke-miterlimit:10;}
	.st4{fill:none;stroke:#000000;stroke-width:2;stroke-miterlimit:10;}
	.st5{display:inline;}
	.st6{clip-path:url(#SVGID_1_);}
	.st7{clip-path:url(#SVGID_3_);}
</style>
<g id="Camada_2" class="st0">
	<rect x="-911.5" y="-209.5" class="st1" width="2269" height="1089"/>
</g>
<g id="Camada_1">
	<path class="st4" d="M123.62,1.98c3.59,2.38,49.09,32.97,49.09,51.81s-45.49,49.43-49.09,51.81H0.29V1.98H123.62"/>
	<g>
		<path class="st2" d="M46.64,33.27c-10.62,0-19.23,8.61-19.23,19.23c0,10.62,8.61,19.23,19.23,19.23
			c10.62,0,19.23-8.61,19.23-19.23C65.87,41.88,57.26,33.27,46.64,33.27z M46.64,65.34c-7.09,0-12.83-5.75-12.83-12.84
			c0-7.09,5.75-12.84,12.83-12.84c7.09,0,12.84,5.75,12.84,12.84C59.48,59.59,53.73,65.34,46.64,65.34z"/>
	</g>
</g>
<g id="Camada_3" class="st0">
</g>
</svg>
