<?xml version="1.0" encoding="utf-8"?>
<!-- Generator: Adobe Illustrator 25.0.0, SVG Export Plug-In . SVG Version: 6.00 Build 0)  -->
<svg version="1.1" xmlns="http://www.w3.org/2000/svg" xmlns:xlink="http://www.w3.org/1999/xlink" x="0px" y="0px"
	 viewBox="0 0 500 335" style="enable-background:new 0 0 500 335;" xml:space="preserve">
<style type="text/css">
	.st0{display:none;}
	.st1{display:inline;fill:#59778E;}
	.st2{fill:#000000;}
	.st3{fill:none;stroke:#000000;stroke-miterlimit:10;}
	.st4{fill:none;stroke:#000000;stroke-width:2;stroke-miterlimit:10;}
	.st5{display:inline;}
	.st6{clip-path:url(#SVGID_1_);}
	.st7{clip-path:url(#SVGID_3_);}
</style>
<g id="Camada_2" class="st0">
	<rect x="-228" y="-209.5" class="st1" width="2269" height="1089"/>
</g>
<g id="Camada_1">
	<g>
		<path class="st2" d="M498.75,1.09V334H1.25V1.09H498.75 M499.75,0.09H0.25V335h499.5V0.09L499.75,0.09z"/>
	</g>
	<g>
		<path class="st2" d="M409.57,182.88c4.01,2.66,54.78,36.8,54.78,57.82s-50.77,55.16-54.78,57.82H271.94V182.88H409.57
			 M409.87,181.88H270.94v117.64h138.93c0,0,55.48-36.25,55.48-58.82S409.87,181.88,409.87,181.88L409.87,181.88z"/>
	</g>
	<g>
		<path class="st2" d="M163.96,73.39c-11.58,0-20.97,9.39-20.97,20.97c0,11.58,9.39,20.97,20.97,20.97
			c11.58,0,20.98-9.39,20.98-20.97C184.94,82.78,175.55,73.39,163.96,73.39z M163.96,108.37c-7.73,0-14-6.27-14-14
			c0-7.73,6.27-14,14-14c7.73,0,14,6.27,14,14C177.97,102.1,171.7,108.37,163.96,108.37z"/>
	</g>
	<g>
		<path class="st2" d="M164.23,219.88c-11.58,0-20.97,9.39-20.97,20.97c0,11.58,9.39,20.97,20.97,20.97
			c11.58,0,20.98-9.39,20.98-20.97C185.21,229.27,175.82,219.88,164.23,219.88z M164.23,254.86c-7.73,0-14-6.27-14-14
			c0-7.73,6.27-14,14-14c7.73,0,14,6.27,14,14C178.24,248.59,171.97,254.86,164.23,254.86z"/>
	</g>
	<g>
		<path class="st2" d="M205.81,136.1h-82.6V53.5h82.6V136.1z M126.1,133.21h76.81V56.39H126.1V133.21z"/>
	</g>
	<g>
		<path class="st2" d="M205.54,281.5h-82.6v-82.6h82.6V281.5z M125.83,278.61h76.81v-76.81h-76.81V278.61z"/>
	</g>
	<g>
		<path class="st2" d="M164.5,136.26l-40.95-40.95l40.95-40.95l40.95,40.95L164.5,136.26z M127.65,95.31l36.85,36.85l36.85-36.85
			L164.5,58.46L127.65,95.31z"/>
	</g>
	<g>
		<path class="st2" d="M377.07,136.1h-82.6V53.5h82.6V136.1z M297.36,133.21h76.81V56.39h-76.81V133.21z"/>
	</g>
	<g>
		<path class="st2" d="M335.77,136.26l-40.95-40.95l40.95-40.95l40.95,40.95L335.77,136.26z M298.91,95.31l36.85,36.85l36.85-36.85
			l-36.85-36.85L298.91,95.31z"/>
	</g>
</g>
<g id="Camada_3" class="st0">
</g>
</svg>
