<?xml version="1.0" encoding="utf-8"?>
<!-- Generator: Adobe Illustrator 25.0.0, SVG Export Plug-In . SVG Version: 6.00 Build 0)  -->
<svg version="1.1" xmlns="http://www.w3.org/2000/svg" xmlns:xlink="http://www.w3.org/1999/xlink" x="0px" y="0px"
	 viewBox="0 0 173 105" style="enable-background:new 0 0 173 105;" xml:space="preserve">
<style type="text/css">
	.st0{display:none;}
	.st1{display:inline;fill:#59778E;}
	.st2{fill:#000000;}
	.st3{fill:none;stroke:#000000;stroke-width:2;stroke-miterlimit:10;}
	.st4{display:inline;}
	.st5{clip-path:url(#SVGID_1_);}
	.st6{clip-path:url(#SVGID_3_);}
</style>
<g id="Camada_2" class="st0">
	<rect x="-2297.5" y="-209.5" class="st1" width="2668" height="1089"/>
</g>
<g id="Camada_1">
	<path class="st3" d="M123.26,1.98c3.59,2.38,49.09,32.97,49.09,51.81s-45.49,49.43-49.09,51.81H-0.06V1.98H123.26"/>
	<g>
		<g>
			<path class="st2" d="M70.67,68.33c-6.99,0-12.68-5.69-12.68-12.68s5.69-12.68,12.68-12.68c6.99,0,12.67,5.69,12.67,12.68
				S77.65,68.33,70.67,68.33z M70.67,45.46c-5.62,0-10.19,4.57-10.19,10.19s4.57,10.19,10.19,10.19c5.62,0,10.19-4.57,10.19-10.19
				S76.28,45.46,70.67,45.46z"/>
		</g>
		<g>
			<path class="st2" d="M70.67,81.25c-14.12,0-25.6-11.48-25.6-25.6s11.48-25.6,25.6-25.6s25.6,11.48,25.6,25.6
				S84.78,81.25,70.67,81.25z M70.67,32.54c-12.74,0-23.11,10.37-23.11,23.11s10.37,23.11,23.11,23.11s23.11-10.37,23.11-23.11
				S83.41,32.54,70.67,32.54z"/>
		</g>
		<g>
			<path class="st2" d="M70.67,91.48c-19.76,0-35.84-16.07-35.84-35.83s16.08-35.84,35.84-35.84s35.83,16.08,35.83,35.84
				S90.43,91.48,70.67,91.48z M70.67,22.3c-18.39,0-33.35,14.96-33.35,33.35s14.96,33.35,33.35,33.35s33.35-14.96,33.35-33.35
				S89.05,22.3,70.67,22.3z"/>
		</g>
	</g>
</g>
<g id="Camada_3" class="st0">
</g>
</svg>
