<?xml version="1.0" encoding="utf-8"?>
<!-- Generator: Adobe Illustrator 25.0.0, SVG Export Plug-In . SVG Version: 6.00 Build 0)  -->
<svg version="1.1" xmlns="http://www.w3.org/2000/svg" xmlns:xlink="http://www.w3.org/1999/xlink" x="0px" y="0px"
	 viewBox="0 0 173 105" style="enable-background:new 0 0 173 105;" xml:space="preserve">
<style type="text/css">
	.st0{display:none;}
	.st1{display:inline;fill:#59778E;}
	.st2{fill:#000000;}
	.st3{fill:none;stroke:#000000;stroke-width:2;stroke-miterlimit:10;}
	.st4{display:inline;}
	.st5{clip-path:url(#SVGID_1_);}
	.st6{clip-path:url(#SVGID_3_);}
</style>
<g id="Camada_2" class="st0">
	<rect x="-1311.5" y="-209.5" class="st1" width="2668" height="1089"/>
</g>
<g id="Camada_1">
	<path class="st3" d="M125.26,1.98c3.59,2.38,49.09,32.97,49.09,51.81s-45.49,49.43-49.09,51.81H1.94V1.98H125.26"/>
	<g>
		<g>
			<path class="st2" d="M61.75,81.21c-13.81,0-25.05-11.24-25.05-25.05s11.24-25.05,25.05-25.05S86.8,42.35,86.8,56.16
				S75.56,81.21,61.75,81.21z M61.75,33.6c-12.44,0-22.56,10.12-22.56,22.56s10.12,22.56,22.56,22.56S84.31,68.6,84.31,56.16
				S74.19,33.6,61.75,33.6z"/>
		</g>
		<g>
			<path class="st2" d="M61.75,68.84c-6.99,0-12.67-5.69-12.67-12.68s5.69-12.68,12.67-12.68c6.99,0,12.68,5.69,12.68,12.68
				S68.74,68.84,61.75,68.84z M61.75,45.97c-5.62,0-10.19,4.57-10.19,10.19s4.57,10.19,10.19,10.19c5.62,0,10.19-4.57,10.19-10.19
				S67.37,45.97,61.75,45.97z"/>
		</g>
	</g>
</g>
<g id="Camada_3" class="st0">
</g>
</svg>
