<?xml version="1.0" encoding="utf-8"?>
<!-- Generator: Adobe Illustrator 25.0.0, SVG Export Plug-In . SVG Version: 6.00 Build 0)  -->
<svg version="1.1" xmlns="http://www.w3.org/2000/svg" xmlns:xlink="http://www.w3.org/1999/xlink" x="0px" y="0px"
	 viewBox="0 0 173 105" style="enable-background:new 0 0 173 105;" xml:space="preserve">
<style type="text/css">
	.st0{display:none;}
	.st1{display:inline;fill:#59778E;}
	.st2{fill:#000000;}
	.st3{fill:none;stroke:#000000;stroke-width:2;stroke-miterlimit:10;}
	.st4{display:inline;}
	.st5{clip-path:url(#SVGID_1_);}
	.st6{clip-path:url(#SVGID_3_);}
</style>
<g id="Camada_2" class="st0">
	<rect x="-1111.5" y="-209.5" class="st1" width="2668" height="1089"/>
</g>
<g id="Camada_1">
	<path class="st3" d="M125.26,1.98c3.59,2.38,49.09,32.97,49.09,51.81s-45.49,49.43-49.09,51.81H1.94V1.98H125.26"/>
	<g>
		<g>
			<path class="st2" d="M72.32,81.21c-13.69,0-24.82-11.13-24.82-24.82c0-13.69,11.13-24.82,24.82-24.82
				c13.69,0,24.82,11.13,24.82,24.82C97.14,70.08,86.01,81.21,72.32,81.21z M72.32,34.06c-12.31,0-22.33,10.02-22.33,22.33
				c0,12.31,10.02,22.33,22.33,22.33c12.31,0,22.33-10.02,22.33-22.33C94.65,44.08,84.63,34.06,72.32,34.06z"/>
		</g>
		<g>
			<path class="st2" d="M72.32,89.11c-18.04,0-32.72-14.68-32.72-32.72c0-18.04,14.68-32.72,32.72-32.72
				c18.04,0,32.72,14.68,32.72,32.72C105.04,74.43,90.36,89.11,72.32,89.11z M72.32,26.15c-16.67,0-30.23,13.56-30.23,30.23
				s13.56,30.24,30.23,30.24s30.24-13.56,30.24-30.24S88.99,26.15,72.32,26.15z"/>
		</g>
		<g>
			<path class="st2" d="M72.32,95.48c-21.56,0-39.09-17.54-39.09-39.1s17.54-39.1,39.09-39.1s39.1,17.54,39.1,39.1
				S93.88,95.48,72.32,95.48z M72.32,19.78c-20.19,0-36.61,16.42-36.61,36.61S52.13,93,72.32,93s36.61-16.42,36.61-36.61
				S92.51,19.78,72.32,19.78z"/>
		</g>
		<g>
			<path class="st2" d="M72.32,73.48c-9.43,0-17.09-7.67-17.09-17.09S62.89,39.3,72.32,39.3s17.09,7.67,17.09,17.09
				S81.75,73.48,72.32,73.48z M72.32,41.78c-8.05,0-14.6,6.55-14.6,14.6s6.55,14.61,14.6,14.61s14.61-6.55,14.61-14.61
				S80.37,41.78,72.32,41.78z"/>
		</g>
		<g>
			<path class="st2" d="M72.32,65.58c-5.06,0-9.19-4.12-9.19-9.19c0-5.06,4.12-9.19,9.19-9.19c5.07,0,9.19,4.12,9.19,9.19
				C81.51,61.45,77.39,65.58,72.32,65.58z M72.32,49.69c-3.69,0-6.7,3-6.7,6.7s3,6.7,6.7,6.7s6.7-3.01,6.7-6.7
				S76.01,49.69,72.32,49.69z"/>
		</g>
	</g>
</g>
<g id="Camada_3" class="st0">
</g>
</svg>
