<?xml version="1.0" encoding="utf-8"?>
<!-- Generator: Adobe Illustrator 25.0.0, SVG Export Plug-In . SVG Version: 6.00 Build 0)  -->
<svg version="1.1" xmlns="http://www.w3.org/2000/svg" xmlns:xlink="http://www.w3.org/1999/xlink" x="0px" y="0px"
	 viewBox="0 0 500 335" style="enable-background:new 0 0 500 335;" xml:space="preserve">
<style type="text/css">
	.st0{display:none;}
	.st1{display:inline;fill:#59778E;}
	.st2{fill:#000000;}
	.st3{fill:none;stroke:#000000;stroke-width:2;stroke-miterlimit:10;}
	.st4{display:inline;}
	.st5{clip-path:url(#SVGID_1_);}
	.st6{clip-path:url(#SVGID_3_);}
</style>
<g id="Camada_2" class="st0">
	<rect x="-228" y="-209.5" class="st1" width="2668" height="1089"/>
</g>
<g id="Camada_1">
	<g>
		<path class="st2" d="M498.75,1.09V334H1.25V1.09H498.75 M499.75,0.09H0.25V335h499.5V0.09L499.75,0.09z"/>
	</g>
	<g>
		<path class="st2" d="M418.73,194.43c3.35,2.22,45.73,30.72,45.73,48.27c0,17.55-42.38,46.05-45.73,48.27H303.83v-96.53H418.73
			 M418.98,193.6H303v98.2h115.98c0,0,46.31-30.26,46.31-49.1S418.98,193.6,418.98,193.6L418.98,193.6z"/>
	</g>
	<g>
		<g>
			<path class="st2" d="M141.86,83.06c-7.32,0-13.28-5.96-13.28-13.28c0-7.32,5.96-13.28,13.28-13.28c7.32,0,13.28,5.96,13.28,13.28
				C155.14,77.1,149.18,83.06,141.86,83.06z M141.86,58.93c-5.98,0-10.84,4.86-10.84,10.84s4.86,10.85,10.84,10.85
				c5.98,0,10.85-4.87,10.85-10.85S147.84,58.93,141.86,58.93z"/>
		</g>
		<g>
			<path class="st2" d="M256.17,83.06c-7.32,0-13.28-5.96-13.28-13.28c0-7.32,5.96-13.28,13.28-13.28c7.32,0,13.28,5.96,13.28,13.28
				C269.45,77.1,263.49,83.06,256.17,83.06z M256.17,58.93c-5.98,0-10.84,4.86-10.84,10.84s4.86,10.85,10.84,10.85
				c5.98,0,10.85-4.87,10.85-10.85S262.15,58.93,256.17,58.93z"/>
		</g>
		<g>
			<path class="st2" d="M369.41,83.06c-7.32,0-13.28-5.96-13.28-13.28c0-7.32,5.96-13.28,13.28-13.28c7.32,0,13.28,5.96,13.28,13.28
				C382.69,77.1,376.73,83.06,369.41,83.06z M369.41,58.93c-5.98,0-10.85,4.86-10.85,10.84s4.87,10.85,10.85,10.85
				s10.84-4.87,10.84-10.85S375.39,58.93,369.41,58.93z"/>
		</g>
		<g>
			<g>
				<path class="st2" d="M141.86,168.51c-7.32,0-13.28-5.96-13.28-13.28c0-7.32,5.96-13.28,13.28-13.28
					c7.32,0,13.28,5.96,13.28,13.28C155.14,162.56,149.18,168.51,141.86,168.51z M141.86,144.39c-5.98,0-10.84,4.86-10.84,10.84
					s4.86,10.85,10.84,10.85c5.98,0,10.85-4.87,10.85-10.85S147.84,144.39,141.86,144.39z"/>
			</g>
			<g>
				<path class="st2" d="M141.86,179.53c-13.4,0-24.3-10.9-24.3-24.3c0-13.4,10.9-24.3,24.3-24.3c13.4,0,24.3,10.9,24.3,24.3
					C166.16,168.63,155.26,179.53,141.86,179.53z M141.86,133.36c-12.06,0-21.87,9.81-21.87,21.87s9.81,21.87,21.87,21.87
					s21.87-9.81,21.87-21.87S153.92,133.36,141.86,133.36z"/>
			</g>
		</g>
		<g>
			<g>
				<path class="st2" d="M256.17,168.51c-7.32,0-13.28-5.96-13.28-13.28c0-7.32,5.96-13.28,13.28-13.28
					c7.32,0,13.28,5.96,13.28,13.28C269.45,162.56,263.49,168.51,256.17,168.51z M256.17,144.39c-5.98,0-10.84,4.86-10.84,10.84
					s4.86,10.85,10.84,10.85c5.98,0,10.85-4.87,10.85-10.85S262.15,144.39,256.17,144.39z"/>
			</g>
			<g>
				<path class="st2" d="M256.17,179.53c-13.4,0-24.3-10.9-24.3-24.3c0-13.4,10.9-24.3,24.3-24.3s24.3,10.9,24.3,24.3
					C280.47,168.63,269.57,179.53,256.17,179.53z M256.17,133.36c-12.06,0-21.87,9.81-21.87,21.87s9.81,21.87,21.87,21.87
					s21.87-9.81,21.87-21.87S268.23,133.36,256.17,133.36z"/>
			</g>
		</g>
		<g>
			<g>
				<path class="st2" d="M369.41,168.51c-7.32,0-13.28-5.96-13.28-13.28c0-7.32,5.96-13.28,13.28-13.28
					c7.32,0,13.28,5.96,13.28,13.28C382.69,162.56,376.73,168.51,369.41,168.51z M369.41,144.39c-5.98,0-10.85,4.86-10.85,10.84
					s4.87,10.85,10.85,10.85s10.84-4.87,10.84-10.85S375.39,144.39,369.41,144.39z"/>
			</g>
			<g>
				<path class="st2" d="M369.41,179.53c-13.4,0-24.3-10.9-24.3-24.3c0-13.4,10.9-24.3,24.3-24.3s24.3,10.9,24.3,24.3
					C393.71,168.63,382.81,179.53,369.41,179.53z M369.41,133.36c-12.06,0-21.87,9.81-21.87,21.87s9.81,21.87,21.87,21.87
					s21.87-9.81,21.87-21.87S381.47,133.36,369.41,133.36z"/>
			</g>
		</g>
		<g>
			<g>
				<path class="st2" d="M256.17,256.21c-7.32,0-13.28-5.96-13.28-13.28c0-7.32,5.96-13.28,13.28-13.28
					c7.32,0,13.28,5.96,13.28,13.28C269.45,250.25,263.49,256.21,256.17,256.21z M256.17,232.08c-5.98,0-10.84,4.87-10.84,10.85
					s4.86,10.84,10.84,10.84c5.98,0,10.85-4.86,10.85-10.84S262.15,232.08,256.17,232.08z"/>
			</g>
			<g>
				<path class="st2" d="M256.17,267.42c-13.51,0-24.49-10.99-24.49-24.49s10.99-24.49,24.49-24.49s24.49,10.99,24.49,24.49
					S269.67,267.42,256.17,267.42z M256.17,220.87c-12.17,0-22.06,9.9-22.06,22.06c0,12.16,9.9,22.06,22.06,22.06
					c12.17,0,22.06-9.9,22.06-22.06C278.23,230.76,268.33,220.87,256.17,220.87z"/>
			</g>
			<g>
				<path class="st2" d="M256.17,278.5c-19.61,0-35.57-15.96-35.57-35.57c0-19.62,15.96-35.57,35.57-35.57s35.57,15.96,35.57,35.57
					C291.74,262.54,275.78,278.5,256.17,278.5z M256.17,209.79c-18.27,0-33.14,14.87-33.14,33.14c0,18.27,14.87,33.14,33.14,33.14
					s33.14-14.87,33.14-33.14C289.31,224.65,274.44,209.79,256.17,209.79z"/>
			</g>
		</g>
		<g>
			<g>
				<path class="st2" d="M141.86,256.21c-7.32,0-13.28-5.96-13.28-13.28c0-7.32,5.96-13.28,13.28-13.28
					c7.32,0,13.28,5.96,13.28,13.28C155.14,250.25,149.18,256.21,141.86,256.21z M141.86,232.08c-5.98,0-10.84,4.87-10.84,10.85
					s4.86,10.84,10.84,10.84c5.98,0,10.85-4.86,10.85-10.84S147.84,232.08,141.86,232.08z"/>
			</g>
			<g>
				<path class="st2" d="M141.86,267.42c-13.51,0-24.49-10.99-24.49-24.49s10.99-24.49,24.49-24.49s24.49,10.99,24.49,24.49
					S155.37,267.42,141.86,267.42z M141.86,220.87c-12.16,0-22.06,9.9-22.06,22.06c0,12.16,9.9,22.06,22.06,22.06
					c12.17,0,22.06-9.9,22.06-22.06C163.92,230.76,154.03,220.87,141.86,220.87z"/>
			</g>
			<g>
				<path class="st2" d="M141.86,278.5c-19.61,0-35.57-15.96-35.57-35.57c0-19.62,15.96-35.57,35.57-35.57
					c19.62,0,35.57,15.96,35.57,35.57C177.44,262.54,161.48,278.5,141.86,278.5z M141.86,209.79c-18.27,0-33.14,14.87-33.14,33.14
					c0,18.27,14.87,33.14,33.14,33.14c18.27,0,33.14-14.87,33.14-33.14C175,224.65,160.14,209.79,141.86,209.79z"/>
			</g>
		</g>
	</g>
</g>
<g id="Camada_3" class="st0">
</g>
</svg>
