<?xml version="1.0" encoding="utf-8"?>
<!-- Generator: Adobe Illustrator 25.0.0, SVG Export Plug-In . SVG Version: 6.00 Build 0)  -->
<svg version="1.1" xmlns="http://www.w3.org/2000/svg" xmlns:xlink="http://www.w3.org/1999/xlink" x="0px" y="0px"
	 viewBox="0 0 173 105" style="enable-background:new 0 0 173 105;" xml:space="preserve">
<style type="text/css">
	.st0{display:none;}
	.st1{display:inline;fill:#59778E;}
	.st2{fill:#000000;}
	.st3{fill:none;stroke:#000000;stroke-width:2;stroke-miterlimit:10;}
	.st4{display:inline;}
	.st5{clip-path:url(#SVGID_1_);}
	.st6{clip-path:url(#SVGID_3_);}
</style>
<g id="Camada_2" class="st0">
	<rect x="-1508" y="-209.5" class="st1" width="2668" height="1089"/>
</g>
<g id="Camada_1">
	<path class="st3" d="M123.76,1.98c3.59,2.38,49.09,32.97,49.09,51.81s-45.49,49.43-49.09,51.81H0.44V1.98H123.76"/>
	<g>
		<g>
			<circle class="st2" cx="60.32" cy="52.69" r="9.66"/>
		</g>
		<g>
			<rect x="57.71" y="17.29" class="st2" width="5.22" height="74.68"/>
		</g>
		<g>
			<rect x="104.43" y="42.62" class="st2" width="5.22" height="20.14"/>
		</g>
		<g>
			<rect x="10.99" y="42.62" class="st2" width="5.22" height="20.14"/>
		</g>
		<g>
			<rect x="50.25" y="91.97" class="st2" width="20.14" height="5.22"/>
		</g>
		<g>
			<rect x="50.25" y="12.06" class="st2" width="20.14" height="5.22"/>
		</g>
		<g>
			<rect x="16.21" y="50.08" class="st2" width="88.22" height="5.22"/>
		</g>
		<g>
			<rect x="57.71" y="17.29" class="st2" width="5.22" height="74.68"/>
		</g>
		<g>
			<rect x="16.21" y="50.08" class="st2" width="88.22" height="5.22"/>
		</g>
		<g>
			<g>
				
					<rect x="83.29" y="83.12" transform="matrix(0.7071 -0.7071 0.7071 0.7071 -33.2764 91.1239)" class="st2" width="20.14" height="5.22"/>
			</g>
			<g>
				
					<rect x="17.21" y="17.04" transform="matrix(0.7071 -0.7071 0.7071 0.7071 -5.908 25.0506)" class="st2" width="20.14" height="5.22"/>
			</g>
			<g>
				
					<rect x="57.71" y="8.58" transform="matrix(0.7071 -0.7071 0.7071 0.7071 -19.5922 58.0873)" class="st2" width="5.22" height="88.22"/>
			</g>
		</g>
		<g>
			<g>
				
					<rect x="24.67" y="75.66" transform="matrix(0.7071 -0.7071 0.7071 0.7071 -52.6289 44.4031)" class="st2" width="5.22" height="20.14"/>
			</g>
			<g>
				
					<rect x="90.75" y="9.59" transform="matrix(0.7071 -0.7071 0.7071 0.7071 13.4444 71.7715)" class="st2" width="5.22" height="20.14"/>
			</g>
			<g>
				
					<rect x="16.21" y="50.08" transform="matrix(0.7071 -0.7071 0.7071 0.7071 -19.5922 58.0873)" class="st2" width="88.22" height="5.22"/>
			</g>
		</g>
	</g>
</g>
<g id="Camada_3" class="st0">
</g>
</svg>
