<?xml version="1.0" encoding="utf-8"?>
<!-- Generator: Adobe Illustrator 25.0.0, SVG Export Plug-In . SVG Version: 6.00 Build 0)  -->
<svg version="1.1" xmlns="http://www.w3.org/2000/svg" xmlns:xlink="http://www.w3.org/1999/xlink" x="0px" y="0px"
	 viewBox="0 0 500 335" style="enable-background:new 0 0 500 335;" xml:space="preserve">
<style type="text/css">
	.st0{display:none;}
	.st1{display:inline;fill:#59778E;}
	.st2{fill:#000000;}
	.st3{fill:none;stroke:#000000;stroke-width:2;stroke-miterlimit:10;}
	.st4{display:inline;}
	.st5{clip-path:url(#SVGID_1_);}
	.st6{clip-path:url(#SVGID_3_);}
</style>
<g id="Camada_2" class="st0">
	<rect x="-228" y="-209.5" class="st1" width="2668" height="1089"/>
</g>
<g id="Camada_1">
	<g>
		<path class="st2" d="M498.75,1.09V334H1.25V1.09H498.75 M499.75,0.09H0.25V335h499.5V0.09L499.75,0.09z"/>
	</g>
	<g>
		<path class="st2" d="M418.73,194.43c3.35,2.22,45.73,30.72,45.73,48.27c0,17.55-42.38,46.05-45.73,48.27H303.83v-96.53H418.73
			 M418.98,193.6H303v98.2h115.98c0,0,46.31-30.26,46.31-49.1S418.98,193.6,418.98,193.6L418.98,193.6z"/>
	</g>
	<g>
		<g>
			<circle class="st2" cx="124.14" cy="76.02" r="4.21"/>
		</g>
		<g>
			<rect x="123" y="69.74" class="st2" width="2.28" height="12.55"/>
		</g>
		<g>
			<rect x="111.23" y="72.84" class="st2" width="2.28" height="6.36"/>
		</g>
		<g>
			<rect x="134.77" y="72.84" class="st2" width="2.28" height="6.36"/>
		</g>
		<g>
			<rect x="120.96" y="67.46" class="st2" width="6.36" height="2.28"/>
		</g>
		<g>
			<rect x="120.96" y="82.29" class="st2" width="6.36" height="2.28"/>
		</g>
		<g>
			<rect x="113.51" y="74.88" class="st2" width="21.26" height="2.28"/>
		</g>
	</g>
	<g>
		<g>
			<circle class="st2" cx="241.35" cy="76.02" r="4.21"/>
		</g>
		<g>
			<rect x="240.21" y="65.09" class="st2" width="2.28" height="21.84"/>
		</g>
		<g>
			<rect x="235.47" y="62.82" class="st2" width="11.75" height="2.28"/>
		</g>
		<g>
			<rect x="235.47" y="86.94" class="st2" width="11.75" height="2.28"/>
		</g>
		<g>
			<rect x="260.22" y="70.14" class="st2" width="2.28" height="11.75"/>
		</g>
		<g>
			<rect x="220.21" y="70.14" class="st2" width="2.28" height="11.75"/>
		</g>
		<g>
			<rect x="222.49" y="74.88" class="st2" width="37.73" height="2.28"/>
		</g>
	</g>
	<g>
		<g>
			<circle class="st2" cx="124.14" cy="243.18" r="6.82"/>
		</g>
		<g>
			<rect x="122.29" y="225.49" class="st2" width="3.69" height="35.38"/>
		</g>
		<g>
			<rect x="119.2" y="221.81" class="st2" width="9.86" height="3.69"/>
		</g>
		<g>
			<rect x="117.32" y="260.87" class="st2" width="13.63" height="3.69"/>
		</g>
		<g>
			<rect x="150.49" y="236.63" class="st2" width="3.69" height="13.1"/>
		</g>
		<g>
			<rect x="94.09" y="236.63" class="st2" width="3.69" height="13.1"/>
		</g>
		<g>
			<rect x="97.78" y="241.34" class="st2" width="52.71" height="3.69"/>
		</g>
	</g>
	<g>
		<g>
			<circle class="st2" cx="241.35" cy="158.16" r="6.82"/>
		</g>
		<g>
			<rect x="239.51" y="140.47" class="st2" width="3.69" height="35.38"/>
		</g>
		<g>
			<rect x="236.42" y="136.78" class="st2" width="9.86" height="3.69"/>
		</g>
		<g>
			<rect x="234.54" y="175.85" class="st2" width="13.63" height="3.69"/>
		</g>
		<g>
			<rect x="267.71" y="151.61" class="st2" width="3.69" height="13.1"/>
		</g>
		<g>
			<rect x="211.31" y="151.61" class="st2" width="3.69" height="13.1"/>
		</g>
		<g>
			<rect x="215" y="156.31" class="st2" width="52.71" height="3.69"/>
		</g>
	</g>
	<g>
		<g>
			<circle class="st2" cx="241.35" cy="243.18" r="6.82"/>
		</g>
		<g>
			<rect x="239.51" y="218.2" class="st2" width="3.69" height="52.7"/>
		</g>
		<g>
			<rect x="234.54" y="214.51" class="st2" width="13.63" height="3.69"/>
		</g>
		<g>
			<rect x="233.13" y="270.9" class="st2" width="16.45" height="3.69"/>
		</g>
		<g>
			<rect x="206.53" y="234.06" class="st2" width="3.69" height="18.26"/>
		</g>
		<g>
			<rect x="272.48" y="234.06" class="st2" width="3.69" height="18.26"/>
		</g>
		<g>
			<rect x="210.22" y="241.34" class="st2" width="62.26" height="3.69"/>
		</g>
	</g>
	<g>
		<g>
			<circle class="st2" cx="360.17" cy="157.93" r="6.82"/>
		</g>
		<g>
			<rect x="358.33" y="132.94" class="st2" width="3.69" height="52.7"/>
		</g>
		<g>
			<rect x="353.35" y="129.26" class="st2" width="13.63" height="3.69"/>
		</g>
		<g>
			<rect x="351.95" y="185.65" class="st2" width="16.45" height="3.69"/>
		</g>
		<g>
			<rect x="325.35" y="148.8" class="st2" width="3.69" height="18.26"/>
		</g>
		<g>
			<rect x="391.3" y="148.8" class="st2" width="3.69" height="18.26"/>
		</g>
		<g>
			<rect x="329.04" y="156.09" class="st2" width="62.26" height="3.69"/>
		</g>
	</g>
	<g>
		<g>
			<circle class="st2" cx="360.17" cy="74.88" r="6.82"/>
		</g>
		<g>
			<rect x="358.33" y="57.19" class="st2" width="3.69" height="35.38"/>
		</g>
		<g>
			<rect x="355.24" y="53.5" class="st2" width="9.86" height="3.69"/>
		</g>
		<g>
			<rect x="353.35" y="92.57" class="st2" width="13.63" height="3.69"/>
		</g>
		<g>
			<rect x="386.52" y="68.33" class="st2" width="3.69" height="13.1"/>
		</g>
		<g>
			<rect x="330.13" y="68.33" class="st2" width="3.69" height="13.1"/>
		</g>
		<g>
			<rect x="333.81" y="73.03" class="st2" width="52.71" height="3.69"/>
		</g>
	</g>
	<g>
		<g>
			<circle class="st2" cx="124.14" cy="158.16" r="4.21"/>
		</g>
		<g>
			<rect x="123" y="147.24" class="st2" width="2.28" height="21.84"/>
		</g>
		<g>
			<rect x="118.26" y="144.96" class="st2" width="11.75" height="2.28"/>
		</g>
		<g>
			<rect x="118.26" y="169.08" class="st2" width="11.75" height="2.28"/>
		</g>
		<g>
			<rect x="143" y="152.28" class="st2" width="2.28" height="11.75"/>
		</g>
		<g>
			<rect x="103" y="152.28" class="st2" width="2.28" height="11.75"/>
		</g>
		<g>
			<rect x="105.27" y="157.02" class="st2" width="37.73" height="2.28"/>
		</g>
	</g>
</g>
<g id="Camada_3" class="st0">
</g>
</svg>
