<?xml version="1.0" encoding="utf-8"?>
<!-- Generator: Adobe Illustrator 25.0.0, SVG Export Plug-In . SVG Version: 6.00 Build 0)  -->
<svg version="1.1" xmlns="http://www.w3.org/2000/svg" xmlns:xlink="http://www.w3.org/1999/xlink" x="0px" y="0px"
	 viewBox="0 0 173 105" style="enable-background:new 0 0 173 105;" xml:space="preserve">
<style type="text/css">
	.st0{display:none;}
	.st1{display:inline;fill:#59778E;}
	.st2{fill:#000000;}
	.st3{fill:none;stroke:#000000;stroke-width:2;stroke-miterlimit:10;}
	.st4{display:inline;}
	.st5{clip-path:url(#SVGID_1_);}
	.st6{clip-path:url(#SVGID_3_);}
</style>
<g id="Camada_2" class="st0">
	<rect x="-911.5" y="-209.5" class="st1" width="2668" height="1089"/>
</g>
<g id="Camada_1">
	<path class="st3" d="M123.62,1.98c3.59,2.38,49.09,32.97,49.09,51.81s-45.49,49.43-49.09,51.81H0.29V1.98H123.62"/>
	<g>
		<g>
			<circle class="st2" cx="21.12" cy="23.71" r="9.7"/>
		</g>
		<g>
			<circle class="st2" cx="21.99" cy="44.24" r="9.7"/>
		</g>
		<g>
			<circle class="st2" cx="21.99" cy="64.76" r="9.7"/>
		</g>
		<g>
			<circle class="st2" cx="23.25" cy="85.29" r="9.7"/>
		</g>
		<g>
			<circle class="st2" cx="43.59" cy="23.71" r="9.7"/>
		</g>
		<g>
			<circle class="st2" cx="44.46" cy="44.24" r="9.7"/>
		</g>
		<g>
			<circle class="st2" cx="44.46" cy="64.76" r="9.7"/>
		</g>
		<g>
			<circle class="st2" cx="45.72" cy="85.29" r="9.7"/>
		</g>
		<g>
			<circle class="st2" cx="65.11" cy="23.71" r="9.7"/>
		</g>
		<g>
			<circle class="st2" cx="65.99" cy="44.24" r="9.7"/>
		</g>
		<g>
			<circle class="st2" cx="65.99" cy="64.76" r="9.7"/>
		</g>
		<g>
			<circle class="st2" cx="67.25" cy="85.29" r="9.7"/>
		</g>
		<g>
			<circle class="st2" cx="86.64" cy="23.71" r="9.7"/>
		</g>
		<g>
			<circle class="st2" cx="87.51" cy="44.24" r="9.7"/>
		</g>
		<g>
			<circle class="st2" cx="87.51" cy="64.76" r="9.7"/>
		</g>
		<g>
			<circle class="st2" cx="88.77" cy="85.29" r="9.7"/>
		</g>
	</g>
</g>
<g id="Camada_3" class="st0">
</g>
</svg>
