<?xml version="1.0" encoding="utf-8"?>
<!-- Generator: Adobe Illustrator 25.0.0, SVG Export Plug-In . SVG Version: 6.00 Build 0)  -->
<svg version="1.1" xmlns="http://www.w3.org/2000/svg" xmlns:xlink="http://www.w3.org/1999/xlink" x="0px" y="0px"
	 viewBox="0 0 500 335" style="enable-background:new 0 0 500 335;" xml:space="preserve">
<style type="text/css">
	.st0{display:none;}
	.st1{display:inline;fill:#59778E;}
	.st2{fill:#000000;}
	.st3{fill:none;stroke:#000000;stroke-width:2;stroke-miterlimit:10;}
	.st4{display:inline;}
	.st5{clip-path:url(#SVGID_1_);}
	.st6{clip-path:url(#SVGID_3_);}
</style>
<g id="Camada_2" class="st0">
	<rect x="-228" y="-209.5" class="st1" width="2668" height="1089"/>
</g>
<g id="Camada_1">
	<g>
		<path class="st2" d="M498.75,1.09V334H1.25V1.09H498.75 M499.75,0.09H0.25V335h499.5V0.09L499.75,0.09z"/>
	</g>
	<g>
		<path class="st2" d="M418.73,194.43c3.35,2.22,45.73,30.72,45.73,48.27c0,17.55-42.38,46.05-45.73,48.27H303.83v-96.53H418.73
			 M418.98,193.6H303v98.2h115.98c0,0,46.31-30.26,46.31-49.1S418.98,193.6,418.98,193.6L418.98,193.6z"/>
	</g>
	<g>
		<circle class="st2" cx="109.41" cy="64.32" r="10.82"/>
	</g>
	<g>
		<circle class="st2" cx="109.41" cy="133.96" r="10.82"/>
	</g>
	<g>
		<circle class="st2" cx="109.41" cy="161.59" r="10.82"/>
	</g>
	<g>
		<circle class="st2" cx="109.41" cy="217.29" r="10.82"/>
	</g>
	<g>
		<circle class="st2" cx="109.41" cy="243.98" r="10.82"/>
	</g>
	<g>
		<circle class="st2" cx="109.41" cy="270.68" r="10.82"/>
	</g>
	<g>
		<circle class="st2" cx="215.27" cy="64.32" r="10.82"/>
	</g>
	<g>
		<circle class="st2" cx="215.27" cy="133.96" r="10.82"/>
	</g>
	<g>
		<circle class="st2" cx="215.27" cy="161.59" r="10.82"/>
	</g>
	<g>
		<circle class="st2" cx="215.27" cy="217.29" r="10.82"/>
	</g>
	<g>
		<circle class="st2" cx="215.27" cy="243.98" r="10.82"/>
	</g>
	<g>
		<circle class="st2" cx="215.27" cy="270.68" r="10.82"/>
	</g>
	<g>
		<circle class="st2" cx="241.03" cy="64.32" r="10.82"/>
	</g>
	<g>
		<circle class="st2" cx="241.03" cy="133.96" r="10.82"/>
	</g>
	<g>
		<circle class="st2" cx="241.03" cy="161.59" r="10.82"/>
	</g>
	<g>
		<circle class="st2" cx="338.82" cy="64.32" r="10.82"/>
	</g>
	<g>
		<circle class="st2" cx="338.82" cy="133.96" r="10.82"/>
	</g>
	<g>
		<circle class="st2" cx="338.82" cy="161.59" r="10.82"/>
	</g>
	<g>
		<circle class="st2" cx="364.59" cy="64.32" r="10.82"/>
	</g>
	<g>
		<circle class="st2" cx="364.59" cy="133.96" r="10.82"/>
	</g>
	<g>
		<circle class="st2" cx="364.59" cy="161.59" r="10.82"/>
	</g>
	<g>
		<circle class="st2" cx="390.59" cy="64.32" r="10.82"/>
	</g>
	<g>
		<circle class="st2" cx="390.59" cy="133.96" r="10.82"/>
	</g>
	<g>
		<circle class="st2" cx="390.59" cy="161.59" r="10.82"/>
	</g>
	<g>
		<circle class="st2" cx="241.03" cy="217.29" r="10.82"/>
	</g>
	<g>
		<circle class="st2" cx="241.03" cy="243.98" r="10.82"/>
	</g>
	<g>
		<circle class="st2" cx="241.03" cy="270.68" r="10.82"/>
	</g>
</g>
<g id="Camada_3" class="st0">
</g>
</svg>
