<?xml version="1.0" encoding="utf-8"?>
<!-- Generator: Adobe Illustrator 25.0.0, SVG Export Plug-In . SVG Version: 6.00 Build 0)  -->
<svg version="1.1" id="Camada_1" xmlns="http://www.w3.org/2000/svg" xmlns:xlink="http://www.w3.org/1999/xlink" x="0px" y="0px"
	 viewBox="0 0 500 335" style="enable-background:new 0 0 500 335;" xml:space="preserve">
<style type="text/css">
	.st0{display:none;}
	.st1{display:inline;fill:#59778E;}
	.st2{fill:#000000;}
</style>
<g id="Camada_2_1_" class="st0">
	<rect x="-228" y="-209.5" class="st1" width="2668" height="1089"/>
</g>
<g id="Camada_1_1_">
	<g>
		<path class="st2" d="M498.75,1.09V334H1.25V1.09H498.75 M499.75,0.09H0.25V335h499.5V0.09L499.75,0.09z"/>
	</g>
	<g>
		<path class="st2" d="M428.73,212.43c3.35,2.22,45.73,30.72,45.73,48.27s-42.38,46.05-45.73,48.27h-114.9v-96.53L428.73,212.43
			 M428.98,211.6H313v98.2h115.98c0,0,46.31-30.26,46.31-49.1S428.98,211.6,428.98,211.6L428.98,211.6z"/>
	</g>
	<g>
		<g>
			<g>
				<rect x="86.68" y="69.76" class="st2" width="56.47" height="3.95"/>
			</g>
			<g>
				<rect x="112.94" y="43.5" class="st2" width="3.95" height="56.47"/>
			</g>
		</g>
		<g>
			<g>
				<rect x="86.68" y="166.04" class="st2" width="56.47" height="3.95"/>
			</g>
			<g>
				<rect x="121.83" y="139.78" class="st2" width="3.95" height="56.47"/>
			</g>
			<g>
				<rect x="104.13" y="139.78" class="st2" width="3.95" height="56.47"/>
			</g>
		</g>
		<g>
			<g>
				<rect x="86.22" y="261.29" class="st2" width="56.47" height="3.95"/>
			</g>
			<g>
				<g>
					<rect x="129.16" y="235.03" class="st2" width="3.95" height="56.47"/>
				</g>
				<g>
					<rect x="112.48" y="235.03" class="st2" width="3.95" height="56.47"/>
				</g>
				<g>
					<rect x="95.8" y="235.03" class="st2" width="3.95" height="56.47"/>
				</g>
			</g>
		</g>
		<g>
			<g>
				<rect x="221.77" y="156.7" class="st2" width="56.47" height="3.95"/>
			</g>
			<g>
				<rect x="221.77" y="173.72" class="st2" width="56.47" height="3.95"/>
			</g>
			<g>
				<rect x="256.91" y="139.78" class="st2" width="3.95" height="56.47"/>
			</g>
			<g>
				<rect x="239.21" y="139.78" class="st2" width="3.95" height="56.47"/>
			</g>
		</g>
		<g>
			<g>
				<rect x="221.77" y="251.95" class="st2" width="56.47" height="3.95"/>
			</g>
			<g>
				<rect x="221.77" y="268.97" class="st2" width="56.47" height="3.95"/>
			</g>
			<g>
				<rect x="248.06" y="235.03" class="st2" width="3.95" height="56.47"/>
			</g>
			<g>
				<rect x="264.7" y="235.03" class="st2" width="3.95" height="56.47"/>
			</g>
			<g>
				<rect x="230.36" y="235.03" class="st2" width="3.95" height="56.47"/>
			</g>
		</g>
		<g>
			<g>
				<rect x="221.77" y="78.36" class="st2" width="56.47" height="3.95"/>
			</g>
			<g>
				<rect x="221.77" y="61.16" class="st2" width="56.47" height="3.95"/>
			</g>
			<g>
				<rect x="248.02" y="43.5" class="st2" width="3.95" height="56.47"/>
			</g>
		</g>
		<g>
			<g>
				<rect x="355.17" y="68.23" class="st2" width="56.47" height="3.95"/>
			</g>
			<g>
				<rect x="355.17" y="84.03" class="st2" width="56.47" height="3.95"/>
			</g>
			<g>
				<rect x="355.17" y="52.42" class="st2" width="56.47" height="3.95"/>
			</g>
			<g>
				<rect x="381.43" y="43.5" class="st2" width="3.95" height="56.47"/>
			</g>
		</g>
		<g>
			<g>
				<rect x="355.17" y="164.51" class="st2" width="56.47" height="3.95"/>
			</g>
			<g>
				<rect x="355.17" y="180.31" class="st2" width="56.47" height="3.95"/>
			</g>
			<g>
				<rect x="355.17" y="148.7" class="st2" width="56.47" height="3.95"/>
			</g>
			<g>
				<rect x="372.08" y="139.78" class="st2" width="3.95" height="56.47"/>
			</g>
			<g>
				<rect x="391.45" y="139.78" class="st2" width="3.95" height="56.47"/>
			</g>
		</g>
	</g>
</g>
<g id="Camada_3" class="st0">
</g>
</svg>
