<?xml version="1.0" encoding="utf-8"?>
<!-- Generator: Adobe Illustrator 25.0.0, SVG Export Plug-In . SVG Version: 6.00 Build 0)  -->
<svg version="1.1" xmlns="http://www.w3.org/2000/svg" xmlns:xlink="http://www.w3.org/1999/xlink" x="0px" y="0px"
	 viewBox="0 0 173 105" style="enable-background:new 0 0 173 105;" xml:space="preserve">
<style type="text/css">
	.st0{display:none;}
	.st1{display:inline;fill:#59778E;}
	.st2{fill:#000000;}
	.st3{fill:none;stroke:#000000;stroke-width:2;stroke-miterlimit:10;}
	.st4{display:inline;}
	.st5{clip-path:url(#SVGID_1_);}
	.st6{clip-path:url(#SVGID_3_);}
</style>
<g id="Camada_2" class="st0">
	<rect x="-2104.5" y="-209.5" class="st1" width="2668" height="1089"/>
</g>
<g id="Camada_1">
	<path class="st3" d="M123.26,1.98c3.59,2.38,49.09,32.97,49.09,51.81s-45.49,49.43-49.09,51.81H-0.06V1.98H123.26"/>
	<g>
		<g>
			<path class="st2" d="M66.24,55.99c0,0-25.84-1.27-27.4-1.96c-1.56-0.69-8.29-13.78-8.29-13.78s14.1-4.41,15.95-3.6
				C48.35,37.48,66.24,55.99,66.24,55.99z"/>
		</g>
		<g>
			<path class="st2" d="M66.24,55.99c0,0-8.72-24.36-8.68-26.07C57.6,28.23,67.12,17,67.12,17s9.47,11.34,9.43,13.36
				S66.24,55.99,66.24,55.99z"/>
		</g>
		<g>
			<path class="st2" d="M66.24,55.99c0,0,17.7-18.87,19.23-19.62c1.53-0.74,15.86,2.6,15.86,2.6s-5.76,13.6-7.58,14.48
				S66.24,55.99,66.24,55.99z"/>
		</g>
		<g>
			<path class="st2" d="M66.24,55.99c0,0,23.95,9.8,25.19,10.96c1.24,1.17,3.23,15.75,3.23,15.75s-14.76-0.53-16.24-1.91
				C76.96,79.41,66.24,55.99,66.24,55.99z"/>
		</g>
		<g>
			<path class="st2" d="M66.24,55.99c0,0-7.21,24.85-8.24,26.21c-1.03,1.36-15.32,4.88-15.32,4.88s-1.04-14.74,0.18-16.35
				S66.24,55.99,66.24,55.99z"/>
		</g>
	</g>
</g>
<g id="Camada_3" class="st0">
</g>
</svg>
