<?xml version="1.0" encoding="utf-8"?>
<!-- Generator: Adobe Illustrator 25.0.0, SVG Export Plug-In . SVG Version: 6.00 Build 0)  -->
<svg version="1.1" xmlns="http://www.w3.org/2000/svg" xmlns:xlink="http://www.w3.org/1999/xlink" x="0px" y="0px"
	 viewBox="0 0 173 105" style="enable-background:new 0 0 173 105;" xml:space="preserve">
<style type="text/css">
	.st0{display:none;}
	.st1{display:inline;fill:#59778E;}
	.st2{fill:#000000;}
	.st3{fill:none;stroke:#000000;stroke-width:2;stroke-miterlimit:10;}
	.st4{display:inline;}
	.st5{clip-path:url(#SVGID_1_);}
	.st6{clip-path:url(#SVGID_3_);}
</style>
<g id="Camada_2" class="st0">
	<rect x="-911.5" y="-209.5" class="st1" width="2668" height="1089"/>
</g>
<g id="Camada_1">
	<path class="st3" d="M123.62,1.98c3.59,2.38,49.09,32.97,49.09,51.81s-45.49,49.43-49.09,51.81H0.29V1.98H123.62"/>
	<g>
		<g>
			<path class="st2" d="M64.82,54.69c0,0,9.27-23.55,9.24-25.2C74.02,27.85,64.82,17,64.82,17s-9.16,10.96-9.11,12.91
				S64.82,54.69,64.82,54.69z"/>
		</g>
		<g>
			<path class="st2" d="M64.82,54.66c0,0-9.27,23.55-9.24,25.2c0.04,1.65,9.24,12.5,9.24,12.5s9.16-10.96,9.11-12.91
				S64.82,54.66,64.82,54.66z"/>
		</g>
		<g>
			<path class="st2" d="M64.81,54.68c0,0,23.55,9.27,25.2,9.24c1.65-0.04,12.5-9.24,12.5-9.24s-10.96-9.16-12.91-9.11
				S64.81,54.68,64.81,54.68z"/>
		</g>
		<g>
			<path class="st2" d="M64.83,54.68c0,0-23.55-9.27-25.2-9.24c-1.65,0.04-12.5,9.24-12.5,9.24s10.96,9.16,12.91,9.11
				S64.83,54.68,64.83,54.68z"/>
		</g>
	</g>
</g>
<g id="Camada_3" class="st0">
</g>
</svg>
