<?xml version="1.0" encoding="utf-8"?>
<!-- Generator: Adobe Illustrator 25.0.0, SVG Export Plug-In . SVG Version: 6.00 Build 0)  -->
<svg version="1.1" xmlns="http://www.w3.org/2000/svg" xmlns:xlink="http://www.w3.org/1999/xlink" x="0px" y="0px"
	 viewBox="0 0 173 105" style="enable-background:new 0 0 173 105;" xml:space="preserve">
<style type="text/css">
	.st0{display:none;}
	.st1{display:inline;fill:#59778E;}
	.st2{fill:#000000;}
	.st3{fill:none;stroke:#000000;stroke-width:2;stroke-miterlimit:10;}
	.st4{display:inline;}
	.st5{clip-path:url(#SVGID_1_);}
	.st6{clip-path:url(#SVGID_3_);}
</style>
<g id="Camada_2" class="st0">
	<rect x="-1111.5" y="-209.5" class="st1" width="2668" height="1089"/>
</g>
<g id="Camada_1">
	<path class="st3" d="M125.26,1.98c3.59,2.38,49.09,32.97,49.09,51.81s-45.49,49.43-49.09,51.81H1.94V1.98H125.26"/>
	<g>
		<g>
			<path class="st2" d="M75.77,55.99c0,0-25.84-1.27-27.4-1.96c-1.56-0.69-8.29-13.78-8.29-13.78s14.1-4.41,15.95-3.6
				C57.88,37.48,75.77,55.99,75.77,55.99z"/>
		</g>
		<g>
			<path class="st2" d="M75.84,58.48c0,0-9.59-26.85-9.55-28.55C66.32,28.23,75.84,17,75.84,17s9.47,11.34,9.43,13.36
				C85.22,32.37,75.84,58.48,75.84,58.48z"/>
		</g>
		<g>
			<path class="st2" d="M75.77,55.99c0,0,17.7-18.87,19.23-19.62c1.53-0.74,15.86,2.6,15.86,2.6s-5.76,13.6-7.58,14.48
				S75.77,55.99,75.77,55.99z"/>
		</g>
		<g>
			<path class="st2" d="M75.77,78.8c0,0-25.84-1.27-27.4-1.96c-1.56-0.69-8.29-13.78-8.29-13.78s14.1-4.41,15.95-3.6
				C57.88,60.28,75.77,78.8,75.77,78.8z"/>
		</g>
		<g>
			<path class="st2" d="M75.77,78.8c0,0,17.7-18.87,19.23-19.62c1.53-0.74,15.86,2.6,15.86,2.6s-5.76,13.6-7.58,14.48
				S75.77,78.8,75.77,78.8z"/>
		</g>
		<g>
			<rect x="73.73" y="55.71" class="st2" width="4.08" height="29.47"/>
		</g>
	</g>
</g>
<g id="Camada_3" class="st0">
</g>
</svg>
