<?xml version="1.0" encoding="utf-8"?>
<!-- Generator: Adobe Illustrator 25.0.0, SVG Export Plug-In . SVG Version: 6.00 Build 0)  -->
<svg version="1.1" xmlns="http://www.w3.org/2000/svg" xmlns:xlink="http://www.w3.org/1999/xlink" x="0px" y="0px"
	 viewBox="0 0 500 335" style="enable-background:new 0 0 500 335;" xml:space="preserve">
<style type="text/css">
	.st0{display:none;}
	.st1{display:inline;fill:#59778E;}
	.st2{fill:#000000;}
	.st3{fill:none;stroke:#000000;stroke-width:2;stroke-miterlimit:10;}
	.st4{display:inline;}
	.st5{clip-path:url(#SVGID_1_);}
	.st6{clip-path:url(#SVGID_3_);}
</style>
<g id="Camada_2" class="st0">
	<rect x="-228" y="-209.5" class="st1" width="2668" height="1089"/>
</g>
<g id="Camada_1">
	<g>
		<path class="st2" d="M498.75,1.09V334H1.25V1.09H498.75 M499.75,0.09H0.25V335h499.5V0.09L499.75,0.09z"/>
	</g>
	<g>
		<path class="st2" d="M428.73,203.43c3.35,2.22,45.73,30.72,45.73,48.27c0,17.55-42.38,46.05-45.73,48.27H313.83v-96.53H428.73
			 M428.98,202.6H313v98.2h115.98c0,0,46.31-30.26,46.31-49.1S428.98,202.6,428.98,202.6L428.98,202.6z"/>
	</g>
	<g>
		<path class="st2" d="M129.08,95.3c0,0-9.21-24.03-9.21-25.73s9.21-13.07,9.21-13.07s9.67,11.06,9.67,13.07
			S129.08,95.3,129.08,95.3z"/>
	</g>
	<g>
		<g>
			<path class="st2" d="M248.16,95.3c0,0-9.21-24.03-9.21-25.73s9.21-13.07,9.21-13.07s9.67,11.06,9.67,13.07
				S248.16,95.3,248.16,95.3z"/>
		</g>
		<g>
			<path class="st2" d="M248.17,95.3c0,0,18.68-17.71,20.24-18.36c1.57-0.65,15.6,3.51,15.6,3.51s-6.52,13.17-8.37,13.94
				C273.78,95.16,248.17,95.3,248.17,95.3z"/>
		</g>
	</g>
	<g>
		<g>
			<path class="st2" d="M129.54,167.06c0,0,9.21-24.03,9.21-25.73c0-1.7-9.21-13.07-9.21-13.07s-9.67,11.06-9.67,13.07
				C119.87,143.34,129.54,167.06,129.54,167.06z"/>
		</g>
		<g>
			<path class="st2" d="M129.54,167.06c0,0-18.68-17.71-20.24-18.36c-1.57-0.65-15.6,3.51-15.6,3.51s6.52,13.17,8.37,13.94
				C103.92,166.92,129.54,167.06,129.54,167.06z"/>
		</g>
	</g>
	<g>
		<g>
			<path class="st2" d="M370.47,95.3c0,0-9.21-24.03-9.21-25.73s9.21-13.07,9.21-13.07s9.67,11.06,9.67,13.07
				S370.47,95.3,370.47,95.3z"/>
		</g>
		<g>
			<path class="st2" d="M370.46,95.3c0,0,18.68-17.71,20.24-18.36c1.57-0.65,15.6,3.51,15.6,3.51s-6.52,13.17-8.37,13.94
				C396.08,95.16,370.46,95.3,370.46,95.3z"/>
		</g>
		<g>
			<path class="st2" d="M370.46,95.3c0,0,24.28,8.54,25.57,9.64c1.29,1.1,4,15.48,4,15.48s-14.69,0.21-16.23-1.09
				C382.28,118.03,370.46,95.3,370.46,95.3z"/>
		</g>
	</g>
	<g>
		<g>
			<path class="st2" d="M247.16,167.04c0,0-25.71-1.26-27.26-1.95s-8.24-13.7-8.24-13.7s14.02-4.39,15.86-3.58
				C229.36,148.62,247.16,167.04,247.16,167.04z"/>
		</g>
		<g>
			<path class="st2" d="M247.16,167.05c0,0-8.67-24.23-8.63-25.93c0.04-1.69,9.5-12.86,9.5-12.86s9.42,11.28,9.38,13.29
				C257.36,143.55,247.16,167.05,247.16,167.05z"/>
		</g>
		<g>
			<path class="st2" d="M247.16,167.05c0,0,17.61-18.77,19.13-19.51c1.53-0.74,15.78,2.59,15.78,2.59s-5.73,13.53-7.54,14.41
				C272.72,165.4,247.16,167.05,247.16,167.05z"/>
		</g>
	</g>
	<g>
		<g>
			<path class="st2" d="M129.53,244.17c0,0,9.21-24.03,9.21-25.73c0-1.7-9.21-13.07-9.21-13.07s-9.67,11.06-9.67,13.07
				S129.53,244.17,129.53,244.17z"/>
		</g>
		<g>
			<path class="st2" d="M129.54,244.17c0,0-18.68-17.71-20.24-18.36c-1.57-0.65-15.6,3.51-15.6,3.51s6.52,13.17,8.37,13.94
				C103.92,244.03,129.54,244.17,129.54,244.17z"/>
		</g>
		<g>
			<path class="st2" d="M129.54,244.17c0,0-24.28,8.54-25.57,9.64c-1.29,1.1-4,15.48-4,15.48s14.69,0.21,16.22-1.09
				C117.72,266.9,129.54,244.17,129.54,244.17z"/>
		</g>
	</g>
	<g>
		<g>
			<path class="st2" d="M247.45,244.15c0,0-25.71-1.26-27.26-1.95c-1.55-0.68-8.24-13.7-8.24-13.7s14.02-4.39,15.86-3.58
				C229.65,225.74,247.45,244.15,247.45,244.15z"/>
		</g>
		<g>
			<path class="st2" d="M247.45,244.16c0,0-8.67-24.23-8.63-25.93c0.04-1.69,9.5-12.86,9.5-12.86s9.42,11.28,9.38,13.29
				C257.66,220.66,247.45,244.16,247.45,244.16z"/>
		</g>
		<g>
			<path class="st2" d="M247.45,244.16c0,0,17.61-18.77,19.13-19.51c1.53-0.74,15.78,2.59,15.78,2.59s-5.73,13.53-7.54,14.41
				S247.45,244.16,247.45,244.16z"/>
		</g>
		<g>
			<path class="st2" d="M247.45,244.15c0,0-7.17,24.72-8.19,26.07c-1.02,1.35-15.24,4.85-15.24,4.85s-1.03-14.66,0.18-16.26
				C225.42,257.22,247.45,244.15,247.45,244.15z"/>
		</g>
	</g>
	<g>
		<g>
			<path class="st2" d="M370.17,167.04c0,0,25.71-1.26,27.26-1.95s8.24-13.7,8.24-13.7s-14.02-4.39-15.86-3.58
				C387.97,148.62,370.17,167.04,370.17,167.04z"/>
		</g>
		<g>
			<path class="st2" d="M370.17,167.05c0,0,8.67-24.23,8.63-25.93c-0.04-1.69-9.5-12.86-9.5-12.86s-9.42,11.28-9.38,13.29
				C359.96,143.55,370.17,167.05,370.17,167.05z"/>
		</g>
		<g>
			<path class="st2" d="M370.17,167.05c0,0-17.61-18.77-19.13-19.51c-1.53-0.74-15.78,2.59-15.78,2.59s5.73,13.53,7.54,14.41
				C344.61,165.4,370.17,167.05,370.17,167.05z"/>
		</g>
		<g>
			<path class="st2" d="M370.17,167.04c0,0,7.17,24.72,8.19,26.07c1.02,1.35,15.24,4.85,15.24,4.85s1.03-14.66-0.18-16.26
				C392.2,180.11,370.17,167.04,370.17,167.04z"/>
		</g>
	</g>
</g>
<g id="Camada_3" class="st0">
</g>
</svg>
