<?xml version="1.0" encoding="utf-8"?>
<!-- Generator: Adobe Illustrator 25.0.0, SVG Export Plug-In . SVG Version: 6.00 Build 0)  -->
<svg version="1.1" id="Camada_1" xmlns="http://www.w3.org/2000/svg" xmlns:xlink="http://www.w3.org/1999/xlink" x="0px" y="0px"
	 viewBox="0 0 500 335" style="enable-background:new 0 0 500 335;" xml:space="preserve">
<style type="text/css">
	.st0{display:none;}
	.st1{display:inline;fill:#59778E;}
	.st2{fill:#000000;}
</style>
<g id="Camada_2_1_" class="st0">
	<rect x="-228" y="-209.5" class="st1" width="2668" height="1089"/>
</g>
<g id="Camada_1_1_">
	<g>
		<path class="st2" d="M498.75,1.09V334H1.25V1.09H498.75 M499.75,0.09H0.25V335h499.5V0.09L499.75,0.09z"/>
	</g>
	<g>
		<path class="st2" d="M428.73,203.43c3.35,2.22,45.73,30.72,45.73,48.27s-42.38,46.05-45.73,48.27h-114.9v-96.53h114.9
			 M428.98,202.6H313v98.2h115.98c0,0,46.31-30.26,46.31-49.1S428.98,202.6,428.98,202.6L428.98,202.6z"/>
	</g>
	<g>
		<g>
			<rect x="72" y="75.73" class="st2" width="64.16" height="23.26"/>
		</g>
		<g>
			<rect x="113.26" y="33.36" class="st2" width="22.9" height="65.62"/>
		</g>
		<g>
			<rect x="225.89" y="75.73" class="st2" width="44.32" height="23.26"/>
		</g>
		<g>
			<rect x="247.31" y="33.36" class="st2" width="22.9" height="65.62"/>
		</g>
		<g>
			<rect x="373.13" y="33.36" class="st2" width="22.9" height="65.62"/>
		</g>
		<g>
			<rect x="72" y="159.35" class="st2" width="64.16" height="23.26"/>
		</g>
		<g>
			<rect x="72" y="254.38" class="st2" width="64.16" height="23.26"/>
		</g>
		<g>
			<rect x="113.26" y="139.31" class="st2" width="22.9" height="43.29"/>
		</g>
		<g>
			<rect x="225.89" y="159.35" class="st2" width="44.32" height="23.26"/>
		</g>
		<g>
			<rect x="225.89" y="254.38" class="st2" width="44.32" height="23.26"/>
		</g>
		<g>
			<rect x="247.31" y="139.31" class="st2" width="22.9" height="43.29"/>
		</g>
		<g>
			<rect x="373.13" y="139.31" class="st2" width="22.9" height="43.29"/>
		</g>
	</g>
</g>
<g id="Camada_3" class="st0">
</g>
</svg>
